# Blender 4.5.3 LTS
# www.blender.org
mtllib amplificador.mtl
o Cube
v 1.679859 5.053537 0.676352
v 1.679859 0.225134 0.676352
v -1.679859 5.053537 0.676352
v -1.679859 0.225134 0.676352
v 1.679859 5.053537 -0.676352
v 1.679859 0.225134 -0.676352
v -1.679859 5.053537 -0.676352
v -1.679859 0.225134 -0.676352
v 1.679859 0.225134 0.000000
v -1.679859 5.053537 0.000000
v -1.679859 0.225134 0.000000
v 1.679859 5.053537 0.000000
v 1.679859 0.225134 -0.518176
v -1.679859 5.053537 -0.518176
v -1.679859 0.225134 -0.518176
v 1.679859 5.053537 -0.518176
v -1.679859 0.225134 0.518176
v 1.679859 5.053537 0.518176
v 1.679859 0.225134 0.518176
v -1.679859 5.053537 0.518176
vn -0.0000 1.0000 -0.0000
vn -1.0000 -0.0000 -0.0000
vn -0.0000 -0.0000 -1.0000
vn -0.0000 -1.0000 -0.0000
vn -0.0000 -0.0000 1.0000
vn 1.0000 -0.0000 -0.0000
vt 0.812500 0.500000
vt 0.875000 0.500000
vt 0.875000 0.750000
vt 0.812500 0.750000
vt 0.375000 0.937500
vt 0.625000 0.937500
vt 0.625000 1.000000
vt 0.375000 1.000000
vt 0.375000 0.000000
vt 0.625000 0.000000
vt 0.625000 0.250000
vt 0.375000 0.250000
vt 0.312500 0.500000
vt 0.375000 0.500000
vt 0.375000 0.750000
vt 0.312500 0.750000
vt 0.824480 0.124043
vt 0.824480 0.861204
vt 0.184154 0.861204
vt 0.184154 0.124043
vt 0.375000 0.437500
vt 0.625000 0.437500
vt 0.625000 0.500000
vt 0.375000 0.312500
vt 0.625000 0.312500
vt 0.625000 0.375000
vt 0.375000 0.375000
vt 0.187500 0.500000
vt 0.250000 0.500000
vt 0.250000 0.750000
vt 0.187500 0.750000
vt 0.375000 0.812500
vt 0.625000 0.812500
vt 0.625000 0.875000
vt 0.375000 0.875000
vt 0.687500 0.500000
vt 0.750000 0.500000
vt 0.750000 0.750000
vt 0.687500 0.750000
vt 0.125000 0.500000
vt 0.125000 0.750000
vt 0.625000 0.750000
s 0
usemtl Material
f 2/17/5 1/18/5 3/19/5 4/20/5
usemtl lt1
f 13/24/6 16/25/6 12/26/6 9/27/6
f 13/28/4 9/29/4 11/30/4 15/31/4
f 17/32/2 20/33/2 10/34/2 11/35/2
f 18/36/1 12/37/1 10/38/1 20/39/1
f 11/35/2 10/34/2 14/6/2 15/5/2
f 12/37/1 16/1/1 14/4/1 10/38/1
f 9/27/6 12/26/6 18/22/6 19/21/6
f 9/29/4 19/13/4 17/16/4 11/30/4
usemtl lt2
f 16/1/1 5/2/1 7/3/1 14/4/1
f 15/5/2 14/6/2 7/7/2 8/8/2
f 8/9/3 7/10/3 5/11/3 6/12/3
f 19/13/4 2/14/4 4/15/4 17/16/4
f 19/21/6 18/22/6 1/23/6 2/14/6
f 6/40/4 13/28/4 15/31/4 8/41/4
f 6/12/6 5/11/6 16/25/6 13/24/6
f 1/23/1 18/36/1 20/39/1 3/42/1
f 4/15/2 3/42/2 20/33/2 17/32/2
o Cube.002
v -0.950000 4.895903 -0.550000
v -0.950000 5.568730 -0.550000
v -0.850000 4.895903 -0.550000
v -0.850000 5.568730 -0.550000
v -0.950000 4.895903 -0.450000
v -0.950000 5.568730 -0.450000
v -0.850000 4.895903 -0.450000
v -0.850000 5.568730 -0.450000
vn -0.0000 -0.0000 -1.0000
vn 1.0000 -0.0000 -0.0000
vn -0.0000 -0.0000 1.0000
vn -1.0000 -0.0000 -0.0000
vn -0.0000 -1.0000 -0.0000
vn -0.0000 1.0000 -0.0000
vt 0.375000 0.000000
vt 0.625000 0.000000
vt 0.625000 0.250000
vt 0.375000 0.250000
vt 0.625000 0.500000
vt 0.375000 0.500000
vt 0.625000 0.750000
vt 0.375000 0.750000
vt 0.625000 1.000000
vt 0.375000 1.000000
vt 0.125000 0.500000
vt 0.125000 0.750000
vt 0.875000 0.500000
vt 0.875000 0.750000
s 0
usemtl negro
f 21/43/7 22/44/7 24/45/7 23/46/7
f 23/46/8 24/45/8 28/47/8 27/48/8
f 27/48/9 28/47/9 26/49/9 25/50/9
f 25/50/10 26/49/10 22/51/10 21/52/10
f 23/53/11 27/48/11 25/50/11 21/54/11
f 28/47/12 24/55/12 22/56/12 26/49/12
o Cube.009
v -1.189446 5.355073 -0.596322
v -1.189446 6.770079 -0.596322
v 1.189446 5.355073 -0.596322
v 1.189446 6.770079 -0.596322
v -1.189446 5.355073 0.452550
v -1.189446 6.770079 -0.314237
v 1.189446 5.355073 0.452550
v 1.189446 6.770079 -0.314237
vn -0.0000 -0.0000 -1.0000
vn 1.0000 -0.0000 -0.0000
vn -0.0000 0.4764 0.8792
vn -1.0000 -0.0000 -0.0000
vn -0.0000 -1.0000 -0.0000
vn -0.0000 1.0000 -0.0000
vt 0.375000 0.000000
vt 0.625000 0.000000
vt 0.625000 0.250000
vt 0.375000 0.250000
vt 0.625000 0.500000
vt 0.375000 0.500000
vt 0.222827 0.140629
vt 0.785806 0.140629
vt 0.785806 0.723752
vt 0.222827 0.723752
vt 0.375000 0.750000
vt 0.625000 0.750000
vt 0.625000 1.000000
vt 0.375000 1.000000
vt 0.125000 0.500000
vt 0.125000 0.750000
vt 0.875000 0.500000
vt 0.875000 0.750000
s 0
usemtl Material
f 35/63/15 36/64/15 34/65/15 33/66/15
usemtl body
f 29/57/13 30/58/13 32/59/13 31/60/13
f 31/60/14 32/59/14 36/61/14 35/62/14
f 33/67/16 34/68/16 30/69/16 29/70/16
f 31/71/17 35/62/17 33/67/17 29/72/17
f 36/61/18 32/73/18 30/74/18 34/68/18
o Cube.003
v 0.850000 4.895903 -0.550000
v 0.850000 5.568730 -0.550000
v 0.950000 4.895903 -0.550000
v 0.950000 5.568730 -0.550000
v 0.850000 4.895903 -0.450000
v 0.850000 5.568730 -0.450000
v 0.950000 4.895903 -0.450000
v 0.950000 5.568730 -0.450000
vn -0.0000 -0.0000 -1.0000
vn 1.0000 -0.0000 -0.0000
vn -0.0000 -0.0000 1.0000
vn -1.0000 -0.0000 -0.0000
vn -0.0000 -1.0000 -0.0000
vn -0.0000 1.0000 -0.0000
vt 0.375000 0.000000
vt 0.625000 0.000000
vt 0.625000 0.250000
vt 0.375000 0.250000
vt 0.625000 0.500000
vt 0.375000 0.500000
vt 0.625000 0.750000
vt 0.375000 0.750000
vt 0.625000 1.000000
vt 0.375000 1.000000
vt 0.125000 0.500000
vt 0.125000 0.750000
vt 0.875000 0.500000
vt 0.875000 0.750000
s 0
usemtl negro
f 37/75/19 38/76/19 40/77/19 39/78/19
f 39/78/20 40/77/20 44/79/20 43/80/20
f 43/80/21 44/79/21 42/81/21 41/82/21
f 41/82/22 42/81/22 38/83/22 37/84/22
f 39/85/23 43/80/23 41/82/23 37/86/23
f 44/79/24 40/87/24 38/88/24 42/81/24
o Cube.004
v 0.850000 4.892331 0.309177
v 0.850000 5.554937 0.192342
v 0.950000 4.892331 0.309177
v 0.950000 5.554937 0.192342
v 0.850000 4.909696 0.407658
v 0.850000 5.572302 0.290823
v 0.950000 4.909696 0.407658
v 0.950000 5.572302 0.290823
vn -0.0000 -0.1736 -0.9848
vn 1.0000 -0.0000 -0.0000
vn -0.0000 0.1736 0.9848
vn -1.0000 -0.0000 -0.0000
vn -0.0000 -0.9848 0.1736
vn -0.0000 0.9848 -0.1736
vt 0.375000 0.000000
vt 0.625000 0.000000
vt 0.625000 0.250000
vt 0.375000 0.250000
vt 0.625000 0.500000
vt 0.375000 0.500000
vt 0.625000 0.750000
vt 0.375000 0.750000
vt 0.625000 1.000000
vt 0.375000 1.000000
vt 0.125000 0.500000
vt 0.125000 0.750000
vt 0.875000 0.500000
vt 0.875000 0.750000
s 0
usemtl negro
f 45/89/25 46/90/25 48/91/25 47/92/25
f 47/92/26 48/91/26 52/93/26 51/94/26
f 51/94/27 52/93/27 50/95/27 49/96/27
f 49/96/28 50/95/28 46/97/28 45/98/28
f 47/99/29 51/94/29 49/96/29 45/100/29
f 52/93/30 48/101/30 46/102/30 50/95/30
o Cube.005
v -0.950000 4.892331 0.309177
v -0.950000 5.554937 0.192342
v -0.850000 4.892331 0.309177
v -0.850000 5.554937 0.192342
v -0.950000 4.909696 0.407658
v -0.950000 5.572302 0.290823
v -0.850000 4.909696 0.407658
v -0.850000 5.572302 0.290823
vn -0.0000 -0.1736 -0.9848
vn 1.0000 -0.0000 -0.0000
vn -0.0000 0.1736 0.9848
vn -1.0000 -0.0000 -0.0000
vn -0.0000 -0.9848 0.1736
vn -0.0000 0.9848 -0.1736
vt 0.375000 0.000000
vt 0.625000 0.000000
vt 0.625000 0.250000
vt 0.375000 0.250000
vt 0.625000 0.500000
vt 0.375000 0.500000
vt 0.625000 0.750000
vt 0.375000 0.750000
vt 0.625000 1.000000
vt 0.375000 1.000000
vt 0.125000 0.500000
vt 0.125000 0.750000
vt 0.875000 0.500000
vt 0.875000 0.750000
s 0
usemtl negro
f 53/103/31 54/104/31 56/105/31 55/106/31
f 55/106/32 56/105/32 60/107/32 59/108/32
f 59/108/33 60/107/33 58/109/33 57/110/33
f 57/110/34 58/109/34 54/111/34 53/112/34
f 55/113/35 59/108/35 57/110/35 53/114/35
f 60/107/36 56/115/36 54/116/36 58/109/36
o Cube.001
v -1.450000 -0.417473 0.509177
v -1.450000 0.245133 0.392342
v -1.350000 -0.417473 0.509177
v -1.350000 0.245133 0.392342
v -1.450000 -0.400109 0.607658
v -1.450000 0.262498 0.490823
v -1.350000 -0.400109 0.607658
v -1.350000 0.262498 0.490823
vn -0.0000 -0.1736 -0.9848
vn 1.0000 -0.0000 -0.0000
vn -0.0000 0.1736 0.9848
vn -1.0000 -0.0000 -0.0000
vn -0.0000 -0.9848 0.1736
vn -0.0000 0.9848 -0.1736
vt 0.375000 0.000000
vt 0.625000 0.000000
vt 0.625000 0.250000
vt 0.375000 0.250000
vt 0.625000 0.500000
vt 0.375000 0.500000
vt 0.625000 0.750000
vt 0.375000 0.750000
vt 0.625000 1.000000
vt 0.375000 1.000000
vt 0.125000 0.500000
vt 0.125000 0.750000
vt 0.875000 0.500000
vt 0.875000 0.750000
s 0
usemtl negro
f 61/117/37 62/118/37 64/119/37 63/120/37
f 63/120/38 64/119/38 68/121/38 67/122/38
f 67/122/39 68/121/39 66/123/39 65/124/39
f 65/124/40 66/123/40 62/125/40 61/126/40
f 63/127/41 67/122/41 65/124/41 61/128/41
f 68/121/42 64/129/42 62/130/42 66/123/42
o Cube.006
v 1.350000 -0.417473 0.509177
v 1.350000 0.245133 0.392342
v 1.450000 -0.417473 0.509177
v 1.450000 0.245133 0.392342
v 1.350000 -0.400109 0.607658
v 1.350000 0.262498 0.490823
v 1.450000 -0.400109 0.607658
v 1.450000 0.262498 0.490823
vn -0.0000 -0.1736 -0.9848
vn 1.0000 -0.0000 -0.0000
vn -0.0000 0.1736 0.9848
vn -1.0000 -0.0000 -0.0000
vn -0.0000 -0.9848 0.1736
vn -0.0000 0.9848 -0.1736
vt 0.375000 0.000000
vt 0.625000 0.000000
vt 0.625000 0.250000
vt 0.375000 0.250000
vt 0.625000 0.500000
vt 0.375000 0.500000
vt 0.625000 0.750000
vt 0.375000 0.750000
vt 0.625000 1.000000
vt 0.375000 1.000000
vt 0.125000 0.500000
vt 0.125000 0.750000
vt 0.875000 0.500000
vt 0.875000 0.750000
s 0
usemtl negro
f 69/131/43 70/132/43 72/133/43 71/134/43
f 71/134/44 72/133/44 76/135/44 75/136/44
f 75/136/45 76/135/45 74/137/45 73/138/45
f 73/138/46 74/137/46 70/139/46 69/140/46
f 71/141/47 75/136/47 73/138/47 69/142/47
f 76/135/48 72/143/48 70/144/48 74/137/48
o Cube.007
v 1.350000 -0.413902 -0.550000
v 1.350000 0.258926 -0.550000
v 1.450000 -0.413902 -0.550000
v 1.450000 0.258926 -0.550000
v 1.350000 -0.413902 -0.450000
v 1.350000 0.258926 -0.450000
v 1.450000 -0.413902 -0.450000
v 1.450000 0.258926 -0.450000
vn -0.0000 -0.0000 -1.0000
vn 1.0000 -0.0000 -0.0000
vn -0.0000 -0.0000 1.0000
vn -1.0000 -0.0000 -0.0000
vn -0.0000 -1.0000 -0.0000
vn -0.0000 1.0000 -0.0000
vt 0.375000 0.000000
vt 0.625000 0.000000
vt 0.625000 0.250000
vt 0.375000 0.250000
vt 0.625000 0.500000
vt 0.375000 0.500000
vt 0.625000 0.750000
vt 0.375000 0.750000
vt 0.625000 1.000000
vt 0.375000 1.000000
vt 0.125000 0.500000
vt 0.125000 0.750000
vt 0.875000 0.500000
vt 0.875000 0.750000
s 0
usemtl negro
f 77/145/49 78/146/49 80/147/49 79/148/49
f 79/148/50 80/147/50 84/149/50 83/150/50
f 83/150/51 84/149/51 82/151/51 81/152/51
f 81/152/52 82/151/52 78/153/52 77/154/52
f 79/155/53 83/150/53 81/152/53 77/156/53
f 84/149/54 80/157/54 78/158/54 82/151/54
o Cube.008
v -1.450000 -0.413902 -0.550000
v -1.450000 0.258926 -0.550000
v -1.350000 -0.413902 -0.550000
v -1.350000 0.258926 -0.550000
v -1.450000 -0.413902 -0.450000
v -1.450000 0.258926 -0.450000
v -1.350000 -0.413902 -0.450000
v -1.350000 0.258926 -0.450000
vn -0.0000 -0.0000 -1.0000
vn 1.0000 -0.0000 -0.0000
vn -0.0000 -0.0000 1.0000
vn -1.0000 -0.0000 -0.0000
vn -0.0000 -1.0000 -0.0000
vn -0.0000 1.0000 -0.0000
vt 0.375000 0.000000
vt 0.625000 0.000000
vt 0.625000 0.250000
vt 0.375000 0.250000
vt 0.625000 0.500000
vt 0.375000 0.500000
vt 0.625000 0.750000
vt 0.375000 0.750000
vt 0.625000 1.000000
vt 0.375000 1.000000
vt 0.125000 0.500000
vt 0.125000 0.750000
vt 0.875000 0.500000
vt 0.875000 0.750000
s 0
usemtl negro
f 85/159/55 86/160/55 88/161/55 87/162/55
f 87/162/56 88/161/56 92/163/56 91/164/56
f 91/164/57 92/163/57 90/165/57 89/166/57
f 89/166/58 90/165/58 86/167/58 85/168/58
f 87/169/59 91/164/59 89/166/59 85/170/59
f 92/163/60 88/171/60 86/172/60 90/165/60
o Circle
v 0.591261 6.614623 -0.518388
v 0.459870 6.614623 -0.518388
v 0.459870 6.614623 -0.354148
v 0.591261 6.614623 -0.354148
v 0.579900 6.729972 -0.518388
v 0.451034 6.704339 -0.518388
v 0.451034 6.704339 -0.354148
v 0.579900 6.729972 -0.354148
v 0.546254 6.840889 -0.518388
v 0.424864 6.790607 -0.518388
v 0.424864 6.790607 -0.354148
v 0.546254 6.840889 -0.354148
v 0.491616 6.943110 -0.518388
v 0.382368 6.870113 -0.518388
v 0.382368 6.870113 -0.354148
v 0.491616 6.943110 -0.354148
v 0.418085 7.032708 -0.518388
v 0.325177 6.939800 -0.518388
v 0.325177 6.939800 -0.354148
v 0.418085 7.032708 -0.354148
v 0.328487 7.106239 -0.518388
v 0.255490 6.996991 -0.518388
v 0.255490 6.996991 -0.354148
v 0.328487 7.106239 -0.354148
v 0.226266 7.160877 -0.518388
v 0.175985 7.039487 -0.518388
v 0.175985 7.039487 -0.354148
v 0.226266 7.160877 -0.354148
v 0.115349 7.194523 -0.518388
v 0.089716 7.065657 -0.518388
v 0.089716 7.065657 -0.354148
v 0.115349 7.194523 -0.354148
v 0.000000 7.205884 -0.518388
v -0.000000 7.074493 -0.518388
v -0.000000 7.074493 -0.354148
v 0.000000 7.205884 -0.354148
v -0.115349 7.194523 -0.518388
v -0.089716 7.065657 -0.518388
v -0.089716 7.065657 -0.354148
v -0.115349 7.194523 -0.354148
v -0.226266 7.160877 -0.518388
v -0.175985 7.039487 -0.518388
v -0.175985 7.039487 -0.354148
v -0.226266 7.160877 -0.354148
v -0.328487 7.106239 -0.518388
v -0.255490 6.996991 -0.518388
v -0.255490 6.996991 -0.354148
v -0.328487 7.106239 -0.354148
v -0.418085 7.032708 -0.518388
v -0.325177 6.939800 -0.518388
v -0.325177 6.939800 -0.354148
v -0.418085 7.032708 -0.354148
v -0.491616 6.943110 -0.518388
v -0.382368 6.870113 -0.518388
v -0.382368 6.870113 -0.354148
v -0.491616 6.943110 -0.354148
v -0.546254 6.840889 -0.518388
v -0.424864 6.790607 -0.518388
v -0.424864 6.790607 -0.354148
v -0.546254 6.840889 -0.354148
v -0.579900 6.729972 -0.518388
v -0.451034 6.704339 -0.518388
v -0.451034 6.704339 -0.354148
v -0.579900 6.729972 -0.354148
v -0.591261 6.614623 -0.518388
v -0.459870 6.614623 -0.518388
v -0.459870 6.614623 -0.354148
v -0.591261 6.614623 -0.354148
v -0.579900 6.499274 -0.518388
v -0.451034 6.524907 -0.518388
v -0.451034 6.524907 -0.354148
v -0.579900 6.499274 -0.354148
v -0.546254 6.388357 -0.518388
v -0.424864 6.438639 -0.518388
v -0.424864 6.438639 -0.354148
v -0.546254 6.388357 -0.354148
v -0.491616 6.286136 -0.518388
v -0.382368 6.359133 -0.518388
v -0.382368 6.359133 -0.354148
v -0.491616 6.286136 -0.354148
v -0.418085 6.196538 -0.518388
v -0.325177 6.289446 -0.518388
v -0.325177 6.289446 -0.354148
v -0.418085 6.196538 -0.354148
v -0.328487 6.123007 -0.518388
v -0.255490 6.232255 -0.518388
v -0.255490 6.232255 -0.354148
v -0.328487 6.123007 -0.354148
v -0.226266 6.068369 -0.518388
v -0.175985 6.189759 -0.518388
v -0.175985 6.189759 -0.354148
v -0.226266 6.068369 -0.354148
v -0.115349 6.034723 -0.518388
v -0.089716 6.163589 -0.518388
v -0.089716 6.163589 -0.354148
v -0.115349 6.034723 -0.354148
v -0.000000 6.023362 -0.518388
v 0.000000 6.154753 -0.518388
v 0.000000 6.154753 -0.354148
v -0.000000 6.023362 -0.354148
v 0.115349 6.034723 -0.518388
v 0.089716 6.163589 -0.518388
v 0.089716 6.163589 -0.354148
v 0.115349 6.034723 -0.354148
v 0.226266 6.068369 -0.518388
v 0.175985 6.189759 -0.518388
v 0.175985 6.189759 -0.354148
v 0.226266 6.068369 -0.354148
v 0.328487 6.123007 -0.518388
v 0.255490 6.232255 -0.518388
v 0.255490 6.232255 -0.354148
v 0.328487 6.123007 -0.354148
v 0.418085 6.196538 -0.518388
v 0.325177 6.289446 -0.518388
v 0.325177 6.289446 -0.354148
v 0.418085 6.196538 -0.354148
v 0.491616 6.286136 -0.518388
v 0.382368 6.359133 -0.518388
v 0.382368 6.359133 -0.354148
v 0.491616 6.286136 -0.354148
v 0.546254 6.388357 -0.518388
v 0.424864 6.438639 -0.518388
v 0.424864 6.438639 -0.354148
v 0.546254 6.388357 -0.354148
v 0.579900 6.499274 -0.518388
v 0.451034 6.524907 -0.518388
v 0.451034 6.524907 -0.354148
v 0.579900 6.499274 -0.354148
vn -0.0000 -0.0000 -1.0000
vn -0.9952 -0.0980 -0.0000
vn -0.0000 -0.0000 1.0000
vn 0.9952 0.0980 -0.0000
vn -0.9569 -0.2903 -0.0000
vn 0.9569 0.2903 -0.0000
vn -0.8819 -0.4714 -0.0000
vn 0.8819 0.4714 -0.0000
vn -0.7730 -0.6344 -0.0000
vn 0.7730 0.6344 -0.0000
vn -0.6344 -0.7730 -0.0000
vn 0.6344 0.7730 -0.0000
vn -0.4714 -0.8819 -0.0000
vn 0.4714 0.8819 -0.0000
vn -0.2903 -0.9569 -0.0000
vn 0.2903 0.9569 -0.0000
vn -0.0980 -0.9952 -0.0000
vn 0.0980 0.9952 -0.0000
vn 0.0980 -0.9952 -0.0000
vn -0.0980 0.9952 -0.0000
vn 0.2903 -0.9569 -0.0000
vn -0.2903 0.9569 -0.0000
vn 0.4714 -0.8819 -0.0000
vn -0.4714 0.8819 -0.0000
vn 0.6344 -0.7730 -0.0000
vn -0.6344 0.7730 -0.0000
vn 0.7730 -0.6344 -0.0000
vn -0.7730 0.6344 -0.0000
vn 0.8819 -0.4714 -0.0000
vn -0.8819 0.4714 -0.0000
vn 0.9569 -0.2903 -0.0000
vn -0.9569 0.2903 -0.0000
vn 0.9952 -0.0980 -0.0000
vn -0.9952 0.0980 -0.0000
s 0
usemtl negro
f 93//61 94//61 98//61 97//61
f 94//62 95//62 99//62 98//62
f 95//63 96//63 100//63 99//63
f 96//64 93//64 97//64 100//64
f 97//61 98//61 102//61 101//61
f 98//65 99//65 103//65 102//65
f 99//63 100//63 104//63 103//63
f 100//66 97//66 101//66 104//66
f 101//61 102//61 106//61 105//61
f 102//67 103//67 107//67 106//67
f 103//63 104//63 108//63 107//63
f 104//68 101//68 105//68 108//68
f 105//61 106//61 110//61 109//61
f 106//69 107//69 111//69 110//69
f 107//63 108//63 112//63 111//63
f 108//70 105//70 109//70 112//70
f 109//61 110//61 114//61 113//61
f 110//71 111//71 115//71 114//71
f 111//63 112//63 116//63 115//63
f 112//72 109//72 113//72 116//72
f 113//61 114//61 118//61 117//61
f 114//73 115//73 119//73 118//73
f 115//63 116//63 120//63 119//63
f 116//74 113//74 117//74 120//74
f 117//61 118//61 122//61 121//61
f 118//75 119//75 123//75 122//75
f 119//63 120//63 124//63 123//63
f 120//76 117//76 121//76 124//76
f 121//61 122//61 126//61 125//61
f 122//77 123//77 127//77 126//77
f 123//63 124//63 128//63 127//63
f 124//78 121//78 125//78 128//78
f 125//61 126//61 130//61 129//61
f 126//79 127//79 131//79 130//79
f 127//63 128//63 132//63 131//63
f 128//80 125//80 129//80 132//80
f 129//61 130//61 134//61 133//61
f 130//81 131//81 135//81 134//81
f 131//63 132//63 136//63 135//63
f 132//82 129//82 133//82 136//82
f 133//61 134//61 138//61 137//61
f 134//83 135//83 139//83 138//83
f 135//63 136//63 140//63 139//63
f 136//84 133//84 137//84 140//84
f 137//61 138//61 142//61 141//61
f 138//85 139//85 143//85 142//85
f 139//63 140//63 144//63 143//63
f 140//86 137//86 141//86 144//86
f 141//61 142//61 146//61 145//61
f 142//87 143//87 147//87 146//87
f 143//63 144//63 148//63 147//63
f 144//88 141//88 145//88 148//88
f 145//61 146//61 150//61 149//61
f 146//89 147//89 151//89 150//89
f 147//63 148//63 152//63 151//63
f 148//90 145//90 149//90 152//90
f 149//61 150//61 154//61 153//61
f 150//91 151//91 155//91 154//91
f 151//63 152//63 156//63 155//63
f 152//92 149//92 153//92 156//92
f 153//61 154//61 158//61 157//61
f 154//93 155//93 159//93 158//93
f 155//63 156//63 160//63 159//63
f 156//94 153//94 157//94 160//94
f 157//61 158//61 162//61 161//61
f 158//64 159//64 163//64 162//64
f 159//63 160//63 164//63 163//63
f 160//62 157//62 161//62 164//62
f 161//61 162//61 166//61 165//61
f 162//66 163//66 167//66 166//66
f 163//63 164//63 168//63 167//63
f 164//65 161//65 165//65 168//65
f 165//61 166//61 170//61 169//61
f 166//68 167//68 171//68 170//68
f 167//63 168//63 172//63 171//63
f 168//67 165//67 169//67 172//67
f 169//61 170//61 174//61 173//61
f 170//70 171//70 175//70 174//70
f 171//63 172//63 176//63 175//63
f 172//69 169//69 173//69 176//69
f 173//61 174//61 178//61 177//61
f 174//72 175//72 179//72 178//72
f 175//63 176//63 180//63 179//63
f 176//71 173//71 177//71 180//71
f 177//61 178//61 182//61 181//61
f 178//74 179//74 183//74 182//74
f 179//63 180//63 184//63 183//63
f 180//73 177//73 181//73 184//73
f 181//61 182//61 186//61 185//61
f 182//76 183//76 187//76 186//76
f 183//63 184//63 188//63 187//63
f 184//75 181//75 185//75 188//75
f 185//61 186//61 190//61 189//61
f 186//78 187//78 191//78 190//78
f 187//63 188//63 192//63 191//63
f 188//77 185//77 189//77 192//77
f 189//61 190//61 194//61 193//61
f 190//80 191//80 195//80 194//80
f 191//63 192//63 196//63 195//63
f 192//79 189//79 193//79 196//79
f 193//61 194//61 198//61 197//61
f 194//82 195//82 199//82 198//82
f 195//63 196//63 200//63 199//63
f 196//81 193//81 197//81 200//81
f 197//61 198//61 202//61 201//61
f 198//84 199//84 203//84 202//84
f 199//63 200//63 204//63 203//63
f 200//83 197//83 201//83 204//83
f 201//61 202//61 206//61 205//61
f 202//86 203//86 207//86 206//86
f 203//63 204//63 208//63 207//63
f 204//85 201//85 205//85 208//85
f 205//61 206//61 210//61 209//61
f 206//88 207//88 211//88 210//88
f 207//63 208//63 212//63 211//63
f 208//87 205//87 209//87 212//87
f 209//61 210//61 214//61 213//61
f 210//90 211//90 215//90 214//90
f 211//63 212//63 216//63 215//63
f 212//89 209//89 213//89 216//89
f 213//61 214//61 218//61 217//61
f 214//92 215//92 219//92 218//92
f 215//63 216//63 220//63 219//63
f 216//91 213//91 217//91 220//91
f 217//61 218//61 94//61 93//61
f 218//94 219//94 95//94 94//94
f 219//63 220//63 96//63 95//63
f 220//93 217//93 93//93 96//93
