# Blender 4.5.3 LTS
# www.blender.org
mtllib foco3.mtl
o Cylinder
v 1.000000 -1.633354 0.000000
v 1.000000 1.633354 0.000000
v 0.980785 -1.633354 0.195090
v 0.980785 1.633354 0.195090
v 0.923880 -1.633354 0.382683
v 0.923880 1.633354 0.382683
v 0.831470 -1.633354 0.555570
v 0.831470 1.633354 0.555570
v 0.707107 -1.633354 0.707107
v 0.707107 1.633354 0.707107
v 0.555570 -1.633354 0.831470
v 0.555570 1.633354 0.831470
v 0.382683 -1.633354 0.923880
v 0.382683 1.633354 0.923880
v 0.195090 -1.633354 0.980785
v 0.195090 1.633354 0.980785
v 0.000000 -1.633354 1.000000
v 0.000000 1.633354 1.000000
v -0.195090 -1.633354 0.980785
v -0.195090 1.633354 0.980785
v -0.382683 -1.633354 0.923880
v -0.382683 1.633354 0.923880
v -0.555570 -1.633354 0.831470
v -0.555570 1.633354 0.831470
v -0.707107 -1.633354 0.707107
v -0.707107 1.633354 0.707107
v -0.831470 -1.633354 0.555570
v -0.831470 1.633354 0.555570
v -0.923880 -1.633354 0.382683
v -0.923880 1.633354 0.382683
v -0.980785 -1.633354 0.195090
v -0.980785 1.633354 0.195090
v -1.000000 -1.633354 0.000000
v -1.000000 1.633354 0.000000
v -0.980785 -1.633354 -0.195090
v -0.980785 1.633354 -0.195090
v -0.923880 -1.633354 -0.382683
v -0.923880 1.633354 -0.382683
v -0.831470 -1.633354 -0.555570
v -0.831470 1.633354 -0.555570
v -0.707107 -1.633354 -0.707107
v -0.707107 1.633354 -0.707107
v -0.555570 -1.633354 -0.831470
v -0.555570 1.633354 -0.831470
v -0.382683 -1.633354 -0.923880
v -0.382683 1.633354 -0.923880
v -0.195090 -1.633354 -0.980785
v -0.195090 1.633354 -0.980785
v 0.000000 -1.633354 -1.000000
v 0.000000 1.633354 -1.000000
v 0.195090 -1.633354 -0.980785
v 0.195090 1.633354 -0.980785
v 0.382683 -1.633354 -0.923880
v 0.382683 1.633354 -0.923880
v 0.555570 -1.633354 -0.831470
v 0.555570 1.633354 -0.831470
v 0.707107 -1.633354 -0.707107
v 0.707107 1.633354 -0.707107
v 0.831470 -1.633354 -0.555570
v 0.831470 1.633354 -0.555570
v 0.923880 -1.633354 -0.382683
v 0.923880 1.633354 -0.382683
v 0.980785 -1.633354 -0.195090
v 0.980785 1.633354 -0.195090
vn 1.0000 -0.0000 -0.0000
vn 0.9808 -0.0000 0.1951
vn 0.9239 -0.0000 0.3827
vn 0.8315 -0.0000 0.5556
vn 0.7071 -0.0000 0.7071
vn 0.5556 -0.0000 0.8315
vn 0.3827 -0.0000 0.9239
vn 0.1951 -0.0000 0.9808
vn -0.0000 -0.0000 1.0000
vn -0.1951 -0.0000 0.9808
vn -0.3827 -0.0000 0.9239
vn -0.5556 -0.0000 0.8315
vn -0.7071 -0.0000 0.7071
vn -0.8315 -0.0000 0.5556
vn -0.9239 -0.0000 0.3827
vn -0.9808 -0.0000 0.1951
vn -1.0000 -0.0000 -0.0000
vn -0.9808 -0.0000 -0.1951
vn -0.9239 -0.0000 -0.3827
vn -0.8315 -0.0000 -0.5556
vn -0.7071 -0.0000 -0.7071
vn -0.5556 -0.0000 -0.8315
vn -0.3827 -0.0000 -0.9239
vn -0.1951 -0.0000 -0.9808
vn -0.0000 -0.0000 -1.0000
vn 0.1951 -0.0000 -0.9808
vn 0.3827 -0.0000 -0.9239
vn 0.5556 -0.0000 -0.8315
vn 0.7071 -0.0000 -0.7071
vn 0.8315 -0.0000 -0.5556
vn 0.9239 -0.0000 -0.3827
vn 0.9808 -0.0000 -0.1951
vt 0.911386 0.248148
vt 0.911386 0.848574
vt 0.885674 0.848574
vt 0.885674 0.248148
vt 0.859962 0.848574
vt 0.859962 0.248148
vt 0.834251 0.848574
vt 0.834251 0.248148
vt 0.808539 0.848574
vt 0.808539 0.248148
vt 0.782828 0.848574
vt 0.782828 0.248148
vt 0.757116 0.848574
vt 0.757116 0.248148
vt 0.731404 0.848574
vt 0.731404 0.248148
vt 0.705693 0.848574
vt 0.705693 0.248148
vt 0.679981 0.848574
vt 0.679981 0.248148
vt 0.654270 0.848574
vt 0.654270 0.248148
vt 0.628558 0.848574
vt 0.628558 0.248148
vt 0.602846 0.848574
vt 0.602846 0.248148
vt 0.577135 0.848574
vt 0.577135 0.248148
vt 0.551423 0.848574
vt 0.551423 0.248148
vt 0.525712 0.848574
vt 0.525712 0.248148
vt 0.500000 0.848574
vt 0.500000 0.248148
vt 0.474288 0.848574
vt 0.474288 0.248148
vt 0.448577 0.848574
vt 0.448577 0.248148
vt 0.422865 0.848574
vt 0.422865 0.248148
vt 0.397154 0.848574
vt 0.397154 0.248148
vt 0.371442 0.848574
vt 0.371442 0.248148
vt 0.345730 0.848574
vt 0.345730 0.248148
vt 0.320019 0.848574
vt 0.320019 0.248148
vt 0.294307 0.848574
vt 0.294307 0.248148
vt 0.268596 0.848574
vt 0.268596 0.248148
vt 0.242884 0.848574
vt 0.242884 0.248148
vt 0.217172 0.848574
vt 0.217172 0.248148
vt 0.191461 0.848574
vt 0.191461 0.248148
vt 0.165749 0.848574
vt 0.165749 0.248148
vt 0.140038 0.848574
vt 0.140038 0.248148
vt 0.114326 0.848574
vt 0.114326 0.248148
vt 0.088614 0.848574
vt 0.088614 0.248148
s 1
usemtl Material.001
f 1/1/1 2/2/1 4/3/2 3/4/2
f 3/4/2 4/3/2 6/5/3 5/6/3
f 5/6/3 6/5/3 8/7/4 7/8/4
f 7/8/4 8/7/4 10/9/5 9/10/5
f 9/10/5 10/9/5 12/11/6 11/12/6
f 11/12/6 12/11/6 14/13/7 13/14/7
f 13/14/7 14/13/7 16/15/8 15/16/8
f 15/16/8 16/15/8 18/17/9 17/18/9
f 17/18/9 18/17/9 20/19/10 19/20/10
f 19/20/10 20/19/10 22/21/11 21/22/11
f 21/22/11 22/21/11 24/23/12 23/24/12
f 23/24/12 24/23/12 26/25/13 25/26/13
f 25/26/13 26/25/13 28/27/14 27/28/14
f 27/28/14 28/27/14 30/29/15 29/30/15
f 29/30/15 30/29/15 32/31/16 31/32/16
f 31/32/16 32/31/16 34/33/17 33/34/17
f 33/34/17 34/33/17 36/35/18 35/36/18
f 35/36/18 36/35/18 38/37/19 37/38/19
f 37/38/19 38/37/19 40/39/20 39/40/20
f 39/40/20 40/39/20 42/41/21 41/42/21
f 41/42/21 42/41/21 44/43/22 43/44/22
f 43/44/22 44/43/22 46/45/23 45/46/23
f 45/46/23 46/45/23 48/47/24 47/48/24
f 47/48/24 48/47/24 50/49/25 49/50/25
f 49/50/25 50/49/25 52/51/26 51/52/26
f 51/52/26 52/51/26 54/53/27 53/54/27
f 53/54/27 54/53/27 56/55/28 55/56/28
f 55/56/28 56/55/28 58/57/29 57/58/29
f 57/58/29 58/57/29 60/59/30 59/60/30
f 59/60/30 60/59/30 62/61/31 61/62/31
f 61/62/31 62/61/31 64/63/32 63/64/32
f 63/64/32 64/63/32 2/65/1 1/66/1
o Cylinder.001
v 1.069806 1.580056 0.000000
v 0.719193 1.854967 0.000000
v 1.049250 1.580056 0.208709
v 0.705374 1.854967 0.140308
v 0.988372 1.580056 0.409397
v 0.664448 1.854967 0.275223
v 0.889511 1.580056 0.594352
v 0.597987 1.854967 0.399562
v 0.756467 1.580056 0.756467
v 0.508546 1.854967 0.508546
v 0.594352 1.580056 0.889511
v 0.399562 1.854967 0.597987
v 0.409397 1.580056 0.988372
v 0.275223 1.854967 0.664448
v 0.208709 1.580056 1.049250
v 0.140308 1.854967 0.705374
v 0.000000 1.580056 1.069806
v 0.000000 1.854967 0.719193
v -0.208709 1.580056 1.049250
v -0.140308 1.854967 0.705374
v -0.409397 1.580056 0.988372
v -0.275223 1.854967 0.664448
v -0.594352 1.580056 0.889511
v -0.399562 1.854967 0.597987
v -0.756467 1.580056 0.756467
v -0.508546 1.854967 0.508546
v -0.889511 1.580056 0.594352
v -0.597987 1.854967 0.399562
v -0.988372 1.580056 0.409397
v -0.664448 1.854967 0.275223
v -1.049250 1.580056 0.208709
v -0.705374 1.854967 0.140308
v -1.069806 1.580056 0.000000
v -0.719193 1.854967 0.000000
v -1.049250 1.580056 -0.208709
v -0.705374 1.854967 -0.140308
v -0.988372 1.580056 -0.409397
v -0.664448 1.854967 -0.275223
v -0.889511 1.580056 -0.594352
v -0.597987 1.854967 -0.399562
v -0.756467 1.580056 -0.756467
v -0.508546 1.854967 -0.508546
v -0.594352 1.580056 -0.889511
v -0.399562 1.854967 -0.597987
v -0.409397 1.580056 -0.988372
v -0.275223 1.854967 -0.664448
v -0.208709 1.580056 -1.049250
v -0.140308 1.854967 -0.705374
v 0.000000 1.580056 -1.069806
v 0.000000 1.854967 -0.719193
v 0.208709 1.580056 -1.049250
v 0.140308 1.854967 -0.705374
v 0.409397 1.580056 -0.988372
v 0.275223 1.854967 -0.664448
v 0.594352 1.580056 -0.889511
v 0.399562 1.854967 -0.597987
v 0.756467 1.580056 -0.756467
v 0.508546 1.854967 -0.508546
v 0.889511 1.580056 -0.594352
v 0.597987 1.854967 -0.399562
v 0.988372 1.580056 -0.409397
v 0.664448 1.854967 -0.275223
v 1.049250 1.580056 -0.208709
v 0.705374 1.854967 -0.140308
vn 0.6170 0.7869 -0.0000
vn 0.6052 0.7869 0.1204
vn 0.5701 0.7869 0.2361
vn 0.5130 0.7869 0.3428
vn 0.4363 0.7869 0.4363
vn 0.3428 0.7869 0.5130
vn 0.2361 0.7869 0.5701
vn 0.1204 0.7869 0.6052
vn -0.0000 0.7869 0.6170
vn -0.1204 0.7869 0.6052
vn -0.2361 0.7869 0.5701
vn -0.3428 0.7869 0.5130
vn -0.4363 0.7869 0.4363
vn -0.5130 0.7869 0.3428
vn -0.5701 0.7869 0.2361
vn -0.6052 0.7869 0.1204
vn -0.6170 0.7869 -0.0000
vn -0.6052 0.7869 -0.1204
vn -0.5701 0.7869 -0.2361
vn -0.5130 0.7869 -0.3428
vn -0.4363 0.7869 -0.4363
vn -0.3428 0.7869 -0.5130
vn -0.2361 0.7869 -0.5701
vn -0.1204 0.7869 -0.6052
vn -0.0000 0.7869 -0.6170
vn 0.1204 0.7869 -0.6052
vn 0.2361 0.7869 -0.5701
vn 0.3428 0.7869 -0.5130
vn 0.4363 0.7869 -0.4363
vn 0.5130 0.7869 -0.3428
vn 0.5701 0.7869 -0.2361
vn -0.0000 1.0000 -0.0000
vn 0.6052 0.7869 -0.1204
vn -0.0000 -1.0000 -0.0000
vt 1.000000 0.500000
vt 1.000000 1.000000
vt 0.968750 1.000000
vt 0.968750 0.500000
vt 0.937500 1.000000
vt 0.937500 0.500000
vt 0.906250 1.000000
vt 0.906250 0.500000
vt 0.875000 1.000000
vt 0.875000 0.500000
vt 0.843750 1.000000
vt 0.843750 0.500000
vt 0.812500 1.000000
vt 0.812500 0.500000
vt 0.781250 1.000000
vt 0.781250 0.500000
vt 0.750000 1.000000
vt 0.750000 0.500000
vt 0.718750 1.000000
vt 0.718750 0.500000
vt 0.687500 1.000000
vt 0.687500 0.500000
vt 0.656250 1.000000
vt 0.656250 0.500000
vt 0.625000 1.000000
vt 0.625000 0.500000
vt 0.593750 1.000000
vt 0.593750 0.500000
vt 0.562500 1.000000
vt 0.562500 0.500000
vt 0.531250 1.000000
vt 0.531250 0.500000
vt 0.500000 1.000000
vt 0.500000 0.500000
vt 0.468750 1.000000
vt 0.468750 0.500000
vt 0.437500 1.000000
vt 0.437500 0.500000
vt 0.406250 1.000000
vt 0.406250 0.500000
vt 0.375000 1.000000
vt 0.375000 0.500000
vt 0.343750 1.000000
vt 0.343750 0.500000
vt 0.312500 1.000000
vt 0.312500 0.500000
vt 0.281250 1.000000
vt 0.281250 0.500000
vt 0.250000 1.000000
vt 0.250000 0.500000
vt 0.218750 1.000000
vt 0.218750 0.500000
vt 0.187500 1.000000
vt 0.187500 0.500000
vt 0.156250 1.000000
vt 0.156250 0.500000
vt 0.125000 1.000000
vt 0.125000 0.500000
vt 0.093750 1.000000
vt 0.093750 0.500000
vt 0.062500 1.000000
vt 0.062500 0.500000
vt 0.296822 0.485388
vt 0.250000 0.490000
vt 0.203178 0.485388
vt 0.158156 0.471731
vt 0.116663 0.449553
vt 0.080294 0.419706
vt 0.050447 0.383337
vt 0.028269 0.341844
vt 0.014612 0.296822
vt 0.010000 0.250000
vt 0.014612 0.203178
vt 0.028269 0.158156
vt 0.050447 0.116663
vt 0.080294 0.080294
vt 0.116663 0.050447
vt 0.158156 0.028269
vt 0.203178 0.014612
vt 0.250000 0.010000
vt 0.296822 0.014612
vt 0.341844 0.028269
vt 0.383337 0.050447
vt 0.419706 0.080294
vt 0.449553 0.116663
vt 0.471731 0.158156
vt 0.485388 0.203178
vt 0.490000 0.250000
vt 0.485388 0.296822
vt 0.471731 0.341844
vt 0.449553 0.383337
vt 0.419706 0.419706
vt 0.383337 0.449553
vt 0.341844 0.471731
vt 0.031250 1.000000
vt 0.031250 0.500000
vt 0.000000 1.000000
vt 0.000000 0.500000
vt 0.750000 0.490000
vt 0.796822 0.485388
vt 0.841844 0.471731
vt 0.883337 0.449553
vt 0.919706 0.419706
vt 0.949553 0.383337
vt 0.971731 0.341844
vt 0.985388 0.296822
vt 0.990000 0.250000
vt 0.985388 0.203178
vt 0.971731 0.158156
vt 0.949553 0.116663
vt 0.919706 0.080294
vt 0.883337 0.050447
vt 0.841844 0.028269
vt 0.796822 0.014612
vt 0.750000 0.010000
vt 0.703178 0.014612
vt 0.658156 0.028269
vt 0.616663 0.050447
vt 0.580294 0.080294
vt 0.550447 0.116663
vt 0.528269 0.158156
vt 0.514612 0.203178
vt 0.510000 0.250000
vt 0.514612 0.296822
vt 0.528269 0.341844
vt 0.550447 0.383337
vt 0.580294 0.419706
vt 0.616663 0.449553
vt 0.658156 0.471731
vt 0.703178 0.485388
s 1
usemtl Material.002
f 65/67/33 66/68/33 68/69/34 67/70/34
f 67/70/34 68/69/34 70/71/35 69/72/35
f 69/72/35 70/71/35 72/73/36 71/74/36
f 71/74/36 72/73/36 74/75/37 73/76/37
f 73/76/37 74/75/37 76/77/38 75/78/38
f 75/78/38 76/77/38 78/79/39 77/80/39
f 77/80/39 78/79/39 80/81/40 79/82/40
f 79/82/40 80/81/40 82/83/41 81/84/41
f 81/84/41 82/83/41 84/85/42 83/86/42
f 83/86/42 84/85/42 86/87/43 85/88/43
f 85/88/43 86/87/43 88/89/44 87/90/44
f 87/90/44 88/89/44 90/91/45 89/92/45
f 89/92/45 90/91/45 92/93/46 91/94/46
f 91/94/46 92/93/46 94/95/47 93/96/47
f 93/96/47 94/95/47 96/97/48 95/98/48
f 95/98/48 96/97/48 98/99/49 97/100/49
f 97/100/49 98/99/49 100/101/50 99/102/50
f 99/102/50 100/101/50 102/103/51 101/104/51
f 101/104/51 102/103/51 104/105/52 103/106/52
f 103/106/52 104/105/52 106/107/53 105/108/53
f 105/108/53 106/107/53 108/109/54 107/110/54
f 107/110/54 108/109/54 110/111/55 109/112/55
f 109/112/55 110/111/55 112/113/56 111/114/56
f 111/114/56 112/113/56 114/115/57 113/116/57
f 113/116/57 114/115/57 116/117/58 115/118/58
f 115/118/58 116/117/58 118/119/59 117/120/59
f 117/120/59 118/119/59 120/121/60 119/122/60
f 119/122/60 120/121/60 122/123/61 121/124/61
f 121/124/61 122/123/61 124/125/62 123/126/62
f 123/126/62 124/125/62 126/127/63 125/128/63
f 68/129/64 66/130/64 128/131/64 126/132/64 124/133/64 122/134/64 120/135/64 118/136/64 116/137/64 114/138/64 112/139/64 110/140/64 108/141/64 106/142/64 104/143/64 102/144/64 100/145/64 98/146/64 96/147/64 94/148/64 92/149/64 90/150/64 88/151/64 86/152/64 84/153/64 82/154/64 80/155/64 78/156/64 76/157/64 74/158/64 72/159/64 70/160/64
f 125/128/63 126/127/63 128/161/65 127/162/65
f 127/162/65 128/161/65 66/163/33 65/164/33
f 65/165/66 67/166/66 69/167/66 71/168/66 73/169/66 75/170/66 77/171/66 79/172/66 81/173/66 83/174/66 85/175/66 87/176/66 89/177/66 91/178/66 93/179/66 95/180/66 97/181/66 99/182/66 101/183/66 103/184/66 105/185/66 107/186/66 109/187/66 111/188/66 113/189/66 115/190/66 117/191/66 119/192/66 121/193/66 123/194/66 125/195/66 127/196/66
