# Blender 4.5.3 LTS
# www.blender.org
mtllib mur-cuerpo.mtl
o cuerpo
v 0.622308 0.500000 -3.747421
v 0.622308 0.500000 -1.150352
v -0.622308 0.500000 -3.747421
v -0.622308 0.500000 -1.150352
v 0.622308 -0.500000 -3.747421
v 0.622308 -0.500000 -1.150352
v -0.622308 -0.500000 -3.747421
v -0.622308 -0.500000 -1.150352
v 0.521307 -0.535118 -1.059149
v 0.369215 -0.572933 -0.960941
v 0.190925 -0.599636 -0.891592
v 0.000000 -0.609568 -0.865797
v -0.190925 -0.599636 -0.891592
v -0.369215 -0.572933 -0.960941
v -0.521307 -0.535118 -1.059149
v 0.666016 0.418849 -1.059149
v 0.713081 0.296650 -0.960941
v 0.746316 0.153401 -0.891592
v 0.758678 -0.000000 -0.865797
v 0.746316 -0.153401 -0.891592
v 0.713081 -0.296650 -0.960941
v 0.666016 -0.418850 -1.059149
v 0.666016 0.535118 -3.536667
v 0.713081 0.572933 -3.219306
v 0.746316 0.599635 -2.847279
v 0.758678 0.609568 -2.448886
v 0.746316 0.599635 -2.050494
v 0.713081 0.572933 -1.678466
v 0.666016 0.535118 -1.361106
v -0.666016 -0.535118 -1.361106
v -0.713081 -0.572933 -1.678466
v -0.746316 -0.599636 -2.050494
v -0.758678 -0.609568 -2.448886
v -0.746316 -0.599636 -2.847279
v -0.713081 -0.572933 -3.219306
v -0.666016 -0.535118 -3.536667
v -0.666016 0.535118 -3.536667
v -0.713081 0.572933 -3.219306
v -0.746316 0.599635 -2.847279
v -0.758678 0.609568 -2.448886
v -0.746316 0.599635 -2.050494
v -0.713081 0.572933 -1.678466
v -0.666016 0.535118 -1.361106
v 0.666016 -0.535118 -3.536667
v 0.713081 -0.572933 -3.219306
v 0.746316 -0.599636 -2.847279
v 0.758678 -0.609568 -2.448886
v 0.746316 -0.599636 -2.050494
v 0.713081 -0.572933 -1.678466
v 0.666016 -0.535118 -1.361106
v -0.666016 0.418849 -3.838624
v -0.713081 0.296650 -3.936831
v -0.746316 0.153401 -4.006181
v -0.758678 -0.000000 -4.031976
v -0.746316 -0.153401 -4.006181
v -0.713081 -0.296650 -3.936832
v -0.666016 -0.418850 -3.838623
v 0.521307 0.535118 -3.838624
v 0.369215 0.572933 -3.936832
v 0.190925 0.599635 -4.006181
v 0.000000 0.609568 -4.031975
v -0.190925 0.599635 -4.006181
v -0.369215 0.572933 -3.936832
v -0.521307 0.535118 -3.838623
v -0.666016 -0.418850 -1.059149
v -0.713081 -0.296650 -0.960941
v -0.746316 -0.153401 -0.891592
v -0.758678 -0.000000 -0.865797
v -0.746316 0.153401 -0.891592
v -0.713081 0.296650 -0.960941
v -0.666016 0.418850 -1.059149
v -0.521307 -0.535118 -3.838623
v -0.369215 -0.572933 -3.936832
v -0.190925 -0.599636 -4.006181
v 0.000000 -0.609568 -4.031975
v 0.190925 -0.599636 -4.006181
v 0.369215 -0.572933 -3.936832
v 0.521307 -0.535118 -3.838624
v 0.666016 -0.418850 -3.838623
v 0.713081 -0.296650 -3.936831
v 0.746316 -0.153401 -4.006181
v 0.758678 -0.000000 -4.031975
v 0.746316 0.153401 -4.006181
v 0.713081 0.296650 -3.936832
v 0.666016 0.418849 -3.838624
v -0.521307 0.535118 -1.059149
v -0.369215 0.572933 -0.960941
v -0.190925 0.599635 -0.891592
v 0.000000 0.609568 -0.865797
v 0.190925 0.599635 -0.891592
v 0.369215 0.572933 -0.960941
v 0.521307 0.535118 -1.059149
v 0.537374 0.431759 -4.034295
v 0.566676 0.302982 -4.173684
v 0.590446 0.156091 -4.261706
v 0.599890 -0.000000 -4.292673
v 0.590446 -0.156091 -4.261706
v 0.566677 -0.302983 -4.173685
v 0.537374 -0.431759 -4.034295
v 0.377097 0.455302 -4.173685
v 0.393494 0.316157 -4.342123
v 0.408321 0.161915 -4.444583
v 0.414632 -0.000000 -4.479350
v 0.408321 -0.161916 -4.444583
v 0.393494 -0.316157 -4.342122
v 0.377097 -0.455302 -4.173685
v 0.194274 0.474400 -4.261706
v 0.201523 0.328070 -4.444583
v 0.208575 0.167582 -4.554750
v 0.211728 -0.000000 -4.591631
v 0.208575 -0.167582 -4.554751
v 0.201523 -0.328070 -4.444583
v 0.194274 -0.474400 -4.261706
v -0.000000 0.481988 -4.292673
v -0.000000 0.333140 -4.479349
v -0.000000 0.170115 -4.591631
v -0.000000 -0.000000 -4.629141
v 0.000000 -0.170115 -4.591631
v 0.000000 -0.333141 -4.479349
v 0.000000 -0.481988 -4.292673
v -0.194274 0.474400 -4.261707
v -0.201523 0.328070 -4.444583
v -0.208575 0.167582 -4.554751
v -0.211728 -0.000000 -4.591631
v -0.208575 -0.167582 -4.554751
v -0.201523 -0.328070 -4.444583
v -0.194274 -0.474400 -4.261707
v -0.377097 0.455302 -4.173685
v -0.393494 0.316157 -4.342123
v -0.408321 0.161915 -4.444583
v -0.414632 -0.000000 -4.479349
v -0.408321 -0.161916 -4.444583
v -0.393494 -0.316157 -4.342122
v -0.377097 -0.455302 -4.173685
v -0.537374 0.431759 -4.034295
v -0.566676 0.302982 -4.173685
v -0.590446 0.156091 -4.261707
v -0.599890 -0.000000 -4.292672
v -0.590446 -0.156091 -4.261706
v -0.566677 -0.302983 -4.173685
v -0.537374 -0.431759 -4.034295
v -0.759790 0.431759 -1.327579
v -0.826591 0.455302 -1.662020
v -0.868774 0.474400 -2.043507
v -0.883614 0.481988 -2.448886
v -0.868774 0.474400 -2.854265
v -0.826590 0.455302 -3.235752
v -0.759790 0.431759 -3.570193
v -0.826591 0.302983 -1.266436
v -0.907313 0.316157 -1.627805
v -0.956416 0.328070 -2.028381
v -0.973077 0.333140 -2.448886
v -0.956416 0.328070 -2.869392
v -0.907313 0.316157 -3.269968
v -0.826591 0.302982 -3.631337
v -0.868774 0.156091 -1.216837
v -0.956416 0.161915 -1.596867
v -1.009212 0.167582 -2.013664
v -1.026886 0.170115 -2.448886
v -1.009212 0.167582 -2.884109
v -0.956416 0.161915 -3.300906
v -0.868774 0.156091 -3.680936
v -0.883614 -0.000000 -1.197131
v -0.973077 -0.000000 -1.583698
v -1.026886 -0.000000 -2.007087
v -1.044863 -0.000000 -2.448886
v -1.026886 -0.000000 -2.890686
v -0.973077 -0.000000 -3.314075
v -0.883614 -0.000000 -3.700642
v -0.868774 -0.156091 -1.216837
v -0.956416 -0.161916 -1.596867
v -1.009212 -0.167582 -2.013664
v -1.026886 -0.170115 -2.448886
v -1.009212 -0.167582 -2.884109
v -0.956416 -0.161916 -3.300906
v -0.868774 -0.156091 -3.680936
v -0.826591 -0.302983 -1.266436
v -0.907313 -0.316157 -1.627805
v -0.956416 -0.328070 -2.028381
v -0.973077 -0.333141 -2.448886
v -0.956416 -0.328070 -2.869392
v -0.907313 -0.316157 -3.269969
v -0.826591 -0.302983 -3.631337
v -0.759790 -0.431759 -1.327579
v -0.826590 -0.455302 -1.662020
v -0.868774 -0.474400 -2.043507
v -0.883614 -0.481988 -2.448887
v -0.868774 -0.474400 -2.854266
v -0.826591 -0.455302 -3.235753
v -0.759790 -0.431759 -3.570193
v -0.537374 -0.610461 -1.327579
v -0.566676 -0.664133 -1.662020
v -0.590446 -0.698026 -2.043507
v -0.599890 -0.709949 -2.448886
v -0.590446 -0.698026 -2.854265
v -0.566676 -0.664133 -3.235753
v -0.537374 -0.610461 -3.570193
v -0.377097 -0.664133 -1.266436
v -0.393494 -0.728990 -1.627805
v -0.408321 -0.768442 -2.028381
v -0.414632 -0.781829 -2.448886
v -0.408321 -0.768442 -2.869392
v -0.393494 -0.728990 -3.269968
v -0.377097 -0.664133 -3.631337
v -0.194274 -0.698026 -1.216837
v -0.201523 -0.768442 -1.596867
v -0.208575 -0.810862 -2.013664
v -0.211728 -0.825063 -2.448886
v -0.208575 -0.810862 -2.884108
v -0.201523 -0.768442 -3.300906
v -0.194274 -0.698026 -3.680936
v 0.000000 -0.709949 -1.197131
v 0.000000 -0.781829 -1.583698
v -0.000000 -0.825063 -2.007087
v -0.000000 -0.839506 -2.448886
v -0.000000 -0.825063 -2.890686
v -0.000000 -0.781829 -3.314075
v 0.000000 -0.709949 -3.700642
v 0.194274 -0.698026 -1.216837
v 0.201523 -0.768442 -1.596867
v 0.208575 -0.810862 -2.013664
v 0.211728 -0.825063 -2.448886
v 0.208575 -0.810862 -2.884108
v 0.201523 -0.768442 -3.300906
v 0.194274 -0.698026 -3.680936
v 0.377097 -0.664133 -1.266436
v 0.393494 -0.728990 -1.627805
v 0.408321 -0.768442 -2.028381
v 0.414632 -0.781829 -2.448886
v 0.408321 -0.768442 -2.869392
v 0.393494 -0.728990 -3.269968
v 0.377097 -0.664133 -3.631337
v 0.537374 -0.610461 -1.327579
v 0.566676 -0.664133 -1.662020
v 0.590446 -0.698026 -2.043507
v 0.599890 -0.709949 -2.448886
v 0.590446 -0.698026 -2.854266
v 0.566677 -0.664133 -3.235752
v 0.537374 -0.610461 -3.570193
v 0.537374 -0.431759 -0.863477
v 0.566676 -0.302983 -0.724088
v 0.590446 -0.156091 -0.636066
v 0.599890 -0.000000 -0.605101
v 0.590446 0.156091 -0.636066
v 0.566677 0.302983 -0.724088
v 0.537374 0.431759 -0.863477
v 0.377097 -0.455302 -0.724088
v 0.393494 -0.316157 -0.555650
v 0.408321 -0.161915 -0.453189
v 0.414632 -0.000000 -0.418424
v 0.408321 0.161915 -0.453190
v 0.393494 0.316157 -0.555650
v 0.377097 0.455302 -0.724088
v 0.194274 -0.474400 -0.636066
v 0.201523 -0.328070 -0.453189
v 0.208575 -0.167582 -0.343022
v 0.211728 -0.000000 -0.306142
v 0.208575 0.167582 -0.343022
v 0.201523 0.328070 -0.453189
v 0.194274 0.474400 -0.636066
v -0.000000 -0.481988 -0.605101
v -0.000000 -0.333141 -0.418424
v -0.000000 -0.170115 -0.306142
v -0.000000 -0.000000 -0.268631
v 0.000000 0.170115 -0.306142
v 0.000000 0.333140 -0.418424
v 0.000000 0.481988 -0.605101
v -0.194274 -0.474400 -0.636066
v -0.201523 -0.328070 -0.453190
v -0.208575 -0.167582 -0.343022
v -0.211728 -0.000000 -0.306142
v -0.208575 0.167582 -0.343022
v -0.201523 0.328070 -0.453190
v -0.194274 0.474400 -0.636066
v -0.377097 -0.455302 -0.724088
v -0.393494 -0.316157 -0.555650
v -0.408321 -0.161915 -0.453189
v -0.414632 -0.000000 -0.418424
v -0.408321 0.161915 -0.453189
v -0.393494 0.316157 -0.555650
v -0.377097 0.455302 -0.724088
v -0.537374 -0.431759 -0.863477
v -0.566676 -0.302983 -0.724088
v -0.590446 -0.156091 -0.636066
v -0.599890 -0.000000 -0.605101
v -0.590446 0.156091 -0.636066
v -0.566677 0.302983 -0.724088
v -0.537374 0.431759 -0.863477
v 0.537374 0.610461 -1.327579
v 0.566676 0.664133 -1.662020
v 0.590446 0.698026 -2.043507
v 0.599890 0.709949 -2.448886
v 0.590446 0.698026 -2.854265
v 0.566677 0.664133 -3.235752
v 0.537374 0.610461 -3.570193
v 0.377097 0.664133 -1.266436
v 0.393494 0.728990 -1.627805
v 0.408321 0.768442 -2.028381
v 0.414632 0.781829 -2.448886
v 0.408321 0.768442 -2.869392
v 0.393494 0.728990 -3.269968
v 0.377097 0.664133 -3.631337
v 0.194274 0.698026 -1.216837
v 0.201523 0.768442 -1.596867
v 0.208575 0.810862 -2.013664
v 0.211728 0.825063 -2.448886
v 0.208575 0.810862 -2.884109
v 0.201523 0.768442 -3.300906
v 0.194274 0.698026 -3.680936
v 0.000000 0.709949 -1.197131
v -0.000000 0.781829 -1.583698
v -0.000000 0.825063 -2.007087
v -0.000000 0.839506 -2.448886
v 0.000000 0.825063 -2.890686
v 0.000000 0.781829 -3.314075
v 0.000000 0.709949 -3.700642
v -0.194274 0.698026 -1.216837
v -0.201523 0.768442 -1.596867
v -0.208575 0.810862 -2.013664
v -0.211728 0.825063 -2.448886
v -0.208575 0.810862 -2.884109
v -0.201523 0.768442 -3.300906
v -0.194274 0.698026 -3.680936
v -0.377097 0.664133 -1.266436
v -0.393494 0.728990 -1.627805
v -0.408321 0.768442 -2.028381
v -0.414632 0.781829 -2.448886
v -0.408321 0.768442 -2.869392
v -0.393494 0.728990 -3.269969
v -0.377097 0.664133 -3.631337
v -0.537374 0.610461 -1.327579
v -0.566676 0.664133 -1.662020
v -0.590446 0.698026 -2.043507
v -0.599890 0.709949 -2.448887
v -0.590446 0.698026 -2.854266
v -0.566677 0.664133 -3.235753
v -0.537374 0.610461 -3.570193
v 0.759790 -0.431759 -1.327579
v 0.826591 -0.455302 -1.662020
v 0.868774 -0.474400 -2.043507
v 0.883614 -0.481988 -2.448886
v 0.868774 -0.474400 -2.854266
v 0.826591 -0.455302 -3.235753
v 0.759790 -0.431759 -3.570193
v 0.826591 -0.302983 -1.266436
v 0.907313 -0.316157 -1.627805
v 0.956416 -0.328070 -2.028381
v 0.973077 -0.333141 -2.448886
v 0.956416 -0.328070 -2.869392
v 0.907313 -0.316157 -3.269968
v 0.826591 -0.302983 -3.631337
v 0.868774 -0.156091 -1.216837
v 0.956416 -0.161916 -1.596867
v 1.009212 -0.167582 -2.013664
v 1.026886 -0.170115 -2.448886
v 1.009212 -0.167582 -2.884108
v 0.956416 -0.161916 -3.300906
v 0.868774 -0.156091 -3.680936
v 0.883614 -0.000000 -1.197131
v 0.973077 -0.000000 -1.583698
v 1.026886 -0.000000 -2.007087
v 1.044863 -0.000000 -2.448886
v 1.026886 -0.000000 -2.890686
v 0.973077 -0.000000 -3.314075
v 0.883614 -0.000000 -3.700642
v 0.868774 0.156091 -1.216837
v 0.956416 0.161915 -1.596867
v 1.009212 0.167582 -2.013664
v 1.026886 0.170115 -2.448886
v 1.009212 0.167582 -2.884109
v 0.956416 0.161915 -3.300906
v 0.868774 0.156091 -3.680936
v 0.826590 0.302983 -1.266436
v 0.907313 0.316157 -1.627805
v 0.956416 0.328070 -2.028381
v 0.973077 0.333140 -2.448886
v 0.956416 0.328070 -2.869392
v 0.907313 0.316157 -3.269969
v 0.826591 0.302982 -3.631337
v 0.759790 0.431759 -1.327579
v 0.826590 0.455302 -1.662020
v 0.868774 0.474400 -2.043507
v 0.883614 0.481988 -2.448887
v 0.868774 0.474400 -2.854266
v 0.826591 0.455302 -3.235753
v 0.759790 0.431759 -3.570193
vn 0.6029 0.7478 -0.2781
vn 0.6029 0.7478 0.2781
vn -0.6029 0.7478 -0.2781
vn -0.6029 0.7478 0.2781
vn 0.6029 -0.7478 -0.2781
vn 0.6029 -0.7478 0.2781
vn -0.6029 -0.7478 -0.2781
vn -0.6029 -0.7478 0.2781
vn 0.4915 -0.8109 0.3176
vn 0.3496 -0.8712 0.3447
vn 0.1859 -0.9122 0.3651
vn -0.0000 -0.9275 0.3737
vn -0.1859 -0.9122 0.3651
vn -0.3496 -0.8712 0.3447
vn -0.4915 -0.8109 0.3176
vn 0.6913 0.6407 0.3340
vn 0.7870 0.4823 0.3847
vn 0.8627 0.2685 0.4285
vn 0.8938 -0.0000 0.4485
vn 0.8627 -0.2685 0.4285
vn 0.7870 -0.4823 0.3847
vn 0.6913 -0.6407 0.3340
vn 0.6138 0.7598 -0.2144
vn 0.6221 0.7695 -0.1445
vn 0.6272 0.7754 -0.0738
vn 0.6290 0.7774 -0.0000
vn 0.6272 0.7754 0.0738
vn 0.6221 0.7695 0.1445
vn 0.6138 0.7598 0.2144
vn -0.6138 -0.7598 0.2144
vn -0.6221 -0.7695 0.1445
vn -0.6272 -0.7754 0.0738
vn -0.6290 -0.7774 -0.0000
vn -0.6272 -0.7754 -0.0738
vn -0.6221 -0.7695 -0.1445
vn -0.6138 -0.7598 -0.2144
vn -0.6138 0.7598 -0.2144
vn -0.6221 0.7695 -0.1445
vn -0.6272 0.7754 -0.0738
vn -0.6290 0.7774 -0.0000
vn -0.6272 0.7754 0.0738
vn -0.6221 0.7695 0.1445
vn -0.6138 0.7598 0.2144
vn 0.6138 -0.7598 -0.2144
vn 0.6221 -0.7695 -0.1445
vn 0.6272 -0.7754 -0.0738
vn 0.6290 -0.7774 -0.0000
vn 0.6272 -0.7754 0.0738
vn 0.6221 -0.7695 0.1445
vn 0.6138 -0.7598 0.2144
vn -0.6913 0.6407 -0.3340
vn -0.7870 0.4823 -0.3847
vn -0.8627 0.2685 -0.4285
vn -0.8938 -0.0000 -0.4485
vn -0.8627 -0.2685 -0.4285
vn -0.7870 -0.4823 -0.3847
vn -0.6913 -0.6407 -0.3340
vn 0.4915 0.8109 -0.3176
vn 0.3496 0.8712 -0.3447
vn 0.1859 0.9122 -0.3651
vn -0.0000 0.9275 -0.3737
vn -0.1859 0.9122 -0.3651
vn -0.3496 0.8712 -0.3447
vn -0.4915 0.8109 -0.3176
vn -0.6913 -0.6407 0.3340
vn -0.7870 -0.4823 0.3847
vn -0.8627 -0.2685 0.4285
vn -0.8938 -0.0000 0.4485
vn -0.8627 0.2685 0.4285
vn -0.7870 0.4823 0.3847
vn -0.6913 0.6407 0.3340
vn -0.4915 -0.8109 -0.3176
vn -0.3496 -0.8712 -0.3447
vn -0.1859 -0.9122 -0.3651
vn -0.0000 -0.9275 -0.3737
vn 0.1859 -0.9122 -0.3651
vn 0.3496 -0.8712 -0.3447
vn 0.4915 -0.8109 -0.3176
vn 0.6913 -0.6407 -0.3340
vn 0.7870 -0.4823 -0.3847
vn 0.8627 -0.2685 -0.4285
vn 0.8938 -0.0000 -0.4485
vn 0.8627 0.2685 -0.4285
vn 0.7870 0.4823 -0.3847
vn 0.6913 0.6407 -0.3340
vn -0.4915 0.8109 0.3176
vn -0.3496 0.8712 0.3447
vn -0.1859 0.9122 0.3651
vn -0.0000 0.9275 0.3737
vn 0.1859 0.9122 0.3651
vn 0.3496 0.8712 0.3447
vn 0.4915 0.8109 0.3176
vn 0.5729 0.7060 -0.4164
vn 0.6666 0.5433 -0.5103
vn 0.7451 0.3080 -0.5916
vn 0.7778 -0.0000 -0.6285
vn 0.7451 -0.3080 -0.5916
vn 0.6666 -0.5433 -0.5103
vn 0.5729 -0.7060 -0.4164
vn 0.4156 0.7724 -0.4802
vn 0.4944 0.6061 -0.6231
vn 0.5619 0.3471 -0.7509
vn 0.5893 -0.0000 -0.8079
vn 0.5619 -0.3471 -0.7509
vn 0.4944 -0.6061 -0.6231
vn 0.4156 -0.7724 -0.4802
vn 0.2239 0.8202 -0.5265
vn 0.2692 0.6521 -0.7087
vn 0.3073 0.3738 -0.8751
vn 0.3216 -0.0000 -0.9469
vn 0.3073 -0.3738 -0.8751
vn 0.2692 -0.6521 -0.7087
vn 0.2239 -0.8202 -0.5265
vn -0.0000 0.8382 -0.5454
vn -0.0000 0.6692 -0.7431
vn -0.0000 0.3828 -0.9238
vn -0.0000 -0.0000 -1.0000
vn -0.0000 -0.3828 -0.9238
vn -0.0000 -0.6692 -0.7431
vn -0.0000 -0.8382 -0.5454
vn -0.2239 0.8202 -0.5265
vn -0.2692 0.6521 -0.7087
vn -0.3073 0.3738 -0.8751
vn -0.3216 -0.0000 -0.9469
vn -0.3073 -0.3738 -0.8751
vn -0.2692 -0.6521 -0.7087
vn -0.2239 -0.8202 -0.5265
vn -0.4156 0.7724 -0.4802
vn -0.4944 0.6061 -0.6231
vn -0.5619 0.3471 -0.7509
vn -0.5893 -0.0000 -0.8079
vn -0.5619 -0.3471 -0.7509
vn -0.4944 -0.6061 -0.6231
vn -0.4156 -0.7724 -0.4802
vn -0.5729 0.7060 -0.4164
vn -0.6666 0.5433 -0.5103
vn -0.7451 0.3080 -0.5916
vn -0.7778 -0.0000 -0.6285
vn -0.7451 -0.3080 -0.5916
vn -0.6666 -0.5433 -0.5103
vn -0.5729 -0.7060 -0.4164
vn -0.7541 0.6129 0.2360
vn -0.7751 0.6127 0.1544
vn -0.7869 0.6121 0.0778
vn -0.7910 0.6118 -0.0000
vn -0.7869 0.6121 -0.0778
vn -0.7751 0.6127 -0.1544
vn -0.7541 0.6129 -0.2360
vn -0.8558 0.4440 0.2654
vn -0.8883 0.4279 0.1667
vn -0.9037 0.4203 0.0816
vn -0.9086 0.4176 -0.0000
vn -0.9037 0.4203 -0.0816
vn -0.8883 0.4279 -0.1667
vn -0.8558 0.4440 -0.2654
vn -0.9275 0.2397 0.2867
vn -0.9588 0.2232 0.1757
vn -0.9731 0.2143 0.0841
vn -0.9774 0.2113 -0.0000
vn -0.9731 0.2143 -0.0841
vn -0.9588 0.2232 -0.1757
vn -0.9275 0.2397 -0.2867
vn -0.9552 -0.0000 0.2960
vn -0.9838 -0.0000 0.1794
vn -0.9964 -0.0000 0.0851
vn -1.0000 -0.0000 -0.0000
vn -0.9964 -0.0000 -0.0851
vn -0.9838 -0.0000 -0.1794
vn -0.9552 -0.0000 -0.2960
vn -0.9275 -0.2397 0.2867
vn -0.9588 -0.2232 0.1757
vn -0.9731 -0.2143 0.0841
vn -0.9774 -0.2113 -0.0000
vn -0.9731 -0.2143 -0.0841
vn -0.9588 -0.2232 -0.1757
vn -0.9275 -0.2397 -0.2867
vn -0.8558 -0.4440 0.2654
vn -0.8883 -0.4279 0.1667
vn -0.9037 -0.4203 0.0816
vn -0.9086 -0.4176 -0.0000
vn -0.9037 -0.4203 -0.0816
vn -0.8883 -0.4279 -0.1667
vn -0.8558 -0.4440 -0.2654
vn -0.7541 -0.6129 0.2360
vn -0.7751 -0.6127 0.1544
vn -0.7869 -0.6121 0.0778
vn -0.7910 -0.6118 -0.0000
vn -0.7869 -0.6121 -0.0778
vn -0.7751 -0.6127 -0.1544
vn -0.7541 -0.6129 -0.2360
vn -0.4567 -0.8624 0.2183
vn -0.4539 -0.8797 0.1418
vn -0.4518 -0.8893 0.0711
vn -0.4510 -0.8925 -0.0000
vn -0.4518 -0.8893 -0.0711
vn -0.4539 -0.8797 -0.1418
vn -0.4567 -0.8624 -0.2183
vn -0.3119 -0.9216 0.2308
vn -0.2964 -0.9443 0.1430
vn -0.2893 -0.9547 0.0696
vn -0.2870 -0.9579 -0.0000
vn -0.2893 -0.9547 -0.0696
vn -0.2964 -0.9443 -0.1430
vn -0.3119 -0.9216 -0.2308
vn -0.1614 -0.9577 0.2382
vn -0.1483 -0.9784 0.1442
vn -0.1416 -0.9875 0.0686
vn -0.1393 -0.9902 -0.0000
vn -0.1416 -0.9875 -0.0686
vn -0.1483 -0.9784 -0.1442
vn -0.1614 -0.9577 -0.2382
vn -0.0000 -0.9705 0.2412
vn -0.0000 -0.9895 0.1448
vn -0.0000 -0.9977 0.0683
vn -0.0000 -1.0000 -0.0000
vn -0.0000 -0.9977 -0.0683
vn -0.0000 -0.9895 -0.1448
vn -0.0000 -0.9705 -0.2412
vn 0.1614 -0.9577 0.2382
vn 0.1483 -0.9784 0.1442
vn 0.1416 -0.9875 0.0686
vn 0.1393 -0.9902 -0.0000
vn 0.1416 -0.9875 -0.0686
vn 0.1483 -0.9784 -0.1442
vn 0.1614 -0.9577 -0.2382
vn 0.3119 -0.9216 0.2308
vn 0.2964 -0.9443 0.1430
vn 0.2893 -0.9547 0.0696
vn 0.2870 -0.9579 -0.0000
vn 0.2893 -0.9547 -0.0696
vn 0.2964 -0.9443 -0.1430
vn 0.3119 -0.9216 -0.2308
vn 0.4567 -0.8624 0.2183
vn 0.4539 -0.8797 0.1418
vn 0.4518 -0.8893 0.0711
vn 0.4510 -0.8925 -0.0000
vn 0.4518 -0.8893 -0.0711
vn 0.4539 -0.8797 -0.1418
vn 0.4567 -0.8624 -0.2183
vn 0.5729 -0.7060 0.4164
vn 0.6666 -0.5433 0.5103
vn 0.7451 -0.3080 0.5916
vn 0.7778 -0.0000 0.6285
vn 0.7451 0.3080 0.5916
vn 0.6666 0.5433 0.5103
vn 0.5729 0.7060 0.4164
vn 0.4156 -0.7724 0.4802
vn 0.4944 -0.6061 0.6231
vn 0.5619 -0.3471 0.7509
vn 0.5893 -0.0000 0.8079
vn 0.5619 0.3471 0.7509
vn 0.4944 0.6061 0.6231
vn 0.4156 0.7724 0.4802
vn 0.2239 -0.8202 0.5265
vn 0.2692 -0.6521 0.7087
vn 0.3073 -0.3738 0.8751
vn 0.3216 -0.0000 0.9469
vn 0.3073 0.3738 0.8751
vn 0.2692 0.6521 0.7087
vn 0.2239 0.8202 0.5265
vn -0.0000 -0.8382 0.5454
vn -0.0000 -0.6692 0.7431
vn -0.0000 -0.3828 0.9238
vn -0.0000 -0.0000 1.0000
vn -0.0000 0.3828 0.9238
vn -0.0000 0.6692 0.7431
vn -0.0000 0.8382 0.5454
vn -0.2239 -0.8202 0.5265
vn -0.2692 -0.6521 0.7087
vn -0.3073 -0.3738 0.8751
vn -0.3216 -0.0000 0.9469
vn -0.3073 0.3738 0.8751
vn -0.2692 0.6521 0.7087
vn -0.2239 0.8202 0.5265
vn -0.4156 -0.7724 0.4802
vn -0.4944 -0.6061 0.6231
vn -0.5619 -0.3471 0.7509
vn -0.5893 -0.0000 0.8079
vn -0.5619 0.3471 0.7509
vn -0.4944 0.6061 0.6231
vn -0.4156 0.7724 0.4802
vn -0.5729 -0.7060 0.4164
vn -0.6666 -0.5433 0.5103
vn -0.7451 -0.3080 0.5916
vn -0.7778 -0.0000 0.6285
vn -0.7451 0.3080 0.5916
vn -0.6666 0.5433 0.5103
vn -0.5729 0.7060 0.4164
vn 0.4567 0.8624 0.2183
vn 0.4539 0.8797 0.1418
vn 0.4518 0.8893 0.0711
vn 0.4510 0.8925 -0.0000
vn 0.4518 0.8893 -0.0711
vn 0.4539 0.8797 -0.1418
vn 0.4567 0.8624 -0.2183
vn 0.3119 0.9216 0.2308
vn 0.2964 0.9443 0.1430
vn 0.2893 0.9547 0.0696
vn 0.2870 0.9579 -0.0000
vn 0.2893 0.9547 -0.0696
vn 0.2964 0.9443 -0.1430
vn 0.3119 0.9216 -0.2308
vn 0.1614 0.9577 0.2382
vn 0.1483 0.9784 0.1442
vn 0.1416 0.9875 0.0686
vn 0.1393 0.9902 -0.0000
vn 0.1416 0.9875 -0.0686
vn 0.1483 0.9784 -0.1442
vn 0.1614 0.9577 -0.2382
vn -0.0000 0.9705 0.2412
vn -0.0000 0.9895 0.1448
vn -0.0000 0.9977 0.0683
vn -0.0000 1.0000 -0.0000
vn -0.0000 0.9977 -0.0683
vn -0.0000 0.9895 -0.1448
vn -0.0000 0.9705 -0.2412
vn -0.1614 0.9577 0.2382
vn -0.1483 0.9784 0.1442
vn -0.1416 0.9875 0.0686
vn -0.1393 0.9902 -0.0000
vn -0.1416 0.9875 -0.0686
vn -0.1483 0.9784 -0.1442
vn -0.1614 0.9577 -0.2382
vn -0.3119 0.9216 0.2308
vn -0.2964 0.9443 0.1430
vn -0.2893 0.9547 0.0696
vn -0.2870 0.9579 -0.0000
vn -0.2893 0.9547 -0.0696
vn -0.2964 0.9443 -0.1430
vn -0.3119 0.9216 -0.2308
vn -0.4567 0.8624 0.2183
vn -0.4539 0.8797 0.1418
vn -0.4518 0.8893 0.0711
vn -0.4510 0.8925 -0.0000
vn -0.4518 0.8893 -0.0711
vn -0.4539 0.8797 -0.1418
vn -0.4567 0.8624 -0.2183
vn 0.7541 -0.6129 0.2360
vn 0.7751 -0.6127 0.1544
vn 0.7869 -0.6121 0.0778
vn 0.7910 -0.6118 -0.0000
vn 0.7869 -0.6121 -0.0778
vn 0.7751 -0.6127 -0.1544
vn 0.7541 -0.6129 -0.2360
vn 0.8558 -0.4440 0.2654
vn 0.8883 -0.4279 0.1667
vn 0.9037 -0.4203 0.0816
vn 0.9086 -0.4176 -0.0000
vn 0.9037 -0.4203 -0.0816
vn 0.8883 -0.4279 -0.1667
vn 0.8558 -0.4440 -0.2654
vn 0.9275 -0.2397 0.2867
vn 0.9588 -0.2232 0.1757
vn 0.9731 -0.2143 0.0841
vn 0.9774 -0.2113 -0.0000
vn 0.9731 -0.2143 -0.0841
vn 0.9588 -0.2232 -0.1757
vn 0.9275 -0.2397 -0.2867
vn 0.9552 -0.0000 0.2960
vn 0.9838 -0.0000 0.1794
vn 0.9964 -0.0000 0.0851
vn 1.0000 -0.0000 -0.0000
vn 0.9964 -0.0000 -0.0851
vn 0.9838 -0.0000 -0.1794
vn 0.9552 -0.0000 -0.2960
vn 0.9275 0.2397 0.2867
vn 0.9588 0.2232 0.1757
vn 0.9731 0.2143 0.0841
vn 0.9774 0.2113 -0.0000
vn 0.9731 0.2143 -0.0841
vn 0.9588 0.2232 -0.1757
vn 0.9275 0.2397 -0.2867
vn 0.8558 0.4440 0.2654
vn 0.8883 0.4279 0.1667
vn 0.9037 0.4203 0.0816
vn 0.9086 0.4176 -0.0000
vn 0.9037 0.4203 -0.0816
vn 0.8883 0.4279 -0.1667
vn 0.8558 0.4440 -0.2654
vn 0.7541 0.6129 0.2360
vn 0.7751 0.6127 0.1544
vn 0.7869 0.6121 0.0778
vn 0.7910 0.6118 -0.0000
vn 0.7869 0.6121 -0.0778
vn 0.7751 0.6127 -0.1544
vn 0.7541 0.6129 -0.2360
vt 0.125000 0.125000
vt 0.250000 0.125000
vt 0.250000 0.250000
vt 0.125000 0.250000
vt 0.375000 0.125000
vt 0.375000 0.250000
vt 0.500000 0.125000
vt 0.500000 0.250000
vt 0.625000 0.125000
vt 0.625000 0.250000
vt 0.750000 0.125000
vt 0.750000 0.250000
vt 0.875000 0.125000
vt 0.875000 0.250000
vt 0.250000 0.375000
vt 0.125000 0.375000
vt 0.375000 0.375000
vt 0.500000 0.375000
vt 0.625000 0.375000
vt 0.750000 0.375000
vt 0.875000 0.375000
vt 0.250000 0.500000
vt 0.125000 0.500000
vt 0.375000 0.500000
vt 0.500000 0.500000
vt 0.625000 0.500000
vt 0.750000 0.500000
vt 0.875000 0.500000
vt 0.250000 0.625000
vt 0.125000 0.625000
vt 0.375000 0.625000
vt 0.500000 0.625000
vt 0.625000 0.625000
vt 0.750000 0.625000
vt 0.875000 0.625000
vt 0.250000 0.750000
vt 0.125000 0.750000
vt 0.375000 0.750000
vt 0.500000 0.750000
vt 0.625000 0.750000
vt 0.750000 0.750000
vt 0.875000 0.750000
vt 0.250000 0.875000
vt 0.125000 0.875000
vt 0.375000 0.875000
vt 0.500000 0.875000
vt 0.625000 0.875000
vt 0.750000 0.875000
vt 0.875000 0.875000
vt 0.000000 0.000000
vt 0.125000 0.000000
vt 0.000000 0.125000
vt 0.250000 0.000000
vt 0.375000 0.000000
vt 0.500000 0.000000
vt 0.625000 0.000000
vt 0.750000 0.000000
vt 0.875000 0.000000
vt 1.000000 0.000000
vt 1.000000 0.125000
vt 1.000000 0.250000
vt 1.000000 0.375000
vt 1.000000 0.500000
vt 1.000000 0.625000
vt 1.000000 0.750000
vt 1.000000 0.875000
vt 1.000000 1.000000
vt 0.875000 1.000000
vt 0.750000 1.000000
vt 0.625000 1.000000
vt 0.500000 1.000000
vt 0.375000 1.000000
vt 0.250000 1.000000
vt 0.125000 1.000000
vt 0.000000 0.875000
vt 0.000000 1.000000
vt 0.000000 0.750000
vt 0.000000 0.625000
vt 0.000000 0.500000
vt 0.000000 0.375000
vt 0.000000 0.250000
vt 0.590150 0.437378
vt 0.590150 0.374919
vt 0.618329 0.374919
vt 0.618329 0.437378
vt 0.590150 0.312459
vt 0.618329 0.312459
vt 0.590150 0.250000
vt 0.618329 0.250000
vt 0.590150 0.187541
vt 0.618329 0.187541
vt 0.590150 0.125081
vt 0.618329 0.125081
vt 0.590150 0.062622
vt 0.618329 0.062622
vt 0.646508 0.374919
vt 0.646508 0.437378
vt 0.646508 0.312459
vt 0.646508 0.250000
vt 0.646508 0.187541
vt 0.646508 0.125081
vt 0.646508 0.062622
vt 0.674688 0.374919
vt 0.674688 0.437378
vt 0.674688 0.312459
vt 0.674688 0.250000
vt 0.674688 0.187541
vt 0.674688 0.125081
vt 0.674688 0.062622
vt 0.702867 0.374919
vt 0.702867 0.437378
vt 0.702867 0.312459
vt 0.702867 0.250000
vt 0.702867 0.187541
vt 0.702867 0.125081
vt 0.702867 0.062622
vt 0.731046 0.374919
vt 0.731046 0.437378
vt 0.731046 0.312459
vt 0.731046 0.250000
vt 0.731046 0.187541
vt 0.731046 0.125081
vt 0.731046 0.062622
vt 0.759225 0.374919
vt 0.759225 0.437378
vt 0.759225 0.312459
vt 0.759225 0.250000
vt 0.759225 0.187541
vt 0.759225 0.125081
vt 0.759225 0.062622
vt 0.561971 0.499838
vt 0.561971 0.437378
vt 0.590150 0.499838
vt 0.561971 0.374919
vt 0.561971 0.312459
vt 0.561971 0.250000
vt 0.561971 0.187541
vt 0.561971 0.125081
vt 0.561971 0.062622
vt 0.561971 0.000163
vt 0.590150 0.000163
vt 0.618329 0.000163
vt 0.646508 0.000163
vt 0.674688 0.000163
vt 0.702867 0.000163
vt 0.731046 0.000163
vt 0.759226 0.000163
vt 0.787405 0.000163
vt 0.787405 0.062622
vt 0.787405 0.125081
vt 0.787405 0.187541
vt 0.787405 0.250000
vt 0.787405 0.312459
vt 0.787405 0.374919
vt 0.787405 0.437378
vt 0.759226 0.499837
vt 0.787405 0.499837
vt 0.731046 0.499838
vt 0.702867 0.499838
vt 0.674688 0.499838
vt 0.646508 0.499838
vt 0.618329 0.499838
vt 0.245669 0.062622
vt 0.245669 0.125081
vt 0.210597 0.125081
vt 0.210597 0.062622
vt 0.245669 0.187541
vt 0.210597 0.187541
vt 0.245669 0.250000
vt 0.210597 0.250000
vt 0.245669 0.312459
vt 0.210597 0.312459
vt 0.245669 0.374919
vt 0.210597 0.374919
vt 0.245669 0.437378
vt 0.210597 0.437378
vt 0.175524 0.125081
vt 0.175524 0.062622
vt 0.175524 0.187541
vt 0.175524 0.250000
vt 0.175524 0.312459
vt 0.175524 0.374919
vt 0.175524 0.437378
vt 0.140452 0.125081
vt 0.140452 0.062622
vt 0.140452 0.187541
vt 0.140452 0.250000
vt 0.140452 0.312459
vt 0.140452 0.374919
vt 0.140452 0.437378
vt 0.105380 0.125081
vt 0.105380 0.062622
vt 0.105380 0.187541
vt 0.105380 0.250000
vt 0.105380 0.312459
vt 0.105380 0.374919
vt 0.105380 0.437378
vt 0.070307 0.125081
vt 0.070307 0.062622
vt 0.070307 0.187541
vt 0.070307 0.250000
vt 0.070307 0.312459
vt 0.070307 0.374919
vt 0.070307 0.437378
vt 0.035235 0.125081
vt 0.035235 0.062622
vt 0.035235 0.187541
vt 0.035235 0.250000
vt 0.035235 0.312459
vt 0.035235 0.374919
vt 0.035235 0.437378
vt 0.280742 0.000163
vt 0.280742 0.062622
vt 0.245669 0.000163
vt 0.280742 0.125081
vt 0.280742 0.187541
vt 0.280742 0.250000
vt 0.280742 0.312459
vt 0.280742 0.374919
vt 0.280742 0.437378
vt 0.280742 0.499838
vt 0.245669 0.499838
vt 0.210597 0.499838
vt 0.175524 0.499838
vt 0.140452 0.499838
vt 0.105380 0.499838
vt 0.070307 0.499838
vt 0.035235 0.499838
vt 0.000163 0.499838
vt 0.000163 0.437378
vt 0.000163 0.374919
vt 0.000163 0.312459
vt 0.000163 0.250000
vt 0.000163 0.187541
vt 0.000163 0.125081
vt 0.000163 0.062622
vt 0.035235 0.000163
vt 0.000163 0.000163
vt 0.070307 0.000163
vt 0.105380 0.000163
vt 0.140452 0.000163
vt 0.175524 0.000163
vt 0.210597 0.000163
vt 0.254101 0.523544
vt 0.282280 0.523544
vt 0.282280 0.546926
vt 0.254101 0.546926
vt 0.310460 0.523544
vt 0.310460 0.546926
vt 0.338639 0.523544
vt 0.338639 0.546926
vt 0.366818 0.523544
vt 0.366818 0.546926
vt 0.394997 0.523544
vt 0.394997 0.546926
vt 0.423177 0.523544
vt 0.423177 0.546926
vt 0.282280 0.570307
vt 0.254101 0.570307
vt 0.310460 0.570307
vt 0.338639 0.570307
vt 0.366818 0.570307
vt 0.394997 0.570307
vt 0.423177 0.570307
vt 0.282280 0.593689
vt 0.254101 0.593689
vt 0.310460 0.593689
vt 0.338639 0.593689
vt 0.366818 0.593689
vt 0.394997 0.593689
vt 0.423177 0.593689
vt 0.282280 0.617070
vt 0.254101 0.617070
vt 0.310460 0.617070
vt 0.338639 0.617071
vt 0.366818 0.617070
vt 0.394997 0.617071
vt 0.423177 0.617070
vt 0.282280 0.640452
vt 0.254101 0.640452
vt 0.310460 0.640452
vt 0.338639 0.640452
vt 0.366818 0.640452
vt 0.394997 0.640452
vt 0.423177 0.640452
vt 0.282280 0.663834
vt 0.254101 0.663834
vt 0.310460 0.663834
vt 0.338639 0.663834
vt 0.366818 0.663834
vt 0.394997 0.663834
vt 0.423177 0.663834
vt 0.225922 0.500163
vt 0.254101 0.500163
vt 0.225922 0.523544
vt 0.282280 0.500163
vt 0.310460 0.500163
vt 0.338639 0.500163
vt 0.366818 0.500163
vt 0.394997 0.500163
vt 0.423177 0.500163
vt 0.451356 0.500163
vt 0.451356 0.523544
vt 0.451356 0.546926
vt 0.451356 0.570307
vt 0.451356 0.593689
vt 0.451356 0.617071
vt 0.451356 0.640452
vt 0.451356 0.663834
vt 0.451356 0.687215
vt 0.423177 0.687215
vt 0.394997 0.687215
vt 0.366818 0.687215
vt 0.338639 0.687215
vt 0.310460 0.687215
vt 0.282280 0.687215
vt 0.254101 0.687215
vt 0.225922 0.663834
vt 0.225922 0.687215
vt 0.225922 0.640452
vt 0.225922 0.617070
vt 0.225922 0.593689
vt 0.225922 0.570307
vt 0.225922 0.546926
vt 0.526573 0.062622
vt 0.526573 0.125081
vt 0.491501 0.125081
vt 0.491501 0.062622
vt 0.526573 0.187541
vt 0.491501 0.187541
vt 0.526573 0.250000
vt 0.491501 0.250000
vt 0.526573 0.312459
vt 0.491501 0.312459
vt 0.526573 0.374919
vt 0.491501 0.374919
vt 0.526573 0.437378
vt 0.491501 0.437378
vt 0.456429 0.125081
vt 0.456428 0.062622
vt 0.456428 0.187541
vt 0.456429 0.250000
vt 0.456428 0.312459
vt 0.456428 0.374919
vt 0.456428 0.437378
vt 0.421356 0.125081
vt 0.421356 0.062622
vt 0.421356 0.187541
vt 0.421356 0.250000
vt 0.421356 0.312459
vt 0.421356 0.374919
vt 0.421356 0.437378
vt 0.386284 0.125081
vt 0.386284 0.062622
vt 0.386284 0.187541
vt 0.386284 0.250000
vt 0.386284 0.312459
vt 0.386284 0.374919
vt 0.386284 0.437378
vt 0.351211 0.125081
vt 0.351211 0.062622
vt 0.351211 0.187541
vt 0.351211 0.250000
vt 0.351211 0.312459
vt 0.351211 0.374919
vt 0.351211 0.437378
vt 0.316139 0.125081
vt 0.316139 0.062622
vt 0.316139 0.187541
vt 0.316139 0.250000
vt 0.316139 0.312459
vt 0.316139 0.374919
vt 0.316139 0.437378
vt 0.561646 0.000163
vt 0.561646 0.062622
vt 0.526573 0.000163
vt 0.561646 0.125081
vt 0.561646 0.187541
vt 0.561646 0.250000
vt 0.561646 0.312459
vt 0.561646 0.374919
vt 0.561646 0.437378
vt 0.561646 0.499838
vt 0.526573 0.499838
vt 0.491501 0.499838
vt 0.456428 0.499838
vt 0.421356 0.499838
vt 0.386284 0.499838
vt 0.351211 0.499838
vt 0.316139 0.499838
vt 0.281067 0.499838
vt 0.281067 0.437378
vt 0.281067 0.374919
vt 0.281067 0.312459
vt 0.281067 0.250000
vt 0.281067 0.187541
vt 0.281067 0.125081
vt 0.281067 0.062622
vt 0.316139 0.000163
vt 0.281067 0.000163
vt 0.351211 0.000163
vt 0.386284 0.000163
vt 0.421356 0.000163
vt 0.456429 0.000163
vt 0.491501 0.000163
vt 0.197417 0.562622
vt 0.197417 0.625082
vt 0.169238 0.625081
vt 0.169238 0.562622
vt 0.197417 0.687541
vt 0.169238 0.687541
vt 0.197417 0.750000
vt 0.169238 0.750000
vt 0.197417 0.812460
vt 0.169238 0.812460
vt 0.197417 0.874919
vt 0.169238 0.874919
vt 0.197417 0.937378
vt 0.169238 0.937378
vt 0.141059 0.625082
vt 0.141059 0.562622
vt 0.141059 0.687541
vt 0.141059 0.750000
vt 0.141059 0.812460
vt 0.141059 0.874919
vt 0.141059 0.937378
vt 0.112880 0.625081
vt 0.112880 0.562622
vt 0.112880 0.687541
vt 0.112880 0.750000
vt 0.112880 0.812460
vt 0.112880 0.874919
vt 0.112880 0.937378
vt 0.084700 0.625082
vt 0.084700 0.562622
vt 0.084700 0.687541
vt 0.084700 0.750000
vt 0.084700 0.812460
vt 0.084700 0.874919
vt 0.084700 0.937378
vt 0.056521 0.625081
vt 0.056521 0.562622
vt 0.056521 0.687541
vt 0.056521 0.750000
vt 0.056521 0.812460
vt 0.056521 0.874919
vt 0.056521 0.937378
vt 0.028342 0.625081
vt 0.028342 0.562622
vt 0.028342 0.687541
vt 0.028342 0.750000
vt 0.028342 0.812460
vt 0.028342 0.874919
vt 0.028342 0.937378
vt 0.225597 0.500163
vt 0.225597 0.562622
vt 0.197417 0.500163
vt 0.225597 0.625081
vt 0.225597 0.687541
vt 0.225597 0.750000
vt 0.225597 0.812460
vt 0.225597 0.874919
vt 0.225597 0.937378
vt 0.225597 0.999838
vt 0.197417 0.999838
vt 0.169238 0.999838
vt 0.141059 0.999838
vt 0.112880 0.999838
vt 0.084700 0.999838
vt 0.056521 0.999838
vt 0.028342 0.999838
vt 0.000163 0.999838
vt 0.000163 0.937378
vt 0.000163 0.874919
vt 0.000163 0.812460
vt 0.000163 0.750000
vt 0.000163 0.687541
vt 0.000163 0.625081
vt 0.000163 0.562622
vt 0.028342 0.500163
vt 0.000163 0.500163
vt 0.056521 0.500163
vt 0.084700 0.500163
vt 0.112880 0.500163
vt 0.141059 0.500163
vt 0.169238 0.500163
s 1
usemtl Material
f 93/1/93 94/2/94 101/3/101 100/4/100
f 94/2/94 95/5/95 102/6/102 101/3/101
f 95/5/95 96/7/96 103/8/103 102/6/102
f 96/7/96 97/9/97 104/10/104 103/8/103
f 97/9/97 98/11/98 105/12/105 104/10/104
f 98/11/98 99/13/99 106/14/106 105/12/105
f 100/4/100 101/3/101 108/15/108 107/16/107
f 101/3/101 102/6/102 109/17/109 108/15/108
f 102/6/102 103/8/103 110/18/110 109/17/109
f 103/8/103 104/10/104 111/19/111 110/18/110
f 104/10/104 105/12/105 112/20/112 111/19/111
f 105/12/105 106/14/106 113/21/113 112/20/112
f 107/16/107 108/15/108 115/22/115 114/23/114
f 108/15/108 109/17/109 116/24/116 115/22/115
f 109/17/109 110/18/110 117/25/117 116/24/116
f 110/18/110 111/19/111 118/26/118 117/25/117
f 111/19/111 112/20/112 119/27/119 118/26/118
f 112/20/112 113/21/113 120/28/120 119/27/119
f 114/23/114 115/22/115 122/29/122 121/30/121
f 115/22/115 116/24/116 123/31/123 122/29/122
f 116/24/116 117/25/117 124/32/124 123/31/123
f 117/25/117 118/26/118 125/33/125 124/32/124
f 118/26/118 119/27/119 126/34/126 125/33/125
f 119/27/119 120/28/120 127/35/127 126/34/126
f 121/30/121 122/29/122 129/36/129 128/37/128
f 122/29/122 123/31/123 130/38/130 129/36/129
f 123/31/123 124/32/124 131/39/131 130/38/130
f 124/32/124 125/33/125 132/40/132 131/39/131
f 125/33/125 126/34/126 133/41/133 132/40/132
f 126/34/126 127/35/127 134/42/134 133/41/133
f 128/37/128 129/36/129 136/43/136 135/44/135
f 129/36/129 130/38/130 137/45/137 136/43/136
f 130/38/130 131/39/131 138/46/138 137/45/137
f 131/39/131 132/40/132 139/47/139 138/46/138
f 132/40/132 133/41/133 140/48/140 139/47/139
f 133/41/133 134/42/134 141/49/141 140/48/140
f 1/50/1 85/51/85 93/1/93 58/52/58
f 85/51/85 84/53/84 94/2/94 93/1/93
f 84/53/84 83/54/83 95/5/95 94/2/94
f 83/54/83 82/55/82 96/7/96 95/5/95
f 82/55/82 81/56/81 97/9/97 96/7/96
f 81/56/81 80/57/80 98/11/98 97/9/97
f 80/57/80 79/58/79 99/13/99 98/11/98
f 79/58/79 5/59/5 78/60/78 99/13/99
f 99/13/99 78/60/78 77/61/77 106/14/106
f 106/14/106 77/61/77 76/62/76 113/21/113
f 113/21/113 76/62/76 75/63/75 120/28/120
f 120/28/120 75/63/75 74/64/74 127/35/127
f 127/35/127 74/64/74 73/65/73 134/42/134
f 134/42/134 73/65/73 72/66/72 141/49/141
f 141/49/141 72/66/72 7/67/7 57/68/57
f 140/48/140 141/49/141 57/68/57 56/69/56
f 139/47/139 140/48/140 56/69/56 55/70/55
f 138/46/138 139/47/139 55/70/55 54/71/54
f 137/45/137 138/46/138 54/71/54 53/72/53
f 136/43/136 137/45/137 53/72/53 52/73/52
f 135/44/135 136/43/136 52/73/52 51/74/51
f 64/75/64 135/44/135 51/74/51 3/76/3
f 63/77/63 128/37/128 135/44/135 64/75/64
f 62/78/62 121/30/121 128/37/128 63/77/63
f 61/79/61 114/23/114 121/30/121 62/78/62
f 60/80/60 107/16/107 114/23/114 61/79/61
f 59/81/59 100/4/100 107/16/107 60/80/60
f 58/52/58 93/1/93 100/4/100 59/81/59
f 142/82/142 143/83/143 150/84/150 149/85/149
f 143/83/143 144/86/144 151/87/151 150/84/150
f 144/86/144 145/88/145 152/89/152 151/87/151
f 145/88/145 146/90/146 153/91/153 152/89/152
f 146/90/146 147/92/147 154/93/154 153/91/153
f 147/92/147 148/94/148 155/95/155 154/93/154
f 149/85/149 150/84/150 157/96/157 156/97/156
f 150/84/150 151/87/151 158/98/158 157/96/157
f 151/87/151 152/89/152 159/99/159 158/98/158
f 152/89/152 153/91/153 160/100/160 159/99/159
f 153/91/153 154/93/154 161/101/161 160/100/160
f 154/93/154 155/95/155 162/102/162 161/101/161
f 156/97/156 157/96/157 164/103/164 163/104/163
f 157/96/157 158/98/158 165/105/165 164/103/164
f 158/98/158 159/99/159 166/106/166 165/105/165
f 159/99/159 160/100/160 167/107/167 166/106/166
f 160/100/160 161/101/161 168/108/168 167/107/167
f 161/101/161 162/102/162 169/109/169 168/108/168
f 163/104/163 164/103/164 171/110/171 170/111/170
f 164/103/164 165/105/165 172/112/172 171/110/171
f 165/105/165 166/106/166 173/113/173 172/112/172
f 166/106/166 167/107/167 174/114/174 173/113/173
f 167/107/167 168/108/168 175/115/175 174/114/174
f 168/108/168 169/109/169 176/116/176 175/115/175
f 170/111/170 171/110/171 178/117/178 177/118/177
f 171/110/171 172/112/172 179/119/179 178/117/178
f 172/112/172 173/113/173 180/120/180 179/119/179
f 173/113/173 174/114/174 181/121/181 180/120/180
f 174/114/174 175/115/175 182/122/182 181/121/181
f 175/115/175 176/116/176 183/123/183 182/122/182
f 177/118/177 178/117/178 185/124/185 184/125/184
f 178/117/178 179/119/179 186/126/186 185/124/185
f 179/119/179 180/120/180 187/127/187 186/126/186
f 180/120/180 181/121/181 188/128/188 187/127/187
f 181/121/181 182/122/182 189/129/189 188/128/188
f 182/122/182 183/123/183 190/130/190 189/129/189
f 4/131/4 43/132/43 142/82/142 71/133/71
f 43/132/43 42/134/42 143/83/143 142/82/142
f 42/134/42 41/135/41 144/86/144 143/83/143
f 41/135/41 40/136/40 145/88/145 144/86/144
f 40/136/40 39/137/39 146/90/146 145/88/145
f 39/137/39 38/138/38 147/92/147 146/90/146
f 38/138/38 37/139/37 148/94/148 147/92/147
f 37/139/37 3/140/3 51/141/51 148/94/148
f 148/94/148 51/141/51 52/142/52 155/95/155
f 155/95/155 52/142/52 53/143/53 162/102/162
f 162/102/162 53/143/53 54/144/54 169/109/169
f 169/109/169 54/144/54 55/145/55 176/116/176
f 176/116/176 55/145/55 56/146/56 183/123/183
f 183/123/183 56/146/56 57/147/57 190/130/190
f 190/130/190 57/147/57 7/148/7 36/149/36
f 189/129/189 190/130/190 36/149/36 35/150/35
f 188/128/188 189/129/189 35/150/35 34/151/34
f 187/127/187 188/128/188 34/151/34 33/152/33
f 186/126/186 187/127/187 33/152/33 32/153/32
f 185/124/185 186/126/186 32/153/32 31/154/31
f 184/125/184 185/124/185 31/154/31 30/155/30
f 65/156/65 184/125/184 30/155/30 8/157/8
f 66/158/66 177/118/177 184/125/184 65/156/65
f 67/159/67 170/111/170 177/118/177 66/158/66
f 68/160/68 163/104/163 170/111/170 67/159/67
f 69/161/69 156/97/156 163/104/163 68/160/68
f 70/162/70 149/85/149 156/97/156 69/161/69
f 71/133/71 142/82/142 149/85/149 70/162/70
f 191/163/191 192/164/192 199/165/199 198/166/198
f 192/164/192 193/167/193 200/168/200 199/165/199
f 193/167/193 194/169/194 201/170/201 200/168/200
f 194/169/194 195/171/195 202/172/202 201/170/201
f 195/171/195 196/173/196 203/174/203 202/172/202
f 196/173/196 197/175/197 204/176/204 203/174/203
f 198/166/198 199/165/199 206/177/206 205/178/205
f 199/165/199 200/168/200 207/179/207 206/177/206
f 200/168/200 201/170/201 208/180/208 207/179/207
f 201/170/201 202/172/202 209/181/209 208/180/208
f 202/172/202 203/174/203 210/182/210 209/181/209
f 203/174/203 204/176/204 211/183/211 210/182/210
f 205/178/205 206/177/206 213/184/213 212/185/212
f 206/177/206 207/179/207 214/186/214 213/184/213
f 207/179/207 208/180/208 215/187/215 214/186/214
f 208/180/208 209/181/209 216/188/216 215/187/215
f 209/181/209 210/182/210 217/189/217 216/188/216
f 210/182/210 211/183/211 218/190/218 217/189/217
f 212/185/212 213/184/213 220/191/220 219/192/219
f 213/184/213 214/186/214 221/193/221 220/191/220
f 214/186/214 215/187/215 222/194/222 221/193/221
f 215/187/215 216/188/216 223/195/223 222/194/222
f 216/188/216 217/189/217 224/196/224 223/195/223
f 217/189/217 218/190/218 225/197/225 224/196/224
f 219/192/219 220/191/220 227/198/227 226/199/226
f 220/191/220 221/193/221 228/200/228 227/198/227
f 221/193/221 222/194/222 229/201/229 228/200/228
f 222/194/222 223/195/223 230/202/230 229/201/229
f 223/195/223 224/196/224 231/203/231 230/202/230
f 224/196/224 225/197/225 232/204/232 231/203/231
f 226/199/226 227/198/227 234/205/234 233/206/233
f 227/198/227 228/200/228 235/207/235 234/205/234
f 228/200/228 229/201/229 236/208/236 235/207/235
f 229/201/229 230/202/230 237/209/237 236/208/236
f 230/202/230 231/203/231 238/210/238 237/209/237
f 231/203/231 232/204/232 239/211/239 238/210/238
f 8/212/8 30/213/30 191/163/191 15/214/15
f 30/213/30 31/215/31 192/164/192 191/163/191
f 31/215/31 32/216/32 193/167/193 192/164/192
f 32/216/32 33/217/33 194/169/194 193/167/193
f 33/217/33 34/218/34 195/171/195 194/169/194
f 34/218/34 35/219/35 196/173/196 195/171/195
f 35/219/35 36/220/36 197/175/197 196/173/196
f 36/220/36 7/221/7 72/222/72 197/175/197
f 197/175/197 72/222/72 73/223/73 204/176/204
f 204/176/204 73/223/73 74/224/74 211/183/211
f 211/183/211 74/224/74 75/225/75 218/190/218
f 218/190/218 75/225/75 76/226/76 225/197/225
f 225/197/225 76/226/76 77/227/77 232/204/232
f 232/204/232 77/227/77 78/228/78 239/211/239
f 239/211/239 78/228/78 5/229/5 44/230/44
f 238/210/238 239/211/239 44/230/44 45/231/45
f 237/209/237 238/210/238 45/231/45 46/232/46
f 236/208/236 237/209/237 46/232/46 47/233/47
f 235/207/235 236/208/236 47/233/47 48/234/48
f 234/205/234 235/207/235 48/234/48 49/235/49
f 233/206/233 234/205/234 49/235/49 50/236/50
f 9/237/9 233/206/233 50/236/50 6/238/6
f 10/239/10 226/199/226 233/206/233 9/237/9
f 11/240/11 219/192/219 226/199/226 10/239/10
f 12/241/12 212/185/212 219/192/219 11/240/11
f 13/242/13 205/178/205 212/185/212 12/241/12
f 14/243/14 198/166/198 205/178/205 13/242/13
f 15/214/15 191/163/191 198/166/198 14/243/14
f 240/244/240 241/245/241 248/246/248 247/247/247
f 241/245/241 242/248/242 249/249/249 248/246/248
f 242/248/242 243/250/243 250/251/250 249/249/249
f 243/250/243 244/252/244 251/253/251 250/251/250
f 244/252/244 245/254/245 252/255/252 251/253/251
f 245/254/245 246/256/246 253/257/253 252/255/252
f 247/247/247 248/246/248 255/258/255 254/259/254
f 248/246/248 249/249/249 256/260/256 255/258/255
f 249/249/249 250/251/250 257/261/257 256/260/256
f 250/251/250 251/253/251 258/262/258 257/261/257
f 251/253/251 252/255/252 259/263/259 258/262/258
f 252/255/252 253/257/253 260/264/260 259/263/259
f 254/259/254 255/258/255 262/265/262 261/266/261
f 255/258/255 256/260/256 263/267/263 262/265/262
f 256/260/256 257/261/257 264/268/264 263/267/263
f 257/261/257 258/262/258 265/269/265 264/268/264
f 258/262/258 259/263/259 266/270/266 265/269/265
f 259/263/259 260/264/260 267/271/267 266/270/266
f 261/266/261 262/265/262 269/272/269 268/273/268
f 262/265/262 263/267/263 270/274/270 269/272/269
f 263/267/263 264/268/264 271/275/271 270/274/270
f 264/268/264 265/269/265 272/276/272 271/275/271
f 265/269/265 266/270/266 273/277/273 272/276/272
f 266/270/266 267/271/267 274/278/274 273/277/273
f 268/273/268 269/272/269 276/279/276 275/280/275
f 269/272/269 270/274/270 277/281/277 276/279/276
f 270/274/270 271/275/271 278/282/278 277/281/277
f 271/275/271 272/276/272 279/283/279 278/282/278
f 272/276/272 273/277/273 280/284/280 279/283/279
f 273/277/273 274/278/274 281/285/281 280/284/280
f 275/280/275 276/279/276 283/286/283 282/287/282
f 276/279/276 277/281/277 284/288/284 283/286/283
f 277/281/277 278/282/278 285/289/285 284/288/284
f 278/282/278 279/283/279 286/290/286 285/289/285
f 279/283/279 280/284/280 287/291/287 286/290/286
f 280/284/280 281/285/281 288/292/288 287/291/287
f 6/293/6 22/294/22 240/244/240 9/295/9
f 22/294/22 21/296/21 241/245/241 240/244/240
f 21/296/21 20/297/20 242/248/242 241/245/241
f 20/297/20 19/298/19 243/250/243 242/248/242
f 19/298/19 18/299/18 244/252/244 243/250/243
f 18/299/18 17/300/17 245/254/245 244/252/244
f 17/300/17 16/301/16 246/256/246 245/254/245
f 16/301/16 2/302/2 92/303/92 246/256/246
f 246/256/246 92/303/92 91/304/91 253/257/253
f 253/257/253 91/304/91 90/305/90 260/264/260
f 260/264/260 90/305/90 89/306/89 267/271/267
f 267/271/267 89/306/89 88/307/88 274/278/274
f 274/278/274 88/307/88 87/308/87 281/285/281
f 281/285/281 87/308/87 86/309/86 288/292/288
f 288/292/288 86/309/86 4/310/4 71/311/71
f 287/291/287 288/292/288 71/311/71 70/312/70
f 286/290/286 287/291/287 70/312/70 69/313/69
f 285/289/285 286/290/286 69/313/69 68/314/68
f 284/288/284 285/289/285 68/314/68 67/315/67
f 283/286/283 284/288/284 67/315/67 66/316/66
f 282/287/282 283/286/283 66/316/66 65/317/65
f 15/318/15 282/287/282 65/317/65 8/319/8
f 14/320/14 275/280/275 282/287/282 15/318/15
f 13/321/13 268/273/268 275/280/275 14/320/14
f 12/322/12 261/266/261 268/273/268 13/321/13
f 11/323/11 254/259/254 261/266/261 12/322/12
f 10/324/10 247/247/247 254/259/254 11/323/11
f 9/295/9 240/244/240 247/247/247 10/324/10
f 289/325/289 290/326/290 297/327/297 296/328/296
f 290/326/290 291/329/291 298/330/298 297/327/297
f 291/329/291 292/331/292 299/332/299 298/330/298
f 292/331/292 293/333/293 300/334/300 299/332/299
f 293/333/293 294/335/294 301/336/301 300/334/300
f 294/335/294 295/337/295 302/338/302 301/336/301
f 296/328/296 297/327/297 304/339/304 303/340/303
f 297/327/297 298/330/298 305/341/305 304/339/304
f 298/330/298 299/332/299 306/342/306 305/341/305
f 299/332/299 300/334/300 307/343/307 306/342/306
f 300/334/300 301/336/301 308/344/308 307/343/307
f 301/336/301 302/338/302 309/345/309 308/344/308
f 303/340/303 304/339/304 311/346/311 310/347/310
f 304/339/304 305/341/305 312/348/312 311/346/311
f 305/341/305 306/342/306 313/349/313 312/348/312
f 306/342/306 307/343/307 314/350/314 313/349/313
f 307/343/307 308/344/308 315/351/315 314/350/314
f 308/344/308 309/345/309 316/352/316 315/351/315
f 310/347/310 311/346/311 318/353/318 317/354/317
f 311/346/311 312/348/312 319/355/319 318/353/318
f 312/348/312 313/349/313 320/356/320 319/355/319
f 313/349/313 314/350/314 321/357/321 320/356/320
f 314/350/314 315/351/315 322/358/322 321/357/321
f 315/351/315 316/352/316 323/359/323 322/358/322
f 317/354/317 318/353/318 325/360/325 324/361/324
f 318/353/318 319/355/319 326/362/326 325/360/325
f 319/355/319 320/356/320 327/363/327 326/362/326
f 320/356/320 321/357/321 328/364/328 327/363/327
f 321/357/321 322/358/322 329/365/329 328/364/328
f 322/358/322 323/359/323 330/366/330 329/365/329
f 324/361/324 325/360/325 332/367/332 331/368/331
f 325/360/325 326/362/326 333/369/333 332/367/332
f 326/362/326 327/363/327 334/370/334 333/369/333
f 327/363/327 328/364/328 335/371/335 334/370/334
f 328/364/328 329/365/329 336/372/336 335/371/335
f 329/365/329 330/366/330 337/373/337 336/372/336
f 2/374/2 29/375/29 289/325/289 92/376/92
f 29/375/29 28/377/28 290/326/290 289/325/289
f 28/377/28 27/378/27 291/329/291 290/326/290
f 27/378/27 26/379/26 292/331/292 291/329/291
f 26/379/26 25/380/25 293/333/293 292/331/292
f 25/380/25 24/381/24 294/335/294 293/333/293
f 24/381/24 23/382/23 295/337/295 294/335/294
f 23/382/23 1/383/1 58/384/58 295/337/295
f 295/337/295 58/384/58 59/385/59 302/338/302
f 302/338/302 59/385/59 60/386/60 309/345/309
f 309/345/309 60/386/60 61/387/61 316/352/316
f 316/352/316 61/387/61 62/388/62 323/359/323
f 323/359/323 62/388/62 63/389/63 330/366/330
f 330/366/330 63/389/63 64/390/64 337/373/337
f 337/373/337 64/390/64 3/391/3 37/392/37
f 336/372/336 337/373/337 37/392/37 38/393/38
f 335/371/335 336/372/336 38/393/38 39/394/39
f 334/370/334 335/371/335 39/394/39 40/395/40
f 333/369/333 334/370/334 40/395/40 41/396/41
f 332/367/332 333/369/333 41/396/41 42/397/42
f 331/368/331 332/367/332 42/397/42 43/398/43
f 86/399/86 331/368/331 43/398/43 4/400/4
f 87/401/87 324/361/324 331/368/331 86/399/86
f 88/402/88 317/354/317 324/361/324 87/401/87
f 89/403/89 310/347/310 317/354/317 88/402/88
f 90/404/90 303/340/303 310/347/310 89/403/89
f 91/405/91 296/328/296 303/340/303 90/404/90
f 92/376/92 289/325/289 296/328/296 91/405/91
f 338/406/338 339/407/339 346/408/346 345/409/345
f 339/407/339 340/410/340 347/411/347 346/408/346
f 340/410/340 341/412/341 348/413/348 347/411/347
f 341/412/341 342/414/342 349/415/349 348/413/348
f 342/414/342 343/416/343 350/417/350 349/415/349
f 343/416/343 344/418/344 351/419/351 350/417/350
f 345/409/345 346/408/346 353/420/353 352/421/352
f 346/408/346 347/411/347 354/422/354 353/420/353
f 347/411/347 348/413/348 355/423/355 354/422/354
f 348/413/348 349/415/349 356/424/356 355/423/355
f 349/415/349 350/417/350 357/425/357 356/424/356
f 350/417/350 351/419/351 358/426/358 357/425/357
f 352/421/352 353/420/353 360/427/360 359/428/359
f 353/420/353 354/422/354 361/429/361 360/427/360
f 354/422/354 355/423/355 362/430/362 361/429/361
f 355/423/355 356/424/356 363/431/363 362/430/362
f 356/424/356 357/425/357 364/432/364 363/431/363
f 357/425/357 358/426/358 365/433/365 364/432/364
f 359/428/359 360/427/360 367/434/367 366/435/366
f 360/427/360 361/429/361 368/436/368 367/434/367
f 361/429/361 362/430/362 369/437/369 368/436/368
f 362/430/362 363/431/363 370/438/370 369/437/369
f 363/431/363 364/432/364 371/439/371 370/438/370
f 364/432/364 365/433/365 372/440/372 371/439/371
f 366/435/366 367/434/367 374/441/374 373/442/373
f 367/434/367 368/436/368 375/443/375 374/441/374
f 368/436/368 369/437/369 376/444/376 375/443/375
f 369/437/369 370/438/370 377/445/377 376/444/376
f 370/438/370 371/439/371 378/446/378 377/445/377
f 371/439/371 372/440/372 379/447/379 378/446/378
f 373/442/373 374/441/374 381/448/381 380/449/380
f 374/441/374 375/443/375 382/450/382 381/448/381
f 375/443/375 376/444/376 383/451/383 382/450/382
f 376/444/376 377/445/377 384/452/384 383/451/383
f 377/445/377 378/446/378 385/453/385 384/452/384
f 378/446/378 379/447/379 386/454/386 385/453/385
f 6/455/6 50/456/50 338/406/338 22/457/22
f 50/456/50 49/458/49 339/407/339 338/406/338
f 49/458/49 48/459/48 340/410/340 339/407/339
f 48/459/48 47/460/47 341/412/341 340/410/340
f 47/460/47 46/461/46 342/414/342 341/412/341
f 46/461/46 45/462/45 343/416/343 342/414/342
f 45/462/45 44/463/44 344/418/344 343/416/343
f 44/463/44 5/464/5 79/465/79 344/418/344
f 344/418/344 79/465/79 80/466/80 351/419/351
f 351/419/351 80/466/80 81/467/81 358/426/358
f 358/426/358 81/467/81 82/468/82 365/433/365
f 365/433/365 82/468/82 83/469/83 372/440/372
f 372/440/372 83/469/83 84/470/84 379/447/379
f 379/447/379 84/470/84 85/471/85 386/454/386
f 386/454/386 85/471/85 1/472/1 23/473/23
f 385/453/385 386/454/386 23/473/23 24/474/24
f 384/452/384 385/453/385 24/474/24 25/475/25
f 383/451/383 384/452/384 25/475/25 26/476/26
f 382/450/382 383/451/383 26/476/26 27/477/27
f 381/448/381 382/450/382 27/477/27 28/478/28
f 380/449/380 381/448/381 28/478/28 29/479/29
f 16/480/16 380/449/380 29/479/29 2/481/2
f 17/482/17 373/442/373 380/449/380 16/480/16
f 18/483/18 366/435/366 373/442/373 17/482/17
f 19/484/19 359/428/359 366/435/366 18/483/18
f 20/485/20 352/421/352 359/428/359 19/484/19
f 21/486/21 345/409/345 352/421/352 20/485/20
f 22/457/22 338/406/338 345/409/345 21/486/21
