# Blender 4.5.3 LTS
# www.blender.org
mtllib reloj.mtl
o Cube.002
v -0.068929 0.018205 0.196098
v 0.420637 0.303202 0.196098
v -0.018205 -0.068929 0.196098
v 0.471361 0.216068 0.196098
v -0.068929 0.018205 0.296921
v 0.420637 0.303202 0.296921
v -0.018205 -0.068929 0.296921
v 0.471361 0.216068 0.296921
v 1.000000 1.000000 0.241200
v 1.000000 -1.000000 0.241200
v -1.000000 1.000000 0.241200
v -1.000000 -1.000000 0.241200
v 1.000000 1.000000 -0.241200
v 1.000000 -1.000000 -0.241200
v -1.000000 1.000000 -0.241200
v -1.000000 -1.000000 -0.241200
v -0.050412 -0.050412 0.196098
v -0.050412 0.516067 0.196098
v 0.050412 -0.050412 0.196098
v 0.050412 0.516067 0.196098
v -0.050412 -0.050412 0.296921
v -0.050412 0.516067 0.296921
v 0.050412 -0.050412 0.296921
v 0.050412 0.516067 0.296921
vn -0.0000 -0.0000 -1.0000
vn 0.5031 -0.8642 -0.0000
vn -0.0000 -0.0000 1.0000
vn -0.5031 0.8642 -0.0000
vn -0.8642 -0.5031 -0.0000
vn 0.8642 0.5031 -0.0000
vn -0.0000 1.0000 -0.0000
vn -1.0000 -0.0000 -0.0000
vn -0.0000 -1.0000 -0.0000
vn 1.0000 -0.0000 -0.0000
vt 0.375000 0.000000
vt 0.625000 0.000000
vt 0.625000 0.250000
vt 0.375000 0.250000
vt 0.625000 0.500000
vt 0.375000 0.500000
vt 0.625000 0.750000
vt 0.375000 0.750000
vt 0.625000 1.000000
vt 0.375000 1.000000
vt 0.125000 0.500000
vt 0.125000 0.750000
vt 0.875000 0.500000
vt 0.875000 0.750000
vt 0.333333 0.000000
vt 0.333333 0.333333
vt 0.000000 0.333333
vt 0.000000 0.000000
vt 0.333333 0.666667
vt 0.000000 0.666667
vt 0.000000 0.333333
vt 0.333333 0.333333
vt 0.037909 1.229895
vt -0.295424 1.229895
vt -0.295424 0.896561
vt 0.037909 0.896561
vt 0.666667 0.333333
vt 0.666667 0.666667
vt 0.333333 0.666667
vt 0.333333 0.333333
vt 1.009021 0.002623
vt 1.009021 1.011999
vt -0.000355 1.011999
vt -0.000355 0.002623
vt 0.666667 0.685621
vt 0.333333 0.685621
vt 0.333333 0.352288
vt 0.666667 0.352288
s 0
usemtl Material.001
f 1/1/1 2/2/1 4/3/1 3/4/1
f 3/4/2 4/3/2 8/5/2 7/6/2
f 7/6/3 8/5/3 6/7/3 5/8/3
f 5/8/4 6/7/4 2/9/4 1/10/4
f 3/11/5 7/6/5 5/8/5 1/12/5
f 8/5/6 4/13/6 2/14/6 6/7/6
f 17/1/1 18/2/1 20/3/1 19/4/1
f 19/4/10 20/3/10 24/5/10 23/6/10
f 23/6/3 24/5/3 22/7/3 21/8/3
f 21/8/8 22/7/8 18/9/8 17/10/8
f 19/11/9 23/6/9 21/8/9 17/12/9
f 24/5/7 20/13/7 18/14/7 22/7/7
usemtl Material
f 9/15/7 13/16/7 15/17/7 11/18/7
f 12/19/8 11/20/8 15/21/8 16/22/8
f 16/23/1 15/24/1 13/25/1 14/26/1
f 14/27/9 10/28/9 12/29/9 16/30/9
f 10/31/3 9/32/3 11/33/3 12/34/3
f 14/35/10 13/36/10 9/37/10 10/38/10
