# Blender 4.5.3 LTS
# www.blender.org
mtllib repisas2.mtl
o Cylinder
v 16.000000 3.649188 0.000000
v 16.000000 5.649188 0.000000
v 15.980785 3.649188 0.195090
v 15.980785 5.649188 0.195090
v 15.923880 3.649188 0.382683
v 15.923880 5.649188 0.382683
v 15.831470 3.649188 0.555570
v 15.831470 5.649188 0.555570
v 15.707107 3.649188 0.707107
v 15.707107 5.649188 0.707107
v 15.555571 3.649188 0.831470
v 15.555571 5.649188 0.831470
v 15.382684 3.649188 0.923880
v 15.382684 5.649188 0.923880
v 15.195090 3.649188 0.980785
v 15.195090 5.649188 0.980785
v 15.000000 3.649188 1.000000
v 15.000000 5.649188 1.000000
v 14.804910 3.649188 0.980785
v 14.804910 5.649188 0.980785
v 14.617316 3.649188 0.923880
v 14.617316 5.649188 0.923880
v 14.444429 3.649188 0.831470
v 14.444429 5.649188 0.831470
v 14.292893 3.649188 0.707107
v 14.292893 5.649188 0.707107
v 14.168530 3.649188 0.555570
v 14.168530 5.649188 0.555570
v 14.076120 3.649188 0.382683
v 14.076120 5.649188 0.382683
v 14.019215 3.649188 0.195090
v 14.019215 5.649188 0.195090
v 14.000000 3.649188 0.000000
v 14.000000 5.649188 0.000000
v 14.019215 3.649188 -0.195090
v 14.019215 5.649188 -0.195090
v 14.076120 3.649188 -0.382683
v 14.076120 5.649188 -0.382683
v 14.168530 3.649188 -0.555570
v 14.168530 5.649188 -0.555570
v 14.292893 3.649188 -0.707107
v 14.292893 5.649188 -0.707107
v 14.444429 3.649188 -0.831470
v 14.444429 5.649188 -0.831470
v 14.617316 3.649188 -0.923880
v 14.617316 5.649188 -0.923880
v 14.804910 3.649188 -0.980785
v 14.804910 5.649188 -0.980785
v 15.000000 3.649188 -1.000000
v 15.000000 5.649188 -1.000000
v 15.195090 3.649188 -0.980785
v 15.195090 5.649188 -0.980785
v 15.382684 3.649188 -0.923880
v 15.382684 5.649188 -0.923880
v 15.555571 3.649188 -0.831470
v 15.555571 5.649188 -0.831470
v 15.707107 3.649188 -0.707107
v 15.707107 5.649188 -0.707107
v 15.831470 3.649188 -0.555570
v 15.831470 5.649188 -0.555570
v 15.923880 3.649188 -0.382683
v 15.923880 5.649188 -0.382683
v 15.980785 3.649188 -0.195090
v 15.980785 5.649188 -0.195090
v 14.335661 2.025171 -1.000000
v 14.335661 3.015847 -1.000000
v 15.664339 2.025171 -1.000000
v 15.664339 3.015847 -1.000000
v 14.335661 2.025171 -0.114404
v 14.335661 3.015847 1.000000
v 15.664339 2.025171 -0.114404
v 15.664339 3.015847 1.000000
v 16.502279 3.672044 1.157815
v 16.502279 3.002546 1.157815
v 13.497721 3.672044 1.157815
v 13.497721 3.002546 1.157815
v 16.502279 3.672044 -1.157815
v 16.502279 3.002546 -1.157815
v 13.497721 3.672044 -1.157815
v 13.497721 3.002546 -1.157815
v 15.163981 5.585835 0.000000
v 15.163981 6.540444 0.000000
v 15.160830 5.585835 0.031991
v 15.160830 6.540444 0.031991
v 15.151499 5.585835 0.062753
v 15.151499 6.540444 0.062753
v 15.136346 5.585835 0.091103
v 15.136346 6.540444 0.091103
v 15.115952 5.585835 0.115952
v 15.115952 6.540444 0.115952
v 15.091104 5.585835 0.136346
v 15.091104 6.540444 0.136346
v 15.062753 5.585835 0.151499
v 15.062753 6.540444 0.151499
v 15.031991 5.585835 0.160831
v 15.031991 6.540444 0.160831
v 15.000000 5.585835 0.163981
v 15.000000 6.540444 0.163981
v 14.968009 5.585835 0.160831
v 14.968009 6.540444 0.160831
v 14.937247 5.585835 0.151499
v 14.937247 6.540444 0.151499
v 14.908896 5.585835 0.136346
v 14.908896 6.540444 0.136346
v 14.884048 5.585835 0.115952
v 14.884048 6.540444 0.115952
v 14.863654 5.585835 0.091103
v 14.863654 6.540444 0.091103
v 14.848501 5.585835 0.062753
v 14.848501 6.540444 0.062753
v 14.839170 5.585835 0.031991
v 14.839170 6.540444 0.031991
v 14.836019 5.585835 0.000000
v 14.836019 6.540444 0.000000
v 14.839170 5.585835 -0.031991
v 14.839170 6.540444 -0.031991
v 14.848501 5.585835 -0.062753
v 14.848501 6.540444 -0.062753
v 14.863654 5.585835 -0.091103
v 14.863654 6.540444 -0.091103
v 14.884048 5.585835 -0.115952
v 14.884048 6.540444 -0.115952
v 14.908896 5.585835 -0.136346
v 14.908896 6.540444 -0.136346
v 14.937247 5.585835 -0.151499
v 14.937247 6.540444 -0.151499
v 14.968009 5.585835 -0.160831
v 14.968009 6.540444 -0.160831
v 15.000000 5.585835 -0.163981
v 15.000000 6.540444 -0.163981
v 15.031991 5.585835 -0.160831
v 15.031991 6.540444 -0.160831
v 15.062753 5.585835 -0.151499
v 15.062753 6.540444 -0.151499
v 15.091104 5.585835 -0.136346
v 15.091104 6.540444 -0.136346
v 15.115952 5.585835 -0.115952
v 15.115952 6.540444 -0.115952
v 15.136346 5.585835 -0.091103
v 15.136346 6.540444 -0.091103
v 15.151499 5.585835 -0.062753
v 15.151499 6.540444 -0.062753
v 15.160830 5.585835 -0.031991
v 15.160830 6.540444 -0.031991
vn 0.7279 -0.6857 -0.0000
vn 0.7279 0.6857 -0.0000
vn 0.7139 0.6857 0.1420
vn 0.7139 -0.6857 0.1420
vn 0.6725 0.6857 0.2785
vn 0.6725 -0.6857 0.2785
vn 0.6052 0.6857 0.4044
vn 0.6052 -0.6857 0.4044
vn 0.5147 0.6857 0.5147
vn 0.5147 -0.6857 0.5147
vn 0.4044 0.6857 0.6052
vn 0.4044 -0.6857 0.6052
vn 0.2785 0.6857 0.6725
vn 0.2785 -0.6857 0.6725
vn 0.1420 0.6857 0.7139
vn 0.1420 -0.6857 0.7139
vn -0.0000 0.6857 0.7279
vn -0.0000 -0.6857 0.7279
vn -0.1420 0.6857 0.7139
vn -0.1420 -0.6857 0.7139
vn -0.2785 0.6857 0.6725
vn -0.2785 -0.6857 0.6725
vn -0.4044 0.6857 0.6052
vn -0.4044 -0.6857 0.6052
vn -0.5147 0.6857 0.5147
vn -0.5147 -0.6857 0.5147
vn -0.6052 0.6857 0.4044
vn -0.6052 -0.6857 0.4044
vn -0.6725 0.6857 0.2785
vn -0.6725 -0.6857 0.2785
vn -0.7139 0.6857 0.1420
vn -0.7139 -0.6857 0.1420
vn -0.7279 0.6857 -0.0000
vn -0.7279 -0.6857 -0.0000
vn -0.7139 0.6857 -0.1420
vn -0.7139 -0.6857 -0.1420
vn -0.6725 0.6857 -0.2785
vn -0.6725 -0.6857 -0.2785
vn -0.6052 0.6857 -0.4044
vn -0.6052 -0.6857 -0.4044
vn -0.5147 0.6857 -0.5147
vn -0.5147 -0.6857 -0.5147
vn -0.4044 0.6857 -0.6052
vn -0.4044 -0.6857 -0.6052
vn -0.2785 0.6857 -0.6725
vn -0.2785 -0.6857 -0.6725
vn -0.1420 0.6857 -0.7139
vn -0.1420 -0.6857 -0.7139
vn -0.0000 0.6857 -0.7279
vn -0.0000 -0.6857 -0.7279
vn 0.1420 0.6857 -0.7139
vn 0.1420 -0.6857 -0.7139
vn 0.2785 0.6857 -0.6725
vn 0.2785 -0.6857 -0.6725
vn 0.4044 0.6857 -0.6052
vn 0.4044 -0.6857 -0.6052
vn 0.5147 0.6857 -0.5147
vn 0.5147 -0.6857 -0.5147
vn 0.6052 0.6857 -0.4044
vn 0.6052 -0.6857 -0.4044
vn 0.6725 0.6857 -0.2785
vn 0.6725 -0.6857 -0.2785
vn 0.7139 0.6857 -0.1420
vn 0.7139 -0.6857 -0.1420
vn -0.0000 -0.0000 -1.0000
vn 1.0000 -0.0000 -0.0000
vn -0.0000 -0.7474 0.6644
vn -1.0000 -0.0000 -0.0000
vn -0.0000 -1.0000 -0.0000
vn -0.0000 1.0000 -0.0000
vn -0.0000 -0.0000 1.0000
vn 0.9952 -0.0000 0.0980
vn 0.9569 -0.0000 0.2903
vn 0.8819 -0.0000 0.4714
vn 0.7730 -0.0000 0.6344
vn 0.6344 -0.0000 0.7730
vn 0.4714 -0.0000 0.8819
vn 0.2903 -0.0000 0.9569
vn 0.0980 -0.0000 0.9952
vn -0.0980 -0.0000 0.9952
vn -0.2903 -0.0000 0.9569
vn -0.4714 -0.0000 0.8819
vn -0.6344 -0.0000 0.7730
vn -0.7730 -0.0000 0.6344
vn -0.8819 -0.0000 0.4714
vn -0.9569 -0.0000 0.2903
vn -0.9952 -0.0000 0.0980
vn -0.9952 -0.0000 -0.0980
vn -0.9569 -0.0000 -0.2903
vn -0.8819 -0.0000 -0.4714
vn -0.7730 -0.0000 -0.6344
vn -0.6344 -0.0000 -0.7730
vn -0.4714 -0.0000 -0.8819
vn -0.2903 -0.0000 -0.9569
vn -0.0980 -0.0000 -0.9952
vn 0.0980 -0.0000 -0.9952
vn 0.2903 -0.0000 -0.9569
vn 0.4714 -0.0000 -0.8819
vn 0.6344 -0.0000 -0.7730
vn 0.7730 -0.0000 -0.6344
vn 0.8819 -0.0000 -0.4714
vn 0.9569 -0.0000 -0.2903
vn 0.9952 -0.0000 -0.0980
vt 1.000000 0.500000
vt 1.000000 1.000000
vt 0.968750 1.000000
vt 0.968750 0.500000
vt 0.937500 1.000000
vt 0.937500 0.500000
vt 0.906250 1.000000
vt 0.906250 0.500000
vt 0.875000 1.000000
vt 0.875000 0.500000
vt 0.843750 1.000000
vt 0.843750 0.500000
vt 0.812500 1.000000
vt 0.812500 0.500000
vt 0.781250 1.000000
vt 0.781250 0.500000
vt 0.750000 1.000000
vt 0.750000 0.500000
vt 0.718750 1.000000
vt 0.718750 0.500000
vt 0.687500 1.000000
vt 0.687500 0.500000
vt 0.656250 1.000000
vt 0.656250 0.500000
vt 0.625000 1.000000
vt 0.625000 0.500000
vt 0.593750 1.000000
vt 0.593750 0.500000
vt 0.562500 1.000000
vt 0.562500 0.500000
vt 0.531250 1.000000
vt 0.531250 0.500000
vt 0.500000 1.000000
vt 0.500000 0.500000
vt 0.468750 1.000000
vt 0.468750 0.500000
vt 0.437500 1.000000
vt 0.437500 0.500000
vt 0.406250 1.000000
vt 0.406250 0.500000
vt 0.375000 1.000000
vt 0.375000 0.500000
vt 0.343750 1.000000
vt 0.343750 0.500000
vt 0.312500 1.000000
vt 0.312500 0.500000
vt 0.281250 1.000000
vt 0.281250 0.500000
vt 0.250000 1.000000
vt 0.250000 0.500000
vt 0.218750 1.000000
vt 0.218750 0.500000
vt 0.187500 1.000000
vt 0.187500 0.500000
vt 0.156250 1.000000
vt 0.156250 0.500000
vt 0.125000 1.000000
vt 0.125000 0.500000
vt 0.093750 1.000000
vt 0.093750 0.500000
vt 0.062500 1.000000
vt 0.062500 0.500000
vt 0.296822 0.485388
vt 0.250000 0.490000
vt 0.203178 0.485388
vt 0.158156 0.471731
vt 0.116663 0.449553
vt 0.080294 0.419706
vt 0.050447 0.383337
vt 0.028269 0.341844
vt 0.014612 0.296822
vt 0.010000 0.250000
vt 0.014612 0.203178
vt 0.028269 0.158156
vt 0.050447 0.116663
vt 0.080294 0.080294
vt 0.116663 0.050447
vt 0.158156 0.028269
vt 0.203178 0.014612
vt 0.250000 0.010000
vt 0.296822 0.014612
vt 0.341844 0.028269
vt 0.383337 0.050447
vt 0.419706 0.080294
vt 0.449553 0.116663
vt 0.471731 0.158156
vt 0.485388 0.203178
vt 0.490000 0.250000
vt 0.485388 0.296822
vt 0.471731 0.341844
vt 0.449553 0.383337
vt 0.419706 0.419706
vt 0.383337 0.449553
vt 0.341844 0.471731
vt 0.031250 1.000000
vt 0.031250 0.500000
vt 0.000000 1.000000
vt 0.000000 0.500000
vt 0.750000 0.490000
vt 0.796822 0.485388
vt 0.841844 0.471731
vt 0.883337 0.449553
vt 0.919706 0.419706
vt 0.949553 0.383337
vt 0.971731 0.341844
vt 0.985388 0.296822
vt 0.990000 0.250000
vt 0.985388 0.203178
vt 0.971731 0.158156
vt 0.949553 0.116663
vt 0.919706 0.080294
vt 0.883337 0.050447
vt 0.841844 0.028269
vt 0.796822 0.014612
vt 0.750000 0.010000
vt 0.703178 0.014612
vt 0.658156 0.028269
vt 0.616663 0.050447
vt 0.580294 0.080294
vt 0.550447 0.116663
vt 0.528269 0.158156
vt 0.514612 0.203178
vt 0.510000 0.250000
vt 0.514612 0.296822
vt 0.528269 0.341844
vt 0.550447 0.383337
vt 0.580294 0.419706
vt 0.616663 0.449553
vt 0.658156 0.471731
vt 0.703178 0.485388
vt 0.375000 0.000000
vt 0.625000 0.000000
vt 0.625000 0.250000
vt 0.375000 0.250000
vt 0.625000 0.750000
vt 0.375000 0.750000
vt 0.125000 0.750000
vt 0.875000 0.750000
s 1
usemtl Material.015
f 1/1/1 2/2/2 4/3/3 3/4/4
f 3/4/4 4/3/3 6/5/5 5/6/6
f 5/6/6 6/5/5 8/7/7 7/8/8
f 7/8/8 8/7/7 10/9/9 9/10/10
f 9/10/10 10/9/9 12/11/11 11/12/12
f 11/12/12 12/11/11 14/13/13 13/14/14
f 13/14/14 14/13/13 16/15/15 15/16/16
f 15/16/16 16/15/15 18/17/17 17/18/18
f 17/18/18 18/17/17 20/19/19 19/20/20
f 19/20/20 20/19/19 22/21/21 21/22/22
f 21/22/22 22/21/21 24/23/23 23/24/24
f 23/24/24 24/23/23 26/25/25 25/26/26
f 25/26/26 26/25/25 28/27/27 27/28/28
f 27/28/28 28/27/27 30/29/29 29/30/30
f 29/30/30 30/29/29 32/31/31 31/32/32
f 31/32/32 32/31/31 34/33/33 33/34/34
f 33/34/34 34/33/33 36/35/35 35/36/36
f 35/36/36 36/35/35 38/37/37 37/38/38
f 37/38/38 38/37/37 40/39/39 39/40/40
f 39/40/40 40/39/39 42/41/41 41/42/42
f 41/42/42 42/41/41 44/43/43 43/44/44
f 43/44/44 44/43/43 46/45/45 45/46/46
f 45/46/46 46/45/45 48/47/47 47/48/48
f 47/48/48 48/47/47 50/49/49 49/50/50
f 49/50/50 50/49/49 52/51/51 51/52/52
f 51/52/52 52/51/51 54/53/53 53/54/54
f 53/54/54 54/53/53 56/55/55 55/56/56
f 55/56/56 56/55/55 58/57/57 57/58/58
f 57/58/58 58/57/57 60/59/59 59/60/60
f 59/60/60 60/59/59 62/61/61 61/62/62
f 4/63/3 2/64/2 64/65/63 62/66/61 60/67/59 58/68/57 56/69/55 54/70/53 52/71/51 50/72/49 48/73/47 46/74/45 44/75/43 42/76/41 40/77/39 38/78/37 36/79/35 34/80/33 32/81/31 30/82/29 28/83/27 26/84/25 24/85/23 22/86/21 20/87/19 18/88/17 16/89/15 14/90/13 12/91/11 10/92/9 8/93/7 6/94/5
f 61/62/62 62/61/61 64/95/63 63/96/64
f 63/96/64 64/95/63 2/97/2 1/98/1
f 1/99/1 3/100/4 5/101/6 7/102/8 9/103/10 11/104/12 13/105/14 15/106/16 17/107/18 19/108/20 21/109/22 23/110/24 25/111/26 27/112/28 29/113/30 31/114/32 33/115/34 35/116/36 37/117/38 39/118/40 41/119/42 43/120/44 45/121/46 47/122/48 49/123/50 51/124/52 53/125/54 55/126/56 57/127/58 59/128/60 61/129/62 63/130/64
s 0
usemtl Material.009
f 65/131/65 66/132/65 68/133/65 67/134/65
f 67/134/66 68/133/66 72/26/66 71/42/66
f 71/42/67 72/26/67 70/135/67 69/136/67
f 69/136/68 70/135/68 66/25/68 65/41/68
f 67/58/69 71/42/69 69/136/69 65/137/69
f 72/26/70 68/10/70 66/138/70 70/135/70
usemtl Material.010
f 73/26/70 77/10/70 79/138/70 75/135/70
f 76/136/68 75/135/68 79/25/68 80/41/68
f 80/131/65 79/132/65 77/133/65 78/134/65
f 78/58/69 74/42/69 76/136/69 80/137/69
f 74/42/71 73/26/71 75/135/71 76/136/71
f 78/134/66 77/133/66 73/26/66 74/42/66
usemtl Material.013
f 81/1/72 82/2/72 84/3/72 83/4/72
f 83/4/73 84/3/73 86/5/73 85/6/73
f 85/6/74 86/5/74 88/7/74 87/8/74
f 87/8/75 88/7/75 90/9/75 89/10/75
f 89/10/76 90/9/76 92/11/76 91/12/76
f 91/12/77 92/11/77 94/13/77 93/14/77
f 93/14/78 94/13/78 96/15/78 95/16/78
f 95/16/79 96/15/79 98/17/79 97/18/79
f 97/18/80 98/17/80 100/19/80 99/20/80
f 99/20/81 100/19/81 102/21/81 101/22/81
f 101/22/82 102/21/82 104/23/82 103/24/82
f 103/24/83 104/23/83 106/25/83 105/26/83
f 105/26/84 106/25/84 108/27/84 107/28/84
f 107/28/85 108/27/85 110/29/85 109/30/85
f 109/30/86 110/29/86 112/31/86 111/32/86
f 111/32/87 112/31/87 114/33/87 113/34/87
f 113/34/88 114/33/88 116/35/88 115/36/88
f 115/36/89 116/35/89 118/37/89 117/38/89
f 117/38/90 118/37/90 120/39/90 119/40/90
f 119/40/91 120/39/91 122/41/91 121/42/91
f 121/42/92 122/41/92 124/43/92 123/44/92
f 123/44/93 124/43/93 126/45/93 125/46/93
f 125/46/94 126/45/94 128/47/94 127/48/94
f 127/48/95 128/47/95 130/49/95 129/50/95
f 129/50/96 130/49/96 132/51/96 131/52/96
f 131/52/97 132/51/97 134/53/97 133/54/97
f 133/54/98 134/53/98 136/55/98 135/56/98
f 135/56/99 136/55/99 138/57/99 137/58/99
f 137/58/100 138/57/100 140/59/100 139/60/100
f 139/60/101 140/59/101 142/61/101 141/62/101
f 84/63/70 82/64/70 144/65/70 142/66/70 140/67/70 138/68/70 136/69/70 134/70/70 132/71/70 130/72/70 128/73/70 126/74/70 124/75/70 122/76/70 120/77/70 118/78/70 116/79/70 114/80/70 112/81/70 110/82/70 108/83/70 106/84/70 104/85/70 102/86/70 100/87/70 98/88/70 96/89/70 94/90/70 92/91/70 90/92/70 88/93/70 86/94/70
f 141/62/102 142/61/102 144/95/102 143/96/102
f 143/96/103 144/95/103 82/97/103 81/98/103
f 81/99/69 83/100/69 85/101/69 87/102/69 89/103/69 91/104/69 93/105/69 95/106/69 97/107/69 99/108/69 101/109/69 103/110/69 105/111/69 107/112/69 109/113/69 111/114/69 113/115/69 115/116/69 117/117/69 119/118/69 121/119/69 123/120/69 125/121/69 127/122/69 129/123/69 131/124/69 133/125/69 135/126/69 137/127/69 139/128/69 141/129/69 143/130/69
o Cylinder.001
v -14.000000 3.649188 0.000000
v -14.000000 5.649188 0.000000
v -14.019215 3.649188 0.195090
v -14.019215 5.649188 0.195090
v -14.076120 3.649188 0.382683
v -14.076120 5.649188 0.382683
v -14.168530 3.649188 0.555570
v -14.168530 5.649188 0.555570
v -14.292893 3.649188 0.707107
v -14.292893 5.649188 0.707107
v -14.444429 3.649188 0.831470
v -14.444429 5.649188 0.831470
v -14.617316 3.649188 0.923880
v -14.617316 5.649188 0.923880
v -14.804910 3.649188 0.980785
v -14.804910 5.649188 0.980785
v -15.000000 3.649188 1.000000
v -15.000000 5.649188 1.000000
v -15.195090 3.649188 0.980785
v -15.195090 5.649188 0.980785
v -15.382684 3.649188 0.923880
v -15.382684 5.649188 0.923880
v -15.555571 3.649188 0.831470
v -15.555571 5.649188 0.831470
v -15.707107 3.649188 0.707107
v -15.707107 5.649188 0.707107
v -15.831470 3.649188 0.555570
v -15.831470 5.649188 0.555570
v -15.923880 3.649188 0.382683
v -15.923880 5.649188 0.382683
v -15.980785 3.649188 0.195090
v -15.980785 5.649188 0.195090
v -16.000000 3.649188 0.000000
v -16.000000 5.649188 0.000000
v -15.980785 3.649188 -0.195090
v -15.980785 5.649188 -0.195090
v -15.923880 3.649188 -0.382683
v -15.923880 5.649188 -0.382683
v -15.831470 3.649188 -0.555570
v -15.831470 5.649188 -0.555570
v -15.707107 3.649188 -0.707107
v -15.707107 5.649188 -0.707107
v -15.555571 3.649188 -0.831470
v -15.555571 5.649188 -0.831470
v -15.382684 3.649188 -0.923880
v -15.382684 5.649188 -0.923880
v -15.195090 3.649188 -0.980785
v -15.195090 5.649188 -0.980785
v -15.000000 3.649188 -1.000000
v -15.000000 5.649188 -1.000000
v -14.804910 3.649188 -0.980785
v -14.804910 5.649188 -0.980785
v -14.617316 3.649188 -0.923880
v -14.617316 5.649188 -0.923880
v -14.444429 3.649188 -0.831470
v -14.444429 5.649188 -0.831470
v -14.292893 3.649188 -0.707107
v -14.292893 5.649188 -0.707107
v -14.168530 3.649188 -0.555570
v -14.168530 5.649188 -0.555570
v -14.076120 3.649188 -0.382683
v -14.076120 5.649188 -0.382683
v -14.019215 3.649188 -0.195090
v -14.019215 5.649188 -0.195090
v -15.664339 2.025171 -1.000000
v -15.664339 3.015847 -1.000000
v -14.335661 2.025171 -1.000000
v -14.335661 3.015847 -1.000000
v -15.664339 2.025171 -0.114404
v -15.664339 3.015847 1.000000
v -14.335661 2.025171 -0.114404
v -14.335661 3.015847 1.000000
v -13.497721 3.672044 1.157815
v -13.497721 3.002546 1.157815
v -16.502279 3.672044 1.157815
v -16.502279 3.002546 1.157815
v -13.497721 3.672044 -1.157815
v -13.497721 3.002546 -1.157815
v -16.502279 3.672044 -1.157815
v -16.502279 3.002546 -1.157815
v -14.836019 5.585835 0.000000
v -14.836019 6.540444 0.000000
v -14.839170 5.585835 0.031991
v -14.839170 6.540444 0.031991
v -14.848501 5.585835 0.062753
v -14.848501 6.540444 0.062753
v -14.863654 5.585835 0.091103
v -14.863654 6.540444 0.091103
v -14.884048 5.585835 0.115952
v -14.884048 6.540444 0.115952
v -14.908896 5.585835 0.136346
v -14.908896 6.540444 0.136346
v -14.937247 5.585835 0.151499
v -14.937247 6.540444 0.151499
v -14.968009 5.585835 0.160831
v -14.968009 6.540444 0.160831
v -15.000000 5.585835 0.163981
v -15.000000 6.540444 0.163981
v -15.031991 5.585835 0.160831
v -15.031991 6.540444 0.160831
v -15.062753 5.585835 0.151499
v -15.062753 6.540444 0.151499
v -15.091104 5.585835 0.136346
v -15.091104 6.540444 0.136346
v -15.115952 5.585835 0.115952
v -15.115952 6.540444 0.115952
v -15.136346 5.585835 0.091103
v -15.136346 6.540444 0.091103
v -15.151499 5.585835 0.062753
v -15.151499 6.540444 0.062753
v -15.160830 5.585835 0.031991
v -15.160830 6.540444 0.031991
v -15.163981 5.585835 0.000000
v -15.163981 6.540444 0.000000
v -15.160830 5.585835 -0.031991
v -15.160830 6.540444 -0.031991
v -15.151499 5.585835 -0.062753
v -15.151499 6.540444 -0.062753
v -15.136346 5.585835 -0.091103
v -15.136346 6.540444 -0.091103
v -15.115952 5.585835 -0.115952
v -15.115952 6.540444 -0.115952
v -15.091104 5.585835 -0.136346
v -15.091104 6.540444 -0.136346
v -15.062753 5.585835 -0.151499
v -15.062753 6.540444 -0.151499
v -15.031991 5.585835 -0.160831
v -15.031991 6.540444 -0.160831
v -15.000000 5.585835 -0.163981
v -15.000000 6.540444 -0.163981
v -14.968009 5.585835 -0.160831
v -14.968009 6.540444 -0.160831
v -14.937247 5.585835 -0.151499
v -14.937247 6.540444 -0.151499
v -14.908896 5.585835 -0.136346
v -14.908896 6.540444 -0.136346
v -14.884048 5.585835 -0.115952
v -14.884048 6.540444 -0.115952
v -14.863654 5.585835 -0.091103
v -14.863654 6.540444 -0.091103
v -14.848501 5.585835 -0.062753
v -14.848501 6.540444 -0.062753
v -14.839170 5.585835 -0.031991
v -14.839170 6.540444 -0.031991
vn 0.7279 -0.6857 -0.0000
vn 0.7279 0.6857 -0.0000
vn 0.7139 0.6857 0.1420
vn 0.7139 -0.6857 0.1420
vn 0.6725 0.6857 0.2785
vn 0.6725 -0.6857 0.2785
vn 0.6052 0.6857 0.4044
vn 0.6052 -0.6857 0.4044
vn 0.5147 0.6857 0.5147
vn 0.5147 -0.6857 0.5147
vn 0.4044 0.6857 0.6052
vn 0.4044 -0.6857 0.6052
vn 0.2785 0.6857 0.6725
vn 0.2785 -0.6857 0.6725
vn 0.1420 0.6857 0.7139
vn 0.1420 -0.6857 0.7139
vn -0.0000 0.6857 0.7279
vn -0.0000 -0.6857 0.7279
vn -0.1420 0.6857 0.7139
vn -0.1420 -0.6857 0.7139
vn -0.2785 0.6857 0.6725
vn -0.2785 -0.6857 0.6725
vn -0.4044 0.6857 0.6052
vn -0.4044 -0.6857 0.6052
vn -0.5147 0.6857 0.5147
vn -0.5147 -0.6857 0.5147
vn -0.6052 0.6857 0.4044
vn -0.6052 -0.6857 0.4044
vn -0.6725 0.6857 0.2785
vn -0.6725 -0.6857 0.2785
vn -0.7139 0.6857 0.1420
vn -0.7139 -0.6857 0.1420
vn -0.7279 0.6857 -0.0000
vn -0.7279 -0.6857 -0.0000
vn -0.7139 0.6857 -0.1420
vn -0.7139 -0.6857 -0.1420
vn -0.6725 0.6857 -0.2785
vn -0.6725 -0.6857 -0.2785
vn -0.6052 0.6857 -0.4044
vn -0.6052 -0.6857 -0.4044
vn -0.5147 0.6857 -0.5147
vn -0.5147 -0.6857 -0.5147
vn -0.4044 0.6857 -0.6052
vn -0.4044 -0.6857 -0.6052
vn -0.2785 0.6857 -0.6725
vn -0.2785 -0.6857 -0.6725
vn -0.1420 0.6857 -0.7139
vn -0.1420 -0.6857 -0.7139
vn -0.0000 0.6857 -0.7279
vn -0.0000 -0.6857 -0.7279
vn 0.1420 0.6857 -0.7139
vn 0.1420 -0.6857 -0.7139
vn 0.2785 0.6857 -0.6725
vn 0.2785 -0.6857 -0.6725
vn 0.4044 0.6857 -0.6052
vn 0.4044 -0.6857 -0.6052
vn 0.5147 0.6857 -0.5147
vn 0.5147 -0.6857 -0.5147
vn 0.6052 0.6857 -0.4044
vn 0.6052 -0.6857 -0.4044
vn 0.6725 0.6857 -0.2785
vn 0.6725 -0.6857 -0.2785
vn 0.7139 0.6857 -0.1420
vn 0.7139 -0.6857 -0.1420
vn -0.0000 -0.0000 -1.0000
vn 1.0000 -0.0000 -0.0000
vn -0.0000 -0.7474 0.6644
vn -1.0000 -0.0000 -0.0000
vn -0.0000 -1.0000 -0.0000
vn -0.0000 1.0000 -0.0000
vn -0.0000 -0.0000 1.0000
vn 0.9952 -0.0000 0.0980
vn 0.9569 -0.0000 0.2903
vn 0.8819 -0.0000 0.4714
vn 0.7730 -0.0000 0.6344
vn 0.6344 -0.0000 0.7730
vn 0.4714 -0.0000 0.8819
vn 0.2903 -0.0000 0.9569
vn 0.0980 -0.0000 0.9952
vn -0.0980 -0.0000 0.9952
vn -0.2903 -0.0000 0.9569
vn -0.4714 -0.0000 0.8819
vn -0.6344 -0.0000 0.7730
vn -0.7730 -0.0000 0.6344
vn -0.8819 -0.0000 0.4714
vn -0.9569 -0.0000 0.2903
vn -0.9952 -0.0000 0.0980
vn -0.9952 -0.0000 -0.0980
vn -0.9569 -0.0000 -0.2903
vn -0.8819 -0.0000 -0.4714
vn -0.7730 -0.0000 -0.6344
vn -0.6344 -0.0000 -0.7730
vn -0.4714 -0.0000 -0.8819
vn -0.2903 -0.0000 -0.9569
vn -0.0980 -0.0000 -0.9952
vn 0.0980 -0.0000 -0.9952
vn 0.2903 -0.0000 -0.9569
vn 0.4714 -0.0000 -0.8819
vn 0.6344 -0.0000 -0.7730
vn 0.7730 -0.0000 -0.6344
vn 0.8819 -0.0000 -0.4714
vn 0.9569 -0.0000 -0.2903
vn 0.9952 -0.0000 -0.0980
vt 1.000000 0.500000
vt 1.000000 1.000000
vt 0.968750 1.000000
vt 0.968750 0.500000
vt 0.937500 1.000000
vt 0.937500 0.500000
vt 0.906250 1.000000
vt 0.906250 0.500000
vt 0.875000 1.000000
vt 0.875000 0.500000
vt 0.843750 1.000000
vt 0.843750 0.500000
vt 0.812500 1.000000
vt 0.812500 0.500000
vt 0.781250 1.000000
vt 0.781250 0.500000
vt 0.750000 1.000000
vt 0.750000 0.500000
vt 0.718750 1.000000
vt 0.718750 0.500000
vt 0.687500 1.000000
vt 0.687500 0.500000
vt 0.656250 1.000000
vt 0.656250 0.500000
vt 0.625000 1.000000
vt 0.625000 0.500000
vt 0.593750 1.000000
vt 0.593750 0.500000
vt 0.562500 1.000000
vt 0.562500 0.500000
vt 0.531250 1.000000
vt 0.531250 0.500000
vt 0.500000 1.000000
vt 0.500000 0.500000
vt 0.468750 1.000000
vt 0.468750 0.500000
vt 0.437500 1.000000
vt 0.437500 0.500000
vt 0.406250 1.000000
vt 0.406250 0.500000
vt 0.375000 1.000000
vt 0.375000 0.500000
vt 0.343750 1.000000
vt 0.343750 0.500000
vt 0.312500 1.000000
vt 0.312500 0.500000
vt 0.281250 1.000000
vt 0.281250 0.500000
vt 0.250000 1.000000
vt 0.250000 0.500000
vt 0.218750 1.000000
vt 0.218750 0.500000
vt 0.187500 1.000000
vt 0.187500 0.500000
vt 0.156250 1.000000
vt 0.156250 0.500000
vt 0.125000 1.000000
vt 0.125000 0.500000
vt 0.093750 1.000000
vt 0.093750 0.500000
vt 0.062500 1.000000
vt 0.062500 0.500000
vt 0.296822 0.485388
vt 0.250000 0.490000
vt 0.203178 0.485388
vt 0.158156 0.471731
vt 0.116663 0.449553
vt 0.080294 0.419706
vt 0.050447 0.383337
vt 0.028269 0.341844
vt 0.014612 0.296822
vt 0.010000 0.250000
vt 0.014612 0.203178
vt 0.028269 0.158156
vt 0.050447 0.116663
vt 0.080294 0.080294
vt 0.116663 0.050447
vt 0.158156 0.028269
vt 0.203178 0.014612
vt 0.250000 0.010000
vt 0.296822 0.014612
vt 0.341844 0.028269
vt 0.383337 0.050447
vt 0.419706 0.080294
vt 0.449553 0.116663
vt 0.471731 0.158156
vt 0.485388 0.203178
vt 0.490000 0.250000
vt 0.485388 0.296822
vt 0.471731 0.341844
vt 0.449553 0.383337
vt 0.419706 0.419706
vt 0.383337 0.449553
vt 0.341844 0.471731
vt 0.031250 1.000000
vt 0.031250 0.500000
vt 0.000000 1.000000
vt 0.000000 0.500000
vt 0.750000 0.490000
vt 0.796822 0.485388
vt 0.841844 0.471731
vt 0.883337 0.449553
vt 0.919706 0.419706
vt 0.949553 0.383337
vt 0.971731 0.341844
vt 0.985388 0.296822
vt 0.990000 0.250000
vt 0.985388 0.203178
vt 0.971731 0.158156
vt 0.949553 0.116663
vt 0.919706 0.080294
vt 0.883337 0.050447
vt 0.841844 0.028269
vt 0.796822 0.014612
vt 0.750000 0.010000
vt 0.703178 0.014612
vt 0.658156 0.028269
vt 0.616663 0.050447
vt 0.580294 0.080294
vt 0.550447 0.116663
vt 0.528269 0.158156
vt 0.514612 0.203178
vt 0.510000 0.250000
vt 0.514612 0.296822
vt 0.528269 0.341844
vt 0.550447 0.383337
vt 0.580294 0.419706
vt 0.616663 0.449553
vt 0.658156 0.471731
vt 0.703178 0.485388
vt 0.375000 0.000000
vt 0.625000 0.000000
vt 0.625000 0.250000
vt 0.375000 0.250000
vt 0.625000 0.750000
vt 0.375000 0.750000
vt 0.125000 0.750000
vt 0.875000 0.750000
s 1
usemtl Material.014
f 145/139/104 146/140/105 148/141/106 147/142/107
f 147/142/107 148/141/106 150/143/108 149/144/109
f 149/144/109 150/143/108 152/145/110 151/146/111
f 151/146/111 152/145/110 154/147/112 153/148/113
f 153/148/113 154/147/112 156/149/114 155/150/115
f 155/150/115 156/149/114 158/151/116 157/152/117
f 157/152/117 158/151/116 160/153/118 159/154/119
f 159/154/119 160/153/118 162/155/120 161/156/121
f 161/156/121 162/155/120 164/157/122 163/158/123
f 163/158/123 164/157/122 166/159/124 165/160/125
f 165/160/125 166/159/124 168/161/126 167/162/127
f 167/162/127 168/161/126 170/163/128 169/164/129
f 169/164/129 170/163/128 172/165/130 171/166/131
f 171/166/131 172/165/130 174/167/132 173/168/133
f 173/168/133 174/167/132 176/169/134 175/170/135
f 175/170/135 176/169/134 178/171/136 177/172/137
f 177/172/137 178/171/136 180/173/138 179/174/139
f 179/174/139 180/173/138 182/175/140 181/176/141
f 181/176/141 182/175/140 184/177/142 183/178/143
f 183/178/143 184/177/142 186/179/144 185/180/145
f 185/180/145 186/179/144 188/181/146 187/182/147
f 187/182/147 188/181/146 190/183/148 189/184/149
f 189/184/149 190/183/148 192/185/150 191/186/151
f 191/186/151 192/185/150 194/187/152 193/188/153
f 193/188/153 194/187/152 196/189/154 195/190/155
f 195/190/155 196/189/154 198/191/156 197/192/157
f 197/192/157 198/191/156 200/193/158 199/194/159
f 199/194/159 200/193/158 202/195/160 201/196/161
f 201/196/161 202/195/160 204/197/162 203/198/163
f 203/198/163 204/197/162 206/199/164 205/200/165
f 148/201/106 146/202/105 208/203/166 206/204/164 204/205/162 202/206/160 200/207/158 198/208/156 196/209/154 194/210/152 192/211/150 190/212/148 188/213/146 186/214/144 184/215/142 182/216/140 180/217/138 178/218/136 176/219/134 174/220/132 172/221/130 170/222/128 168/223/126 166/224/124 164/225/122 162/226/120 160/227/118 158/228/116 156/229/114 154/230/112 152/231/110 150/232/108
f 205/200/165 206/199/164 208/233/166 207/234/167
f 207/234/167 208/233/166 146/235/105 145/236/104
f 145/237/104 147/238/107 149/239/109 151/240/111 153/241/113 155/242/115 157/243/117 159/244/119 161/245/121 163/246/123 165/247/125 167/248/127 169/249/129 171/250/131 173/251/133 175/252/135 177/253/137 179/254/139 181/255/141 183/256/143 185/257/145 187/258/147 189/259/149 191/260/151 193/261/153 195/262/155 197/263/157 199/264/159 201/265/161 203/266/163 205/267/165 207/268/167
s 0
usemtl Material.008
f 209/269/168 210/270/168 212/271/168 211/272/168
f 211/272/169 212/271/169 216/164/169 215/180/169
f 215/180/170 216/164/170 214/273/170 213/274/170
f 213/274/171 214/273/171 210/163/171 209/179/171
f 211/196/172 215/180/172 213/274/172 209/275/172
f 216/164/173 212/148/173 210/276/173 214/273/173
usemtl Material.011
f 217/164/173 221/148/173 223/276/173 219/273/173
f 220/274/171 219/273/171 223/163/171 224/179/171
f 224/269/168 223/270/168 221/271/168 222/272/168
f 222/196/172 218/180/172 220/274/172 224/275/172
f 218/180/174 217/164/174 219/273/174 220/274/174
f 222/272/169 221/271/169 217/164/169 218/180/169
usemtl Material.012
f 225/139/175 226/140/175 228/141/175 227/142/175
f 227/142/176 228/141/176 230/143/176 229/144/176
f 229/144/177 230/143/177 232/145/177 231/146/177
f 231/146/178 232/145/178 234/147/178 233/148/178
f 233/148/179 234/147/179 236/149/179 235/150/179
f 235/150/180 236/149/180 238/151/180 237/152/180
f 237/152/181 238/151/181 240/153/181 239/154/181
f 239/154/182 240/153/182 242/155/182 241/156/182
f 241/156/183 242/155/183 244/157/183 243/158/183
f 243/158/184 244/157/184 246/159/184 245/160/184
f 245/160/185 246/159/185 248/161/185 247/162/185
f 247/162/186 248/161/186 250/163/186 249/164/186
f 249/164/187 250/163/187 252/165/187 251/166/187
f 251/166/188 252/165/188 254/167/188 253/168/188
f 253/168/189 254/167/189 256/169/189 255/170/189
f 255/170/190 256/169/190 258/171/190 257/172/190
f 257/172/191 258/171/191 260/173/191 259/174/191
f 259/174/192 260/173/192 262/175/192 261/176/192
f 261/176/193 262/175/193 264/177/193 263/178/193
f 263/178/194 264/177/194 266/179/194 265/180/194
f 265/180/195 266/179/195 268/181/195 267/182/195
f 267/182/196 268/181/196 270/183/196 269/184/196
f 269/184/197 270/183/197 272/185/197 271/186/197
f 271/186/198 272/185/198 274/187/198 273/188/198
f 273/188/199 274/187/199 276/189/199 275/190/199
f 275/190/200 276/189/200 278/191/200 277/192/200
f 277/192/201 278/191/201 280/193/201 279/194/201
f 279/194/202 280/193/202 282/195/202 281/196/202
f 281/196/203 282/195/203 284/197/203 283/198/203
f 283/198/204 284/197/204 286/199/204 285/200/204
f 228/201/173 226/202/173 288/203/173 286/204/173 284/205/173 282/206/173 280/207/173 278/208/173 276/209/173 274/210/173 272/211/173 270/212/173 268/213/173 266/214/173 264/215/173 262/216/173 260/217/173 258/218/173 256/219/173 254/220/173 252/221/173 250/222/173 248/223/173 246/224/173 244/225/173 242/226/173 240/227/173 238/228/173 236/229/173 234/230/173 232/231/173 230/232/173
f 285/200/205 286/199/205 288/233/205 287/234/205
f 287/234/206 288/233/206 226/235/206 225/236/206
f 225/237/172 227/238/172 229/239/172 231/240/172 233/241/172 235/242/172 237/243/172 239/244/172 241/245/172 243/246/172 245/247/172 247/248/172 249/249/172 251/250/172 253/251/172 255/252/172 257/253/172 259/254/172 261/255/172 263/256/172 265/257/172 267/258/172 269/259/172 271/260/172 273/261/172 275/262/172 277/263/172 279/264/172 281/265/172 283/266/172 285/267/172 287/268/172
