# Blender 4.5.3 LTS
# www.blender.org
mtllib ropa.mtl
o Cube.001
v -0.500000 -0.435291 -12.515156
v 0.500000 -0.435291 -12.515156
v -0.500000 21.000000 -11.515156
v -0.500000 -0.435291 -11.515156
v 0.500000 21.000000 -11.515156
v 0.500000 -0.435291 -11.515156
v -0.500000 20.000000 -12.515156
v 0.500000 20.000000 -11.515156
v 0.500000 20.000000 -12.515156
v -0.500000 20.000000 -11.515156
v 0.500001 20.000000 3.484844
v 0.500001 21.000000 3.484844
v -0.499999 21.000000 3.484844
v -0.499999 20.000000 3.484844
v -0.500000 21.000000 -11.515156
v -0.500000 20.000000 -12.515156
v -0.500000 20.987688 -11.671590
v -0.500000 20.951057 -11.824173
v -0.500000 20.891006 -11.969146
v -0.500000 20.809017 -12.102941
v -0.500000 20.707108 -12.222262
v -0.500000 20.587786 -12.324173
v -0.500000 20.453991 -12.406162
v -0.500000 20.309017 -12.466212
v -0.500000 20.156435 -12.502844
v 0.500000 20.000000 -12.515156
v 0.500000 21.000000 -11.515156
v 0.500000 20.156435 -12.502844
v 0.500000 20.309017 -12.466212
v 0.500000 20.453991 -12.406162
v 0.500000 20.587786 -12.324173
v 0.500000 20.707108 -12.222262
v 0.500000 20.809017 -12.102942
v 0.500000 20.891006 -11.969147
v 0.500000 20.951057 -11.824173
v 0.500000 20.987688 -11.671590
v 0.500003 21.000000 18.484844
v -0.499997 21.000000 18.484844
v 0.500003 21.000000 18.484844
v -0.499997 21.000000 18.484844
vn -0.0000 1.0000 -0.0000
vn -0.0000 -1.0000 -0.0000
vn -1.0000 -0.0000 -0.0000
vn -0.0000 -0.0000 -1.0000
vn -0.0000 -0.0000 1.0000
vn 1.0000 -0.0000 -0.0000
vn -0.0000 0.9969 -0.0785
vn -0.0000 0.9724 -0.2334
vn -0.0000 0.9239 -0.3827
vn -0.0000 0.8526 -0.5225
vn -0.0000 0.7604 -0.6494
vn -0.0000 0.6494 -0.7604
vn -0.0000 0.5225 -0.8526
vn -0.0000 0.3827 -0.9239
vn -0.0000 0.2334 -0.9724
vn -0.0000 0.0785 -0.9969
vt 0.875000 0.750000
vt 0.875000 0.500000
vt 0.125000 0.500000
vt 0.375000 0.500000
vt 0.375000 0.750000
vt 0.125000 0.750000
vt 0.375000 0.250000
vt 0.500000 0.250000
vt 0.500000 0.500000
vt 0.500000 0.750000
vt 0.375000 0.000000
vt 0.500000 0.000000
vt 0.500000 1.000000
vt 0.375000 1.000000
vt 0.625000 0.000000
vt 0.625000 0.250000
vt 0.625000 1.000000
vt 0.696468 0.321468
vt 0.696468 0.928532
vt 0.717431 0.867602
vt 0.717431 0.382398
vt 0.696779 0.847513
vt 0.696779 0.402487
vt 0.675042 0.828614
vt 0.675042 0.421386
vt 0.652930 0.810994
vt 0.652930 0.439006
vt 0.602590 0.794820
vt 0.602590 0.455180
vt 0.573473 0.780362
vt 0.573473 0.469638
vt 0.556749 0.768030
vt 0.556749 0.481970
vt 0.538627 0.758398
vt 0.538627 0.491603
vt 0.519554 0.752169
vt 0.519554 0.497831
vt 0.500000 0.750000
s 0
usemtl r2
f 5/1/1 3/2/1 13/2/1 12/1/1
f 4/3/2 1/4/2 2/5/2 6/6/2
f 4/7/3 10/8/3 7/9/3 1/4/3
f 1/4/4 7/9/4 9/10/4 2/5/4
f 6/11/5 8/12/5 10/8/5 4/7/5
f 2/5/6 9/10/6 8/13/6 6/14/6
f 11/12/5 12/15/5 13/16/5 14/8/5
f 10/8/2 8/12/2 11/12/2 14/8/2
f 8/13/6 5/17/6 12/17/6 11/13/6
f 3/16/3 10/8/3 14/8/3 13/16/3
f 15/18/7 27/19/7 36/20/7 17/21/7
f 17/21/8 36/20/8 35/22/8 18/23/8
f 18/23/9 35/22/9 34/24/9 19/25/9
f 19/25/10 34/24/10 33/26/10 20/27/10
f 20/27/11 33/26/11 32/28/11 21/29/11
f 21/29/12 32/28/12 31/30/12 22/31/12
f 22/31/13 31/30/13 30/32/13 23/33/13
f 23/33/14 30/32/14 29/34/14 24/35/14
f 24/35/15 29/34/15 28/36/15 25/37/15
f 25/37/16 28/36/16 26/38/16 16/9/16
f 7/9/1 16/9/1 26/38/1 9/10/1
f 15/18/1 3/2/1 5/1/1 27/19/1
f 10/8/3 3/16/3 15/18/3 17/21/3 18/23/3 19/25/3 20/27/3 21/29/3 22/31/3 23/33/3 24/35/3 25/37/3 16/9/3 7/9/3
f 9/10/6 26/38/6 28/36/6 29/34/6 30/32/6 31/30/6 32/28/6 33/26/6 34/24/6 35/22/6 36/20/6 27/19/6 5/17/6 8/13/6
l 39 37
l 38 40
o Cube.002
v -0.359755 -0.406164 -11.829985
v 0.359755 -0.406164 -11.829985
v -0.359755 20.300213 -11.110474
v -0.359755 -0.406164 -11.110474
v 0.359755 20.300213 -11.110474
v 0.359755 -0.406164 -11.110474
v -0.359755 19.580702 -11.829985
v 0.359755 19.580702 -11.110474
v 0.359755 19.580702 -11.829985
v -0.359755 19.580702 -11.110474
v 0.359756 19.580702 3.431492
v 0.359756 20.300213 3.431492
v -0.359754 20.300213 3.431492
v -0.359754 19.580702 3.431492
v -0.359755 20.300213 -11.110474
v -0.359755 19.580702 -11.829985
v -0.359755 20.291353 -11.223030
v -0.359755 20.264997 -11.332815
v -0.359755 20.221790 -11.437125
v -0.359755 20.162798 -11.533392
v -0.359755 20.089472 -11.619245
v -0.359755 20.003620 -11.692570
v -0.359755 19.907352 -11.751562
v -0.359755 19.803043 -11.794769
v -0.359755 19.693258 -11.821126
v 0.359755 19.580702 -11.829985
v 0.359755 20.300213 -11.110474
v 0.359755 19.693258 -11.821126
v 0.359755 19.803043 -11.794769
v 0.359755 19.907352 -11.751562
v 0.359755 20.003620 -11.692570
v 0.359755 20.089472 -11.619245
v 0.359755 20.162798 -11.533392
v 0.359755 20.221790 -11.437125
v 0.359755 20.264997 -11.332815
v 0.359755 20.291353 -11.223030
vn -0.0000 1.0000 -0.0000
vn -0.0000 -1.0000 -0.0000
vn -1.0000 -0.0000 -0.0000
vn -0.0000 -0.0000 -1.0000
vn -0.0000 -0.0000 1.0000
vn 1.0000 -0.0000 -0.0000
vn -0.0000 0.9969 -0.0785
vn -0.0000 0.9724 -0.2334
vn -0.0000 0.9239 -0.3827
vn -0.0000 0.8526 -0.5225
vn -0.0000 0.7604 -0.6494
vn -0.0000 0.6494 -0.7604
vn -0.0000 0.5225 -0.8526
vn -0.0000 0.3827 -0.9239
vn -0.0000 0.2334 -0.9724
vn -0.0000 0.0785 -0.9969
vt 0.875000 0.750000
vt 0.875000 0.500000
vt 0.125000 0.500000
vt 0.375000 0.500000
vt 0.375000 0.750000
vt 0.125000 0.750000
vt 0.375000 0.250000
vt 0.500000 0.250000
vt 0.500000 0.500000
vt 0.500000 0.750000
vt 0.375000 0.000000
vt 0.500000 0.000000
vt 0.500000 1.000000
vt 0.375000 1.000000
vt 0.625000 0.000000
vt 0.625000 0.250000
vt 0.625000 1.000000
vt 0.696468 0.321468
vt 0.696468 0.928532
vt 0.717431 0.867602
vt 0.717431 0.382398
vt 0.696779 0.847513
vt 0.696779 0.402487
vt 0.675042 0.828614
vt 0.675042 0.421386
vt 0.652930 0.810994
vt 0.652930 0.439006
vt 0.602590 0.794820
vt 0.602590 0.455180
vt 0.573473 0.780362
vt 0.573473 0.469638
vt 0.556749 0.768030
vt 0.556749 0.481970
vt 0.538627 0.758398
vt 0.538627 0.491603
vt 0.519554 0.752169
vt 0.519554 0.497831
vt 0.500000 0.750000
s 0
usemtl r
f 45/39/17 43/40/17 53/40/17 52/39/17
f 44/41/18 41/42/18 42/43/18 46/44/18
f 44/45/19 50/46/19 47/47/19 41/42/19
f 41/42/20 47/47/20 49/48/20 42/43/20
f 46/49/21 48/50/21 50/46/21 44/45/21
f 42/43/22 49/48/22 48/51/22 46/52/22
f 51/50/21 52/53/21 53/54/21 54/46/21
f 50/46/18 48/50/18 51/50/18 54/46/18
f 48/51/22 45/55/22 52/55/22 51/51/22
f 43/54/19 50/46/19 54/46/19 53/54/19
f 55/56/23 67/57/23 76/58/23 57/59/23
f 57/59/24 76/58/24 75/60/24 58/61/24
f 58/61/25 75/60/25 74/62/25 59/63/25
f 59/63/26 74/62/26 73/64/26 60/65/26
f 60/65/27 73/64/27 72/66/27 61/67/27
f 61/67/28 72/66/28 71/68/28 62/69/28
f 62/69/29 71/68/29 70/70/29 63/71/29
f 63/71/30 70/70/30 69/72/30 64/73/30
f 64/73/31 69/72/31 68/74/31 65/75/31
f 65/75/32 68/74/32 66/76/32 56/47/32
f 47/47/17 56/47/17 66/76/17 49/48/17
f 55/56/17 43/40/17 45/39/17 67/57/17
f 50/46/19 43/54/19 55/56/19 57/59/19 58/61/19 59/63/19 60/65/19 61/67/19 62/69/19 63/71/19 64/73/19 65/75/19 56/47/19 47/47/19
f 49/48/22 66/76/22 68/74/22 69/72/22 70/70/22 71/68/22 72/66/22 73/64/22 74/62/22 75/60/22 76/58/22 67/57/22 45/55/22 48/51/22
o Cube.007
v 0.500000 -0.436888 16.000000
v -0.500000 -0.436888 16.000000
v 0.500000 21.000000 15.000000
v 0.500000 -0.436888 15.000000
v -0.500000 21.000000 15.000000
v -0.500000 -0.436888 15.000000
v 0.500000 20.000000 16.000000
v -0.500000 20.000000 15.000000
v -0.500000 20.000000 16.000000
v 0.500000 20.000000 15.000000
v -0.500000 20.000000 0.000000
v -0.500000 21.000000 0.000000
v 0.500000 21.000000 0.000000
v 0.500000 20.000000 0.000000
v 0.500000 21.000000 15.000000
v 0.500000 20.000000 16.000000
v 0.500000 20.987688 15.156434
v 0.500000 20.951057 15.309017
v 0.500000 20.891006 15.453991
v 0.500000 20.809017 15.587786
v 0.500000 20.707108 15.707107
v 0.500000 20.587786 15.809017
v 0.500000 20.453991 15.891006
v 0.500000 20.309017 15.951056
v 0.500000 20.156435 15.987688
v -0.500000 20.000000 16.000000
v -0.500000 21.000000 15.000000
v -0.500000 20.156435 15.987688
v -0.500000 20.309017 15.951056
v -0.500000 20.453991 15.891006
v -0.500000 20.587786 15.809017
v -0.500000 20.707108 15.707107
v -0.500000 20.809017 15.587786
v -0.500000 20.891006 15.453991
v -0.500000 20.951057 15.309017
v -0.500000 20.987688 15.156434
v -0.500000 21.000000 -15.000000
v 0.500000 21.000000 -15.000000
v -0.500000 21.000000 -15.000000
v 0.500000 21.000000 -15.000000
vn -0.0000 1.0000 -0.0000
vn -0.0000 -1.0000 -0.0000
vn 1.0000 -0.0000 -0.0000
vn -0.0000 -0.0000 1.0000
vn -0.0000 -0.0000 -1.0000
vn -1.0000 -0.0000 -0.0000
vn -0.0000 0.9969 0.0785
vn -0.0000 0.9724 0.2334
vn -0.0000 0.9239 0.3827
vn -0.0000 0.8526 0.5225
vn -0.0000 0.7604 0.6494
vn -0.0000 0.6494 0.7604
vn -0.0000 0.5225 0.8526
vn -0.0000 0.3827 0.9239
vn -0.0000 0.2334 0.9724
vn -0.0000 0.0785 0.9969
vt 0.875000 0.750000
vt 0.875000 0.500000
vt 0.125000 0.500000
vt 0.375000 0.500000
vt 0.375000 0.750000
vt 0.125000 0.750000
vt 0.375000 0.250000
vt 0.500000 0.250000
vt 0.500000 0.500000
vt 0.500000 0.750000
vt 0.375000 0.000000
vt 0.500000 0.000000
vt 0.500000 1.000000
vt 0.375000 1.000000
vt 0.625000 0.000000
vt 0.625000 0.250000
vt 0.625000 1.000000
vt 0.696468 0.321468
vt 0.696468 0.928532
vt 0.717431 0.867602
vt 0.717431 0.382398
vt 0.696779 0.847513
vt 0.696779 0.402487
vt 0.675042 0.828614
vt 0.675042 0.421386
vt 0.652930 0.810994
vt 0.652930 0.439006
vt 0.602590 0.794820
vt 0.602590 0.455180
vt 0.573473 0.780362
vt 0.573473 0.469638
vt 0.556749 0.768030
vt 0.556749 0.481970
vt 0.538627 0.758398
vt 0.538627 0.491603
vt 0.519554 0.752169
vt 0.519554 0.497831
vt 0.500000 0.750000
s 0
usemtl r2
f 81/77/33 79/78/33 89/78/33 88/77/33
f 80/79/34 77/80/34 78/81/34 82/82/34
f 80/83/35 86/84/35 83/85/35 77/80/35
f 77/80/36 83/85/36 85/86/36 78/81/36
f 82/87/37 84/88/37 86/84/37 80/83/37
f 78/81/38 85/86/38 84/89/38 82/90/38
f 87/88/37 88/91/37 89/92/37 90/84/37
f 86/84/34 84/88/34 87/88/34 90/84/34
f 84/89/38 81/93/38 88/93/38 87/89/38
f 79/92/35 86/84/35 90/84/35 89/92/35
f 91/94/39 103/95/39 112/96/39 93/97/39
f 93/97/40 112/96/40 111/98/40 94/99/40
f 94/99/41 111/98/41 110/100/41 95/101/41
f 95/101/42 110/100/42 109/102/42 96/103/42
f 96/103/43 109/102/43 108/104/43 97/105/43
f 97/105/44 108/104/44 107/106/44 98/107/44
f 98/107/45 107/106/45 106/108/45 99/109/45
f 99/109/46 106/108/46 105/110/46 100/111/46
f 100/111/47 105/110/47 104/112/47 101/113/47
f 101/113/48 104/112/48 102/114/48 92/85/48
f 83/85/33 92/85/33 102/114/33 85/86/33
f 91/94/33 79/78/33 81/77/33 103/95/33
f 86/84/35 79/92/35 91/94/35 93/97/35 94/99/35 95/101/35 96/103/35 97/105/35 98/107/35 99/109/35 100/111/35 101/113/35 92/85/35 83/85/35
f 85/86/38 102/114/38 104/112/38 105/110/38 106/108/38 107/106/38 108/104/38 109/102/38 110/100/38 111/98/38 112/96/38 103/95/38 81/93/38 84/89/38
l 115 113
l 114 116
o Cube.008
v 0.359755 -0.444157 15.314180
v -0.359755 -0.444157 15.314180
v 0.359755 20.300213 14.594669
v 0.359755 -0.444157 14.594669
v -0.359755 20.300213 14.594669
v -0.359755 -0.444157 14.594669
v 0.359755 19.580702 15.314180
v -0.359755 19.580702 14.594669
v -0.359755 19.580702 15.314180
v 0.359755 19.580702 14.594669
v -0.359755 19.580702 0.052704
v -0.359755 20.300213 0.052704
v 0.359755 20.300213 0.052704
v 0.359755 19.580702 0.052704
v 0.359755 20.300213 14.594669
v 0.359755 19.580702 15.314180
v 0.359755 20.291353 14.707226
v 0.359755 20.264997 14.817011
v 0.359755 20.221790 14.921321
v 0.359755 20.162798 15.017588
v 0.359755 20.089472 15.103440
v 0.359755 20.003620 15.176765
v 0.359755 19.907352 15.235758
v 0.359755 19.803043 15.278965
v 0.359755 19.693258 15.305322
v -0.359755 19.580702 15.314180
v -0.359755 20.300213 14.594669
v -0.359755 19.693258 15.305322
v -0.359755 19.803043 15.278965
v -0.359755 19.907352 15.235758
v -0.359755 20.003620 15.176765
v -0.359755 20.089472 15.103440
v -0.359755 20.162798 15.017588
v -0.359755 20.221790 14.921321
v -0.359755 20.264997 14.817011
v -0.359755 20.291353 14.707226
vn -0.0000 1.0000 -0.0000
vn -0.0000 -1.0000 -0.0000
vn 1.0000 -0.0000 -0.0000
vn -0.0000 -0.0000 1.0000
vn -0.0000 -0.0000 -1.0000
vn -1.0000 -0.0000 -0.0000
vn -0.0000 0.9969 0.0785
vn -0.0000 0.9724 0.2334
vn -0.0000 0.9239 0.3827
vn -0.0000 0.8526 0.5225
vn -0.0000 0.7604 0.6494
vn -0.0000 0.6494 0.7604
vn -0.0000 0.5225 0.8526
vn -0.0000 0.3827 0.9239
vn -0.0000 0.2334 0.9724
vn -0.0000 0.0785 0.9969
vt 0.875000 0.750000
vt 0.875000 0.500000
vt 0.125000 0.500000
vt 0.375000 0.500000
vt 0.375000 0.750000
vt 0.125000 0.750000
vt 0.375000 0.250000
vt 0.500000 0.250000
vt 0.500000 0.500000
vt 0.500000 0.750000
vt 0.375000 0.000000
vt 0.500000 0.000000
vt 0.500000 1.000000
vt 0.375000 1.000000
vt 0.625000 0.000000
vt 0.625000 0.250000
vt 0.625000 1.000000
vt 0.696468 0.321468
vt 0.696468 0.928532
vt 0.717431 0.867602
vt 0.717431 0.382398
vt 0.696779 0.847513
vt 0.696779 0.402487
vt 0.675042 0.828614
vt 0.675042 0.421386
vt 0.652930 0.810994
vt 0.652930 0.439006
vt 0.602590 0.794820
vt 0.602590 0.455180
vt 0.573473 0.780362
vt 0.573473 0.469638
vt 0.556749 0.768030
vt 0.556749 0.481970
vt 0.538627 0.758398
vt 0.538627 0.491603
vt 0.519554 0.752169
vt 0.519554 0.497831
vt 0.500000 0.750000
s 0
usemtl r
f 121/115/49 119/116/49 129/116/49 128/115/49
f 120/117/50 117/118/50 118/119/50 122/120/50
f 120/121/51 126/122/51 123/123/51 117/118/51
f 117/118/52 123/123/52 125/124/52 118/119/52
f 122/125/53 124/126/53 126/122/53 120/121/53
f 118/119/54 125/124/54 124/127/54 122/128/54
f 127/126/53 128/129/53 129/130/53 130/122/53
f 126/122/50 124/126/50 127/126/50 130/122/50
f 124/127/54 121/131/54 128/131/54 127/127/54
f 119/130/51 126/122/51 130/122/51 129/130/51
f 131/132/55 143/133/55 152/134/55 133/135/55
f 133/135/56 152/134/56 151/136/56 134/137/56
f 134/137/57 151/136/57 150/138/57 135/139/57
f 135/139/58 150/138/58 149/140/58 136/141/58
f 136/141/59 149/140/59 148/142/59 137/143/59
f 137/143/60 148/142/60 147/144/60 138/145/60
f 138/145/61 147/144/61 146/146/61 139/147/61
f 139/147/62 146/146/62 145/148/62 140/149/62
f 140/149/63 145/148/63 144/150/63 141/151/63
f 141/151/64 144/150/64 142/152/64 132/123/64
f 123/123/49 132/123/49 142/152/49 125/124/49
f 131/132/49 119/116/49 121/115/49 143/133/49
f 126/122/51 119/130/51 131/132/51 133/135/51 134/137/51 135/139/51 136/141/51 137/143/51 138/145/51 139/147/51 140/149/51 141/151/51 132/123/51 123/123/51
f 125/124/54 142/152/54 144/150/54 145/148/54 146/146/54 147/144/54 148/142/54 149/140/54 150/138/54 151/136/54 152/134/54 143/133/54 121/131/54 124/127/54
o Cube.009
v -0.456944 -0.282105 1.651519
v -0.456944 19.685738 1.651519
v -0.337567 -0.282105 1.651519
v -0.337567 19.685738 1.651519
v -0.456944 -0.282105 14.769138
v -0.456944 19.685738 14.769138
v -0.337567 -0.282105 14.769138
v -0.337567 19.685738 14.769138
vn -0.0000 -0.0000 -1.0000
vn 1.0000 -0.0000 -0.0000
vn -0.0000 -0.0000 1.0000
vn -1.0000 -0.0000 -0.0000
vn -0.0000 -1.0000 -0.0000
vn -0.0000 1.0000 -0.0000
vt 0.375000 0.000000
vt 0.625000 0.000000
vt 0.625000 0.250000
vt 0.375000 0.250000
vt 0.975194 0.023182
vt 0.975194 0.974578
vt 0.024806 0.974578
vt 0.024806 0.023182
vt 0.375000 0.500000
vt 0.625000 0.500000
vt 0.625000 0.750000
vt 0.375000 0.750000
vt 0.625000 1.000000
vt 0.375000 1.000000
vt 0.125000 0.500000
vt 0.125000 0.750000
vt 0.875000 0.500000
vt 0.875000 0.750000
s 0
usemtl Material.195
f 153/153/65 154/154/65 156/155/65 155/156/65
f 159/161/67 160/162/67 158/163/67 157/164/67
f 157/164/68 158/163/68 154/165/68 153/166/68
f 155/167/69 159/161/69 157/164/69 153/168/69
f 160/162/70 156/169/70 154/170/70 158/163/70
usemtl Material.001
f 155/157/66 156/158/66 160/159/66 159/160/66
o Cube.003
v -0.456944 -0.282105 -11.277449
v -0.456944 19.685738 -11.277449
v -0.337567 -0.282105 -11.277449
v -0.337567 19.685738 -11.277449
v -0.456944 -0.282105 1.840171
v -0.456944 19.685738 1.840171
v -0.337567 -0.282105 1.840171
v -0.337567 19.685738 1.840171
vn -0.0000 -0.0000 -1.0000
vn 1.0000 -0.0000 -0.0000
vn -0.0000 -0.0000 1.0000
vn -1.0000 -0.0000 -0.0000
vn -0.0000 -1.0000 -0.0000
vn -0.0000 1.0000 -0.0000
vt 0.375000 0.000000
vt 0.625000 0.000000
vt 0.625000 0.250000
vt 0.375000 0.250000
vt 0.975194 0.023182
vt 0.975194 0.974578
vt 0.024806 0.974578
vt 0.024806 0.023182
vt 0.375000 0.500000
vt 0.625000 0.500000
vt 0.625000 0.750000
vt 0.375000 0.750000
vt 0.625000 1.000000
vt 0.375000 1.000000
vt 0.125000 0.500000
vt 0.125000 0.750000
vt 0.875000 0.500000
vt 0.875000 0.750000
s 0
usemtl Material.200
f 161/171/71 162/172/71 164/173/71 163/174/71
f 167/179/73 168/180/73 166/181/73 165/182/73
f 165/182/74 166/181/74 162/183/74 161/184/74
f 163/185/75 167/179/75 165/182/75 161/186/75
f 168/180/76 164/187/76 162/188/76 166/181/76
usemtl Material.201
f 163/175/72 164/176/72 168/177/72 167/178/72
