# Blender 4.5.3 LTS
# www.blender.org
mtllib tumba1.mtl
o Cube
v 1.595810 0.979203 0.328794
v -1.595810 0.979203 0.328794
v 1.595810 0.979203 -0.328794
v -1.595810 0.979203 -0.328794
v 1.595810 2.748734 0.328794
v 0.000000 4.518264 0.328794
v 1.576163 3.025549 0.328794
v 1.517706 3.295549 0.328794
v 1.421877 3.552084 0.328794
v 1.291037 3.788837 0.328794
v 1.128408 3.999980 0.328794
v 0.937994 4.180314 0.328794
v 0.724483 4.325397 0.328794
v 0.493132 4.431657 0.328794
v 0.249640 4.496478 0.328794
v 0.000000 4.518264 0.328794
v -1.595810 2.748734 0.328794
v -0.249640 4.496478 0.328794
v -0.493132 4.431657 0.328794
v -0.724483 4.325397 0.328794
v -0.937994 4.180314 0.328794
v -1.128408 3.999980 0.328794
v -1.291037 3.788837 0.328794
v -1.421877 3.552084 0.328794
v -1.517706 3.295549 0.328794
v -1.576163 3.025549 0.328794
v 0.000000 4.518264 -0.328794
v 1.595810 2.748734 -0.328794
v 0.249640 4.496478 -0.328794
v 0.493132 4.431657 -0.328794
v 0.724483 4.325397 -0.328794
v 0.937994 4.180314 -0.328794
v 1.128408 3.999980 -0.328794
v 1.291037 3.788837 -0.328794
v 1.421877 3.552084 -0.328794
v 1.517706 3.295549 -0.328794
v 1.576163 3.025549 -0.328794
v -1.595810 2.748734 -0.328794
v 0.000000 4.518264 -0.328794
v -1.576163 3.025549 -0.328794
v -1.517706 3.295549 -0.328794
v -1.421877 3.552084 -0.328794
v -1.291037 3.788837 -0.328794
v -1.128408 3.999980 -0.328794
v -0.937994 4.180314 -0.328794
v -0.724483 4.325397 -0.328794
v -0.493132 4.431657 -0.328794
v -0.249640 4.496478 -0.328794
vn -0.0000 -1.0000 -0.0000
vn -0.0435 0.9991 -0.0000
vn -0.1730 0.9849 -0.0000
vn -0.3390 0.9408 -0.0000
vn -0.4919 0.8706 -0.0000
vn -0.6274 0.7787 -0.0000
vn -0.7426 0.6697 -0.0000
vn -0.8364 0.5481 -0.0000
vn -0.9087 0.4175 -0.0000
vn -0.9596 0.2812 -0.0000
vn -0.9900 0.1414 -0.0000
vn -0.9994 0.0354 -0.0000
vn 0.0435 0.9991 -0.0000
vn 0.1730 0.9849 -0.0000
vn 0.3390 0.9408 -0.0000
vn 0.4919 0.8706 -0.0000
vn 0.6274 0.7787 -0.0000
vn 0.7426 0.6697 -0.0000
vn 0.8364 0.5481 -0.0000
vn 0.9087 0.4175 -0.0000
vn 0.9596 0.2812 -0.0000
vn 0.9900 0.1414 -0.0000
vn 0.9994 0.0354 -0.0000
vn 1.0000 -0.0000 -0.0000
vn -0.0000 -0.0000 1.0000
vn -1.0000 -0.0000 -0.0000
vn -0.0000 -0.0000 -1.0000
vt 0.625539 0.099787
vt 0.625539 0.350055
vt 0.375271 0.350055
vt 0.375271 0.099787
vt 0.500405 0.600323
vt 0.500405 0.850592
vt 0.480830 0.850592
vt 0.480830 0.599013
vt 0.461736 0.850592
vt 0.461736 0.595116
vt 0.443595 0.850591
vt 0.443595 0.588727
vt 0.426853 0.850592
vt 0.426853 0.580003
vt 0.375271 0.850592
vt 0.406434 0.569160
vt 0.125003 0.600323
vt 0.125003 0.548741
vt 0.395591 0.548741
vt 0.125003 0.531999
vt 0.386868 0.531999
vt 0.125003 0.513858
vt 0.380478 0.513858
vt 0.125003 0.494765
vt 0.376581 0.494765
vt 0.125003 0.475189
vt 0.375271 0.475189
vt 0.519980 0.599013
vt 0.519980 0.850592
vt 0.539074 0.595116
vt 0.539074 0.850592
vt 0.557215 0.588727
vt 0.557215 0.850591
vt 0.573957 0.580003
vt 0.573957 0.850592
vt 0.594376 0.569160
vt 0.625539 0.850592
vt 0.909492 0.566638
vt 0.605219 0.548741
vt 0.896127 0.548741
vt 0.613942 0.531999
vt 0.887404 0.531999
vt 0.620332 0.513858
vt 0.881015 0.513858
vt 0.624229 0.494765
vt 0.877117 0.494765
vt 0.625539 0.475189
vt 0.875807 0.475189
vt 0.875807 0.350055
vt 0.750673 0.600323
vt 1.000941 0.600323
vt 0.125003 0.350055
vt 1.126075 0.350055
vt 1.126075 0.475189
vt 1.124534 0.494765
vt 1.119951 0.513858
vt 1.112436 0.531999
vt 1.102177 0.548741
vt 1.089424 0.563672
vt 1.074493 0.576425
vt 1.057751 0.586684
vt 1.039610 0.594199
vt 1.020516 0.598783
vt 0.981366 0.598783
vt 0.962273 0.594199
vt 0.944131 0.586684
vt 0.927389 0.576425
s 1
usemtl Material
f 3/1/1 1/2/1 2/3/1 4/4/1
f 16/5/2 39/6/2 48/7/3 18/8/3
f 18/8/3 48/7/3 47/9/4 19/10/4
f 19/10/4 47/9/4 46/11/5 20/12/5
f 20/12/5 46/11/5 45/13/6 21/14/6
f 21/14/6 45/13/6 44/15/7 22/16/7
f 22/16/7 44/17/7 43/18/8 23/19/8
f 23/19/8 43/18/8 42/20/9 24/21/9
f 24/21/9 42/20/9 41/22/10 25/23/10
f 25/23/10 41/22/10 40/24/11 26/25/11
f 26/25/11 40/24/11 38/26/12 17/27/12
f 27/6/13 6/5/13 15/28/14 29/29/14
f 29/29/14 15/28/14 14/30/15 30/31/15
f 30/31/15 14/30/15 13/32/16 31/33/16
f 31/33/16 13/32/16 12/34/17 32/35/17
f 32/35/17 12/34/17 11/36/18 33/37/18
f 33/38/18 11/36/18 10/39/19 34/40/19
f 34/40/19 10/39/19 9/41/20 35/42/20
f 35/42/20 9/41/20 8/43/21 36/44/21
f 36/44/21 8/43/21 7/45/22 37/46/22
f 37/46/22 7/45/22 5/47/23 28/48/23
f 3/49/24 28/48/23 5/47/23 1/2/24
f 1/2/25 5/47/25 7/45/25 8/43/25 9/41/25 10/39/25 11/36/25 12/34/25 13/32/25 14/30/25 15/28/25 6/5/25 16/5/25 18/8/25 19/10/25 20/12/25 21/14/25 22/16/25 23/19/25 24/21/25 25/23/25 26/25/25 17/27/25 2/3/25
f 6/50/13 27/51/13 39/51/2 16/50/2
f 2/3/26 17/27/12 38/26/12 4/52/26
f 4/53/27 38/54/27 40/55/27 41/56/27 42/57/27 43/58/27 44/59/27 45/60/27 46/61/27 47/62/27 48/63/27 39/51/27 27/51/27 29/64/27 30/65/27 31/66/27 32/67/27 33/38/27 34/40/27 35/42/27 36/44/27 37/46/27 28/48/27 3/49/27
