# Blender 4.5.3 LTS
# www.blender.org
mtllib basura.mtl
o Cylinder
v 1.000000 0.483756 0.000000
v 1.415895 3.345474 -0.000000
v 0.980785 0.483756 0.195090
v 1.388689 3.345474 0.276227
v 0.923880 0.483756 0.382683
v 1.308116 3.345474 0.541839
v 0.831470 0.483756 0.555570
v 1.177273 3.345474 0.786629
v 0.707107 0.483756 0.707107
v 1.001189 3.345474 1.001189
v 0.555570 0.483756 0.831470
v 0.786629 3.345474 1.177273
v 0.382683 0.483756 0.923880
v 0.541839 3.345474 1.308116
v 0.195090 0.483756 0.980785
v 0.276227 3.345474 1.388689
v 0.000000 0.483756 1.000000
v -0.000000 3.345474 1.415895
v -0.195090 0.483756 0.980785
v -0.276227 3.345474 1.388689
v -0.382683 0.483756 0.923880
v -0.541839 3.345474 1.308116
v -0.555570 0.483756 0.831470
v -0.786629 3.345474 1.177273
v -0.707107 0.483756 0.707107
v -1.001189 3.345474 1.001189
v -0.831470 0.483756 0.555570
v -1.177273 3.345474 0.786629
v -0.923880 0.483756 0.382683
v -1.308116 3.345474 0.541839
v -0.980785 0.483756 0.195090
v -1.388689 3.345474 0.276227
v -1.000000 0.483756 0.000000
v -1.415895 3.345474 -0.000000
v -0.980785 0.483756 -0.195090
v -1.388689 3.345474 -0.276227
v -0.923880 0.483756 -0.382683
v -1.308116 3.345474 -0.541839
v -0.831470 0.483756 -0.555570
v -1.177273 3.345474 -0.786629
v -0.707107 0.483756 -0.707107
v -1.001189 3.345474 -1.001189
v -0.555570 0.483756 -0.831470
v -0.786629 3.345474 -1.177273
v -0.382683 0.483756 -0.923880
v -0.541839 3.345474 -1.308116
v -0.195090 0.483756 -0.980785
v -0.276227 3.345474 -1.388689
v 0.000000 0.483756 -1.000000
v -0.000000 3.345474 -1.415895
v 0.195090 0.483756 -0.980785
v 0.276227 3.345474 -1.388689
v 0.382683 0.483756 -0.923880
v 0.541839 3.345474 -1.308116
v 0.555570 0.483756 -0.831470
v 0.786629 3.345474 -1.177273
v 0.707107 0.483756 -0.707107
v 1.001189 3.345474 -1.001189
v 0.831470 0.483756 -0.555570
v 1.177273 3.345474 -0.786629
v 0.923880 0.483756 -0.382683
v 1.308116 3.345474 -0.541839
v 0.980785 0.483756 -0.195090
v 1.388689 3.345474 -0.276227
vn 0.6765 -0.7365 -0.0000
vn 0.9896 -0.1438 -0.0000
vn 0.6635 -0.7365 0.1320
vn 0.9706 -0.1438 0.1931
vn 0.6250 -0.7365 0.2589
vn 0.9143 -0.1438 0.3787
vn 0.5625 -0.7365 0.3758
vn 0.8228 -0.1438 0.5498
vn 0.4783 -0.7365 0.4783
vn 0.6998 -0.1438 0.6998
vn 0.3758 -0.7365 0.5625
vn 0.5498 -0.1438 0.8228
vn 0.2589 -0.7365 0.6250
vn 0.3787 -0.1438 0.9143
vn 0.1320 -0.7365 0.6635
vn 0.1931 -0.1438 0.9706
vn -0.0000 -0.7365 0.6765
vn -0.0000 -0.1438 0.9896
vn -0.1320 -0.7365 0.6635
vn -0.1931 -0.1438 0.9706
vn -0.2589 -0.7365 0.6250
vn -0.3787 -0.1438 0.9143
vn -0.3758 -0.7365 0.5625
vn -0.5498 -0.1438 0.8228
vn -0.4783 -0.7365 0.4783
vn -0.6998 -0.1438 0.6998
vn -0.5625 -0.7365 0.3758
vn -0.8228 -0.1438 0.5498
vn -0.6250 -0.7365 0.2589
vn -0.9143 -0.1438 0.3787
vn -0.6635 -0.7365 0.1320
vn -0.9706 -0.1438 0.1931
vn -0.6765 -0.7365 -0.0000
vn -0.9896 -0.1438 -0.0000
vn -0.6635 -0.7365 -0.1320
vn -0.9706 -0.1438 -0.1931
vn -0.6250 -0.7365 -0.2589
vn -0.9143 -0.1438 -0.3787
vn -0.5625 -0.7365 -0.3758
vn -0.8228 -0.1438 -0.5498
vn -0.4783 -0.7365 -0.4783
vn -0.6998 -0.1438 -0.6998
vn -0.3758 -0.7365 -0.5625
vn -0.5498 -0.1438 -0.8228
vn -0.2589 -0.7365 -0.6250
vn -0.3787 -0.1438 -0.9143
vn -0.1320 -0.7365 -0.6635
vn -0.1931 -0.1438 -0.9706
vn -0.0000 -0.7365 -0.6765
vn -0.0000 -0.1438 -0.9896
vn 0.1320 -0.7365 -0.6635
vn 0.1931 -0.1438 -0.9706
vn 0.2589 -0.7365 -0.6250
vn 0.3787 -0.1438 -0.9143
vn 0.3758 -0.7365 -0.5625
vn 0.5498 -0.1438 -0.8228
vn 0.4783 -0.7365 -0.4783
vn 0.6998 -0.1438 -0.6998
vn 0.5625 -0.7365 -0.3758
vn 0.8228 -0.1438 -0.5498
vn 0.6250 -0.7365 -0.2589
vn 0.9143 -0.1438 -0.3787
vn 0.6635 -0.7365 -0.1320
vn 0.9706 -0.1438 -0.1931
vt 1.005039 0.024764
vt 1.005039 0.989050
vt 0.973474 0.989050
vt 0.973474 0.024764
vt 0.941909 0.989050
vt 0.941909 0.024764
vt 0.910344 0.989050
vt 0.910344 0.024764
vt 0.878779 0.989050
vt 0.878779 0.024764
vt 0.847215 0.989050
vt 0.847215 0.024764
vt 0.815650 0.989050
vt 0.815650 0.024764
vt 0.784085 0.989050
vt 0.784085 0.024764
vt 0.752520 0.989050
vt 0.752520 0.024764
vt 0.720955 0.989050
vt 0.720955 0.024764
vt 0.689390 0.989050
vt 0.689390 0.024764
vt 0.657825 0.989050
vt 0.657825 0.024764
vt 0.626260 0.989050
vt 0.626260 0.024764
vt 0.594695 0.989050
vt 0.594695 0.024764
vt 0.563130 0.989050
vt 0.563130 0.024764
vt 0.531565 0.989050
vt 0.531565 0.024764
vt 0.500000 0.989050
vt 0.500000 0.024764
vt 0.468435 0.989050
vt 0.468435 0.024764
vt 0.436870 0.989050
vt 0.436870 0.024764
vt 0.405305 0.989050
vt 0.405305 0.024764
vt 0.373740 0.989050
vt 0.373740 0.024764
vt 0.342175 0.989050
vt 0.342175 0.024764
vt 0.310610 0.989050
vt 0.310610 0.024764
vt 0.279045 0.989050
vt 0.279045 0.024764
vt 0.247480 0.989050
vt 0.247480 0.024764
vt 0.215915 0.989050
vt 0.215915 0.024764
vt 0.184350 0.989050
vt 0.184350 0.024764
vt 0.152786 0.989050
vt 0.152786 0.024764
vt 0.121221 0.989050
vt 0.121221 0.024764
vt 0.089656 0.989050
vt 0.089656 0.024764
vt 0.058091 0.989050
vt 0.058091 0.024764
vt 0.026526 0.989050
vt 0.026526 0.024764
vt -0.005039 0.989050
vt -0.005039 0.024764
vt 0.752520 -0.209598
vt 0.777837 -0.214359
vt 0.802182 -0.228459
vt 0.824618 -0.251356
vt 0.844284 -0.282171
vt 0.860423 -0.319719
vt 0.872415 -0.362557
vt 0.879800 -0.409040
vt 0.882294 -0.457379
vt 0.879800 -0.505719
vt 0.872415 -0.552201
vt 0.860423 -0.595039
vt 0.844284 -0.632587
vt 0.824618 -0.663402
vt 0.802182 -0.686300
vt 0.777837 -0.700400
vt 0.752520 -0.705161
vt 0.727202 -0.700400
vt 0.702857 -0.686300
vt 0.680421 -0.663402
vt 0.660756 -0.632587
vt 0.644616 -0.595039
vt 0.632624 -0.552201
vt 0.625239 -0.505719
vt 0.622746 -0.457379
vt 0.625239 -0.409040
vt 0.632624 -0.362557
vt 0.644616 -0.319719
vt 0.660756 -0.282171
vt 0.680421 -0.251356
vt 0.702857 -0.228459
vt 0.727202 -0.214359
s 1
usemtl Material.001
f 1/1/1 2/2/2 4/3/4 3/4/3
f 3/4/3 4/3/4 6/5/6 5/6/5
f 5/6/5 6/5/6 8/7/8 7/8/7
f 7/8/7 8/7/8 10/9/10 9/10/9
f 9/10/9 10/9/10 12/11/12 11/12/11
f 11/12/11 12/11/12 14/13/14 13/14/13
f 13/14/13 14/13/14 16/15/16 15/16/15
f 15/16/15 16/15/16 18/17/18 17/18/17
f 17/18/17 18/17/18 20/19/20 19/20/19
f 19/20/19 20/19/20 22/21/22 21/22/21
f 21/22/21 22/21/22 24/23/24 23/24/23
f 23/24/23 24/23/24 26/25/26 25/26/25
f 25/26/25 26/25/26 28/27/28 27/28/27
f 27/28/27 28/27/28 30/29/30 29/30/29
f 29/30/29 30/29/30 32/31/32 31/32/31
f 31/32/31 32/31/32 34/33/34 33/34/33
f 33/34/33 34/33/34 36/35/36 35/36/35
f 35/36/35 36/35/36 38/37/38 37/38/37
f 37/38/37 38/37/38 40/39/40 39/40/39
f 39/40/39 40/39/40 42/41/42 41/42/41
f 41/42/41 42/41/42 44/43/44 43/44/43
f 43/44/43 44/43/44 46/45/46 45/46/45
f 45/46/45 46/45/46 48/47/48 47/48/47
f 47/48/47 48/47/48 50/49/50 49/50/49
f 49/50/49 50/49/50 52/51/52 51/52/51
f 51/52/51 52/51/52 54/53/54 53/54/53
f 53/54/53 54/53/54 56/55/56 55/56/55
f 55/56/55 56/55/56 58/57/58 57/58/57
f 57/58/57 58/57/58 60/59/60 59/60/59
f 59/60/59 60/59/60 62/61/62 61/62/61
f 61/62/61 62/61/62 64/63/64 63/64/63
f 63/64/63 64/63/64 2/65/2 1/66/1
f 1/67/1 3/68/3 5/69/5 7/70/7 9/71/9 11/72/11 13/73/13 15/74/15 17/75/17 19/76/19 21/77/21 23/78/23 25/79/25 27/80/27 29/81/29 31/82/31 33/83/33 35/84/35 37/85/37 39/86/39 41/87/41 43/88/43 45/89/45 47/90/47 49/91/49 51/92/51 53/93/53 55/94/55 57/95/57 59/96/59 61/97/61 63/98/63
