# Blender 4.5.3 LTS
# www.blender.org
mtllib hongo.mtl
o Cube
v 1.012080 6.608799 -1.012080
v 1.012081 3.572557 -1.012080
v 1.012080 6.608799 1.012080
v 1.012080 3.572558 1.012080
v -1.012080 6.608799 -1.012080
v -1.012080 3.572557 -1.012080
v -1.012080 6.608799 1.012080
v -1.012080 3.572557 1.012080
v 1.349441 4.463625 -1.349440
v -1.349441 4.463625 1.349440
v 1.349440 4.463625 1.349441
v -1.349440 4.463625 -1.349441
v -1.083164 3.563440 -0.847819
v -1.159708 3.553623 -0.600467
v -1.213759 3.546690 -0.310508
v -1.233863 3.544112 0.000000
v -1.213759 3.546690 0.310508
v -1.159708 3.553623 0.600467
v -1.083164 3.563440 0.847819
v 0.847819 3.563441 -1.083164
v 0.600467 3.553623 -1.159708
v 0.310508 3.546690 -1.213759
v 0.000000 3.544112 -1.233863
v -0.310508 3.546690 -1.213759
v -0.600467 3.553623 -1.159708
v -0.847819 3.563440 -1.083164
v 1.348538 4.233396 -1.348538
v 1.342217 4.045858 -1.342217
v 1.325061 3.896671 -1.325061
v 1.291652 3.781497 -1.291652
v 1.238138 3.695924 -1.238138
v 1.166932 3.635242 -1.166932
v 1.084067 3.594862 -1.084067
v -1.348538 4.737435 1.348538
v -1.342217 5.041929 1.342217
v -1.325061 5.360761 1.325061
v -1.291652 5.677587 1.291652
v -1.238138 5.976562 1.238138
v -1.166932 6.243861 1.166932
v -1.084067 6.464840 1.084067
v 1.348538 4.233396 1.348538
v 1.342217 4.045858 1.342217
v 1.325061 3.896671 1.325061
v 1.291652 3.781497 1.291652
v 1.238138 3.695924 1.238138
v 1.166932 3.635242 1.166932
v 1.084067 3.594862 1.084067
v -1.348538 4.233396 -1.348538
v -1.342217 4.045858 -1.342217
v -1.325061 3.896671 -1.325061
v -1.291652 3.781497 -1.291652
v -1.238138 3.695924 -1.238138
v -1.166932 3.635242 -1.166932
v -1.084067 3.594862 -1.084067
v 0.847819 6.670766 1.083164
v 0.600467 6.737492 1.159708
v 0.310508 6.784610 1.213759
v -0.000000 6.802136 1.233863
v -0.310508 6.784610 1.213759
v -0.600467 6.737492 1.159708
v -0.847819 6.670766 1.083164
v 1.083164 6.670766 -0.847819
v 1.159708 6.737492 -0.600467
v 1.213759 6.784610 -0.310508
v 1.233863 6.802136 0.000000
v 1.213759 6.784610 0.310508
v 1.159708 6.737492 0.600467
v 1.083164 6.670766 0.847819
v -0.847819 3.563440 1.083164
v -0.600467 3.553623 1.159708
v -0.310508 3.546690 1.213759
v -0.000000 3.544112 1.233863
v 0.310508 3.546690 1.213759
v 0.600467 3.553623 1.159708
v 0.847819 3.563440 1.083164
v -1.083164 6.670765 0.847819
v -1.159708 6.737492 0.600467
v -1.213759 6.784610 0.310508
v -1.233863 6.802136 -0.000000
v -1.213759 6.784610 -0.310508
v -1.159708 6.737492 -0.600467
v -1.083164 6.670766 -0.847819
v -0.847819 6.670765 -1.083164
v -0.600467 6.737492 -1.159708
v -0.310508 6.784610 -1.213759
v 0.000000 6.802136 -1.233863
v 0.310508 6.784610 -1.213759
v 0.600467 6.737492 -1.159708
v 0.847819 6.670766 -1.083164
v 1.083164 3.563441 0.847819
v 1.159708 3.553623 0.600467
v 1.213759 3.546690 0.310508
v 1.233863 3.544112 0.000000
v 1.213759 3.546690 -0.310508
v 1.159708 3.553623 -0.600467
v 1.083164 3.563440 -0.847819
v 1.084067 6.464840 -1.084067
v 1.166932 6.243861 -1.166932
v 1.238138 5.976562 -1.238138
v 1.291652 5.677587 -1.291652
v 1.325061 5.360761 -1.325061
v 1.342217 5.041929 -1.342217
v 1.348538 4.737435 -1.348538
v -1.084067 3.594862 1.084067
v -1.166932 3.635242 1.166932
v -1.238138 3.695924 1.238138
v -1.291652 3.781497 1.291652
v -1.325061 3.896671 1.325061
v -1.342217 4.045858 1.342217
v -1.348538 4.233396 1.348538
v 1.084067 6.464840 1.084067
v 1.166932 6.243861 1.166932
v 1.238138 5.976562 1.238138
v 1.291652 5.677587 1.291652
v 1.325061 5.360761 1.325061
v 1.342217 5.041929 1.342217
v 1.348538 4.737435 1.348538
v -1.084067 6.464840 -1.084067
v -1.166932 6.243861 -1.166932
v -1.238138 5.976562 -1.238138
v -1.291652 5.677587 -1.291652
v -1.325061 5.360761 -1.325061
v -1.342217 5.041929 -1.342217
v -1.348538 4.737435 -1.348538
v -1.067429 4.463625 -1.570833
v -0.737975 4.463625 -1.728971
v -0.376895 4.463624 -1.823853
v 0.000000 4.463625 -1.855481
v 0.376895 4.463624 -1.823853
v 0.737975 4.463625 -1.728971
v 1.067428 4.463625 -1.570833
v 1.570833 4.463625 -1.067429
v 1.728971 4.463625 -0.737975
v 1.823853 4.463625 -0.376895
v 1.855481 4.463625 0.000000
v 1.823853 4.463625 0.376895
v 1.728971 4.463625 0.737975
v 1.570833 4.463625 1.067428
v -1.570833 4.463625 1.067429
v -1.728971 4.463625 0.737975
v -1.823853 4.463624 0.376895
v -1.855481 4.463625 0.000000
v -1.823853 4.463624 -0.376895
v -1.728971 4.463625 -0.737975
v -1.570833 4.463625 -1.067428
v 1.067429 4.463625 1.570833
v 0.737975 4.463625 1.728971
v 0.376895 4.463625 1.823853
v 0.000000 4.463625 1.855481
v -0.376895 4.463625 1.823853
v -0.737975 4.463625 1.728971
v -1.067428 4.463625 1.570833
v 0.873949 6.803712 -0.873949
v 0.613285 6.898418 -0.921605
v 0.315953 6.958224 -0.960262
v 0.000000 6.979263 -0.975621
v -0.315954 6.958224 -0.960262
v -0.613285 6.898418 -0.921605
v -0.873949 6.803712 -0.873949
v 0.921605 6.898418 -0.613285
v 0.639953 7.012862 -0.639953
v 0.327743 7.082477 -0.664066
v 0.000000 7.106098 -0.674330
v -0.327743 7.082477 -0.664066
v -0.639953 7.012862 -0.639953
v -0.921605 6.898418 -0.613285
v 0.960262 6.958224 -0.315954
v 0.664066 7.082477 -0.327743
v 0.339213 7.157329 -0.339213
v -0.000000 7.182386 -0.344340
v -0.339213 7.157329 -0.339213
v -0.664066 7.082477 -0.327743
v -0.960262 6.958224 -0.315954
v 0.975621 6.979263 0.000000
v 0.674330 7.106098 0.000000
v 0.344340 7.182386 -0.000000
v -0.000000 7.207872 -0.000000
v -0.344340 7.182386 -0.000000
v -0.674330 7.106098 -0.000000
v -0.975621 6.979263 -0.000000
v 0.960262 6.958224 0.315954
v 0.664066 7.082477 0.327743
v 0.339213 7.157329 0.339213
v -0.000000 7.182386 0.344340
v -0.339213 7.157329 0.339213
v -0.664066 7.082477 0.327743
v -0.960262 6.958224 0.315954
v 0.921605 6.898418 0.613285
v 0.639953 7.012862 0.639953
v 0.327743 7.082478 0.664066
v -0.000000 7.106098 0.674330
v -0.327743 7.082477 0.664066
v -0.639953 7.012862 0.639953
v -0.921605 6.898418 0.613285
v 0.873949 6.803712 0.873949
v 0.613285 6.898418 0.921605
v 0.315954 6.958224 0.960262
v -0.000000 6.979263 0.975621
v -0.315954 6.958224 0.960262
v -0.613285 6.898418 0.921605
v -0.873949 6.803712 0.873949
v 1.066711 4.737482 1.569788
v 1.061691 5.042301 1.562472
v 1.048063 5.362018 1.542613
v 1.021525 5.680565 1.503942
v 0.979628 5.982566 1.441136
v 0.927343 6.255407 1.352673
v 0.874666 6.487666 1.236716
v 0.737478 4.737584 1.727827
v 0.733998 5.043120 1.719819
v 0.724550 5.364782 1.698084
v 0.706152 5.687117 1.655759
v 0.677491 5.995608 1.586337
v 0.643931 6.279474 1.484744
v 0.613783 6.529312 1.345456
v 0.376640 4.737686 1.822652
v 0.374860 5.043940 1.814241
v 0.370028 5.367547 1.791413
v 0.360617 5.693669 1.746956
v 0.346080 6.008371 1.673756
v 0.329778 6.301313 1.565063
v 0.316208 6.563113 1.414118
v -0.000000 4.737733 1.854260
v -0.000000 5.044312 1.845719
v 0.000000 5.368803 1.822535
v -0.000000 5.696648 1.777388
v 0.000000 6.014097 1.703005
v 0.000000 6.310633 1.592309
v 0.000000 6.576549 1.438271
v -0.376640 4.737687 1.822652
v -0.374860 5.043940 1.814241
v -0.370028 5.367547 1.791412
v -0.360617 5.693669 1.746956
v -0.346080 6.008371 1.673756
v -0.329778 6.301313 1.565063
v -0.316208 6.563113 1.414118
v -0.737478 4.737584 1.727827
v -0.733997 5.043120 1.719819
v -0.724550 5.364782 1.698085
v -0.706152 5.687117 1.655759
v -0.677491 5.995608 1.586337
v -0.643931 6.279474 1.484744
v -0.613783 6.529312 1.345456
v -1.066711 4.737482 1.569788
v -1.061690 5.042301 1.562472
v -1.048063 5.362018 1.542614
v -1.021525 5.680565 1.503942
v -0.979628 5.982566 1.441136
v -0.927343 6.255407 1.352673
v -0.874666 6.487666 1.236716
v -1.569788 4.737482 1.066711
v -1.562472 5.042301 1.061691
v -1.542613 5.362018 1.048063
v -1.503942 5.680565 1.021525
v -1.441136 5.982566 0.979628
v -1.352673 6.255407 0.927343
v -1.236716 6.487666 0.874666
v -1.727827 4.737584 0.737478
v -1.719819 5.043120 0.733998
v -1.698084 5.364782 0.724550
v -1.655759 5.687117 0.706152
v -1.586337 5.995608 0.677491
v -1.484744 6.279474 0.643931
v -1.345456 6.529312 0.613783
v -1.822652 4.737686 0.376640
v -1.814241 5.043940 0.374860
v -1.791413 5.367547 0.370028
v -1.746956 5.693669 0.360617
v -1.673756 6.008371 0.346080
v -1.565063 6.301313 0.329778
v -1.414118 6.563113 0.316208
v -1.854260 4.737733 -0.000000
v -1.845719 5.044312 -0.000000
v -1.822535 5.368803 0.000000
v -1.777388 5.696648 0.000000
v -1.703005 6.014097 0.000000
v -1.592309 6.310633 -0.000000
v -1.438271 6.576549 -0.000000
v -1.822652 4.737687 -0.376640
v -1.814241 5.043940 -0.374860
v -1.791412 5.367547 -0.370028
v -1.746956 5.693669 -0.360617
v -1.673756 6.008371 -0.346080
v -1.565063 6.301313 -0.329778
v -1.414118 6.563113 -0.316208
v -1.727827 4.737584 -0.737478
v -1.719819 5.043120 -0.733997
v -1.698085 5.364782 -0.724550
v -1.655759 5.687117 -0.706153
v -1.586337 5.995608 -0.677491
v -1.484744 6.279474 -0.643931
v -1.345456 6.529312 -0.613783
v -1.569788 4.737482 -1.066711
v -1.562472 5.042301 -1.061690
v -1.542614 5.362018 -1.048063
v -1.503942 5.680565 -1.021525
v -1.441136 5.982566 -0.979628
v -1.352673 6.255407 -0.927343
v -1.236716 6.487666 -0.874666
v -0.873949 3.543880 -0.873949
v -0.613285 3.529946 -0.921605
v -0.315954 3.521147 -0.960262
v -0.000000 3.518052 -0.975621
v 0.315954 3.521147 -0.960262
v 0.613285 3.529946 -0.921605
v 0.873949 3.543880 -0.873949
v -0.921605 3.529946 -0.613285
v -0.639953 3.513108 -0.639953
v -0.327743 3.502866 -0.664066
v -0.000000 3.499390 -0.674330
v 0.327743 3.502866 -0.664066
v 0.639953 3.513108 -0.639953
v 0.921605 3.529946 -0.613285
v -0.960262 3.521147 -0.315954
v -0.664066 3.502866 -0.327743
v -0.339213 3.491853 -0.339213
v 0.000000 3.488166 -0.344340
v 0.339213 3.491853 -0.339213
v 0.664066 3.502865 -0.327743
v 0.960262 3.521147 -0.315954
v -0.975621 3.518052 0.000000
v -0.674330 3.499390 0.000000
v -0.344340 3.488166 -0.000000
v 0.000000 3.484416 -0.000000
v 0.344340 3.488166 -0.000000
v 0.674330 3.499390 -0.000000
v 0.975621 3.518052 -0.000000
v -0.960262 3.521147 0.315954
v -0.664066 3.502865 0.327743
v -0.339213 3.491853 0.339213
v 0.000000 3.488166 0.344340
v 0.339213 3.491853 0.339213
v 0.664066 3.502865 0.327743
v 0.960262 3.521147 0.315953
v -0.921605 3.529946 0.613285
v -0.639953 3.513108 0.639953
v -0.327743 3.502866 0.664066
v 0.000000 3.499390 0.674330
v 0.327743 3.502865 0.664066
v 0.639953 3.513108 0.639953
v 0.921605 3.529946 0.613285
v -0.873949 3.543880 0.873949
v -0.613285 3.529946 0.921605
v -0.315954 3.521147 0.960262
v 0.000000 3.518051 0.975621
v 0.315954 3.521147 0.960262
v 0.613285 3.529946 0.921605
v 0.873949 3.543880 0.873949
v 1.569788 4.737482 -1.066711
v 1.562472 5.042301 -1.061691
v 1.542613 5.362018 -1.048063
v 1.503942 5.680565 -1.021525
v 1.441136 5.982566 -0.979628
v 1.352673 6.255407 -0.927343
v 1.236716 6.487666 -0.874666
v 1.727827 4.737584 -0.737478
v 1.719819 5.043120 -0.733998
v 1.698084 5.364782 -0.724550
v 1.655759 5.687117 -0.706152
v 1.586337 5.995608 -0.677491
v 1.484744 6.279474 -0.643931
v 1.345456 6.529312 -0.613783
v 1.822652 4.737686 -0.376640
v 1.814241 5.043940 -0.374860
v 1.791413 5.367547 -0.370028
v 1.746956 5.693669 -0.360617
v 1.673756 6.008371 -0.346080
v 1.565063 6.301313 -0.329778
v 1.414118 6.563113 -0.316208
v 1.854260 4.737733 0.000000
v 1.845719 5.044312 0.000000
v 1.822535 5.368803 -0.000000
v 1.777388 5.696648 0.000000
v 1.703005 6.014097 -0.000000
v 1.592309 6.310633 -0.000000
v 1.438271 6.576549 -0.000000
v 1.822652 4.737687 0.376640
v 1.814241 5.043940 0.374860
v 1.791412 5.367547 0.370028
v 1.746956 5.693669 0.360617
v 1.673756 6.008371 0.346080
v 1.565063 6.301313 0.329778
v 1.414118 6.563113 0.316208
v 1.727827 4.737584 0.737478
v 1.719819 5.043120 0.733997
v 1.698085 5.364782 0.724550
v 1.655759 5.687117 0.706152
v 1.586337 5.995608 0.677491
v 1.484744 6.279474 0.643931
v 1.345456 6.529312 0.613783
v 1.569788 4.737482 1.066711
v 1.562472 5.042301 1.061690
v 1.542614 5.362018 1.048063
v 1.503942 5.680565 1.021525
v 1.441136 5.982566 0.979628
v 1.352673 6.255407 0.927343
v 1.236716 6.487666 0.874666
v -1.066711 4.737482 -1.569788
v -1.061691 5.042301 -1.562472
v -1.048063 5.362018 -1.542613
v -1.021525 5.680565 -1.503942
v -0.979628 5.982566 -1.441136
v -0.927343 6.255407 -1.352673
v -0.874666 6.487666 -1.236716
v -0.737478 4.737584 -1.727827
v -0.733998 5.043120 -1.719819
v -0.724550 5.364782 -1.698084
v -0.706152 5.687117 -1.655759
v -0.677491 5.995608 -1.586337
v -0.643931 6.279474 -1.484744
v -0.613783 6.529312 -1.345456
v -0.376640 4.737686 -1.822652
v -0.374860 5.043940 -1.814241
v -0.370028 5.367547 -1.791413
v -0.360617 5.693669 -1.746956
v -0.346080 6.008371 -1.673756
v -0.329778 6.301313 -1.565063
v -0.316208 6.563113 -1.414118
v 0.000000 4.737733 -1.854260
v 0.000000 5.044312 -1.845719
v -0.000000 5.368803 -1.822535
v -0.000000 5.696648 -1.777388
v -0.000000 6.014097 -1.703005
v -0.000000 6.310633 -1.592309
v -0.000000 6.576549 -1.438271
v 0.376640 4.737687 -1.822652
v 0.374860 5.043940 -1.814241
v 0.370028 5.367547 -1.791412
v 0.360617 5.693669 -1.746956
v 0.346080 6.008371 -1.673756
v 0.329778 6.301313 -1.565063
v 0.316208 6.563113 -1.414118
v 0.737478 4.737584 -1.727827
v 0.733997 5.043120 -1.719819
v 0.724550 5.364782 -1.698085
v 0.706152 5.687117 -1.655759
v 0.677491 5.995608 -1.586337
v 0.643931 6.279474 -1.484744
v 0.613783 6.529312 -1.345456
v 1.066711 4.737482 -1.569788
v 1.061690 5.042301 -1.562472
v 1.048063 5.362018 -1.542614
v 1.021525 5.680565 -1.503942
v 0.979628 5.982566 -1.441136
v 0.927343 6.255407 -1.352673
v 0.874666 6.487666 -1.236716
v -0.874666 3.591504 -1.236716
v -0.927343 3.633543 -1.352673
v -0.979628 3.695041 -1.441136
v -1.021525 3.781059 -1.503942
v -1.048063 3.896486 -1.542613
v -1.061691 4.045803 -1.562472
v -1.066711 4.233389 -1.569788
v -0.613783 3.585377 -1.345456
v -0.643931 3.630002 -1.484744
v -0.677491 3.693122 -1.586337
v -0.706153 3.780095 -1.655759
v -0.724550 3.896080 -1.698085
v -0.733998 4.045682 -1.719819
v -0.737478 4.233374 -1.727827
v -0.316208 3.580403 -1.414118
v -0.329778 3.626789 -1.565063
v -0.346080 3.691244 -1.673756
v -0.360617 3.779131 -1.746956
v -0.370027 3.895673 -1.791413
v -0.374860 4.045562 -1.814241
v -0.376640 4.233359 -1.822652
v 0.000000 3.578426 -1.438271
v 0.000000 3.625418 -1.592309
v 0.000000 3.690402 -1.703005
v -0.000000 3.778693 -1.777388
v 0.000000 3.895488 -1.822535
v 0.000000 4.045507 -1.845719
v 0.000000 4.233352 -1.854260
v 0.316208 3.580403 -1.414118
v 0.329778 3.626789 -1.565063
v 0.346080 3.691244 -1.673756
v 0.360617 3.779131 -1.746956
v 0.370027 3.895673 -1.791412
v 0.374860 4.045562 -1.814241
v 0.376640 4.233359 -1.822652
v 0.613783 3.585376 -1.345456
v 0.643931 3.630002 -1.484744
v 0.677491 3.693122 -1.586337
v 0.706152 3.780095 -1.655759
v 0.724550 3.896080 -1.698084
v 0.733997 4.045682 -1.719819
v 0.737478 4.233374 -1.727827
v 0.874666 3.591504 -1.236716
v 0.927343 3.633543 -1.352673
v 0.979628 3.695041 -1.441136
v 1.021525 3.781059 -1.503942
v 1.048063 3.896486 -1.542614
v 1.061690 4.045803 -1.562472
v 1.066711 4.233389 -1.569788
v 1.236716 3.591504 -0.874666
v 1.352673 3.633543 -0.927343
v 1.441136 3.695041 -0.979628
v 1.503942 3.781059 -1.021525
v 1.542613 3.896486 -1.048063
v 1.562472 4.045803 -1.061691
v 1.569788 4.233389 -1.066711
v 1.345456 3.585377 -0.613783
v 1.484744 3.630002 -0.643931
v 1.586337 3.693122 -0.677491
v 1.655759 3.780095 -0.706153
v 1.698085 3.896080 -0.724550
v 1.719819 4.045682 -0.733998
v 1.727827 4.233374 -0.737478
v 1.414118 3.580403 -0.316208
v 1.565063 3.626789 -0.329778
v 1.673756 3.691244 -0.346080
v 1.746956 3.779131 -0.360617
v 1.791413 3.895673 -0.370027
v 1.814241 4.045562 -0.374860
v 1.822652 4.233359 -0.376640
v 1.438271 3.578426 0.000000
v 1.592309 3.625418 0.000000
v 1.703005 3.690402 0.000000
v 1.777388 3.778693 -0.000000
v 1.822535 3.895488 0.000000
v 1.845719 4.045507 0.000000
v 1.854260 4.233352 0.000000
v 1.414118 3.580403 0.316208
v 1.565063 3.626789 0.329778
v 1.673756 3.691244 0.346080
v 1.746956 3.779131 0.360617
v 1.791412 3.895673 0.370027
v 1.814241 4.045562 0.374860
v 1.822652 4.233359 0.376640
v 1.345455 3.585376 0.613783
v 1.484744 3.630002 0.643931
v 1.586337 3.693122 0.677491
v 1.655759 3.780095 0.706152
v 1.698084 3.896080 0.724550
v 1.719819 4.045682 0.733997
v 1.727827 4.233374 0.737478
v 1.236716 3.591504 0.874666
v 1.352673 3.633543 0.927343
v 1.441136 3.695041 0.979628
v 1.503942 3.781059 1.021525
v 1.542614 3.896486 1.048063
v 1.562472 4.045803 1.061690
v 1.569788 4.233389 1.066711
v -1.236716 3.591504 0.874666
v -1.352673 3.633543 0.927343
v -1.441136 3.695041 0.979628
v -1.503942 3.781059 1.021525
v -1.542613 3.896486 1.048063
v -1.562472 4.045803 1.061691
v -1.569788 4.233389 1.066711
v -1.345456 3.585377 0.613783
v -1.484744 3.630002 0.643931
v -1.586337 3.693122 0.677491
v -1.655759 3.780095 0.706153
v -1.698085 3.896080 0.724550
v -1.719819 4.045682 0.733998
v -1.727827 4.233374 0.737478
v -1.414118 3.580403 0.316208
v -1.565063 3.626789 0.329778
v -1.673756 3.691244 0.346080
v -1.746956 3.779131 0.360617
v -1.791413 3.895673 0.370027
v -1.814241 4.045562 0.374860
v -1.822652 4.233359 0.376640
v -1.438271 3.578426 -0.000000
v -1.592309 3.625418 -0.000000
v -1.703005 3.690402 -0.000000
v -1.777388 3.778693 0.000000
v -1.822535 3.895488 -0.000000
v -1.845719 4.045507 0.000000
v -1.854260 4.233352 -0.000000
v -1.414118 3.580403 -0.316208
v -1.565063 3.626789 -0.329778
v -1.673756 3.691244 -0.346080
v -1.746956 3.779131 -0.360617
v -1.791412 3.895673 -0.370027
v -1.814241 4.045562 -0.374860
v -1.822652 4.233359 -0.376640
v -1.345456 3.585376 -0.613783
v -1.484744 3.630002 -0.643931
v -1.586337 3.693122 -0.677491
v -1.655759 3.780095 -0.706152
v -1.698084 3.896080 -0.724550
v -1.719819 4.045682 -0.733997
v -1.727827 4.233374 -0.737478
v -1.236716 3.591504 -0.874666
v -1.352673 3.633543 -0.927343
v -1.441136 3.695041 -0.979628
v -1.503942 3.781059 -1.021525
v -1.542614 3.896486 -1.048063
v -1.562472 4.045803 -1.061690
v -1.569788 4.233389 -1.066711
v 0.874666 3.591504 1.236716
v 0.927343 3.633543 1.352673
v 0.979628 3.695041 1.441136
v 1.021525 3.781059 1.503942
v 1.048063 3.896486 1.542613
v 1.061691 4.045803 1.562472
v 1.066711 4.233389 1.569788
v 0.613783 3.585377 1.345456
v 0.643931 3.630002 1.484744
v 0.677491 3.693122 1.586337
v 0.706153 3.780095 1.655759
v 0.724550 3.896080 1.698085
v 0.733998 4.045682 1.719819
v 0.737478 4.233374 1.727827
v 0.316208 3.580403 1.414118
v 0.329778 3.626789 1.565063
v 0.346080 3.691244 1.673756
v 0.360617 3.779131 1.746956
v 0.370027 3.895673 1.791413
v 0.374860 4.045562 1.814241
v 0.376640 4.233359 1.822652
v -0.000000 3.578426 1.438271
v -0.000000 3.625418 1.592309
v -0.000000 3.690402 1.703005
v 0.000000 3.778693 1.777388
v -0.000000 3.895488 1.822535
v 0.000000 4.045507 1.845719
v -0.000000 4.233352 1.854260
v -0.316208 3.580403 1.414118
v -0.329778 3.626789 1.565063
v -0.346080 3.691244 1.673756
v -0.360617 3.779131 1.746956
v -0.370027 3.895673 1.791412
v -0.374860 4.045562 1.814241
v -0.376640 4.233359 1.822652
v -0.613783 3.585376 1.345456
v -0.643931 3.630002 1.484744
v -0.677491 3.693122 1.586337
v -0.706152 3.780095 1.655759
v -0.724550 3.896080 1.698084
v -0.733997 4.045682 1.719819
v -0.737478 4.233374 1.727827
v -0.874666 3.591504 1.236716
v -0.927343 3.633543 1.352673
v -0.979628 3.695041 1.441136
v -1.021525 3.781059 1.503942
v -1.048063 3.896486 1.542614
v -1.061690 4.045803 1.562472
v -1.066711 4.233389 1.569788
vn 0.5480 0.6319 -0.5480
vn 0.1294 -0.9831 -0.1294
vn 0.5480 0.6319 0.5480
vn 0.1294 -0.9831 0.1294
vn -0.5480 0.6319 -0.5480
vn -0.1294 -0.9831 -0.1294
vn -0.5480 0.6319 0.5480
vn -0.1294 -0.9831 0.1294
vn 0.7071 -0.0004 -0.7071
vn -0.7071 -0.0004 0.7071
vn 0.7071 -0.0004 0.7071
vn -0.7071 -0.0004 -0.7071
vn -0.1333 -0.9863 -0.0976
vn -0.1336 -0.9889 -0.0645
vn -0.1341 -0.9904 -0.0327
vn -0.1344 -0.9909 -0.0000
vn -0.1341 -0.9904 0.0327
vn -0.1336 -0.9889 0.0645
vn -0.1333 -0.9863 0.0976
vn 0.0976 -0.9863 -0.1333
vn 0.0645 -0.9889 -0.1336
vn 0.0327 -0.9904 -0.1341
vn -0.0000 -0.9909 -0.1344
vn -0.0327 -0.9904 -0.1341
vn -0.0645 -0.9889 -0.1336
vn -0.0976 -0.9863 -0.1333
vn 0.7069 -0.0265 -0.7069
vn 0.7033 -0.1036 -0.7033
vn 0.6810 -0.2690 -0.6810
vn 0.6031 -0.5220 -0.6031
vn 0.4574 -0.7626 -0.4574
vn 0.3031 -0.9035 -0.3031
vn 0.1914 -0.9627 -0.1914
vn -0.7070 0.0170 0.7070
vn -0.7061 0.0524 0.7061
vn -0.7027 0.1110 0.7027
vn -0.6935 0.1949 0.6935
vn -0.6752 0.2968 0.6752
vn -0.6454 0.4085 0.6454
vn -0.6018 0.5251 0.6018
vn 0.7069 -0.0265 0.7069
vn 0.7033 -0.1036 0.7033
vn 0.6810 -0.2690 0.6810
vn 0.6031 -0.5220 0.6031
vn 0.4574 -0.7626 0.4574
vn 0.3031 -0.9035 0.3031
vn 0.1914 -0.9627 0.1914
vn -0.7069 -0.0265 -0.7069
vn -0.7033 -0.1036 -0.7033
vn -0.6810 -0.2690 -0.6810
vn -0.6031 -0.5220 -0.6031
vn -0.4574 -0.7626 -0.4574
vn -0.3031 -0.9035 -0.3031
vn -0.1914 -0.9627 -0.1914
vn 0.4369 0.6779 0.5912
vn 0.3054 0.7172 0.6264
vn 0.1599 0.7431 0.6498
vn -0.0000 0.7526 0.6584
vn -0.1599 0.7431 0.6498
vn -0.3054 0.7172 0.6264
vn -0.4369 0.6779 0.5912
vn 0.5912 0.6779 -0.4369
vn 0.6264 0.7172 -0.3054
vn 0.6498 0.7431 -0.1599
vn 0.6584 0.7526 -0.0000
vn 0.6498 0.7431 0.1599
vn 0.6264 0.7172 0.3054
vn 0.5912 0.6779 0.4369
vn -0.0976 -0.9863 0.1333
vn -0.0645 -0.9889 0.1336
vn -0.0327 -0.9904 0.1341
vn -0.0000 -0.9909 0.1344
vn 0.0327 -0.9904 0.1341
vn 0.0645 -0.9889 0.1336
vn 0.0976 -0.9863 0.1333
vn -0.5912 0.6779 0.4369
vn -0.6264 0.7172 0.3054
vn -0.6498 0.7431 0.1599
vn -0.6584 0.7526 -0.0000
vn -0.6498 0.7431 -0.1599
vn -0.6264 0.7172 -0.3054
vn -0.5912 0.6779 -0.4369
vn -0.4369 0.6779 -0.5912
vn -0.3054 0.7172 -0.6264
vn -0.1599 0.7431 -0.6498
vn -0.0000 0.7526 -0.6584
vn 0.1599 0.7431 -0.6498
vn 0.3054 0.7172 -0.6264
vn 0.4369 0.6779 -0.5912
vn 0.1333 -0.9863 0.0976
vn 0.1336 -0.9889 0.0645
vn 0.1341 -0.9904 0.0327
vn 0.1344 -0.9909 -0.0000
vn 0.1341 -0.9904 -0.0327
vn 0.1336 -0.9889 -0.0645
vn 0.1333 -0.9863 -0.0976
vn 0.6018 0.5251 -0.6018
vn 0.6454 0.4085 -0.6454
vn 0.6752 0.2968 -0.6752
vn 0.6935 0.1949 -0.6935
vn 0.7027 0.1110 -0.7027
vn 0.7061 0.0524 -0.7061
vn 0.7070 0.0170 -0.7070
vn -0.1914 -0.9627 0.1914
vn -0.3031 -0.9035 0.3031
vn -0.4574 -0.7626 0.4574
vn -0.6031 -0.5220 0.6031
vn -0.6810 -0.2690 0.6810
vn -0.7033 -0.1036 0.7033
vn -0.7069 -0.0265 0.7069
vn 0.6018 0.5251 0.6018
vn 0.6454 0.4085 0.6454
vn 0.6752 0.2968 0.6752
vn 0.6935 0.1949 0.6935
vn 0.7027 0.1110 0.7027
vn 0.7061 0.0524 0.7061
vn 0.7070 0.0170 0.7070
vn -0.6018 0.5251 -0.6018
vn -0.6454 0.4085 -0.6454
vn -0.6752 0.2968 -0.6752
vn -0.6935 0.1949 -0.6935
vn -0.7027 0.1110 -0.7027
vn -0.7061 0.0524 -0.7061
vn -0.7070 0.0170 -0.7070
vn -0.5283 -0.0004 -0.8491
vn -0.3450 -0.0004 -0.9386
vn -0.1695 -0.0004 -0.9855
vn -0.0000 -0.0004 -1.0000
vn 0.1695 -0.0004 -0.9855
vn 0.3450 -0.0004 -0.9386
vn 0.5283 -0.0004 -0.8491
vn 0.8491 -0.0004 -0.5283
vn 0.9386 -0.0004 -0.3450
vn 0.9855 -0.0004 -0.1695
vn 1.0000 -0.0004 -0.0000
vn 0.9855 -0.0004 0.1695
vn 0.9386 -0.0004 0.3450
vn 0.8491 -0.0004 0.5283
vn -0.8491 -0.0004 0.5283
vn -0.9386 -0.0004 0.3450
vn -0.9855 -0.0004 0.1695
vn -1.0000 -0.0004 -0.0000
vn -0.9855 -0.0004 -0.1695
vn -0.9386 -0.0004 -0.3450
vn -0.8491 -0.0004 -0.5283
vn 0.5283 -0.0004 0.8491
vn 0.3450 -0.0004 0.9386
vn 0.1695 -0.0004 0.9855
vn -0.0000 -0.0004 1.0000
vn -0.1695 -0.0004 0.9855
vn -0.3450 -0.0004 0.9386
vn -0.5283 -0.0004 0.8491
vn 0.4449 0.7773 -0.4449
vn 0.3027 0.8323 -0.4645
vn 0.1560 0.8654 -0.4762
vn -0.0000 0.8771 -0.4804
vn -0.1560 0.8654 -0.4762
vn -0.3027 0.8323 -0.4645
vn -0.4449 0.7773 -0.4449
vn 0.4645 0.8323 -0.3027
vn 0.3058 0.9017 -0.3058
vn 0.1534 0.9389 -0.3081
vn -0.0000 0.9511 -0.3090
vn -0.1534 0.9389 -0.3081
vn -0.3058 0.9017 -0.3058
vn -0.4645 0.8323 -0.3027
vn 0.4762 0.8654 -0.1560
vn 0.3081 0.9389 -0.1534
vn 0.1516 0.9768 -0.1516
vn -0.0000 0.9886 -0.1509
vn -0.1516 0.9768 -0.1516
vn -0.3081 0.9389 -0.1534
vn -0.4762 0.8654 -0.1560
vn 0.4804 0.8771 -0.0000
vn 0.3090 0.9511 -0.0000
vn 0.1509 0.9886 -0.0000
vn -0.0000 1.0000 -0.0000
vn -0.1509 0.9886 -0.0000
vn -0.3090 0.9511 -0.0000
vn -0.4804 0.8771 -0.0000
vn 0.4762 0.8654 0.1560
vn 0.3081 0.9389 0.1534
vn 0.1516 0.9768 0.1516
vn -0.0000 0.9886 0.1509
vn -0.1516 0.9768 0.1516
vn -0.3081 0.9389 0.1534
vn -0.4762 0.8654 0.1560
vn 0.4645 0.8323 0.3027
vn 0.3058 0.9017 0.3058
vn 0.1534 0.9389 0.3081
vn -0.0000 0.9511 0.3090
vn -0.1534 0.9389 0.3081
vn -0.3058 0.9017 0.3058
vn -0.4645 0.8323 0.3027
vn 0.4449 0.7773 0.4449
vn 0.3027 0.8323 0.4645
vn 0.1560 0.8654 0.4762
vn -0.0000 0.8771 0.4804
vn -0.1560 0.8654 0.4762
vn -0.3027 0.8323 0.4645
vn -0.4449 0.7773 0.4449
vn 0.5282 0.0168 0.8489
vn 0.5278 0.0519 0.8478
vn 0.5262 0.1098 0.8433
vn 0.5215 0.1930 0.8312
vn 0.5111 0.2959 0.8070
vn 0.4923 0.4127 0.7664
vn 0.4619 0.5418 0.7022
vn 0.3451 0.0165 0.9384
vn 0.3450 0.0509 0.9372
vn 0.3446 0.1073 0.9326
vn 0.3435 0.1887 0.9200
vn 0.3398 0.2937 0.8935
vn 0.3313 0.4204 0.8447
vn 0.3175 0.5675 0.7597
vn 0.1696 0.0163 0.9854
vn 0.1696 0.0500 0.9842
vn 0.1698 0.1050 0.9799
vn 0.1701 0.1846 0.9680
vn 0.1700 0.2913 0.9414
vn 0.1684 0.4256 0.8891
vn 0.1647 0.5837 0.7951
vn -0.0000 0.0162 0.9999
vn -0.0000 0.0496 0.9988
vn -0.0000 0.1041 0.9946
vn -0.0000 0.1831 0.9831
vn -0.0000 0.2903 0.9569
vn -0.0000 0.4275 0.9040
vn -0.0000 0.5896 0.8077
vn -0.1696 0.0163 0.9854
vn -0.1696 0.0500 0.9842
vn -0.1698 0.1050 0.9799
vn -0.1701 0.1846 0.9680
vn -0.1700 0.2913 0.9414
vn -0.1684 0.4256 0.8891
vn -0.1647 0.5837 0.7951
vn -0.3451 0.0165 0.9384
vn -0.3450 0.0509 0.9372
vn -0.3446 0.1073 0.9326
vn -0.3435 0.1887 0.9200
vn -0.3398 0.2937 0.8935
vn -0.3313 0.4204 0.8447
vn -0.3175 0.5675 0.7597
vn -0.5282 0.0168 0.8489
vn -0.5278 0.0519 0.8478
vn -0.5262 0.1098 0.8433
vn -0.5215 0.1930 0.8312
vn -0.5111 0.2959 0.8070
vn -0.4923 0.4127 0.7664
vn -0.4619 0.5418 0.7022
vn -0.8489 0.0168 0.5282
vn -0.8478 0.0519 0.5278
vn -0.8433 0.1098 0.5262
vn -0.8312 0.1930 0.5215
vn -0.8070 0.2959 0.5111
vn -0.7664 0.4127 0.4923
vn -0.7022 0.5418 0.4619
vn -0.9384 0.0165 0.3451
vn -0.9372 0.0509 0.3450
vn -0.9326 0.1073 0.3446
vn -0.9200 0.1887 0.3435
vn -0.8935 0.2937 0.3398
vn -0.8447 0.4204 0.3313
vn -0.7597 0.5675 0.3175
vn -0.9854 0.0163 0.1696
vn -0.9842 0.0500 0.1696
vn -0.9799 0.1050 0.1698
vn -0.9680 0.1846 0.1701
vn -0.9414 0.2913 0.1700
vn -0.8891 0.4256 0.1684
vn -0.7951 0.5837 0.1647
vn -0.9999 0.0162 -0.0000
vn -0.9988 0.0496 -0.0000
vn -0.9946 0.1041 -0.0000
vn -0.9831 0.1831 -0.0000
vn -0.9569 0.2903 -0.0000
vn -0.9040 0.4275 -0.0000
vn -0.8077 0.5896 -0.0000
vn -0.9854 0.0163 -0.1696
vn -0.9842 0.0500 -0.1696
vn -0.9799 0.1050 -0.1698
vn -0.9680 0.1846 -0.1701
vn -0.9414 0.2913 -0.1700
vn -0.8891 0.4256 -0.1684
vn -0.7951 0.5837 -0.1647
vn -0.9384 0.0165 -0.3451
vn -0.9372 0.0509 -0.3450
vn -0.9326 0.1073 -0.3446
vn -0.9200 0.1887 -0.3435
vn -0.8935 0.2937 -0.3398
vn -0.8447 0.4204 -0.3313
vn -0.7597 0.5675 -0.3175
vn -0.8489 0.0168 -0.5282
vn -0.8478 0.0519 -0.5278
vn -0.8433 0.1098 -0.5262
vn -0.8312 0.1930 -0.5215
vn -0.8070 0.2959 -0.5111
vn -0.7664 0.4127 -0.4923
vn -0.7022 0.5418 -0.4619
vn -0.0848 -0.9928 -0.0848
vn -0.0542 -0.9951 -0.0832
vn -0.0269 -0.9963 -0.0822
vn -0.0000 -0.9966 -0.0818
vn 0.0269 -0.9963 -0.0822
vn 0.0542 -0.9951 -0.0832
vn 0.0848 -0.9928 -0.0848
vn -0.0832 -0.9951 -0.0542
vn -0.0505 -0.9974 -0.0505
vn -0.0243 -0.9985 -0.0488
vn -0.0000 -0.9988 -0.0483
vn 0.0243 -0.9985 -0.0488
vn 0.0505 -0.9974 -0.0505
vn 0.0832 -0.9951 -0.0542
vn -0.0822 -0.9963 -0.0269
vn -0.0488 -0.9985 -0.0243
vn -0.0231 -0.9995 -0.0231
vn -0.0000 -0.9997 -0.0227
vn 0.0231 -0.9995 -0.0231
vn 0.0488 -0.9985 -0.0243
vn 0.0822 -0.9963 -0.0269
vn -0.0818 -0.9966 -0.0000
vn -0.0483 -0.9988 -0.0000
vn -0.0227 -0.9997 -0.0000
vn -0.0000 -1.0000 -0.0000
vn 0.0227 -0.9997 -0.0000
vn 0.0483 -0.9988 -0.0000
vn 0.0818 -0.9966 -0.0000
vn -0.0822 -0.9963 0.0269
vn -0.0488 -0.9985 0.0243
vn -0.0231 -0.9995 0.0231
vn -0.0000 -0.9997 0.0227
vn 0.0231 -0.9995 0.0231
vn 0.0488 -0.9985 0.0243
vn 0.0822 -0.9963 0.0269
vn -0.0832 -0.9951 0.0542
vn -0.0505 -0.9974 0.0505
vn -0.0243 -0.9985 0.0488
vn -0.0000 -0.9988 0.0483
vn 0.0243 -0.9985 0.0488
vn 0.0505 -0.9974 0.0505
vn 0.0832 -0.9951 0.0542
vn -0.0848 -0.9928 0.0848
vn -0.0542 -0.9951 0.0832
vn -0.0269 -0.9963 0.0822
vn -0.0000 -0.9966 0.0818
vn 0.0269 -0.9963 0.0822
vn 0.0542 -0.9951 0.0832
vn 0.0848 -0.9928 0.0848
vn 0.8489 0.0168 -0.5282
vn 0.8478 0.0519 -0.5278
vn 0.8433 0.1098 -0.5262
vn 0.8312 0.1930 -0.5215
vn 0.8070 0.2959 -0.5111
vn 0.7664 0.4127 -0.4923
vn 0.7022 0.5418 -0.4619
vn 0.9384 0.0165 -0.3451
vn 0.9372 0.0509 -0.3450
vn 0.9326 0.1073 -0.3446
vn 0.9200 0.1887 -0.3435
vn 0.8935 0.2937 -0.3398
vn 0.8447 0.4204 -0.3313
vn 0.7597 0.5675 -0.3175
vn 0.9854 0.0163 -0.1696
vn 0.9842 0.0500 -0.1696
vn 0.9799 0.1050 -0.1698
vn 0.9680 0.1846 -0.1701
vn 0.9414 0.2913 -0.1700
vn 0.8891 0.4256 -0.1684
vn 0.7951 0.5837 -0.1647
vn 0.9999 0.0162 -0.0000
vn 0.9988 0.0496 -0.0000
vn 0.9946 0.1041 -0.0000
vn 0.9831 0.1831 -0.0000
vn 0.9569 0.2903 -0.0000
vn 0.9040 0.4275 -0.0000
vn 0.8077 0.5896 -0.0000
vn 0.9854 0.0163 0.1696
vn 0.9842 0.0500 0.1696
vn 0.9799 0.1050 0.1698
vn 0.9680 0.1846 0.1701
vn 0.9414 0.2913 0.1700
vn 0.8891 0.4256 0.1684
vn 0.7951 0.5837 0.1647
vn 0.9384 0.0165 0.3451
vn 0.9372 0.0509 0.3450
vn 0.9326 0.1073 0.3446
vn 0.9200 0.1887 0.3435
vn 0.8935 0.2937 0.3398
vn 0.8447 0.4204 0.3313
vn 0.7597 0.5675 0.3175
vn 0.8489 0.0168 0.5282
vn 0.8478 0.0519 0.5278
vn 0.8433 0.1098 0.5262
vn 0.8312 0.1930 0.5215
vn 0.8070 0.2959 0.5111
vn 0.7664 0.4127 0.4923
vn 0.7022 0.5418 0.4619
vn -0.5282 0.0168 -0.8489
vn -0.5278 0.0519 -0.8478
vn -0.5262 0.1098 -0.8433
vn -0.5215 0.1930 -0.8312
vn -0.5111 0.2959 -0.8070
vn -0.4923 0.4127 -0.7664
vn -0.4619 0.5418 -0.7022
vn -0.3451 0.0165 -0.9384
vn -0.3450 0.0509 -0.9372
vn -0.3446 0.1073 -0.9326
vn -0.3435 0.1887 -0.9200
vn -0.3398 0.2937 -0.8935
vn -0.3313 0.4204 -0.8447
vn -0.3175 0.5675 -0.7597
vn -0.1696 0.0163 -0.9854
vn -0.1696 0.0500 -0.9842
vn -0.1698 0.1050 -0.9799
vn -0.1701 0.1846 -0.9680
vn -0.1700 0.2913 -0.9414
vn -0.1684 0.4256 -0.8891
vn -0.1647 0.5837 -0.7951
vn -0.0000 0.0162 -0.9999
vn -0.0000 0.0496 -0.9988
vn -0.0000 0.1041 -0.9946
vn -0.0000 0.1831 -0.9831
vn -0.0000 0.2903 -0.9569
vn -0.0000 0.4275 -0.9040
vn -0.0000 0.5896 -0.8077
vn 0.1696 0.0163 -0.9854
vn 0.1696 0.0500 -0.9842
vn 0.1698 0.1050 -0.9799
vn 0.1701 0.1846 -0.9680
vn 0.1700 0.2913 -0.9414
vn 0.1684 0.4256 -0.8891
vn 0.1647 0.5837 -0.7951
vn 0.3451 0.0165 -0.9384
vn 0.3450 0.0509 -0.9372
vn 0.3446 0.1073 -0.9326
vn 0.3435 0.1887 -0.9200
vn 0.3398 0.2937 -0.8935
vn 0.3313 0.4204 -0.8447
vn 0.3175 0.5675 -0.7597
vn 0.5282 0.0168 -0.8489
vn 0.5278 0.0519 -0.8478
vn 0.5262 0.1098 -0.8433
vn 0.5215 0.1930 -0.8312
vn 0.5111 0.2959 -0.8070
vn 0.4923 0.4127 -0.7664
vn 0.4619 0.5418 -0.7022
vn -0.1416 -0.9656 -0.2180
vn -0.2263 -0.9059 -0.3579
vn -0.3433 -0.7626 -0.5482
vn -0.4527 -0.5196 -0.7247
vn -0.5098 -0.2670 -0.8178
vn -0.5257 -0.1028 -0.8444
vn -0.5282 -0.0263 -0.8487
vn -0.0923 -0.9697 -0.2263
vn -0.1477 -0.9102 -0.3869
vn -0.2261 -0.7622 -0.6065
vn -0.2980 -0.5140 -0.8044
vn -0.3340 -0.2627 -0.9052
vn -0.3436 -0.1011 -0.9336
vn -0.3450 -0.0259 -0.9382
vn -0.0463 -0.9720 -0.2304
vn -0.0734 -0.9129 -0.4015
vn -0.1124 -0.7613 -0.6386
vn -0.1475 -0.5087 -0.8482
vn -0.1645 -0.2588 -0.9518
vn -0.1689 -0.0997 -0.9806
vn -0.1695 -0.0255 -0.9852
vn -0.0000 -0.9727 -0.2319
vn -0.0000 -0.9137 -0.4064
vn -0.0000 -0.7607 -0.6491
vn -0.0000 -0.5066 -0.8622
vn -0.0000 -0.2572 -0.9664
vn -0.0000 -0.0991 -0.9951
vn -0.0000 -0.0254 -0.9997
vn 0.0463 -0.9720 -0.2304
vn 0.0734 -0.9129 -0.4015
vn 0.1124 -0.7613 -0.6386
vn 0.1475 -0.5087 -0.8482
vn 0.1645 -0.2588 -0.9518
vn 0.1689 -0.0997 -0.9806
vn 0.1695 -0.0255 -0.9852
vn 0.0923 -0.9697 -0.2263
vn 0.1477 -0.9102 -0.3869
vn 0.2261 -0.7622 -0.6065
vn 0.2980 -0.5140 -0.8044
vn 0.3340 -0.2627 -0.9052
vn 0.3436 -0.1011 -0.9336
vn 0.3450 -0.0259 -0.9382
vn 0.1416 -0.9656 -0.2180
vn 0.2263 -0.9059 -0.3579
vn 0.3433 -0.7626 -0.5482
vn 0.4527 -0.5196 -0.7247
vn 0.5098 -0.2670 -0.8178
vn 0.5257 -0.1028 -0.8444
vn 0.5282 -0.0263 -0.8487
vn 0.2180 -0.9656 -0.1416
vn 0.3579 -0.9059 -0.2263
vn 0.5482 -0.7626 -0.3433
vn 0.7247 -0.5196 -0.4527
vn 0.8178 -0.2670 -0.5098
vn 0.8444 -0.1028 -0.5257
vn 0.8487 -0.0263 -0.5282
vn 0.2263 -0.9697 -0.0923
vn 0.3869 -0.9102 -0.1477
vn 0.6065 -0.7622 -0.2261
vn 0.8044 -0.5140 -0.2980
vn 0.9052 -0.2627 -0.3340
vn 0.9336 -0.1011 -0.3436
vn 0.9382 -0.0259 -0.3450
vn 0.2304 -0.9720 -0.0463
vn 0.4015 -0.9129 -0.0734
vn 0.6386 -0.7613 -0.1124
vn 0.8482 -0.5087 -0.1475
vn 0.9518 -0.2588 -0.1645
vn 0.9806 -0.0997 -0.1689
vn 0.9852 -0.0255 -0.1695
vn 0.2319 -0.9727 -0.0000
vn 0.4064 -0.9137 -0.0000
vn 0.6491 -0.7607 -0.0000
vn 0.8622 -0.5066 -0.0000
vn 0.9664 -0.2572 -0.0000
vn 0.9951 -0.0991 -0.0000
vn 0.9997 -0.0254 -0.0000
vn 0.2304 -0.9720 0.0463
vn 0.4015 -0.9129 0.0734
vn 0.6386 -0.7613 0.1124
vn 0.8482 -0.5087 0.1475
vn 0.9518 -0.2588 0.1645
vn 0.9806 -0.0997 0.1689
vn 0.9852 -0.0255 0.1695
vn 0.2263 -0.9697 0.0923
vn 0.3869 -0.9102 0.1477
vn 0.6065 -0.7622 0.2261
vn 0.8044 -0.5140 0.2980
vn 0.9052 -0.2627 0.3340
vn 0.9336 -0.1011 0.3436
vn 0.9382 -0.0259 0.3450
vn 0.2180 -0.9656 0.1416
vn 0.3579 -0.9059 0.2263
vn 0.5482 -0.7626 0.3433
vn 0.7247 -0.5196 0.4527
vn 0.8178 -0.2670 0.5098
vn 0.8444 -0.1028 0.5257
vn 0.8487 -0.0263 0.5282
vn -0.2180 -0.9656 0.1416
vn -0.3579 -0.9059 0.2263
vn -0.5482 -0.7626 0.3433
vn -0.7247 -0.5196 0.4527
vn -0.8178 -0.2670 0.5098
vn -0.8444 -0.1028 0.5257
vn -0.8487 -0.0263 0.5282
vn -0.2263 -0.9697 0.0923
vn -0.3869 -0.9102 0.1477
vn -0.6065 -0.7622 0.2261
vn -0.8044 -0.5140 0.2980
vn -0.9052 -0.2627 0.3340
vn -0.9336 -0.1011 0.3436
vn -0.9382 -0.0259 0.3450
vn -0.2304 -0.9720 0.0463
vn -0.4015 -0.9129 0.0734
vn -0.6386 -0.7613 0.1124
vn -0.8482 -0.5087 0.1475
vn -0.9518 -0.2588 0.1645
vn -0.9806 -0.0997 0.1689
vn -0.9852 -0.0255 0.1695
vn -0.2319 -0.9727 -0.0000
vn -0.4064 -0.9137 -0.0000
vn -0.6491 -0.7607 -0.0000
vn -0.8622 -0.5066 -0.0000
vn -0.9664 -0.2572 -0.0000
vn -0.9951 -0.0991 -0.0000
vn -0.9997 -0.0254 -0.0000
vn -0.2304 -0.9720 -0.0463
vn -0.4015 -0.9129 -0.0734
vn -0.6386 -0.7613 -0.1124
vn -0.8482 -0.5087 -0.1475
vn -0.9518 -0.2588 -0.1645
vn -0.9806 -0.0997 -0.1689
vn -0.9852 -0.0255 -0.1695
vn -0.2263 -0.9697 -0.0923
vn -0.3869 -0.9102 -0.1477
vn -0.6065 -0.7622 -0.2261
vn -0.8044 -0.5140 -0.2980
vn -0.9052 -0.2627 -0.3340
vn -0.9336 -0.1011 -0.3436
vn -0.9382 -0.0259 -0.3450
vn -0.2180 -0.9656 -0.1416
vn -0.3579 -0.9059 -0.2263
vn -0.5482 -0.7626 -0.3433
vn -0.7247 -0.5196 -0.4527
vn -0.8178 -0.2670 -0.5098
vn -0.8444 -0.1028 -0.5257
vn -0.8487 -0.0263 -0.5282
vn 0.1416 -0.9656 0.2180
vn 0.2263 -0.9059 0.3579
vn 0.3433 -0.7626 0.5482
vn 0.4527 -0.5196 0.7247
vn 0.5098 -0.2670 0.8178
vn 0.5257 -0.1028 0.8444
vn 0.5282 -0.0263 0.8487
vn 0.0923 -0.9697 0.2263
vn 0.1477 -0.9102 0.3869
vn 0.2261 -0.7622 0.6065
vn 0.2980 -0.5140 0.8044
vn 0.3340 -0.2627 0.9052
vn 0.3436 -0.1011 0.9336
vn 0.3450 -0.0259 0.9382
vn 0.0463 -0.9720 0.2304
vn 0.0734 -0.9129 0.4015
vn 0.1124 -0.7613 0.6386
vn 0.1475 -0.5087 0.8482
vn 0.1645 -0.2588 0.9518
vn 0.1689 -0.0997 0.9806
vn 0.1695 -0.0255 0.9852
vn -0.0000 -0.9727 0.2319
vn -0.0000 -0.9137 0.4064
vn -0.0000 -0.7607 0.6491
vn -0.0000 -0.5066 0.8622
vn -0.0000 -0.2572 0.9664
vn -0.0000 -0.0991 0.9951
vn -0.0000 -0.0254 0.9997
vn -0.0463 -0.9720 0.2304
vn -0.0734 -0.9129 0.4015
vn -0.1124 -0.7613 0.6386
vn -0.1475 -0.5087 0.8482
vn -0.1645 -0.2588 0.9518
vn -0.1689 -0.0997 0.9806
vn -0.1695 -0.0255 0.9852
vn -0.0923 -0.9697 0.2263
vn -0.1477 -0.9102 0.3869
vn -0.2261 -0.7622 0.6065
vn -0.2980 -0.5140 0.8044
vn -0.3340 -0.2627 0.9052
vn -0.3436 -0.1011 0.9336
vn -0.3450 -0.0259 0.9382
vn -0.1416 -0.9656 0.2180
vn -0.2263 -0.9059 0.3579
vn -0.3433 -0.7626 0.5482
vn -0.4527 -0.5196 0.7247
vn -0.5098 -0.2670 0.8178
vn -0.5257 -0.1028 0.8444
vn -0.5282 -0.0263 0.8487
vt 0.291667 0.361111
vt 0.250000 0.361111
vt 0.250000 0.333333
vt 0.291667 0.333333
vt 0.208333 0.361111
vt 0.208333 0.333333
vt 0.166667 0.361111
vt 0.166667 0.333333
vt 0.125000 0.361111
vt 0.125000 0.333333
vt 0.083333 0.361111
vt 0.083333 0.333333
vt 0.041667 0.361111
vt 0.041667 0.333333
vt 0.250000 0.305556
vt 0.291667 0.305556
vt 0.208333 0.305556
vt 0.166667 0.305556
vt 0.125000 0.305556
vt 0.083333 0.305556
vt 0.041667 0.305556
vt 0.250000 0.277778
vt 0.291667 0.277778
vt 0.208333 0.277778
vt 0.166667 0.277778
vt 0.125000 0.277778
vt 0.083333 0.277778
vt 0.041667 0.277778
vt 0.250000 0.250000
vt 0.291667 0.250000
vt 0.208333 0.250000
vt 0.166667 0.250000
vt 0.125000 0.250000
vt 0.083333 0.250000
vt 0.041667 0.250000
vt 0.250000 0.222222
vt 0.291667 0.222222
vt 0.208333 0.222222
vt 0.166667 0.222222
vt 0.125000 0.222222
vt 0.083333 0.222222
vt 0.041667 0.222222
vt 0.250000 0.194444
vt 0.291667 0.194444
vt 0.208333 0.194444
vt 0.166667 0.194444
vt 0.125000 0.194444
vt 0.083333 0.194444
vt 0.041667 0.194444
vt 0.333333 0.388889
vt 0.291667 0.388889
vt 0.333333 0.361111
vt 0.250000 0.388889
vt 0.208333 0.388889
vt 0.166667 0.388889
vt 0.125000 0.388889
vt 0.083333 0.388889
vt 0.041667 0.388889
vt 0.000000 0.388889
vt 0.000000 0.361111
vt 0.000000 0.333333
vt 0.000000 0.305556
vt 0.000000 0.277778
vt 0.000000 0.250000
vt 0.000000 0.222222
vt 0.000000 0.194444
vt 0.000000 0.166667
vt 0.041667 0.166667
vt 0.083333 0.166667
vt 0.125000 0.166667
vt 0.166667 0.166667
vt 0.208333 0.166667
vt 0.250000 0.166667
vt 0.291667 0.166667
vt 0.333333 0.194444
vt 0.333333 0.166667
vt 0.333333 0.222222
vt 0.333333 0.250000
vt 0.333333 0.277778
vt 0.333333 0.305556
vt 0.333333 0.333333
vt 0.041667 0.552212
vt 0.041667 0.530932
vt 0.083333 0.528209
vt 0.083333 0.547618
vt 0.041667 0.508268
vt 0.083333 0.506802
vt 0.041667 0.484906
vt 0.083333 0.484172
vt 0.041667 0.461179
vt 0.083333 0.460869
vt 0.041667 0.437214
vt 0.083333 0.437122
vt 0.041667 0.413091
vt 0.083333 0.413079
vt 0.125000 0.526464
vt 0.125000 0.544987
vt 0.125000 0.505788
vt 0.125000 0.483652
vt 0.125000 0.460649
vt 0.125000 0.437057
vt 0.125000 0.413071
vt 0.166667 0.525861
vt 0.166667 0.544160
vt 0.166667 0.505411
vt 0.166667 0.483454
vt 0.166667 0.460566
vt 0.166667 0.437032
vt 0.166667 0.413068
vt 0.208333 0.526464
vt 0.208333 0.544987
vt 0.208333 0.505788
vt 0.208333 0.483652
vt 0.208333 0.460649
vt 0.208333 0.437057
vt 0.208333 0.413071
vt 0.250000 0.528209
vt 0.250000 0.547618
vt 0.250000 0.506802
vt 0.250000 0.484172
vt 0.250000 0.460868
vt 0.250000 0.437122
vt 0.250000 0.413079
vt 0.291667 0.530932
vt 0.291667 0.552212
vt 0.291667 0.508268
vt 0.291667 0.484906
vt 0.291667 0.461179
vt 0.291667 0.437214
vt 0.291667 0.413091
vt 0.000000 0.582609
vt 0.000000 0.558394
vt 0.041667 0.569630
vt 0.000000 0.534179
vt 0.000000 0.509964
vt 0.000000 0.485749
vt 0.000000 0.461534
vt 0.000000 0.437319
vt 0.000000 0.413104
vt 0.208333 0.388889
vt 0.291667 0.388889
vt 0.333333 0.413104
vt 0.333333 0.437319
vt 0.333333 0.461534
vt 0.333333 0.485749
vt 0.333333 0.509964
vt 0.333333 0.534179
vt 0.333333 0.558394
vt 0.291667 0.569630
vt 0.333333 0.582609
vt 0.250000 0.563678
vt 0.208333 0.560594
vt 0.166667 0.559662
vt 0.125000 0.560594
vt 0.083333 0.563678
vt 0.375000 0.329990
vt 0.375000 0.308710
vt 0.416667 0.305987
vt 0.416667 0.325395
vt 0.375000 0.286046
vt 0.416667 0.284580
vt 0.375000 0.262684
vt 0.416667 0.261949
vt 0.375000 0.238956
vt 0.416667 0.238646
vt 0.375000 0.214991
vt 0.416667 0.214900
vt 0.375000 0.190869
vt 0.416667 0.190857
vt 0.458333 0.304241
vt 0.458333 0.322765
vt 0.458333 0.283566
vt 0.458333 0.261429
vt 0.458333 0.238427
vt 0.458333 0.214835
vt 0.458333 0.190849
vt 0.500000 0.303639
vt 0.500000 0.321938
vt 0.500000 0.283188
vt 0.500000 0.261232
vt 0.500000 0.238344
vt 0.500000 0.214810
vt 0.500000 0.190846
vt 0.541667 0.304241
vt 0.541667 0.322765
vt 0.541667 0.283566
vt 0.541667 0.261429
vt 0.541667 0.238427
vt 0.541667 0.214835
vt 0.541667 0.190849
vt 0.583333 0.305987
vt 0.583333 0.325395
vt 0.583333 0.284580
vt 0.583333 0.261949
vt 0.583333 0.238646
vt 0.583333 0.214900
vt 0.583333 0.190857
vt 0.625000 0.308710
vt 0.625000 0.329990
vt 0.625000 0.286046
vt 0.625000 0.262684
vt 0.625000 0.238956
vt 0.625000 0.214991
vt 0.625000 0.190869
vt 0.333333 0.360387
vt 0.333333 0.336172
vt 0.375000 0.347408
vt 0.333333 0.311957
vt 0.333333 0.287742
vt 0.333333 0.263527
vt 0.333333 0.239312
vt 0.333333 0.215097
vt 0.333333 0.190882
vt 0.375000 0.166667
vt 0.416667 0.166667
vt 0.458333 0.166667
vt 0.500000 0.166667
vt 0.541667 0.166667
vt 0.583333 0.166667
vt 0.625000 0.166667
vt 0.666667 0.166667
vt 0.666667 0.190882
vt 0.666667 0.215097
vt 0.666667 0.239312
vt 0.666667 0.263527
vt 0.666667 0.287742
vt 0.666667 0.311957
vt 0.666667 0.336172
vt 0.625000 0.347408
vt 0.666667 0.360387
vt 0.583333 0.341456
vt 0.541667 0.338372
vt 0.500000 0.337440
vt 0.458333 0.338372
vt 0.416667 0.341456
vt 0.625000 0.583333
vt 0.583333 0.583333
vt 0.583333 0.555556
vt 0.625000 0.555556
vt 0.541667 0.583333
vt 0.541667 0.555556
vt 0.500000 0.583333
vt 0.500000 0.555556
vt 0.458333 0.583333
vt 0.458333 0.555556
vt 0.416667 0.583333
vt 0.416667 0.555556
vt 0.375000 0.583333
vt 0.375000 0.555556
vt 0.583333 0.527778
vt 0.625000 0.527778
vt 0.541667 0.527778
vt 0.500000 0.527778
vt 0.458333 0.527778
vt 0.416667 0.527778
vt 0.375000 0.527778
vt 0.583333 0.500000
vt 0.625000 0.500000
vt 0.541667 0.500000
vt 0.500000 0.500000
vt 0.458333 0.500000
vt 0.416667 0.500000
vt 0.375000 0.500000
vt 0.583333 0.472222
vt 0.625000 0.472222
vt 0.541667 0.472222
vt 0.500000 0.472222
vt 0.458333 0.472222
vt 0.416667 0.472222
vt 0.375000 0.472222
vt 0.583333 0.444445
vt 0.625000 0.444444
vt 0.541667 0.444444
vt 0.500000 0.444445
vt 0.458333 0.444444
vt 0.416667 0.444445
vt 0.375000 0.444445
vt 0.583333 0.416667
vt 0.625000 0.416667
vt 0.541667 0.416667
vt 0.500000 0.416667
vt 0.458333 0.416667
vt 0.416667 0.416667
vt 0.375000 0.416667
vt 0.666667 0.611111
vt 0.625000 0.611111
vt 0.666667 0.583333
vt 0.583333 0.611111
vt 0.541667 0.611111
vt 0.500000 0.611111
vt 0.458333 0.611111
vt 0.416667 0.611111
vt 0.375000 0.611111
vt 0.333333 0.611111
vt 0.333333 0.583333
vt 0.333333 0.555556
vt 0.333333 0.527778
vt 0.333333 0.500000
vt 0.333333 0.472222
vt 0.333333 0.444445
vt 0.333333 0.416667
vt 0.375000 0.388889
vt 0.416667 0.388889
vt 0.458333 0.388889
vt 0.500000 0.388889
vt 0.541667 0.388889
vt 0.583333 0.388889
vt 0.625000 0.388889
vt 0.666667 0.416667
vt 0.666667 0.388889
vt 0.666667 0.444445
vt 0.666667 0.472222
vt 0.666667 0.500000
vt 0.666667 0.527778
vt 0.666667 0.555556
vt 0.041667 0.774435
vt 0.041667 0.753154
vt 0.083333 0.750431
vt 0.083333 0.769840
vt 0.041667 0.730490
vt 0.083333 0.729024
vt 0.041667 0.707129
vt 0.083333 0.706394
vt 0.041667 0.683401
vt 0.083333 0.683091
vt 0.041667 0.659436
vt 0.083333 0.659344
vt 0.041667 0.635313
vt 0.083333 0.635302
vt 0.125000 0.748686
vt 0.125000 0.767209
vt 0.125000 0.728010
vt 0.125000 0.705874
vt 0.125000 0.682871
vt 0.125000 0.659279
vt 0.125000 0.635293
vt 0.166667 0.748083
vt 0.166667 0.766382
vt 0.166667 0.727633
vt 0.166667 0.705677
vt 0.166667 0.682788
vt 0.166667 0.659254
vt 0.166667 0.635290
vt 0.208333 0.748686
vt 0.208333 0.767209
vt 0.208333 0.728010
vt 0.208333 0.705874
vt 0.208333 0.682871
vt 0.208333 0.659279
vt 0.208333 0.635293
vt 0.250000 0.750432
vt 0.250000 0.769840
vt 0.250000 0.729024
vt 0.250000 0.706394
vt 0.250000 0.683091
vt 0.250000 0.659344
vt 0.250000 0.635302
vt 0.291667 0.753154
vt 0.291667 0.774435
vt 0.291667 0.730490
vt 0.291667 0.707129
vt 0.291667 0.683401
vt 0.291667 0.659436
vt 0.291667 0.635313
vt 0.000000 0.804831
vt 0.000000 0.780616
vt 0.041667 0.791852
vt 0.000000 0.756401
vt 0.000000 0.732186
vt 0.000000 0.707971
vt 0.000000 0.683756
vt 0.000000 0.659541
vt 0.000000 0.635326
vt 0.000000 0.611111
vt 0.041667 0.611111
vt 0.083333 0.611111
vt 0.125000 0.611111
vt 0.166667 0.611111
vt 0.208333 0.611111
vt 0.250000 0.611111
vt 0.291667 0.611111
vt 0.333333 0.635326
vt 0.333333 0.659541
vt 0.333333 0.683756
vt 0.333333 0.707971
vt 0.333333 0.732186
vt 0.333333 0.756401
vt 0.333333 0.780616
vt 0.291667 0.791852
vt 0.333333 0.804831
vt 0.250000 0.785900
vt 0.208333 0.782817
vt 0.166667 0.781884
vt 0.125000 0.782817
vt 0.083333 0.785900
vt 0.375000 0.774435
vt 0.375000 0.753154
vt 0.416667 0.750431
vt 0.416667 0.769840
vt 0.375000 0.730490
vt 0.416667 0.729024
vt 0.375000 0.707129
vt 0.416667 0.706394
vt 0.375000 0.683401
vt 0.416667 0.683091
vt 0.375000 0.659436
vt 0.416667 0.659344
vt 0.375000 0.635313
vt 0.416667 0.635302
vt 0.458333 0.748686
vt 0.458333 0.767209
vt 0.458333 0.728010
vt 0.458333 0.705874
vt 0.458333 0.682871
vt 0.458333 0.659279
vt 0.458333 0.635293
vt 0.500000 0.748083
vt 0.500000 0.766382
vt 0.500000 0.727633
vt 0.500000 0.705677
vt 0.500000 0.682788
vt 0.500000 0.659254
vt 0.500000 0.635290
vt 0.541667 0.748686
vt 0.541667 0.767209
vt 0.541667 0.728010
vt 0.541667 0.705874
vt 0.541667 0.682871
vt 0.541667 0.659279
vt 0.541667 0.635293
vt 0.583333 0.750432
vt 0.583333 0.769840
vt 0.583333 0.729024
vt 0.583333 0.706394
vt 0.583333 0.683091
vt 0.583333 0.659344
vt 0.583333 0.635302
vt 0.625000 0.753154
vt 0.625000 0.774435
vt 0.625000 0.730490
vt 0.625000 0.707129
vt 0.625000 0.683401
vt 0.625000 0.659436
vt 0.625000 0.635313
vt 0.375000 0.791852
vt 0.416667 0.611111
vt 0.541667 0.611111
vt 0.666667 0.635326
vt 0.666667 0.659541
vt 0.666667 0.683756
vt 0.666667 0.707971
vt 0.666667 0.732186
vt 0.666667 0.756401
vt 0.666667 0.780616
vt 0.625000 0.791852
vt 0.666667 0.804831
vt 0.583333 0.785900
vt 0.541667 0.782817
vt 0.500000 0.781884
vt 0.458333 0.782817
vt 0.416667 0.785900
vt 0.375000 0.829758
vt 0.375000 0.826103
vt 0.416667 0.826011
vt 0.416667 0.829746
vt 0.375000 0.822290
vt 0.416667 0.821980
vt 0.375000 0.818240
vt 0.416667 0.817505
vt 0.375000 0.813824
vt 0.416667 0.812358
vt 0.375000 0.808710
vt 0.416667 0.805987
vt 0.375000 0.802212
vt 0.416667 0.797618
vt 0.458333 0.825946
vt 0.458333 0.829738
vt 0.458333 0.821760
vt 0.458333 0.816985
vt 0.458333 0.811343
vt 0.458333 0.804242
vt 0.458333 0.794987
vt 0.500000 0.825921
vt 0.500000 0.829735
vt 0.500000 0.821677
vt 0.500000 0.816788
vt 0.500000 0.810966
vt 0.500000 0.803639
vt 0.500000 0.794160
vt 0.541667 0.825946
vt 0.541667 0.829738
vt 0.541667 0.821760
vt 0.541667 0.816985
vt 0.541667 0.811343
vt 0.541667 0.804242
vt 0.541667 0.794987
vt 0.583333 0.826011
vt 0.583333 0.829746
vt 0.583333 0.821980
vt 0.583333 0.817505
vt 0.583333 0.812358
vt 0.583333 0.805987
vt 0.583333 0.797618
vt 0.625000 0.826103
vt 0.625000 0.829758
vt 0.625000 0.822290
vt 0.625000 0.818240
vt 0.625000 0.813824
vt 0.625000 0.808710
vt 0.625000 0.802212
vt 0.333333 0.833333
vt 0.333333 0.829771
vt 0.375000 0.833333
vt 0.333333 0.826208
vt 0.333333 0.822645
vt 0.333333 0.819082
vt 0.333333 0.815520
vt 0.333333 0.811957
vt 0.333333 0.808394
vt 0.666667 0.808394
vt 0.666667 0.811957
vt 0.666667 0.815520
vt 0.666667 0.819082
vt 0.666667 0.822645
vt 0.666667 0.826208
vt 0.666667 0.829771
vt 0.625000 0.833333
vt 0.666667 0.833333
vt 0.583333 0.833333
vt 0.541667 0.833333
vt 0.500000 0.833333
vt 0.458333 0.833333
vt 0.416667 0.833333
vt 0.041667 0.829758
vt 0.041667 0.826103
vt 0.083333 0.826011
vt 0.083333 0.829746
vt 0.041667 0.822290
vt 0.083333 0.821980
vt 0.041667 0.818240
vt 0.083333 0.817505
vt 0.041667 0.813824
vt 0.083333 0.812358
vt 0.041667 0.808710
vt 0.083333 0.805987
vt 0.041667 0.802212
vt 0.083333 0.797618
vt 0.125000 0.825946
vt 0.125000 0.829738
vt 0.125000 0.821760
vt 0.125000 0.816985
vt 0.125000 0.811343
vt 0.125000 0.804242
vt 0.125000 0.794987
vt 0.166667 0.825921
vt 0.166667 0.829735
vt 0.166667 0.821677
vt 0.166667 0.816788
vt 0.166667 0.810966
vt 0.166667 0.803639
vt 0.166667 0.794160
vt 0.208333 0.825946
vt 0.208333 0.829738
vt 0.208333 0.821760
vt 0.208333 0.816985
vt 0.208333 0.811343
vt 0.208333 0.804242
vt 0.208333 0.794987
vt 0.250000 0.826011
vt 0.250000 0.829746
vt 0.250000 0.821980
vt 0.250000 0.817505
vt 0.250000 0.812358
vt 0.250000 0.805987
vt 0.250000 0.797618
vt 0.291667 0.826103
vt 0.291667 0.829758
vt 0.291667 0.822290
vt 0.291667 0.818240
vt 0.291667 0.813824
vt 0.291667 0.808710
vt 0.291667 0.802212
vt 0.000000 0.833333
vt 0.000000 0.829771
vt 0.041667 0.833333
vt 0.000000 0.826208
vt 0.000000 0.822645
vt 0.000000 0.819082
vt 0.000000 0.815520
vt 0.000000 0.811957
vt 0.000000 0.808394
vt 0.291667 0.833333
vt 0.250000 0.833333
vt 0.208333 0.833333
vt 0.166667 0.833333
vt 0.125000 0.833333
vt 0.083333 0.833333
vt 0.375000 0.385313
vt 0.375000 0.381658
vt 0.416667 0.381566
vt 0.416667 0.385302
vt 0.375000 0.377845
vt 0.416667 0.377535
vt 0.375000 0.373795
vt 0.416667 0.373060
vt 0.375000 0.369379
vt 0.416667 0.367913
vt 0.375000 0.364265
vt 0.416667 0.361543
vt 0.375000 0.357768
vt 0.416667 0.353173
vt 0.458333 0.381501
vt 0.458333 0.385293
vt 0.458333 0.377316
vt 0.458333 0.372540
vt 0.458333 0.366899
vt 0.458333 0.359797
vt 0.458333 0.350543
vt 0.500000 0.381477
vt 0.500000 0.385290
vt 0.500000 0.377233
vt 0.500000 0.372343
vt 0.500000 0.366522
vt 0.500000 0.359194
vt 0.500000 0.349715
vt 0.541667 0.381501
vt 0.541667 0.385293
vt 0.541667 0.377316
vt 0.541667 0.372541
vt 0.541667 0.366899
vt 0.541667 0.359797
vt 0.541667 0.350543
vt 0.583333 0.381566
vt 0.583333 0.385302
vt 0.583333 0.377535
vt 0.583333 0.373060
vt 0.583333 0.367913
vt 0.583333 0.361543
vt 0.583333 0.353173
vt 0.625000 0.381658
vt 0.625000 0.385313
vt 0.625000 0.377845
vt 0.625000 0.373795
vt 0.625000 0.369379
vt 0.625000 0.364265
vt 0.625000 0.357768
vt 0.333333 0.385326
vt 0.333333 0.381763
vt 0.333333 0.378201
vt 0.333333 0.374638
vt 0.333333 0.371075
vt 0.333333 0.367513
vt 0.333333 0.363950
vt 0.666667 0.363950
vt 0.666667 0.367513
vt 0.666667 0.371075
vt 0.666667 0.374638
vt 0.666667 0.378201
vt 0.666667 0.381763
vt 0.666667 0.385326
vt 0.541667 0.388889
vt 0.416667 0.388889
vt 0.041667 0.607535
vt 0.041667 0.603880
vt 0.083333 0.603788
vt 0.083333 0.607524
vt 0.041667 0.600067
vt 0.083333 0.599757
vt 0.041667 0.596018
vt 0.083333 0.595283
vt 0.041667 0.591601
vt 0.083333 0.590136
vt 0.041667 0.586488
vt 0.083333 0.583765
vt 0.041667 0.579990
vt 0.083333 0.575395
vt 0.125000 0.603724
vt 0.125000 0.607516
vt 0.125000 0.599538
vt 0.125000 0.594763
vt 0.125000 0.589121
vt 0.125000 0.582019
vt 0.125000 0.572765
vt 0.166667 0.603699
vt 0.166667 0.607513
vt 0.166667 0.599455
vt 0.166667 0.594566
vt 0.166667 0.588744
vt 0.166667 0.581416
vt 0.166667 0.571938
vt 0.208333 0.603724
vt 0.208333 0.607516
vt 0.208333 0.599538
vt 0.208333 0.594763
vt 0.208333 0.589121
vt 0.208333 0.582019
vt 0.208333 0.572765
vt 0.250000 0.603788
vt 0.250000 0.607524
vt 0.250000 0.599757
vt 0.250000 0.595283
vt 0.250000 0.590135
vt 0.250000 0.583765
vt 0.250000 0.575395
vt 0.291667 0.603880
vt 0.291667 0.607535
vt 0.291667 0.600067
vt 0.291667 0.596018
vt 0.291667 0.591601
vt 0.291667 0.586488
vt 0.291667 0.579990
vt 0.000000 0.607548
vt 0.000000 0.603986
vt 0.000000 0.600423
vt 0.000000 0.596860
vt 0.000000 0.593298
vt 0.000000 0.589735
vt 0.000000 0.586172
vt 0.333333 0.586172
vt 0.333333 0.589735
vt 0.333333 0.593298
vt 0.333333 0.596860
vt 0.333333 0.600423
vt 0.333333 0.603986
vt 0.333333 0.607548
s 1
usemtl Material
f 153/1/153 154/2/154 161/3/161 160/4/160
f 154/2/154 155/5/155 162/6/162 161/3/161
f 155/5/155 156/7/156 163/8/163 162/6/162
f 156/7/156 157/9/157 164/10/164 163/8/163
f 157/9/157 158/11/158 165/12/165 164/10/164
f 158/11/158 159/13/159 166/14/166 165/12/165
f 160/4/160 161/3/161 168/15/168 167/16/167
f 161/3/161 162/6/162 169/17/169 168/15/168
f 162/6/162 163/8/163 170/18/170 169/17/169
f 163/8/163 164/10/164 171/19/171 170/18/170
f 164/10/164 165/12/165 172/20/172 171/19/171
f 165/12/165 166/14/166 173/21/173 172/20/172
f 167/16/167 168/15/168 175/22/175 174/23/174
f 168/15/168 169/17/169 176/24/176 175/22/175
f 169/17/169 170/18/170 177/25/177 176/24/176
f 170/18/170 171/19/171 178/26/178 177/25/177
f 171/19/171 172/20/172 179/27/179 178/26/178
f 172/20/172 173/21/173 180/28/180 179/27/179
f 174/23/174 175/22/175 182/29/182 181/30/181
f 175/22/175 176/24/176 183/31/183 182/29/182
f 176/24/176 177/25/177 184/32/184 183/31/183
f 177/25/177 178/26/178 185/33/185 184/32/184
f 178/26/178 179/27/179 186/34/186 185/33/185
f 179/27/179 180/28/180 187/35/187 186/34/186
f 181/30/181 182/29/182 189/36/189 188/37/188
f 182/29/182 183/31/183 190/38/190 189/36/189
f 183/31/183 184/32/184 191/39/191 190/38/190
f 184/32/184 185/33/185 192/40/192 191/39/191
f 185/33/185 186/34/186 193/41/193 192/40/192
f 186/34/186 187/35/187 194/42/194 193/41/193
f 188/37/188 189/36/189 196/43/196 195/44/195
f 189/36/189 190/38/190 197/45/197 196/43/196
f 190/38/190 191/39/191 198/46/198 197/45/197
f 191/39/191 192/40/192 199/47/199 198/46/198
f 192/40/192 193/41/193 200/48/200 199/47/199
f 193/41/193 194/42/194 201/49/201 200/48/200
f 1/50/1 89/51/89 153/1/153 62/52/62
f 89/51/89 88/53/88 154/2/154 153/1/153
f 88/53/88 87/54/87 155/5/155 154/2/154
f 87/54/87 86/55/86 156/7/156 155/5/155
f 86/55/86 85/56/85 157/9/157 156/7/156
f 85/56/85 84/57/84 158/11/158 157/9/157
f 84/57/84 83/58/83 159/13/159 158/11/158
f 83/58/83 5/59/5 82/60/82 159/13/159
f 159/13/159 82/60/82 81/61/81 166/14/166
f 166/14/166 81/61/81 80/62/80 173/21/173
f 173/21/173 80/62/80 79/63/79 180/28/180
f 180/28/180 79/63/79 78/64/78 187/35/187
f 187/35/187 78/64/78 77/65/77 194/42/194
f 194/42/194 77/65/77 76/66/76 201/49/201
f 201/49/201 76/66/76 7/67/7 61/68/61
f 200/48/200 201/49/201 61/68/61 60/69/60
f 199/47/199 200/48/200 60/69/60 59/70/59
f 198/46/198 199/47/199 59/70/59 58/71/58
f 197/45/197 198/46/198 58/71/58 57/72/57
f 196/43/196 197/45/197 57/72/57 56/73/56
f 195/44/195 196/43/196 56/73/56 55/74/55
f 68/75/68 195/44/195 55/74/55 3/76/3
f 67/77/67 188/37/188 195/44/195 68/75/68
f 66/78/66 181/30/181 188/37/188 67/77/67
f 65/79/65 174/23/174 181/30/181 66/78/66
f 64/80/64 167/16/167 174/23/174 65/79/65
f 63/81/63 160/4/160 167/16/167 64/80/64
f 62/52/62 153/1/153 160/4/160 63/81/63
f 202/82/202 203/83/203 210/84/210 209/85/209
f 203/83/203 204/86/204 211/87/211 210/84/210
f 204/86/204 205/88/205 212/89/212 211/87/211
f 205/88/205 206/90/206 213/91/213 212/89/212
f 206/90/206 207/92/207 214/93/214 213/91/213
f 207/92/207 208/94/208 215/95/215 214/93/214
f 209/85/209 210/84/210 217/96/217 216/97/216
f 210/84/210 211/87/211 218/98/218 217/96/217
f 211/87/211 212/89/212 219/99/219 218/98/218
f 212/89/212 213/91/213 220/100/220 219/99/219
f 213/91/213 214/93/214 221/101/221 220/100/220
f 214/93/214 215/95/215 222/102/222 221/101/221
f 216/97/216 217/96/217 224/103/224 223/104/223
f 217/96/217 218/98/218 225/105/225 224/103/224
f 218/98/218 219/99/219 226/106/226 225/105/225
f 219/99/219 220/100/220 227/107/227 226/106/226
f 220/100/220 221/101/221 228/108/228 227/107/227
f 221/101/221 222/102/222 229/109/229 228/108/228
f 223/104/223 224/103/224 231/110/231 230/111/230
f 224/103/224 225/105/225 232/112/232 231/110/231
f 225/105/225 226/106/226 233/113/233 232/112/232
f 226/106/226 227/107/227 234/114/234 233/113/233
f 227/107/227 228/108/228 235/115/235 234/114/234
f 228/108/228 229/109/229 236/116/236 235/115/235
f 230/111/230 231/110/231 238/117/238 237/118/237
f 231/110/231 232/112/232 239/119/239 238/117/238
f 232/112/232 233/113/233 240/120/240 239/119/239
f 233/113/233 234/114/234 241/121/241 240/120/240
f 234/114/234 235/115/235 242/122/242 241/121/241
f 235/115/235 236/116/236 243/123/243 242/122/242
f 237/118/237 238/117/238 245/124/245 244/125/244
f 238/117/238 239/119/239 246/126/246 245/124/245
f 239/119/239 240/120/240 247/127/247 246/126/246
f 240/120/240 241/121/241 248/128/248 247/127/247
f 241/121/241 242/122/242 249/129/249 248/128/248
f 242/122/242 243/123/243 250/130/250 249/129/249
f 11/131/11 117/132/117 202/82/202 146/133/146
f 117/132/117 116/134/116 203/83/203 202/82/202
f 116/134/116 115/135/115 204/86/204 203/83/203
f 115/135/115 114/136/114 205/88/205 204/86/204
f 114/136/114 113/137/113 206/90/206 205/88/205
f 113/137/113 112/138/112 207/92/207 206/90/206
f 112/138/112 111/139/111 208/94/208 207/92/207
f 111/139/111 3/59/3 55/58/55 208/94/208
f 208/94/208 55/58/55 56/57/56 215/95/215
f 215/95/215 56/57/56 57/56/57 222/102/222
f 222/102/222 57/56/57 58/55/58 229/109/229
f 229/109/229 58/55/58 59/140/59 236/116/236
f 236/116/236 59/140/59 60/53/60 243/123/243
f 243/123/243 60/53/60 61/141/61 250/130/250
f 250/130/250 61/141/61 7/50/7 40/142/40
f 249/129/249 250/130/250 40/142/40 39/143/39
f 248/128/248 249/129/249 39/143/39 38/144/38
f 247/127/247 248/128/248 38/144/38 37/145/37
f 246/126/246 247/127/247 37/145/37 36/146/36
f 245/124/245 246/126/246 36/146/36 35/147/35
f 244/125/244 245/124/245 35/147/35 34/148/34
f 152/149/152 244/125/244 34/148/34 10/150/10
f 151/151/151 237/118/237 244/125/244 152/149/152
f 150/152/150 230/111/230 237/118/237 151/151/151
f 149/153/149 223/104/223 230/111/230 150/152/150
f 148/154/148 216/97/216 223/104/223 149/153/149
f 147/155/147 209/85/209 216/97/216 148/154/148
f 146/133/146 202/82/202 209/85/209 147/155/147
f 251/156/251 252/157/252 259/158/259 258/159/258
f 252/157/252 253/160/253 260/161/260 259/158/259
f 253/160/253 254/162/254 261/163/261 260/161/260
f 254/162/254 255/164/255 262/165/262 261/163/261
f 255/164/255 256/166/256 263/167/263 262/165/262
f 256/166/256 257/168/257 264/169/264 263/167/263
f 258/159/258 259/158/259 266/170/266 265/171/265
f 259/158/259 260/161/260 267/172/267 266/170/266
f 260/161/260 261/163/261 268/173/268 267/172/267
f 261/163/261 262/165/262 269/174/269 268/173/268
f 262/165/262 263/167/263 270/175/270 269/174/269
f 263/167/263 264/169/264 271/176/271 270/175/270
f 265/171/265 266/170/266 273/177/273 272/178/272
f 266/170/266 267/172/267 274/179/274 273/177/273
f 267/172/267 268/173/268 275/180/275 274/179/274
f 268/173/268 269/174/269 276/181/276 275/180/275
f 269/174/269 270/175/270 277/182/277 276/181/276
f 270/175/270 271/176/271 278/183/278 277/182/277
f 272/178/272 273/177/273 280/184/280 279/185/279
f 273/177/273 274/179/274 281/186/281 280/184/280
f 274/179/274 275/180/275 282/187/282 281/186/281
f 275/180/275 276/181/276 283/188/283 282/187/282
f 276/181/276 277/182/277 284/189/284 283/188/283
f 277/182/277 278/183/278 285/190/285 284/189/284
f 279/185/279 280/184/280 287/191/287 286/192/286
f 280/184/280 281/186/281 288/193/288 287/191/287
f 281/186/281 282/187/282 289/194/289 288/193/288
f 282/187/282 283/188/283 290/195/290 289/194/289
f 283/188/283 284/189/284 291/196/291 290/195/290
f 284/189/284 285/190/285 292/197/292 291/196/291
f 286/192/286 287/191/287 294/198/294 293/199/293
f 287/191/287 288/193/288 295/200/295 294/198/294
f 288/193/288 289/194/289 296/201/296 295/200/295
f 289/194/289 290/195/290 297/202/297 296/201/296
f 290/195/290 291/196/291 298/203/298 297/202/297
f 291/196/291 292/197/292 299/204/299 298/203/298
f 10/205/10 34/206/34 251/156/251 139/207/139
f 34/206/34 35/208/35 252/157/252 251/156/251
f 35/208/35 36/209/36 253/160/253 252/157/252
f 36/209/36 37/210/37 254/162/254 253/160/253
f 37/210/37 38/211/38 255/164/255 254/162/254
f 38/211/38 39/212/39 256/166/256 255/164/255
f 39/212/39 40/213/40 257/168/257 256/166/256
f 40/213/40 7/76/7 76/214/76 257/168/257
f 257/168/257 76/214/76 77/215/77 264/169/264
f 264/169/264 77/215/77 78/216/78 271/176/271
f 271/176/271 78/216/78 79/217/79 278/183/278
f 278/183/278 79/217/79 80/218/80 285/190/285
f 285/190/285 80/218/80 81/219/81 292/197/292
f 292/197/292 81/219/81 82/220/82 299/204/299
f 299/204/299 82/220/82 5/221/5 118/222/118
f 298/203/298 299/204/299 118/222/118 119/223/119
f 297/202/297 298/203/298 119/223/119 120/224/120
f 296/201/296 297/202/297 120/224/120 121/225/121
f 295/200/295 296/201/296 121/225/121 122/226/122
f 294/198/294 295/200/295 122/226/122 123/227/123
f 293/199/293 294/198/294 123/227/123 124/228/124
f 145/229/145 293/199/293 124/228/124 12/230/12
f 144/231/144 286/192/286 293/199/293 145/229/145
f 143/232/143 279/185/279 286/192/286 144/231/144
f 142/233/142 272/178/272 279/185/279 143/232/143
f 141/234/141 265/171/265 272/178/272 142/233/142
f 140/235/140 258/159/258 265/171/265 141/234/141
f 139/207/139 251/156/251 258/159/258 140/235/140
f 300/236/300 301/237/301 308/238/308 307/239/307
f 301/237/301 302/240/302 309/241/309 308/238/308
f 302/240/302 303/242/303 310/243/310 309/241/309
f 303/242/303 304/244/304 311/245/311 310/243/310
f 304/244/304 305/246/305 312/247/312 311/245/311
f 305/246/305 306/248/306 313/249/313 312/247/312
f 307/239/307 308/238/308 315/250/315 314/251/314
f 308/238/308 309/241/309 316/252/316 315/250/315
f 309/241/309 310/243/310 317/253/317 316/252/316
f 310/243/310 311/245/311 318/254/318 317/253/317
f 311/245/311 312/247/312 319/255/319 318/254/318
f 312/247/312 313/249/313 320/256/320 319/255/319
f 314/251/314 315/250/315 322/257/322 321/258/321
f 315/250/315 316/252/316 323/259/323 322/257/322
f 316/252/316 317/253/317 324/260/324 323/259/323
f 317/253/317 318/254/318 325/261/325 324/260/324
f 318/254/318 319/255/319 326/262/326 325/261/325
f 319/255/319 320/256/320 327/263/327 326/262/326
f 321/258/321 322/257/322 329/264/329 328/265/328
f 322/257/322 323/259/323 330/266/330 329/264/329
f 323/259/323 324/260/324 331/267/331 330/266/330
f 324/260/324 325/261/325 332/268/332 331/267/331
f 325/261/325 326/262/326 333/269/333 332/268/332
f 326/262/326 327/263/327 334/270/334 333/269/333
f 328/265/328 329/264/329 336/271/336 335/272/335
f 329/264/329 330/266/330 337/273/337 336/271/336
f 330/266/330 331/267/331 338/274/338 337/273/337
f 331/267/331 332/268/332 339/275/339 338/274/338
f 332/268/332 333/269/333 340/276/340 339/275/339
f 333/269/333 334/270/334 341/277/341 340/276/340
f 335/272/335 336/271/336 343/278/343 342/279/342
f 336/271/336 337/273/337 344/280/344 343/278/343
f 337/273/337 338/274/338 345/281/345 344/280/344
f 338/274/338 339/275/339 346/282/346 345/281/345
f 339/275/339 340/276/340 347/283/347 346/282/346
f 340/276/340 341/277/341 348/284/348 347/283/347
f 6/285/6 26/286/26 300/236/300 13/287/13
f 26/286/26 25/288/25 301/237/301 300/236/300
f 25/288/25 24/289/24 302/240/302 301/237/301
f 24/289/24 23/290/23 303/242/303 302/240/302
f 23/290/23 22/291/22 304/244/304 303/242/303
f 22/291/22 21/292/21 305/246/305 304/244/304
f 21/292/21 20/293/20 306/248/306 305/246/305
f 20/293/20 2/294/2 96/295/96 306/248/306
f 306/248/306 96/295/96 95/296/95 313/249/313
f 313/249/313 95/296/95 94/297/94 320/256/320
f 320/256/320 94/297/94 93/298/93 327/263/327
f 327/263/327 93/298/93 92/299/92 334/270/334
f 334/270/334 92/299/92 91/300/91 341/277/341
f 341/277/341 91/300/91 90/301/90 348/284/348
f 348/284/348 90/301/90 4/50/4 75/302/75
f 347/283/347 348/284/348 75/302/75 74/303/74
f 346/282/346 347/283/347 74/303/74 73/304/73
f 345/281/345 346/282/346 73/304/73 72/305/72
f 344/280/344 345/281/345 72/305/72 71/306/71
f 343/278/343 344/280/344 71/306/71 70/307/70
f 342/279/342 343/278/343 70/307/70 69/308/69
f 19/309/19 342/279/342 69/308/69 8/310/8
f 18/311/18 335/272/335 342/279/342 19/309/19
f 17/312/17 328/265/328 335/272/335 18/311/18
f 16/313/16 321/258/321 328/265/328 17/312/17
f 15/314/15 314/251/314 321/258/321 16/313/16
f 14/315/14 307/239/307 314/251/314 15/314/15
f 13/287/13 300/236/300 307/239/307 14/315/14
f 349/316/349 350/317/350 357/318/357 356/319/356
f 350/317/350 351/320/351 358/321/358 357/318/357
f 351/320/351 352/322/352 359/323/359 358/321/358
f 352/322/352 353/324/353 360/325/360 359/323/359
f 353/324/353 354/326/354 361/327/361 360/325/360
f 354/326/354 355/328/355 362/329/362 361/327/361
f 356/319/356 357/318/357 364/330/364 363/331/363
f 357/318/357 358/321/358 365/332/365 364/330/364
f 358/321/358 359/323/359 366/333/366 365/332/365
f 359/323/359 360/325/360 367/334/367 366/333/366
f 360/325/360 361/327/361 368/335/368 367/334/367
f 361/327/361 362/329/362 369/336/369 368/335/368
f 363/331/363 364/330/364 371/337/371 370/338/370
f 364/330/364 365/332/365 372/339/372 371/337/371
f 365/332/365 366/333/366 373/340/373 372/339/372
f 366/333/366 367/334/367 374/341/374 373/340/373
f 367/334/367 368/335/368 375/342/375 374/341/374
f 368/335/368 369/336/369 376/343/376 375/342/375
f 370/338/370 371/337/371 378/344/378 377/345/377
f 371/337/371 372/339/372 379/346/379 378/344/378
f 372/339/372 373/340/373 380/347/380 379/346/379
f 373/340/373 374/341/374 381/348/381 380/347/380
f 374/341/374 375/342/375 382/349/382 381/348/381
f 375/342/375 376/343/376 383/350/383 382/349/382
f 377/345/377 378/344/378 385/351/385 384/352/384
f 378/344/378 379/346/379 386/353/386 385/351/385
f 379/346/379 380/347/380 387/354/387 386/353/386
f 380/347/380 381/348/381 388/355/388 387/354/387
f 381/348/381 382/349/382 389/356/389 388/355/388
f 382/349/382 383/350/383 390/357/390 389/356/389
f 384/352/384 385/351/385 392/358/392 391/359/391
f 385/351/385 386/353/386 393/360/393 392/358/392
f 386/353/386 387/354/387 394/361/394 393/360/393
f 387/354/387 388/355/388 395/362/395 394/361/394
f 388/355/388 389/356/389 396/363/396 395/362/395
f 389/356/389 390/357/390 397/364/397 396/363/396
f 9/365/9 103/366/103 349/316/349 132/367/132
f 103/366/103 102/368/102 350/317/350 349/316/349
f 102/368/102 101/369/101 351/320/351 350/317/350
f 101/369/101 100/370/100 352/322/352 351/320/351
f 100/370/100 99/371/99 353/324/353 352/322/352
f 99/371/99 98/372/98 354/326/354 353/324/353
f 98/372/98 97/373/97 355/328/355 354/326/354
f 97/373/97 1/374/1 62/375/62 355/328/355
f 355/328/355 62/375/62 63/376/63 362/329/362
f 362/329/362 63/376/63 64/377/64 369/336/369
f 369/336/369 64/377/64 65/378/65 376/343/376
f 376/343/376 65/378/65 66/379/66 383/350/383
f 383/350/383 66/379/66 67/380/67 390/357/390
f 390/357/390 67/380/67 68/381/68 397/364/397
f 397/364/397 68/381/68 3/294/3 111/382/111
f 396/363/396 397/364/397 111/382/111 112/383/112
f 395/362/395 396/363/396 112/383/112 113/384/113
f 394/361/394 395/362/395 113/384/113 114/385/114
f 393/360/393 394/361/394 114/385/114 115/386/115
f 392/358/392 393/360/393 115/386/115 116/387/116
f 391/359/391 392/358/392 116/387/116 117/388/117
f 138/389/138 391/359/391 117/388/117 11/390/11
f 137/391/137 384/352/384 391/359/391 138/389/138
f 136/392/136 377/345/377 384/352/384 137/391/137
f 135/393/135 370/338/370 377/345/377 136/392/136
f 134/394/134 363/331/363 370/338/370 135/393/135
f 133/395/133 356/319/356 363/331/363 134/394/134
f 132/367/132 349/316/349 356/319/356 133/395/133
f 398/396/398 399/397/399 406/398/406 405/399/405
f 399/397/399 400/400/400 407/401/407 406/398/406
f 400/400/400 401/402/401 408/403/408 407/401/407
f 401/402/401 402/404/402 409/405/409 408/403/408
f 402/404/402 403/406/403 410/407/410 409/405/409
f 403/406/403 404/408/404 411/409/411 410/407/410
f 405/399/405 406/398/406 413/410/413 412/411/412
f 406/398/406 407/401/407 414/412/414 413/410/413
f 407/401/407 408/403/408 415/413/415 414/412/414
f 408/403/408 409/405/409 416/414/416 415/413/415
f 409/405/409 410/407/410 417/415/417 416/414/416
f 410/407/410 411/409/411 418/416/418 417/415/417
f 412/411/412 413/410/413 420/417/420 419/418/419
f 413/410/413 414/412/414 421/419/421 420/417/420
f 414/412/414 415/413/415 422/420/422 421/419/421
f 415/413/415 416/414/416 423/421/423 422/420/422
f 416/414/416 417/415/417 424/422/424 423/421/423
f 417/415/417 418/416/418 425/423/425 424/422/424
f 419/418/419 420/417/420 427/424/427 426/425/426
f 420/417/420 421/419/421 428/426/428 427/424/427
f 421/419/421 422/420/422 429/427/429 428/426/428
f 422/420/422 423/421/423 430/428/430 429/427/429
f 423/421/423 424/422/424 431/429/431 430/428/430
f 424/422/424 425/423/425 432/430/432 431/429/431
f 426/425/426 427/424/427 434/431/434 433/432/433
f 427/424/427 428/426/428 435/433/435 434/431/434
f 428/426/428 429/427/429 436/434/436 435/433/435
f 429/427/429 430/428/430 437/435/437 436/434/436
f 430/428/430 431/429/431 438/436/438 437/435/437
f 431/429/431 432/430/432 439/437/439 438/436/438
f 433/432/433 434/431/434 441/438/441 440/439/440
f 434/431/434 435/433/435 442/440/442 441/438/441
f 435/433/435 436/434/436 443/441/443 442/440/442
f 436/434/436 437/435/437 444/442/444 443/441/443
f 437/435/437 438/436/438 445/443/445 444/442/444
f 438/436/438 439/437/439 446/444/446 445/443/445
f 12/390/12 124/388/124 398/396/398 125/445/125
f 124/388/124 123/387/123 399/397/399 398/396/398
f 123/387/123 122/386/122 400/400/400 399/397/399
f 122/386/122 121/385/121 401/402/401 400/400/400
f 121/385/121 120/384/120 402/404/402 401/402/401
f 120/384/120 119/383/119 403/406/403 402/404/402
f 119/383/119 118/382/118 404/408/404 403/406/403
f 118/382/118 5/294/5 83/293/83 404/408/404
f 404/408/404 83/293/83 84/446/84 411/409/411
f 411/409/411 84/446/84 85/291/85 418/416/418
f 418/416/418 85/291/85 86/290/86 425/423/425
f 425/423/425 86/290/86 87/447/87 432/430/432
f 432/430/432 87/447/87 88/288/88 439/437/439
f 439/437/439 88/288/88 89/286/89 446/444/446
f 446/444/446 89/286/89 1/285/1 97/448/97
f 445/443/445 446/444/446 97/448/97 98/449/98
f 444/442/444 445/443/445 98/449/98 99/450/99
f 443/441/443 444/442/444 99/450/99 100/451/100
f 442/440/442 443/441/443 100/451/100 101/452/101
f 441/438/441 442/440/442 101/452/101 102/453/102
f 440/439/440 441/438/441 102/453/102 103/454/103
f 131/455/131 440/439/440 103/454/103 9/456/9
f 130/457/130 433/432/433 440/439/440 131/455/131
f 129/458/129 426/425/426 433/432/433 130/457/130
f 128/459/128 419/418/419 426/425/426 129/458/129
f 127/460/127 412/411/412 419/418/419 128/459/128
f 126/461/126 405/399/405 412/411/412 127/460/127
f 125/445/125 398/396/398 405/399/405 126/461/126
f 447/462/447 448/463/448 455/464/455 454/465/454
f 448/463/448 449/466/449 456/467/456 455/464/455
f 449/466/449 450/468/450 457/469/457 456/467/456
f 450/468/450 451/470/451 458/471/458 457/469/457
f 451/470/451 452/472/452 459/473/459 458/471/458
f 452/472/452 453/474/453 460/475/460 459/473/459
f 454/465/454 455/464/455 462/476/462 461/477/461
f 455/464/455 456/467/456 463/478/463 462/476/462
f 456/467/456 457/469/457 464/479/464 463/478/463
f 457/469/457 458/471/458 465/480/465 464/479/464
f 458/471/458 459/473/459 466/481/466 465/480/465
f 459/473/459 460/475/460 467/482/467 466/481/466
f 461/477/461 462/476/462 469/483/469 468/484/468
f 462/476/462 463/478/463 470/485/470 469/483/469
f 463/478/463 464/479/464 471/486/471 470/485/470
f 464/479/464 465/480/465 472/487/472 471/486/471
f 465/480/465 466/481/466 473/488/473 472/487/472
f 466/481/466 467/482/467 474/489/474 473/488/473
f 468/484/468 469/483/469 476/490/476 475/491/475
f 469/483/469 470/485/470 477/492/477 476/490/476
f 470/485/470 471/486/471 478/493/478 477/492/477
f 471/486/471 472/487/472 479/494/479 478/493/478
f 472/487/472 473/488/473 480/495/480 479/494/479
f 473/488/473 474/489/474 481/496/481 480/495/480
f 475/491/475 476/490/476 483/497/483 482/498/482
f 476/490/476 477/492/477 484/499/484 483/497/483
f 477/492/477 478/493/478 485/500/485 484/499/484
f 478/493/478 479/494/479 486/501/486 485/500/485
f 479/494/479 480/495/480 487/502/487 486/501/486
f 480/495/480 481/496/481 488/503/488 487/502/487
f 482/498/482 483/497/483 490/504/490 489/505/489
f 483/497/483 484/499/484 491/506/491 490/504/490
f 484/499/484 485/500/485 492/507/492 491/506/491
f 485/500/485 486/501/486 493/508/493 492/507/492
f 486/501/486 487/502/487 494/509/494 493/508/493
f 487/502/487 488/503/488 495/510/495 494/509/494
f 6/511/6 54/512/54 447/462/447 26/513/26
f 54/512/54 53/514/53 448/463/448 447/462/447
f 53/514/53 52/515/52 449/466/449 448/463/448
f 52/515/52 51/516/51 450/468/450 449/466/449
f 51/516/51 50/517/50 451/470/451 450/468/450
f 50/517/50 49/518/49 452/472/452 451/470/451
f 49/518/49 48/519/48 453/474/453 452/472/452
f 48/519/48 12/390/12 125/445/125 453/474/453
f 453/474/453 125/445/125 126/461/126 460/475/460
f 460/475/460 126/461/126 127/460/127 467/482/467
f 467/482/467 127/460/127 128/459/128 474/489/474
f 474/489/474 128/459/128 129/458/129 481/496/481
f 481/496/481 129/458/129 130/457/130 488/503/488
f 488/503/488 130/457/130 131/455/131 495/510/495
f 495/510/495 131/455/131 9/456/9 27/520/27
f 494/509/494 495/510/495 27/520/27 28/521/28
f 493/508/493 494/509/494 28/521/28 29/522/29
f 492/507/492 493/508/493 29/522/29 30/523/30
f 491/506/491 492/507/492 30/523/30 31/524/31
f 490/504/490 491/506/491 31/524/31 32/525/32
f 489/505/489 490/504/490 32/525/32 33/526/33
f 20/527/20 489/505/489 33/526/33 2/528/2
f 21/529/21 482/498/482 489/505/489 20/527/20
f 22/530/22 475/491/475 482/498/482 21/529/21
f 23/531/23 468/484/468 475/491/475 22/530/22
f 24/532/24 461/477/461 468/484/468 23/531/23
f 25/533/25 454/465/454 461/477/461 24/532/24
f 26/513/26 447/462/447 454/465/454 25/533/25
f 496/534/496 497/535/497 504/536/504 503/537/503
f 497/535/497 498/538/498 505/539/505 504/536/504
f 498/538/498 499/540/499 506/541/506 505/539/505
f 499/540/499 500/542/500 507/543/507 506/541/506
f 500/542/500 501/544/501 508/545/508 507/543/507
f 501/544/501 502/546/502 509/547/509 508/545/508
f 503/537/503 504/536/504 511/548/511 510/549/510
f 504/536/504 505/539/505 512/550/512 511/548/511
f 505/539/505 506/541/506 513/551/513 512/550/512
f 506/541/506 507/543/507 514/552/514 513/551/513
f 507/543/507 508/545/508 515/553/515 514/552/514
f 508/545/508 509/547/509 516/554/516 515/553/515
f 510/549/510 511/548/511 518/555/518 517/556/517
f 511/548/511 512/550/512 519/557/519 518/555/518
f 512/550/512 513/551/513 520/558/520 519/557/519
f 513/551/513 514/552/514 521/559/521 520/558/520
f 514/552/514 515/553/515 522/560/522 521/559/521
f 515/553/515 516/554/516 523/561/523 522/560/522
f 517/556/517 518/555/518 525/562/525 524/563/524
f 518/555/518 519/557/519 526/564/526 525/562/525
f 519/557/519 520/558/520 527/565/527 526/564/526
f 520/558/520 521/559/521 528/566/528 527/565/527
f 521/559/521 522/560/522 529/567/529 528/566/528
f 522/560/522 523/561/523 530/568/530 529/567/529
f 524/563/524 525/562/525 532/569/532 531/570/531
f 525/562/525 526/564/526 533/571/533 532/569/532
f 526/564/526 527/565/527 534/572/534 533/571/533
f 527/565/527 528/566/528 535/573/535 534/572/534
f 528/566/528 529/567/529 536/574/536 535/573/535
f 529/567/529 530/568/530 537/575/537 536/574/536
f 531/570/531 532/569/532 539/576/539 538/577/538
f 532/569/532 533/571/533 540/578/540 539/576/539
f 533/571/533 534/572/534 541/579/541 540/578/540
f 534/572/534 535/573/535 542/580/542 541/579/541
f 535/573/535 536/574/536 543/581/543 542/580/542
f 536/574/536 537/575/537 544/582/544 543/581/543
f 2/583/2 33/584/33 496/534/496 96/585/96
f 33/584/33 32/586/32 497/535/497 496/534/496
f 32/586/32 31/587/31 498/538/498 497/535/497
f 31/587/31 30/588/30 499/540/499 498/538/498
f 30/588/30 29/589/29 500/542/500 499/540/499
f 29/589/29 28/590/28 501/544/501 500/542/500
f 28/590/28 27/591/27 502/546/502 501/544/501
f 27/591/27 9/365/9 132/367/132 502/546/502
f 502/546/502 132/367/132 133/395/133 509/547/509
f 509/547/509 133/395/133 134/394/134 516/554/516
f 516/554/516 134/394/134 135/393/135 523/561/523
f 523/561/523 135/393/135 136/392/136 530/568/530
f 530/568/530 136/392/136 137/391/137 537/575/537
f 537/575/537 137/391/137 138/389/138 544/582/544
f 544/582/544 138/389/138 11/390/11 41/519/41
f 543/581/543 544/582/544 41/519/41 42/518/42
f 542/580/542 543/581/543 42/518/42 43/517/43
f 541/579/541 542/580/542 43/517/43 44/516/44
f 540/578/540 541/579/541 44/516/44 45/515/45
f 539/576/539 540/578/540 45/515/45 46/514/46
f 538/577/538 539/576/539 46/514/46 47/512/47
f 90/592/90 538/577/538 47/512/47 4/511/4
f 91/593/91 531/570/531 538/577/538 90/592/90
f 92/594/92 524/563/524 531/570/531 91/593/91
f 93/595/93 517/556/517 524/563/524 92/594/92
f 94/596/94 510/549/510 517/556/517 93/595/93
f 95/597/95 503/537/503 510/549/510 94/596/94
f 96/585/96 496/534/496 503/537/503 95/597/95
f 545/598/545 546/599/546 553/600/553 552/601/552
f 546/599/546 547/602/547 554/603/554 553/600/553
f 547/602/547 548/604/548 555/605/555 554/603/554
f 548/604/548 549/606/549 556/607/556 555/605/555
f 549/606/549 550/608/550 557/609/557 556/607/556
f 550/608/550 551/610/551 558/611/558 557/609/557
f 552/601/552 553/600/553 560/612/560 559/613/559
f 553/600/553 554/603/554 561/614/561 560/612/560
f 554/603/554 555/605/555 562/615/562 561/614/561
f 555/605/555 556/607/556 563/616/563 562/615/562
f 556/607/556 557/609/557 564/617/564 563/616/563
f 557/609/557 558/611/558 565/618/565 564/617/564
f 559/613/559 560/612/560 567/619/567 566/620/566
f 560/612/560 561/614/561 568/621/568 567/619/567
f 561/614/561 562/615/562 569/622/569 568/621/568
f 562/615/562 563/616/563 570/623/570 569/622/569
f 563/616/563 564/617/564 571/624/571 570/623/570
f 564/617/564 565/618/565 572/625/572 571/624/571
f 566/620/566 567/619/567 574/626/574 573/627/573
f 567/619/567 568/621/568 575/628/575 574/626/574
f 568/621/568 569/622/569 576/629/576 575/628/575
f 569/622/569 570/623/570 577/630/577 576/629/576
f 570/623/570 571/624/571 578/631/578 577/630/577
f 571/624/571 572/625/572 579/632/579 578/631/578
f 573/627/573 574/626/574 581/633/581 580/634/580
f 574/626/574 575/628/575 582/635/582 581/633/581
f 575/628/575 576/629/576 583/636/583 582/635/582
f 576/629/576 577/630/577 584/637/584 583/636/583
f 577/630/577 578/631/578 585/638/585 584/637/584
f 578/631/578 579/632/579 586/639/586 585/638/585
f 580/634/580 581/633/581 588/640/588 587/641/587
f 581/633/581 582/635/582 589/642/589 588/640/588
f 582/635/582 583/636/583 590/643/590 589/642/589
f 583/636/583 584/637/584 591/644/591 590/643/590
f 584/637/584 585/638/585 592/645/592 591/644/591
f 585/638/585 586/639/586 593/646/593 592/645/592
f 8/50/8 104/647/104 545/598/545 19/302/19
f 104/647/104 105/648/105 546/599/546 545/598/545
f 105/648/105 106/649/106 547/602/547 546/599/546
f 106/649/106 107/650/107 548/604/548 547/602/547
f 107/650/107 108/651/108 549/606/549 548/604/548
f 108/651/108 109/652/109 550/608/550 549/606/549
f 109/652/109 110/653/110 551/610/551 550/608/550
f 110/653/110 10/205/10 139/207/139 551/610/551
f 551/610/551 139/207/139 140/235/140 558/611/558
f 558/611/558 140/235/140 141/234/141 565/618/565
f 565/618/565 141/234/141 142/233/142 572/625/572
f 572/625/572 142/233/142 143/232/143 579/632/579
f 579/632/579 143/232/143 144/231/144 586/639/586
f 586/639/586 144/231/144 145/229/145 593/646/593
f 593/646/593 145/229/145 12/230/12 48/654/48
f 592/645/592 593/646/593 48/654/48 49/655/49
f 591/644/591 592/645/592 49/655/49 50/656/50
f 590/643/590 591/644/591 50/656/50 51/657/51
f 589/642/589 590/643/590 51/657/51 52/658/52
f 588/640/588 589/642/589 52/658/52 53/659/53
f 587/641/587 588/640/588 53/659/53 54/660/54
f 13/308/13 587/641/587 54/660/54 6/310/6
f 14/307/14 580/634/580 587/641/587 13/308/13
f 15/661/15 573/627/573 580/634/580 14/307/14
f 16/305/16 566/620/566 573/627/573 15/661/15
f 17/304/17 559/613/559 566/620/566 16/305/16
f 18/662/18 552/601/552 559/613/559 17/304/17
f 19/302/19 545/598/545 552/601/552 18/662/18
f 594/663/594 595/664/595 602/665/602 601/666/601
f 595/664/595 596/667/596 603/668/603 602/665/602
f 596/667/596 597/669/597 604/670/604 603/668/603
f 597/669/597 598/671/598 605/672/605 604/670/604
f 598/671/598 599/673/599 606/674/606 605/672/605
f 599/673/599 600/675/600 607/676/607 606/674/606
f 601/666/601 602/665/602 609/677/609 608/678/608
f 602/665/602 603/668/603 610/679/610 609/677/609
f 603/668/603 604/670/604 611/680/611 610/679/610
f 604/670/604 605/672/605 612/681/612 611/680/611
f 605/672/605 606/674/606 613/682/613 612/681/612
f 606/674/606 607/676/607 614/683/614 613/682/613
f 608/678/608 609/677/609 616/684/616 615/685/615
f 609/677/609 610/679/610 617/686/617 616/684/616
f 610/679/610 611/680/611 618/687/618 617/686/617
f 611/680/611 612/681/612 619/688/619 618/687/618
f 612/681/612 613/682/613 620/689/620 619/688/619
f 613/682/613 614/683/614 621/690/621 620/689/620
f 615/685/615 616/684/616 623/691/623 622/692/622
f 616/684/616 617/686/617 624/693/624 623/691/623
f 617/686/617 618/687/618 625/694/625 624/693/624
f 618/687/618 619/688/619 626/695/626 625/694/625
f 619/688/619 620/689/620 627/696/627 626/695/626
f 620/689/620 621/690/621 628/697/628 627/696/627
f 622/692/622 623/691/623 630/698/630 629/699/629
f 623/691/623 624/693/624 631/700/631 630/698/630
f 624/693/624 625/694/625 632/701/632 631/700/631
f 625/694/625 626/695/626 633/702/633 632/701/632
f 626/695/626 627/696/627 634/703/634 633/702/633
f 627/696/627 628/697/628 635/704/635 634/703/634
f 629/699/629 630/698/630 637/705/637 636/706/636
f 630/698/630 631/700/631 638/707/638 637/705/637
f 631/700/631 632/701/632 639/708/639 638/707/638
f 632/701/632 633/702/633 640/709/640 639/708/639
f 633/702/633 634/703/634 641/710/641 640/709/640
f 634/703/634 635/704/635 642/711/642 641/710/641
f 4/374/4 47/712/47 594/663/594 75/375/75
f 47/712/47 46/713/46 595/664/595 594/663/594
f 46/713/46 45/714/45 596/667/596 595/664/595
f 45/714/45 44/715/44 597/669/597 596/667/596
f 44/715/44 43/716/43 598/671/598 597/669/597
f 43/716/43 42/717/42 599/673/599 598/671/598
f 42/717/42 41/718/41 600/675/600 599/673/599
f 41/718/41 11/131/11 146/133/146 600/675/600
f 600/675/600 146/133/146 147/155/147 607/676/607
f 607/676/607 147/155/147 148/154/148 614/683/614
f 614/683/614 148/154/148 149/153/149 621/690/621
f 621/690/621 149/153/149 150/152/150 628/697/628
f 628/697/628 150/152/150 151/151/151 635/704/635
f 635/704/635 151/151/151 152/149/152 642/711/642
f 642/711/642 152/149/152 10/150/10 110/719/110
f 641/710/641 642/711/642 110/719/110 109/720/109
f 640/709/640 641/710/641 109/720/109 108/721/108
f 639/708/639 640/709/640 108/721/108 107/722/107
f 638/707/638 639/708/639 107/722/107 106/723/106
f 637/705/637 638/707/638 106/723/106 105/724/105
f 636/706/636 637/705/637 105/724/105 104/725/104
f 69/381/69 636/706/636 104/725/104 8/294/8
f 70/380/70 629/699/629 636/706/636 69/381/69
f 71/379/71 622/692/622 629/699/629 70/380/70
f 72/378/72 615/685/615 622/692/622 71/379/71
f 73/377/73 608/678/608 615/685/615 72/378/72
f 74/376/74 601/666/601 608/678/608 73/377/73
f 75/375/75 594/663/594 601/666/601 74/376/74
o Cylinder
v 0.000000 0.105680 -0.599907
v 0.000000 3.476251 -0.599907
v 0.117036 0.105680 -0.588380
v 0.117036 3.476251 -0.588380
v 0.229574 0.105680 -0.554241
v 0.229574 3.476251 -0.554241
v 0.333290 0.105680 -0.498804
v 0.333290 3.476251 -0.498804
v 0.424198 0.105680 -0.424198
v 0.424198 3.476251 -0.424198
v 0.498804 0.105680 -0.333290
v 0.498804 3.476251 -0.333290
v 0.554241 0.105680 -0.229574
v 0.554241 3.476251 -0.229574
v 0.588380 0.105680 -0.117036
v 0.588380 3.476251 -0.117036
v 0.599907 0.105680 0.000000
v 0.599907 3.476251 0.000000
v 0.588380 0.105680 0.117036
v 0.588380 3.476251 0.117036
v 0.554241 0.105680 0.229574
v 0.554241 3.476251 0.229574
v 0.498804 0.105680 0.333290
v 0.498804 3.476251 0.333290
v 0.424198 0.105680 0.424198
v 0.424198 3.476251 0.424198
v 0.333290 0.105680 0.498804
v 0.333290 3.476251 0.498804
v 0.229574 0.105680 0.554241
v 0.229574 3.476251 0.554241
v 0.117036 0.105680 0.588380
v 0.117036 3.476251 0.588380
v 0.000000 0.105680 0.599907
v 0.000000 3.476251 0.599907
v -0.117036 0.105680 0.588380
v -0.117036 3.476251 0.588380
v -0.229574 0.105680 0.554241
v -0.229574 3.476251 0.554241
v -0.333290 0.105680 0.498804
v -0.333290 3.476251 0.498804
v -0.424198 0.105680 0.424198
v -0.424198 3.476251 0.424198
v -0.498804 0.105680 0.333290
v -0.498804 3.476251 0.333290
v -0.554241 0.105680 0.229574
v -0.554241 3.476251 0.229574
v -0.588380 0.105680 0.117036
v -0.588380 3.476251 0.117036
v -0.599907 0.105680 0.000000
v -0.599907 3.476251 0.000000
v -0.588380 0.105680 -0.117036
v -0.588380 3.476251 -0.117036
v -0.554241 0.105680 -0.229574
v -0.554241 3.476251 -0.229574
v -0.498804 0.105680 -0.333290
v -0.498804 3.476251 -0.333290
v -0.424198 0.105680 -0.424198
v -0.424198 3.476251 -0.424198
v -0.333290 0.105680 -0.498804
v -0.333290 3.476251 -0.498804
v -0.229574 0.105680 -0.554241
v -0.229574 3.476251 -0.554241
v -0.117036 0.105680 -0.588380
v -0.117036 3.476251 -0.588380
vn -0.0000 -0.3179 -0.9481
vn -0.0000 0.3179 -0.9481
vn 0.1850 -0.3179 -0.9299
vn 0.1850 0.3179 -0.9299
vn 0.3628 -0.3179 -0.8759
vn 0.3628 0.3179 -0.8759
vn 0.5267 -0.3179 -0.7883
vn 0.5267 0.3179 -0.7883
vn 0.6704 -0.3179 -0.6704
vn 0.6704 0.3179 -0.6704
vn 0.7883 -0.3179 -0.5267
vn 0.7883 0.3179 -0.5267
vn 0.8759 -0.3179 -0.3628
vn 0.8759 0.3179 -0.3628
vn 0.9299 -0.3179 -0.1850
vn 0.9299 0.3179 -0.1850
vn 0.9481 -0.3179 -0.0000
vn 0.9481 0.3179 -0.0000
vn 0.9299 -0.3179 0.1850
vn 0.9299 0.3179 0.1850
vn 0.8759 -0.3179 0.3628
vn 0.8759 0.3179 0.3628
vn 0.7883 -0.3179 0.5267
vn 0.7883 0.3179 0.5267
vn 0.6704 -0.3179 0.6704
vn 0.6704 0.3179 0.6704
vn 0.5267 -0.3179 0.7883
vn 0.5267 0.3179 0.7883
vn 0.3628 -0.3179 0.8759
vn 0.3628 0.3179 0.8759
vn 0.1850 -0.3179 0.9299
vn 0.1850 0.3179 0.9299
vn -0.0000 -0.3179 0.9481
vn -0.0000 0.3179 0.9481
vn -0.1850 -0.3179 0.9299
vn -0.1850 0.3179 0.9299
vn -0.3628 -0.3179 0.8759
vn -0.3628 0.3179 0.8759
vn -0.5267 -0.3179 0.7883
vn -0.5267 0.3179 0.7883
vn -0.6704 -0.3179 0.6704
vn -0.6704 0.3179 0.6704
vn -0.7883 -0.3179 0.5267
vn -0.7883 0.3179 0.5267
vn -0.8759 -0.3179 0.3628
vn -0.8759 0.3179 0.3628
vn -0.9299 -0.3179 0.1850
vn -0.9299 0.3179 0.1850
vn -0.9481 -0.3179 -0.0000
vn -0.9481 0.3179 -0.0000
vn -0.9299 -0.3179 -0.1850
vn -0.9299 0.3179 -0.1850
vn -0.8759 -0.3179 -0.3628
vn -0.8759 0.3179 -0.3628
vn -0.7883 -0.3179 -0.5267
vn -0.7883 0.3179 -0.5267
vn -0.6704 -0.3179 -0.6704
vn -0.6704 0.3179 -0.6704
vn -0.5267 -0.3179 -0.7883
vn -0.5267 0.3179 -0.7883
vn -0.3628 -0.3179 -0.8759
vn -0.3628 0.3179 -0.8759
vn -0.1850 -0.3179 -0.9299
vn -0.1850 0.3179 -0.9299
vt 1.000000 0.500000
vt 1.000000 1.000000
vt 0.968750 1.000000
vt 0.968750 0.500000
vt 0.937500 1.000000
vt 0.937500 0.500000
vt 0.906250 1.000000
vt 0.906250 0.500000
vt 0.875000 1.000000
vt 0.875000 0.500000
vt 0.843750 1.000000
vt 0.843750 0.500000
vt 0.812500 1.000000
vt 0.812500 0.500000
vt 0.781250 1.000000
vt 0.781250 0.500000
vt 0.750000 1.000000
vt 0.750000 0.500000
vt 0.718750 1.000000
vt 0.718750 0.500000
vt 0.687500 1.000000
vt 0.687500 0.500000
vt 0.656250 1.000000
vt 0.656250 0.500000
vt 0.625000 1.000000
vt 0.625000 0.500000
vt 0.593750 1.000000
vt 0.593750 0.500000
vt 0.562500 1.000000
vt 0.562500 0.500000
vt 0.531250 1.000000
vt 0.531250 0.500000
vt 0.500000 1.000000
vt 0.500000 0.500000
vt 0.468750 1.000000
vt 0.468750 0.500000
vt 0.437500 1.000000
vt 0.437500 0.500000
vt 0.406250 1.000000
vt 0.406250 0.500000
vt 0.375000 1.000000
vt 0.375000 0.500000
vt 0.343750 1.000000
vt 0.343750 0.500000
vt 0.312500 1.000000
vt 0.312500 0.500000
vt 0.281250 1.000000
vt 0.281250 0.500000
vt 0.250000 1.000000
vt 0.250000 0.500000
vt 0.218750 1.000000
vt 0.218750 0.500000
vt 0.187500 1.000000
vt 0.187500 0.500000
vt 0.156250 1.000000
vt 0.156250 0.500000
vt 0.125000 1.000000
vt 0.125000 0.500000
vt 0.093750 1.000000
vt 0.093750 0.500000
vt 0.062500 1.000000
vt 0.062500 0.500000
vt 0.296822 0.485388
vt 0.250000 0.490000
vt 0.203178 0.485388
vt 0.158156 0.471731
vt 0.116663 0.449553
vt 0.080294 0.419706
vt 0.050447 0.383337
vt 0.028269 0.341844
vt 0.014612 0.296822
vt 0.010000 0.250000
vt 0.014612 0.203178
vt 0.028269 0.158156
vt 0.050447 0.116663
vt 0.080294 0.080294
vt 0.116663 0.050447
vt 0.158156 0.028269
vt 0.203178 0.014612
vt 0.250000 0.010000
vt 0.296822 0.014612
vt 0.341844 0.028269
vt 0.383337 0.050447
vt 0.419706 0.080294
vt 0.449553 0.116663
vt 0.471731 0.158156
vt 0.485388 0.203178
vt 0.490000 0.250000
vt 0.485388 0.296822
vt 0.471731 0.341844
vt 0.449553 0.383337
vt 0.419706 0.419706
vt 0.383337 0.449553
vt 0.341844 0.471731
vt 0.031250 1.000000
vt 0.031250 0.500000
vt 0.000000 1.000000
vt 0.000000 0.500000
vt 0.750000 0.490000
vt 0.796822 0.485388
vt 0.841844 0.471731
vt 0.883337 0.449553
vt 0.919706 0.419706
vt 0.949553 0.383337
vt 0.971731 0.341844
vt 0.985388 0.296822
vt 0.990000 0.250000
vt 0.985388 0.203178
vt 0.971731 0.158156
vt 0.949553 0.116663
vt 0.919706 0.080294
vt 0.883337 0.050447
vt 0.841844 0.028269
vt 0.796822 0.014612
vt 0.750000 0.010000
vt 0.703178 0.014612
vt 0.658156 0.028269
vt 0.616663 0.050447
vt 0.580294 0.080294
vt 0.550447 0.116663
vt 0.528269 0.158156
vt 0.514612 0.203178
vt 0.510000 0.250000
vt 0.514612 0.296822
vt 0.528269 0.341844
vt 0.550447 0.383337
vt 0.580294 0.419706
vt 0.616663 0.449553
vt 0.658156 0.471731
vt 0.703178 0.485388
s 1
usemtl Material.001
f 643/726/643 644/727/644 646/728/646 645/729/645
f 645/729/645 646/728/646 648/730/648 647/731/647
f 647/731/647 648/730/648 650/732/650 649/733/649
f 649/733/649 650/732/650 652/734/652 651/735/651
f 651/735/651 652/734/652 654/736/654 653/737/653
f 653/737/653 654/736/654 656/738/656 655/739/655
f 655/739/655 656/738/656 658/740/658 657/741/657
f 657/741/657 658/740/658 660/742/660 659/743/659
f 659/743/659 660/742/660 662/744/662 661/745/661
f 661/745/661 662/744/662 664/746/664 663/747/663
f 663/747/663 664/746/664 666/748/666 665/749/665
f 665/749/665 666/748/666 668/750/668 667/751/667
f 667/751/667 668/750/668 670/752/670 669/753/669
f 669/753/669 670/752/670 672/754/672 671/755/671
f 671/755/671 672/754/672 674/756/674 673/757/673
f 673/757/673 674/756/674 676/758/676 675/759/675
f 675/759/675 676/758/676 678/760/678 677/761/677
f 677/761/677 678/760/678 680/762/680 679/763/679
f 679/763/679 680/762/680 682/764/682 681/765/681
f 681/765/681 682/764/682 684/766/684 683/767/683
f 683/767/683 684/766/684 686/768/686 685/769/685
f 685/769/685 686/768/686 688/770/688 687/771/687
f 687/771/687 688/770/688 690/772/690 689/773/689
f 689/773/689 690/772/690 692/774/692 691/775/691
f 691/775/691 692/774/692 694/776/694 693/777/693
f 693/777/693 694/776/694 696/778/696 695/779/695
f 695/779/695 696/778/696 698/780/698 697/781/697
f 697/781/697 698/780/698 700/782/700 699/783/699
f 699/783/699 700/782/700 702/784/702 701/785/701
f 701/785/701 702/784/702 704/786/704 703/787/703
f 646/788/646 644/789/644 706/790/706 704/791/704 702/792/702 700/793/700 698/794/698 696/795/696 694/796/694 692/797/692 690/798/690 688/799/688 686/800/686 684/801/684 682/802/682 680/803/680 678/804/678 676/805/676 674/806/674 672/807/672 670/808/670 668/809/668 666/810/666 664/811/664 662/812/662 660/813/660 658/814/658 656/815/656 654/816/654 652/817/652 650/818/650 648/819/648
f 703/787/703 704/786/704 706/820/706 705/821/705
f 705/821/705 706/820/706 644/822/644 643/823/643
f 643/824/643 645/825/645 647/826/647 649/827/649 651/828/651 653/829/653 655/830/655 657/831/657 659/832/659 661/833/661 663/834/663 665/835/665 667/836/667 669/837/669 671/838/671 673/839/673 675/840/675 677/841/677 679/842/679 681/843/681 683/844/683 685/845/685 687/846/687 689/847/689 691/848/691 693/849/693 695/850/695 697/851/697 699/852/699 701/853/701 703/854/703 705/855/705
