# Blender 4.5.3 LTS
# www.blender.org
mtllib mesa2.mtl
o Cube
v 9.336078 7.283501 4.444639
v 9.336078 6.716499 4.444639
v -9.336078 7.283501 4.444639
v -9.336078 6.716499 4.444639
v 9.336078 7.283501 -4.444639
v 9.336078 6.716499 -4.444639
v -9.336078 7.283501 -4.444639
v -9.336078 6.716499 -4.444639
vn -0.0000 1.0000 -0.0000
vn -1.0000 -0.0000 -0.0000
vn -0.0000 -0.0000 -1.0000
vn -0.0000 -1.0000 -0.0000
vn -0.0000 -0.0000 1.0000
vn 1.0000 -0.0000 -0.0000
vt 0.625000 0.500000
vt 0.875000 0.500000
vt 0.875000 0.750000
vt 0.625000 0.750000
vt 0.375000 0.750000
vt 0.625000 1.000000
vt 0.375000 1.000000
vt 0.375000 0.000000
vt 0.625000 0.000000
vt 0.625000 0.250000
vt 0.375000 0.250000
vt 0.125000 0.500000
vt 0.375000 0.500000
vt 0.125000 0.750000
s 0
usemtl Material
f 1/1/1 5/2/1 7/3/1 3/4/1
f 4/5/2 3/4/2 7/6/2 8/7/2
f 8/8/3 7/9/3 5/10/3 6/11/3
f 6/12/4 2/13/4 4/5/4 8/14/4
f 2/13/5 1/1/5 3/4/5 4/5/5
f 6/11/6 5/10/6 1/1/6 2/13/6
o Cube.001
v 8.373127 -0.646027 -4.126873
v 8.373127 6.791279 -4.126873
v 9.026873 -0.646027 -4.126873
v 9.026873 6.791279 -4.126873
v 8.373127 -0.646027 -3.473128
v 8.373127 6.791279 -3.473128
v 9.026873 -0.646027 -3.473128
v 9.026873 6.791279 -3.473128
vn -0.0000 -0.0000 -1.0000
vn 1.0000 -0.0000 -0.0000
vn -0.0000 -0.0000 1.0000
vn -1.0000 -0.0000 -0.0000
vn -0.0000 -1.0000 -0.0000
vn -0.0000 1.0000 -0.0000
vt 0.375000 0.000000
vt 0.625000 0.000000
vt 0.625000 0.250000
vt 0.375000 0.250000
vt 0.625000 0.500000
vt 0.375000 0.500000
vt 0.625000 0.750000
vt 0.375000 0.750000
vt 0.625000 1.000000
vt 0.375000 1.000000
vt 0.125000 0.500000
vt 0.125000 0.750000
vt 0.875000 0.500000
vt 0.875000 0.750000
s 0
usemtl Material.003
f 9/15/7 10/16/7 12/17/7 11/18/7
f 11/18/8 12/17/8 16/19/8 15/20/8
f 15/20/9 16/19/9 14/21/9 13/22/9
f 13/22/10 14/21/10 10/23/10 9/24/10
f 11/25/11 15/20/11 13/22/11 9/26/11
f 16/19/12 12/27/12 10/28/12 14/21/12
o Cube.002
v -9.026873 -0.646027 -4.126873
v -9.026873 6.791279 -4.126873
v -8.373127 -0.646027 -4.126873
v -8.373127 6.791279 -4.126873
v -9.026873 -0.646027 -3.473128
v -9.026873 6.791279 -3.473128
v -8.373127 -0.646027 -3.473128
v -8.373127 6.791279 -3.473128
vn -0.0000 -0.0000 -1.0000
vn 1.0000 -0.0000 -0.0000
vn -0.0000 -0.0000 1.0000
vn -1.0000 -0.0000 -0.0000
vn -0.0000 -1.0000 -0.0000
vn -0.0000 1.0000 -0.0000
vt 0.375000 0.000000
vt 0.625000 0.000000
vt 0.625000 0.250000
vt 0.375000 0.250000
vt 0.625000 0.500000
vt 0.375000 0.500000
vt 0.625000 0.750000
vt 0.375000 0.750000
vt 0.625000 1.000000
vt 0.375000 1.000000
vt 0.125000 0.500000
vt 0.125000 0.750000
vt 0.875000 0.500000
vt 0.875000 0.750000
s 0
usemtl Material.004
f 17/29/13 18/30/13 20/31/13 19/32/13
f 19/32/14 20/31/14 24/33/14 23/34/14
f 23/34/15 24/33/15 22/35/15 21/36/15
f 21/36/16 22/35/16 18/37/16 17/38/16
f 19/39/17 23/34/17 21/36/17 17/40/17
f 24/33/18 20/41/18 18/42/18 22/35/18
o Cube.003
v 8.373127 -0.646027 3.473128
v 8.373127 6.791279 3.473128
v 9.026873 -0.646027 3.473128
v 9.026873 6.791279 3.473128
v 8.373127 -0.646027 4.126873
v 8.373127 6.791279 4.126873
v 9.026873 -0.646027 4.126873
v 9.026873 6.791279 4.126873
vn -0.0000 -0.0000 -1.0000
vn 1.0000 -0.0000 -0.0000
vn -0.0000 -0.0000 1.0000
vn -1.0000 -0.0000 -0.0000
vn -0.0000 -1.0000 -0.0000
vn -0.0000 1.0000 -0.0000
vt 0.375000 0.000000
vt 0.625000 0.000000
vt 0.625000 0.250000
vt 0.375000 0.250000
vt 0.625000 0.500000
vt 0.375000 0.500000
vt 0.625000 0.750000
vt 0.375000 0.750000
vt 0.625000 1.000000
vt 0.375000 1.000000
vt 0.125000 0.500000
vt 0.125000 0.750000
vt 0.875000 0.500000
vt 0.875000 0.750000
s 0
usemtl Material.002
f 25/43/19 26/44/19 28/45/19 27/46/19
f 27/46/20 28/45/20 32/47/20 31/48/20
f 31/48/21 32/47/21 30/49/21 29/50/21
f 29/50/22 30/49/22 26/51/22 25/52/22
f 27/53/23 31/48/23 29/50/23 25/54/23
f 32/47/24 28/55/24 26/56/24 30/49/24
o Cube.004
v -9.026873 -0.646027 3.473128
v -9.026873 6.791279 3.473128
v -8.373127 -0.646027 3.473128
v -8.373127 6.791279 3.473128
v -9.026873 -0.646027 4.126873
v -9.026873 6.791279 4.126873
v -8.373127 -0.646027 4.126873
v -8.373127 6.791279 4.126873
vn -0.0000 -0.0000 -1.0000
vn 1.0000 -0.0000 -0.0000
vn -0.0000 -0.0000 1.0000
vn -1.0000 -0.0000 -0.0000
vn -0.0000 -1.0000 -0.0000
vn -0.0000 1.0000 -0.0000
vt 0.375000 0.000000
vt 0.625000 0.000000
vt 0.625000 0.250000
vt 0.375000 0.250000
vt 0.625000 0.500000
vt 0.375000 0.500000
vt 0.625000 0.750000
vt 0.375000 0.750000
vt 0.625000 1.000000
vt 0.375000 1.000000
vt 0.125000 0.500000
vt 0.125000 0.750000
vt 0.875000 0.500000
vt 0.875000 0.750000
s 0
usemtl Material.001
f 33/57/25 34/58/25 36/59/25 35/60/25
f 35/60/26 36/59/26 40/61/26 39/62/26
f 39/62/27 40/61/27 38/63/27 37/64/27
f 37/64/28 38/63/28 34/65/28 33/66/28
f 35/67/29 39/62/29 37/64/29 33/68/29
f 40/61/30 36/69/30 34/70/30 38/63/30
o Cube.005
v -2.700514 7.256636 -1.827787
v -2.700514 9.325576 -1.827787
v 2.700514 7.256636 -1.827787
v 2.700514 9.325576 -1.827787
v -2.700514 7.256636 1.827787
v -2.700514 7.787202 1.827787
v 2.700514 7.256636 1.827787
v 2.700514 7.787202 1.827787
v 2.700514 7.256636 0.000000
v 2.700514 9.325571 -0.352011
v -2.700514 7.256636 0.000000
v -2.700514 9.325571 -0.352011
vn -0.0000 -0.0000 -1.0000
vn 1.0000 -0.0000 -0.0000
vn -0.0000 -0.0000 1.0000
vn -1.0000 -0.0000 -0.0000
vn -0.0000 -1.0000 -0.0000
vn -0.0000 1.0000 -0.0000
vn -0.0000 0.8170 0.5766
vt 0.375000 0.000000
vt 0.625000 0.000000
vt 0.625000 0.250000
vt 0.375000 0.250000
vt 0.375000 0.375000
vt 0.625000 0.375000
vt 0.625000 0.500000
vt 0.375000 0.500000
vt 0.625000 0.750000
vt 0.375000 0.750000
vt 0.375000 0.875000
vt 0.625000 0.875000
vt 0.625000 1.000000
vt 0.375000 1.000000
vt 0.250000 0.500000
vt 0.250000 0.750000
vt 0.750000 0.500000
vt 0.875000 0.500000
vt 0.875000 0.750000
vt 0.750000 0.750000
vt 0.125000 0.500000
vt 0.125000 0.750000
s 0
usemtl Material.005
f 41/71/31 42/72/31 44/73/31 43/74/31
f 49/75/32 50/76/32 48/77/32 47/78/32
f 47/78/33 48/77/33 46/79/33 45/80/33
f 51/81/34 52/82/34 42/83/34 41/84/34
f 49/85/35 47/78/35 45/80/35 51/86/35
f 50/87/36 44/88/36 42/89/36 52/90/36
f 48/77/37 50/87/37 52/90/37 46/79/37
f 43/91/35 49/85/35 51/86/35 41/92/35
f 45/80/34 46/79/34 52/82/34 51/81/34
f 43/74/32 44/73/32 50/76/32 49/75/32
o Cube.006
v -2.700514 9.279196 -1.827787
v -2.700514 12.137079 -1.827787
v 2.700514 9.279196 -1.827787
v 2.700514 12.137079 -1.827787
v -2.700514 9.279196 0.032493
v -2.700514 9.701632 0.032493
v 2.700514 9.279196 0.032493
v 2.700514 9.701632 0.032493
v 2.700514 9.279196 0.000000
v 2.700514 12.137074 -1.653210
v -2.700514 9.279196 0.000000
v -2.700514 12.137074 -1.653210
vn -0.0000 -0.0000 -1.0000
vn 1.0000 -0.0000 -0.0000
vn -0.0000 -0.0000 1.0000
vn -1.0000 -0.0000 -0.0000
vn -0.0000 -1.0000 -0.0000
vn -0.0000 1.0000 -0.0000
vn -0.0000 0.5691 0.8223
vt 0.375000 0.000000
vt 0.625000 0.000000
vt 0.625000 0.250000
vt 0.375000 0.250000
vt 0.375000 0.375000
vt 0.625000 0.375000
vt 0.625000 0.500000
vt 0.375000 0.500000
vt 0.625000 0.750000
vt 0.375000 0.750000
vt 0.375000 0.875000
vt 0.625000 0.875000
vt 0.625000 1.000000
vt 0.375000 1.000000
vt 0.250000 0.500000
vt 0.250000 0.750000
vt 0.750000 0.500000
vt 0.875000 0.500000
vt 0.875000 0.750000
vt 0.750000 0.750000
vt 0.125000 0.500000
vt 0.125000 0.750000
s 0
usemtl Material.006
f 53/93/38 54/94/38 56/95/38 55/96/38
f 61/97/39 62/98/39 60/99/39 59/100/39
f 59/100/40 60/99/40 58/101/40 57/102/40
f 63/103/41 64/104/41 54/105/41 53/106/41
f 61/107/42 59/100/42 57/102/42 63/108/42
f 62/109/43 56/110/43 54/111/43 64/112/43
f 60/99/44 62/109/44 64/112/44 58/101/44
f 55/113/42 61/107/42 63/108/42 53/114/42
f 57/102/41 58/101/41 64/104/41 63/103/41
f 55/96/39 56/95/39 62/98/39 61/97/39
o Cylinder
v 2.500000 10.802192 -0.906778
v 2.500000 11.119363 -0.454963
v 2.480785 10.642517 -0.794687
v 2.480785 10.959688 -0.342873
v 2.423880 10.488979 -0.686905
v 2.423880 10.806149 -0.235090
v 2.331470 10.347477 -0.587571
v 2.331470 10.664648 -0.135756
v 2.207107 10.223450 -0.500505
v 2.207107 10.540621 -0.048690
v 2.055570 10.121663 -0.429052
v 2.055570 10.438834 0.022763
v 1.882684 10.046029 -0.375957
v 1.882684 10.363199 0.075858
v 1.695090 9.999454 -0.343261
v 1.695090 10.316625 0.108554
v 1.500000 9.983727 -0.332221
v 1.500000 10.300898 0.119594
v 1.304910 9.999454 -0.343261
v 1.304910 10.316625 0.108554
v 1.117316 10.046029 -0.375957
v 1.117316 10.363199 0.075858
v 0.944430 10.121663 -0.429052
v 0.944430 10.438834 0.022763
v 0.792893 10.223450 -0.500505
v 0.792893 10.540621 -0.048690
v 0.668530 10.347477 -0.587571
v 0.668530 10.664648 -0.135756
v 0.576120 10.488979 -0.686905
v 0.576120 10.806149 -0.235090
v 0.519215 10.642517 -0.794687
v 0.519215 10.959688 -0.342873
v 0.500000 10.802192 -0.906778
v 0.500000 11.119363 -0.454963
v 0.519215 10.961866 -1.018868
v 0.519215 11.279037 -0.567053
v 0.576120 11.115405 -1.126651
v 0.576120 11.432575 -0.674836
v 0.668530 11.256907 -1.225984
v 0.668530 11.574078 -0.774170
v 0.792893 11.380934 -1.313051
v 0.792893 11.698105 -0.861236
v 0.944430 11.482720 -1.384504
v 0.944430 11.799891 -0.932689
v 1.117316 11.558355 -1.437599
v 1.117316 11.875525 -0.985784
v 1.304910 11.604930 -1.470294
v 1.304910 11.922101 -1.018480
v 1.500000 11.620657 -1.481334
v 1.500000 11.937827 -1.029520
v 1.695090 11.604930 -1.470294
v 1.695090 11.922101 -1.018480
v 1.882684 11.558355 -1.437599
v 1.882684 11.875525 -0.985784
v 2.055570 11.482720 -1.384504
v 2.055570 11.799891 -0.932689
v 2.207107 11.380934 -1.313051
v 2.207107 11.698105 -0.861236
v 2.331470 11.256907 -1.225984
v 2.331470 11.574078 -0.774170
v 2.423880 11.115405 -1.126651
v 2.423880 11.432575 -0.674836
v 2.480785 10.961866 -1.018868
v 2.480785 11.279037 -0.567053
vn 0.2812 -0.5514 -0.7854
vn 0.2812 0.5514 0.7854
vn 0.2758 -0.5963 -0.7539
vn 0.2758 0.5065 0.8170
vn 0.2598 -0.6394 -0.7236
vn 0.2598 0.4633 0.8473
vn 0.2338 -0.6792 -0.6957
vn 0.2338 0.4235 0.8752
vn 0.1988 -0.7141 -0.6712
vn 0.1988 0.3887 0.8997
vn 0.1562 -0.7427 -0.6511
vn 0.1562 0.3600 0.9198
vn 0.1076 -0.7640 -0.6362
vn 0.1076 0.3388 0.9347
vn 0.0549 -0.7771 -0.6270
vn 0.0549 0.3257 0.9439
vn -0.0000 -0.7815 -0.6239
vn -0.0000 0.3212 0.9470
vn -0.0549 -0.7771 -0.6270
vn -0.0549 0.3257 0.9439
vn -0.1076 -0.7640 -0.6362
vn -0.1076 0.3388 0.9347
vn -0.1562 -0.7427 -0.6511
vn -0.1562 0.3600 0.9198
vn -0.1988 -0.7141 -0.6712
vn -0.1988 0.3887 0.8997
vn -0.2338 -0.6792 -0.6957
vn -0.2338 0.4235 0.8752
vn -0.2598 -0.6394 -0.7236
vn -0.2598 0.4633 0.8473
vn -0.2758 -0.5963 -0.7539
vn -0.2758 0.5065 0.8170
vn -0.2812 -0.5514 -0.7854
vn -0.2812 0.5514 0.7854
vn -0.2758 -0.5065 -0.8170
vn -0.2758 0.5963 0.7539
vn -0.2598 -0.4633 -0.8473
vn -0.2598 0.6394 0.7236
vn -0.2338 -0.4235 -0.8752
vn -0.2338 0.6792 0.6957
vn -0.1988 -0.3887 -0.8997
vn -0.1988 0.7141 0.6712
vn -0.1562 -0.3600 -0.9198
vn -0.1562 0.7427 0.6511
vn -0.1076 -0.3388 -0.9347
vn -0.1076 0.7640 0.6362
vn -0.0549 -0.3257 -0.9439
vn -0.0549 0.7771 0.6270
vn -0.0000 -0.3212 -0.9470
vn -0.0000 0.7815 0.6239
vn 0.0549 -0.3257 -0.9439
vn 0.0549 0.7771 0.6270
vn 0.1076 -0.3388 -0.9347
vn 0.1076 0.7640 0.6362
vn 0.1562 -0.3600 -0.9198
vn 0.1562 0.7427 0.6511
vn 0.1988 -0.3887 -0.8997
vn 0.1988 0.7141 0.6712
vn 0.2338 -0.4235 -0.8752
vn 0.2338 0.6792 0.6957
vn 0.2598 -0.4633 -0.8473
vn 0.2598 0.6394 0.7236
vn 0.2758 -0.5065 -0.8170
vn 0.2758 0.5963 0.7539
vt 0.995833 0.695218
vt 0.995833 1.030910
vt 0.974852 1.030910
vt 0.974852 0.695218
vt 0.953872 1.030910
vt 0.953872 0.695218
vt 0.932891 1.030910
vt 0.932891 0.695218
vt 0.911910 1.030910
vt 0.911910 0.695218
vt 0.890929 1.030910
vt 0.890929 0.695218
vt 0.869949 1.030910
vt 0.869949 0.695218
vt 0.848968 1.030910
vt 0.848968 0.695218
vt 0.827987 1.030910
vt 0.827987 0.695218
vt 0.807006 1.030910
vt 0.807006 0.695218
vt 0.786026 1.030910
vt 0.786026 0.695218
vt 0.765045 1.030910
vt 0.765045 0.695218
vt 0.744064 1.030910
vt 0.744064 0.695218
vt 0.723083 1.030910
vt 0.723083 0.695218
vt 0.702103 1.030910
vt 0.702103 0.695218
vt 0.681122 1.030910
vt 0.681122 0.695218
vt 0.660141 1.030910
vt 0.660141 0.695218
vt 0.639160 1.030910
vt 0.639160 0.695218
vt 0.618180 1.030910
vt 0.618180 0.695218
vt 0.597199 1.030910
vt 0.597199 0.695218
vt 0.576218 1.030910
vt 0.576218 0.695218
vt 0.555237 1.030910
vt 0.555237 0.695218
vt 0.534257 1.030910
vt 0.534257 0.695218
vt 0.513276 1.030910
vt 0.513276 0.695218
vt 0.492295 1.030910
vt 0.492295 0.695218
vt 0.471314 1.030910
vt 0.471314 0.695218
vt 0.450334 1.030910
vt 0.450334 0.695218
vt 0.429353 1.030910
vt 0.429353 0.695218
vt 0.408372 1.030910
vt 0.408372 0.695218
vt 0.387391 1.030910
vt 0.387391 0.695218
vt 0.366411 1.030910
vt 0.366411 0.695218
vt 0.523730 0.685408
vt 0.492295 0.688504
vt 0.460860 0.685408
vt 0.430632 0.676239
vt 0.402775 0.661349
vt 0.378357 0.641310
vt 0.358319 0.616892
vt 0.343428 0.589035
vt 0.334259 0.558807
vt 0.331163 0.527372
vt 0.334259 0.495937
vt 0.343428 0.465710
vt 0.358319 0.437852
vt 0.378357 0.413434
vt 0.402775 0.393396
vt 0.430632 0.378505
vt 0.460860 0.369336
vt 0.492295 0.366240
vt 0.523730 0.369336
vt 0.553958 0.378505
vt 0.581815 0.393396
vt 0.606233 0.413434
vt 0.626272 0.437852
vt 0.641162 0.465710
vt 0.650331 0.495937
vt 0.653427 0.527372
vt 0.650331 0.558807
vt 0.641162 0.589035
vt 0.626272 0.616892
vt 0.606233 0.641310
vt 0.581815 0.661349
vt 0.553958 0.676239
vt 0.345430 1.030910
vt 0.345430 0.695218
vt 0.324449 1.030910
vt 0.324449 0.695218
vt 0.827987 0.688504
vt 0.859422 0.685408
vt 0.889650 0.676239
vt 0.917507 0.661349
vt 0.941925 0.641310
vt 0.961964 0.616892
vt 0.976854 0.589035
vt 0.986023 0.558807
vt 0.989119 0.527372
vt 0.986023 0.495937
vt 0.976854 0.465710
vt 0.961964 0.437852
vt 0.941925 0.413434
vt 0.917507 0.393396
vt 0.889650 0.378505
vt 0.859422 0.369336
vt 0.827987 0.366240
vt 0.796552 0.369336
vt 0.766324 0.378505
vt 0.738467 0.393396
vt 0.714049 0.413434
vt 0.694011 0.437852
vt 0.679120 0.465710
vt 0.669951 0.495937
vt 0.666855 0.527372
vt 0.669951 0.558807
vt 0.679120 0.589035
vt 0.694011 0.616892
vt 0.714049 0.641310
vt 0.738467 0.661349
vt 0.766324 0.676239
vt 0.796552 0.685408
s 1
usemtl Material.007
f 65/115/45 66/116/46 68/117/48 67/118/47
f 67/118/47 68/117/48 70/119/50 69/120/49
f 69/120/49 70/119/50 72/121/52 71/122/51
f 71/122/51 72/121/52 74/123/54 73/124/53
f 73/124/53 74/123/54 76/125/56 75/126/55
f 75/126/55 76/125/56 78/127/58 77/128/57
f 77/128/57 78/127/58 80/129/60 79/130/59
f 79/130/59 80/129/60 82/131/62 81/132/61
f 81/132/61 82/131/62 84/133/64 83/134/63
f 83/134/63 84/133/64 86/135/66 85/136/65
f 85/136/65 86/135/66 88/137/68 87/138/67
f 87/138/67 88/137/68 90/139/70 89/140/69
f 89/140/69 90/139/70 92/141/72 91/142/71
f 91/142/71 92/141/72 94/143/74 93/144/73
f 93/144/73 94/143/74 96/145/76 95/146/75
f 95/146/75 96/145/76 98/147/78 97/148/77
f 97/148/77 98/147/78 100/149/80 99/150/79
f 99/150/79 100/149/80 102/151/82 101/152/81
f 101/152/81 102/151/82 104/153/84 103/154/83
f 103/154/83 104/153/84 106/155/86 105/156/85
f 105/156/85 106/155/86 108/157/88 107/158/87
f 107/158/87 108/157/88 110/159/90 109/160/89
f 109/160/89 110/159/90 112/161/92 111/162/91
f 111/162/91 112/161/92 114/163/94 113/164/93
f 113/164/93 114/163/94 116/165/96 115/166/95
f 115/166/95 116/165/96 118/167/98 117/168/97
f 117/168/97 118/167/98 120/169/100 119/170/99
f 119/170/99 120/169/100 122/171/102 121/172/101
f 121/172/101 122/171/102 124/173/104 123/174/103
f 123/174/103 124/173/104 126/175/106 125/176/105
f 68/177/48 66/178/46 128/179/108 126/180/106 124/181/104 122/182/102 120/183/100 118/184/98 116/185/96 114/186/94 112/187/92 110/188/90 108/189/88 106/190/86 104/191/84 102/192/82 100/193/80 98/194/78 96/195/76 94/196/74 92/197/72 90/198/70 88/199/68 86/200/66 84/201/64 82/202/62 80/203/60 78/204/58 76/205/56 74/206/54 72/207/52 70/208/50
f 125/176/105 126/175/106 128/209/108 127/210/107
f 127/210/107 128/209/108 66/211/46 65/212/45
f 65/213/45 67/214/47 69/215/49 71/216/51 73/217/53 75/218/55 77/219/57 79/220/59 81/221/61 83/222/63 85/223/65 87/224/67 89/225/69 91/226/71 93/227/73 95/228/75 97/229/77 99/230/79 101/231/81 103/232/83 105/233/85 107/234/87 109/235/89 111/236/91 113/237/93 115/238/95 117/239/97 119/240/99 121/241/101 123/242/103 125/243/105 127/244/107
o Cylinder.001
v -0.500000 10.802192 -0.906778
v -0.500000 11.119363 -0.454963
v -0.519215 10.642517 -0.794687
v -0.519215 10.959688 -0.342873
v -0.576120 10.488979 -0.686905
v -0.576120 10.806149 -0.235090
v -0.668530 10.347477 -0.587571
v -0.668530 10.664648 -0.135756
v -0.792893 10.223450 -0.500505
v -0.792893 10.540621 -0.048690
v -0.944430 10.121663 -0.429052
v -0.944430 10.438834 0.022763
v -1.117316 10.046029 -0.375957
v -1.117316 10.363199 0.075858
v -1.304910 9.999454 -0.343261
v -1.304910 10.316625 0.108554
v -1.500000 9.983727 -0.332221
v -1.500000 10.300898 0.119594
v -1.695090 9.999454 -0.343261
v -1.695090 10.316625 0.108554
v -1.882684 10.046029 -0.375957
v -1.882684 10.363199 0.075858
v -2.055570 10.121663 -0.429052
v -2.055570 10.438834 0.022763
v -2.207107 10.223450 -0.500505
v -2.207107 10.540621 -0.048690
v -2.331470 10.347477 -0.587571
v -2.331470 10.664648 -0.135756
v -2.423880 10.488979 -0.686905
v -2.423880 10.806149 -0.235090
v -2.480785 10.642517 -0.794687
v -2.480785 10.959688 -0.342873
v -2.500000 10.802192 -0.906778
v -2.500000 11.119363 -0.454963
v -2.480785 10.961866 -1.018868
v -2.480785 11.279037 -0.567053
v -2.423880 11.115405 -1.126651
v -2.423880 11.432575 -0.674836
v -2.331470 11.256907 -1.225984
v -2.331470 11.574078 -0.774170
v -2.207107 11.380934 -1.313051
v -2.207107 11.698105 -0.861236
v -2.055570 11.482720 -1.384504
v -2.055570 11.799891 -0.932689
v -1.882684 11.558355 -1.437599
v -1.882684 11.875525 -0.985784
v -1.695090 11.604930 -1.470294
v -1.695090 11.922101 -1.018480
v -1.500000 11.620657 -1.481334
v -1.500000 11.937827 -1.029520
v -1.304910 11.604930 -1.470294
v -1.304910 11.922101 -1.018480
v -1.117316 11.558355 -1.437599
v -1.117316 11.875525 -0.985784
v -0.944430 11.482720 -1.384504
v -0.944430 11.799891 -0.932689
v -0.792893 11.380934 -1.313051
v -0.792893 11.698105 -0.861236
v -0.668530 11.256907 -1.225984
v -0.668530 11.574078 -0.774170
v -0.576120 11.115405 -1.126651
v -0.576120 11.432575 -0.674836
v -0.519215 10.961866 -1.018868
v -0.519215 11.279037 -0.567053
vn 0.2812 -0.5514 -0.7854
vn 0.2812 0.5514 0.7854
vn 0.2758 -0.5963 -0.7539
vn 0.2758 0.5065 0.8170
vn 0.2598 -0.6394 -0.7236
vn 0.2598 0.4633 0.8473
vn 0.2338 -0.6792 -0.6957
vn 0.2338 0.4235 0.8752
vn 0.1988 -0.7141 -0.6712
vn 0.1988 0.3887 0.8997
vn 0.1562 -0.7427 -0.6511
vn 0.1562 0.3600 0.9198
vn 0.1076 -0.7640 -0.6362
vn 0.1076 0.3388 0.9347
vn 0.0549 -0.7771 -0.6270
vn 0.0549 0.3257 0.9439
vn -0.0000 -0.7815 -0.6239
vn -0.0000 0.3212 0.9470
vn -0.0549 -0.7771 -0.6270
vn -0.0549 0.3257 0.9439
vn -0.1076 -0.7640 -0.6362
vn -0.1076 0.3388 0.9347
vn -0.1562 -0.7427 -0.6511
vn -0.1562 0.3600 0.9198
vn -0.1988 -0.7141 -0.6712
vn -0.1988 0.3887 0.8997
vn -0.2338 -0.6792 -0.6957
vn -0.2338 0.4235 0.8752
vn -0.2598 -0.6394 -0.7236
vn -0.2598 0.4633 0.8473
vn -0.2758 -0.5963 -0.7539
vn -0.2758 0.5065 0.8170
vn -0.2812 -0.5514 -0.7854
vn -0.2812 0.5514 0.7854
vn -0.2758 -0.5065 -0.8170
vn -0.2758 0.5963 0.7539
vn -0.2598 -0.4633 -0.8473
vn -0.2598 0.6394 0.7236
vn -0.2338 -0.4235 -0.8752
vn -0.2338 0.6792 0.6957
vn -0.1988 -0.3887 -0.8997
vn -0.1988 0.7141 0.6712
vn -0.1562 -0.3600 -0.9198
vn -0.1562 0.7427 0.6511
vn -0.1076 -0.3388 -0.9347
vn -0.1076 0.7640 0.6362
vn -0.0549 -0.3257 -0.9439
vn -0.0549 0.7771 0.6270
vn -0.0000 -0.3212 -0.9470
vn -0.0000 0.7815 0.6239
vn 0.0549 -0.3257 -0.9439
vn 0.0549 0.7771 0.6270
vn 0.1076 -0.3388 -0.9347
vn 0.1076 0.7640 0.6362
vn 0.1562 -0.3600 -0.9198
vn 0.1562 0.7427 0.6511
vn 0.1988 -0.3887 -0.8997
vn 0.1988 0.7141 0.6712
vn 0.2338 -0.4235 -0.8752
vn 0.2338 0.6792 0.6957
vn 0.2598 -0.4633 -0.8473
vn 0.2598 0.6394 0.7236
vn 0.2758 -0.5065 -0.8170
vn 0.2758 0.5963 0.7539
vt 0.995833 0.695218
vt 0.995833 1.030910
vt 0.974852 1.030910
vt 0.974852 0.695218
vt 0.953872 1.030910
vt 0.953872 0.695218
vt 0.932891 1.030910
vt 0.932891 0.695218
vt 0.911910 1.030910
vt 0.911910 0.695218
vt 0.890929 1.030910
vt 0.890929 0.695218
vt 0.869949 1.030910
vt 0.869949 0.695218
vt 0.848968 1.030910
vt 0.848968 0.695218
vt 0.827987 1.030910
vt 0.827987 0.695218
vt 0.807006 1.030910
vt 0.807006 0.695218
vt 0.786026 1.030910
vt 0.786026 0.695218
vt 0.765045 1.030910
vt 0.765045 0.695218
vt 0.744064 1.030910
vt 0.744064 0.695218
vt 0.723083 1.030910
vt 0.723083 0.695218
vt 0.702103 1.030910
vt 0.702103 0.695218
vt 0.681122 1.030910
vt 0.681122 0.695218
vt 0.660141 1.030910
vt 0.660141 0.695218
vt 0.639160 1.030910
vt 0.639160 0.695218
vt 0.618180 1.030910
vt 0.618180 0.695218
vt 0.597199 1.030910
vt 0.597199 0.695218
vt 0.576218 1.030910
vt 0.576218 0.695218
vt 0.555237 1.030910
vt 0.555237 0.695218
vt 0.534257 1.030910
vt 0.534257 0.695218
vt 0.513276 1.030910
vt 0.513276 0.695218
vt 0.492295 1.030910
vt 0.492295 0.695218
vt 0.471314 1.030910
vt 0.471314 0.695218
vt 0.450334 1.030910
vt 0.450334 0.695218
vt 0.429353 1.030910
vt 0.429353 0.695218
vt 0.408372 1.030910
vt 0.408372 0.695218
vt 0.387391 1.030910
vt 0.387391 0.695218
vt 0.366411 1.030910
vt 0.366411 0.695218
vt 0.523730 0.685408
vt 0.492295 0.688504
vt 0.460860 0.685408
vt 0.430632 0.676239
vt 0.402775 0.661349
vt 0.378357 0.641310
vt 0.358319 0.616892
vt 0.343428 0.589035
vt 0.334259 0.558807
vt 0.331163 0.527372
vt 0.334259 0.495937
vt 0.343428 0.465710
vt 0.358319 0.437852
vt 0.378357 0.413434
vt 0.402775 0.393396
vt 0.430632 0.378505
vt 0.460860 0.369336
vt 0.492295 0.366240
vt 0.523730 0.369336
vt 0.553958 0.378505
vt 0.581815 0.393396
vt 0.606233 0.413434
vt 0.626272 0.437852
vt 0.641162 0.465710
vt 0.650331 0.495937
vt 0.653427 0.527372
vt 0.650331 0.558807
vt 0.641162 0.589035
vt 0.626272 0.616892
vt 0.606233 0.641310
vt 0.581815 0.661349
vt 0.553958 0.676239
vt 0.345430 1.030910
vt 0.345430 0.695218
vt 0.324449 1.030910
vt 0.324449 0.695218
vt 0.827987 0.688504
vt 0.859422 0.685408
vt 0.889650 0.676239
vt 0.917507 0.661349
vt 0.941925 0.641310
vt 0.961964 0.616892
vt 0.976854 0.589035
vt 0.986023 0.558807
vt 0.989119 0.527372
vt 0.986023 0.495937
vt 0.976854 0.465710
vt 0.961964 0.437852
vt 0.941925 0.413434
vt 0.917507 0.393396
vt 0.889650 0.378505
vt 0.859422 0.369336
vt 0.827987 0.366240
vt 0.796552 0.369336
vt 0.766324 0.378505
vt 0.738467 0.393396
vt 0.714049 0.413434
vt 0.694011 0.437852
vt 0.679120 0.465710
vt 0.669951 0.495937
vt 0.666855 0.527372
vt 0.669951 0.558807
vt 0.679120 0.589035
vt 0.694011 0.616892
vt 0.714049 0.641310
vt 0.738467 0.661349
vt 0.766324 0.676239
vt 0.796552 0.685408
s 1
usemtl Material.008
f 129/245/109 130/246/110 132/247/112 131/248/111
f 131/248/111 132/247/112 134/249/114 133/250/113
f 133/250/113 134/249/114 136/251/116 135/252/115
f 135/252/115 136/251/116 138/253/118 137/254/117
f 137/254/117 138/253/118 140/255/120 139/256/119
f 139/256/119 140/255/120 142/257/122 141/258/121
f 141/258/121 142/257/122 144/259/124 143/260/123
f 143/260/123 144/259/124 146/261/126 145/262/125
f 145/262/125 146/261/126 148/263/128 147/264/127
f 147/264/127 148/263/128 150/265/130 149/266/129
f 149/266/129 150/265/130 152/267/132 151/268/131
f 151/268/131 152/267/132 154/269/134 153/270/133
f 153/270/133 154/269/134 156/271/136 155/272/135
f 155/272/135 156/271/136 158/273/138 157/274/137
f 157/274/137 158/273/138 160/275/140 159/276/139
f 159/276/139 160/275/140 162/277/142 161/278/141
f 161/278/141 162/277/142 164/279/144 163/280/143
f 163/280/143 164/279/144 166/281/146 165/282/145
f 165/282/145 166/281/146 168/283/148 167/284/147
f 167/284/147 168/283/148 170/285/150 169/286/149
f 169/286/149 170/285/150 172/287/152 171/288/151
f 171/288/151 172/287/152 174/289/154 173/290/153
f 173/290/153 174/289/154 176/291/156 175/292/155
f 175/292/155 176/291/156 178/293/158 177/294/157
f 177/294/157 178/293/158 180/295/160 179/296/159
f 179/296/159 180/295/160 182/297/162 181/298/161
f 181/298/161 182/297/162 184/299/164 183/300/163
f 183/300/163 184/299/164 186/301/166 185/302/165
f 185/302/165 186/301/166 188/303/168 187/304/167
f 187/304/167 188/303/168 190/305/170 189/306/169
f 132/307/112 130/308/110 192/309/172 190/310/170 188/311/168 186/312/166 184/313/164 182/314/162 180/315/160 178/316/158 176/317/156 174/318/154 172/319/152 170/320/150 168/321/148 166/322/146 164/323/144 162/324/142 160/325/140 158/326/138 156/327/136 154/328/134 152/329/132 150/330/130 148/331/128 146/332/126 144/333/124 142/334/122 140/335/120 138/336/118 136/337/116 134/338/114
f 189/306/169 190/305/170 192/339/172 191/340/171
f 191/340/171 192/339/172 130/341/110 129/342/109
f 129/343/109 131/344/111 133/345/113 135/346/115 137/347/117 139/348/119 141/349/121 143/350/123 145/351/125 147/352/127 149/353/129 151/354/131 153/355/133 155/356/135 157/357/137 159/358/139 161/359/141 163/360/143 165/361/145 167/362/147 169/363/149 171/364/151 173/365/153 175/366/155 177/367/157 179/368/159 181/369/161 183/370/163 185/371/165 187/372/167 189/373/169 191/374/171
o Cube.007
v -1.624526 9.706451 0.143727
v -1.624526 10.750046 -0.621019
v -1.472040 9.706451 0.143727
v -1.472040 10.750046 -0.621019
v -1.624526 9.796583 0.266724
v -1.624526 10.840178 -0.498022
v -1.472040 9.796583 0.266724
v -1.472040 10.840178 -0.498022
v -1.624526 10.228249 -0.238646
v -1.472040 10.228249 -0.238646
v -1.472040 10.318380 -0.115649
v -1.624526 10.318380 -0.115649
v -1.472040 9.967350 -0.047459
v -1.472040 10.057482 0.075537
v -1.624526 10.057482 0.075537
v -1.624526 9.967350 -0.047459
v -1.472040 9.836901 0.048134
v -1.472040 9.927032 0.171131
v -1.624526 9.927032 0.171131
v -1.624526 9.836901 0.048134
v 1.328512 9.836901 0.048134
v 1.328512 9.706451 0.143727
v 1.328512 9.796583 0.266724
v 1.328512 9.927032 0.171131
v 1.563482 9.836901 0.048134
v 1.563482 9.706451 0.143727
v 1.563482 9.796583 0.266724
v 1.563482 9.927032 0.171131
v 1.706418 9.836901 0.048134
v 1.706418 9.706451 0.143727
v 1.706418 9.796583 0.266724
v 1.706418 9.927032 0.171131
v 1.563482 10.576438 -0.493799
v 1.563482 10.666570 -0.370802
v 1.706418 10.576438 -0.493799
v 1.706418 10.666570 -0.370802
v 1.563482 10.704268 -0.587474
v 1.563482 10.794401 -0.464477
v 1.706418 10.704268 -0.587474
v 1.706418 10.794401 -0.464477
vn -0.0000 -0.5911 -0.8066
vn 1.0000 -0.0000 -0.0000
vn -0.0000 0.5911 0.8066
vn -1.0000 -0.0000 -0.0000
vn -0.0000 -0.8066 0.5911
vn -0.0000 0.8066 -0.5911
vt 0.500000 0.000000
vt 0.625000 0.000000
vt 0.625000 0.250000
vt 0.500000 0.250000
vt 0.625000 0.500000
vt 0.500000 0.500000
vt 0.625000 0.750000
vt 0.500000 0.750000
vt 0.625000 1.000000
vt 0.500000 1.000000
vt 0.125000 0.500000
vt 0.375000 0.500000
vt 0.375000 0.750000
vt 0.125000 0.750000
vt 0.875000 0.500000
vt 0.875000 0.750000
vt 0.437500 0.750000
vt 0.437500 1.000000
vt 0.437500 0.500000
vt 0.437500 0.250000
vt 0.437500 0.000000
vt 0.406250 0.000000
vt 0.406250 0.250000
vt 0.406250 0.500000
vt 0.406250 0.750000
vt 0.406250 1.000000
vt 0.375000 1.000000
vt 0.375000 0.000000
vt 0.375000 0.250000
s 0
usemtl Material.009
f 201/375/173 194/376/173 196/377/173 202/378/173
f 202/378/174 196/377/174 200/379/174 203/380/174
f 203/380/175 200/379/175 198/381/175 204/382/175
f 204/382/176 198/381/176 194/383/176 201/384/176
f 195/385/177 199/386/177 197/387/177 193/388/177
f 200/379/178 196/389/178 194/390/178 198/381/178
f 207/391/176 204/382/176 201/384/176 208/392/176
f 206/393/175 203/380/175 204/382/175 207/391/175
f 205/394/174 202/378/174 203/380/174 206/393/174
f 208/395/173 201/375/173 202/378/173 205/394/173
f 212/396/173 208/395/173 205/394/173 209/397/173
f 209/397/174 205/394/174 206/393/174 210/398/174
f 210/398/175 206/393/175 207/391/175 211/399/175
f 211/399/176 207/391/176 208/392/176 212/400/176
f 197/387/176 211/399/176 212/400/176 193/401/176
f 199/386/175 210/398/175 211/399/175 197/387/175
f 210/398/175 199/386/175 215/386/175 216/398/175
f 193/402/173 212/396/173 209/397/173 195/403/173
f 213/397/178 216/398/178 220/398/178 217/397/178
f 199/386/177 195/385/177 214/385/177 215/386/177
f 195/403/173 209/397/173 213/397/173 214/403/173
f 209/397/178 210/398/178 216/398/178 213/397/178
f 220/398/175 219/386/175 223/386/175 224/398/175
f 215/386/177 214/385/177 218/385/177 219/386/177
f 216/398/175 215/386/175 219/386/175 220/398/175
f 214/403/173 213/397/173 217/397/173 218/403/173
f 222/403/174 221/397/174 224/398/174 223/386/174
f 218/403/173 217/397/173 221/397/173 222/403/173
f 220/398/175 224/398/175 228/398/175 226/398/175
f 219/386/177 218/385/177 222/385/177 223/386/177
f 227/397/173 225/397/173 229/397/173 231/397/173
f 224/398/174 221/397/174 227/397/174 228/398/174
f 217/397/176 220/398/176 226/398/176 225/397/176
f 221/397/173 217/397/173 225/397/173 227/397/173
f 229/397/178 230/398/178 232/398/178 231/397/178
f 228/398/174 227/397/174 231/397/174 232/398/174
f 226/398/175 228/398/175 232/398/175 230/398/175
f 225/397/176 226/398/176 230/398/176 229/397/176
