# Blender 4.5.3 LTS
# www.blender.org
mtllib mur-alaizq.mtl
o ala1
v -0.501472 -0.100000 -2.100000
v -0.501472 -0.100000 -1.900000
v -9.980704 -0.100000 -2.664455
v -9.980704 -0.100000 -2.464455
v -0.501472 0.100000 -2.100000
v -0.501472 0.100000 -1.900000
v -9.980704 0.100000 -2.664455
v -9.980704 0.100000 -2.464455
v -4.800000 -0.100000 -2.100000
v -4.800000 -0.100000 -1.900000
v -4.800000 0.100000 -2.100000
v -4.800000 0.100000 -1.900000
v -2.650736 -0.100000 -0.524929
v -2.650736 0.100000 -0.324929
v -2.650736 -0.100000 -0.324929
v -2.650736 0.100000 -0.524929
v -7.831440 -0.100000 0.474862
v -7.831440 0.100000 0.274862
v -7.831440 -0.100000 0.274862
v -7.831440 0.100000 0.474862
v -4.716703 -0.080000 -1.953916
v -4.876703 -0.080000 -1.953916
v -4.716703 0.080000 -1.953916
v -4.876703 0.080000 -1.953916
v -4.796703 -0.080000 -4.354050
v -4.716703 -0.080000 -3.354050
v -4.876703 -0.080000 -3.354050
v -4.796703 -0.080000 -4.354050
v -4.716703 0.080000 -3.354050
v -4.796703 0.080000 -4.354050
v -4.796703 0.080000 -4.354050
v -4.876703 0.080000 -3.354050
v -9.913518 0.000000 -2.472197
v -9.871680 0.000000 -2.456881
v -9.947795 0.000000 -2.560611
v -9.829819 0.000000 -2.356312
v -9.606514 0.000000 -2.038760
v -9.328953 0.000000 -1.733843
v -9.003971 0.000000 -1.218985
v -8.639570 0.000000 -0.722487
v -8.244722 -0.000000 -0.168262
v -7.829151 -0.000000 0.381612
v -7.403090 -0.000000 0.062545
v -6.977027 -0.000000 -0.225898
v -6.561457 0.000000 -0.639463
v -6.166609 0.000000 -0.918089
v -5.802208 0.000000 -1.188920
v -5.477227 0.000000 -1.462310
v -5.199666 0.000000 -1.676969
v -5.015943 0.000000 -1.869845
v -4.812809 0.000000 -1.996689
v -4.713040 0.000000 -1.882376
v -4.781622 0.000000 -2.308438
v -4.790319 0.000000 -2.734500
v -4.812809 0.000000 -3.150071
v -4.805974 0.000000 -4.048656
v -5.199666 0.000000 -3.604689
v -5.477227 0.000000 -3.636550
v -5.802209 0.000000 -3.520118
v -6.166609 0.000000 -3.559925
v -6.561457 -0.000000 -3.178615
v -6.977028 0.000000 -4.235014
v -7.403090 0.000000 -3.584441
v -7.829152 -0.000000 -2.918905
v -8.244722 -0.000000 -3.229143
v -8.639570 0.000000 -4.120852
v -9.003971 0.000000 -3.897547
v -9.328953 0.000000 -3.619986
v -9.606514 0.000000 -3.295004
v -9.829819 0.000000 -2.930603
v -9.993370 0.000000 -2.823647
v -10.425434 0.000000 -3.092221
v -0.341296 -0.000000 -2.530599
v -0.388247 -0.000000 -2.641439
v -0.527297 -0.000000 -2.635789
v -0.753101 -0.000000 -2.475216
v -1.056982 -0.000000 -2.713010
v -1.427262 -0.000000 -3.511875
v -1.849711 -0.000000 -2.781251
v -2.308096 -0.000000 -2.517458
v -2.784800 -0.000000 -4.036032
v -3.261504 -0.000000 -2.989771
v -3.719888 -0.000000 -3.554317
v -4.142337 -0.000000 -3.144966
v -4.512618 -0.000000 -3.064572
v -4.816498 -0.000000 -3.928981
v -4.787376 -0.000000 -3.628896
v -4.783667 -0.000000 -3.170512
v -4.789830 -0.000000 -2.693808
v -4.793864 -0.000000 -2.217104
v -4.807770 -0.000000 -2.136010
v -4.816498 -0.000000 -1.978683
v -4.512618 -0.000000 -1.771556
v -4.142337 0.000000 -1.488069
v -3.719888 0.000000 -1.221477
v -3.261504 -0.000000 -0.847896
v -2.784800 0.000000 -0.505230
v -2.308096 0.000000 -0.654152
v -1.849711 0.000000 -1.017536
v -1.427262 -0.000000 -1.304522
v -1.056982 -0.000000 -1.577812
v -0.753101 -0.000000 -1.835925
v -0.557888 -0.000000 -1.962660
v -0.388247 -0.000000 -2.217104
vn -0.0000 -1.0000 -0.0000
vn -1.0000 -0.0000 -0.0000
vn -0.0000 1.0000 -0.0000
vn 1.0000 -0.0000 -0.0000
vn -0.5911 -0.0000 -0.8066
vn 0.5911 -0.0000 0.8066
vn 0.6167 -0.0000 0.7872
vn -0.6167 -0.0000 -0.7872
vn -0.5911 -0.0000 0.8066
vn 0.5911 -0.0000 -0.8066
vn 0.8072 -0.0000 -0.5902
vn -0.8072 -0.0000 0.5902
vn -0.0000 -0.0000 1.0000
vn -0.9968 -0.0000 -0.0797
vn 0.9968 -0.0000 -0.0797
vt 0.375000 0.187500
vt 0.625000 0.187500
vt 0.625000 0.250000
vt 0.375000 0.250000
vt 0.625000 0.500000
vt 0.375000 0.500000
vt 0.375000 0.687500
vt 0.625000 0.687500
vt 0.625000 0.750000
vt 0.375000 0.750000
vt 0.625000 1.000000
vt 0.375000 1.000000
vt 0.125000 0.687500
vt 0.125000 0.750000
vt 0.875000 0.687500
vt 0.875000 0.750000
vt 0.625000 0.562500
vt 0.875000 0.562500
vt 0.875000 0.625000
vt 0.625000 0.625000
vt 0.125000 0.562500
vt 0.375000 0.562500
vt 0.375000 0.625000
vt 0.125000 0.625000
vt 0.375000 0.062500
vt 0.625000 0.062500
vt 0.625000 0.125000
vt 0.375000 0.125000
vt 0.375000 0.000000
vt 0.625000 0.000000
vt 0.125000 0.500000
vt 0.875000 0.500000
vt 0.375000 0.625000
vt 0.125000 0.625000
vt 0.454837 0.500000
vt 0.454837 0.750000
vt 0.500000 0.000000
vt 0.500000 0.250000
vt 0.500000 1.000000
vt 0.000000 0.000000
s 0
usemtl Material.005
f 19/1/1 17/2/1 4/3/1 3/4/1
f 3/4/2 4/3/2 8/5/2 7/6/2
f 16/7/3 14/8/3 6/9/3 5/10/3
f 5/10/4 6/9/4 2/11/4 1/12/4
f 13/13/5 16/7/5 5/10/5 1/14/5
f 14/8/6 15/15/6 2/16/6 6/9/6
f 20/17/7 17/18/7 10/19/7 12/20/7
f 19/21/8 18/22/8 11/23/8 9/24/8
f 18/22/3 20/17/3 12/20/3 11/23/3
f 13/25/1 15/26/1 10/27/1 9/28/1
f 1/29/1 2/30/1 15/26/1 13/25/1
f 12/20/9 10/19/9 15/15/9 14/8/9
f 9/24/10 11/23/10 16/7/10 13/13/10
f 11/23/3 12/20/3 14/8/3 16/7/3
f 7/6/3 8/5/3 20/17/3 18/22/3
f 3/31/11 7/6/11 18/22/11 19/21/11
f 8/5/12 4/32/12 17/18/12 20/17/12
f 9/28/1 10/27/1 17/2/1 19/1/1
usemtl Material.006
f 24/5/13 22/32/13 21/16/13 23/9/13
f 31/33/14 28/34/14 27/31/14 32/35/14
f 25/34/15 30/33/15 29/36/15 26/14/15
f 28/34/13 31/33/13 30/33/13 25/34/13
f 25/28/1 26/37/1 21/30/1 22/3/1 27/38/1 28/28/1
f 29/36/4 23/9/4 21/11/4 26/39/4
f 27/38/2 22/3/2 24/5/2 32/35/2
f 31/33/3 32/35/3 24/5/3 23/9/3 29/36/3 30/33/3
usemtl Material.004
f 34/40/3 35/40/3 36/40/3 37/40/3 38/40/3 39/40/3 40/40/3 41/40/3 42/40/3 43/40/3 44/40/3 45/40/3 46/40/3 47/40/3 48/40/3 49/40/3 50/40/3 51/40/3 52/40/3 53/40/3 54/40/3 55/40/3 56/40/3 57/40/3 58/40/3 59/40/3 60/40/3 61/40/3 62/40/3 63/40/3 64/40/3 65/40/3 66/40/3 67/40/3 68/40/3 69/40/3 70/40/3 71/40/3 72/40/3 33/40/3
usemtl Material.012
f 74/40/3 75/40/3 76/40/3 77/40/3 78/40/3 79/40/3 80/40/3 81/40/3 82/40/3 83/40/3 84/40/3 85/40/3 86/40/3 87/40/3 88/40/3 89/40/3 90/40/3 91/40/3 92/40/3 93/40/3 94/40/3 95/40/3 96/40/3 97/40/3 98/40/3 99/40/3 100/40/3 101/40/3 102/40/3 103/40/3 104/40/3 73/40/3
