# Blender 4.5.3 LTS
# www.blender.org
mtllib repisas3.mtl
o Cube
v 9.000000 3.607039 -1.000000
v 9.000000 6.405785 -1.000000
v 11.000000 3.607039 -1.000000
v 11.000000 6.405785 -1.000000
v 9.000000 3.607039 1.000000
v 9.000000 6.405785 1.000000
v 11.000000 3.607039 1.000000
v 11.000000 6.405785 1.000000
v 9.335661 2.025170 -1.000000
v 9.335661 3.015847 -1.000000
v 10.664339 2.025170 -1.000000
v 10.664339 3.015847 -1.000000
v 9.335661 2.025170 -0.114404
v 9.335661 3.015847 1.000000
v 10.664339 2.025170 -0.114404
v 10.664339 3.015847 1.000000
v 11.502279 3.672044 1.157815
v 11.502279 3.002546 1.157815
v 8.497721 3.672044 1.157815
v 8.497721 3.002546 1.157815
v 11.502279 3.672044 -1.157815
v 11.502279 3.002546 -1.157815
v 8.497721 3.672044 -1.157815
v 8.497721 3.002546 -1.157815
vn -0.0000 -0.0000 -1.0000
vn 1.0000 -0.0000 -0.0000
vn -0.0000 -0.0000 1.0000
vn -1.0000 -0.0000 -0.0000
vn -0.0000 -1.0000 -0.0000
vn -0.0000 1.0000 -0.0000
vn -0.0000 -0.7474 0.6644
vt 1.023149 0.337296
vt 1.023149 0.673373
vt 0.814519 0.673373
vt 0.814519 0.337296
vt 0.605889 0.673373
vt 0.605889 0.337296
vt 0.397259 0.673373
vt 0.397259 0.337296
vt 0.188629 0.673373
vt 0.188629 0.337296
vt 0.605889 0.256113
vt 0.397259 0.256113
vt 0.605889 0.882003
vt 0.397259 0.882003
vt 0.375000 0.000000
vt 0.625000 0.000000
vt 0.625000 0.250000
vt 0.375000 0.250000
vt 0.625000 0.500000
vt 0.375000 0.500000
vt 0.625000 0.750000
vt 0.375000 0.750000
vt 0.625000 1.000000
vt 0.375000 1.000000
vt 0.125000 0.500000
vt 0.125000 0.750000
vt 0.875000 0.500000
vt 0.875000 0.750000
s 0
usemtl Material.016
f 1/1/1 2/2/1 4/3/1 3/4/1
f 3/4/2 4/3/2 8/5/2 7/6/2
f 7/6/3 8/5/3 6/7/3 5/8/3
f 5/8/4 6/7/4 2/9/4 1/10/4
f 3/11/5 7/6/5 5/8/5 1/12/5
f 8/5/6 4/13/6 2/14/6 6/7/6
usemtl Material.009
f 9/15/1 10/16/1 12/17/1 11/18/1
f 11/18/2 12/17/2 16/19/2 15/20/2
f 15/20/7 16/19/7 14/21/7 13/22/7
f 13/22/4 14/21/4 10/23/4 9/24/4
f 11/25/5 15/20/5 13/22/5 9/26/5
f 16/19/6 12/27/6 10/28/6 14/21/6
usemtl Material.010
f 17/19/6 21/27/6 23/28/6 19/21/6
f 20/22/4 19/21/4 23/23/4 24/24/4
f 24/15/1 23/16/1 21/17/1 22/18/1
f 22/25/5 18/20/5 20/22/5 24/26/5
f 18/20/3 17/19/3 19/21/3 20/22/3
f 22/18/2 21/17/2 17/19/2 18/20/2
o Cube.002
v -11.000000 3.607039 -1.000000
v -11.000000 6.405785 -1.000000
v -9.000000 3.607039 -1.000000
v -9.000000 6.405785 -1.000000
v -11.000000 3.607039 1.000000
v -11.000000 6.405785 1.000000
v -9.000000 3.607039 1.000000
v -9.000000 6.405785 1.000000
v -10.664339 2.025170 -1.000000
v -10.664339 3.015847 -1.000000
v -9.335661 2.025170 -1.000000
v -9.335661 3.015847 -1.000000
v -10.664339 2.025170 -0.114404
v -10.664339 3.015847 1.000000
v -9.335661 2.025170 -0.114404
v -9.335661 3.015847 1.000000
v -8.497721 3.672044 1.157815
v -8.497721 3.002546 1.157815
v -11.502279 3.672044 1.157815
v -11.502279 3.002546 1.157815
v -8.497721 3.672044 -1.157815
v -8.497721 3.002546 -1.157815
v -11.502279 3.672044 -1.157815
v -11.502279 3.002546 -1.157815
vn -0.0000 -0.0000 -1.0000
vn 1.0000 -0.0000 -0.0000
vn -0.0000 -0.0000 1.0000
vn -1.0000 -0.0000 -0.0000
vn -0.0000 -1.0000 -0.0000
vn -0.0000 1.0000 -0.0000
vn -0.0000 -0.7474 0.6644
vt 1.023149 0.337296
vt 1.023149 0.673373
vt 0.814519 0.673373
vt 0.814519 0.337296
vt 0.605889 0.673373
vt 0.605889 0.337296
vt 0.397259 0.673373
vt 0.397259 0.337296
vt 0.188629 0.673373
vt 0.188629 0.337296
vt 0.605889 0.256113
vt 0.397259 0.256113
vt 0.605889 0.882003
vt 0.397259 0.882003
vt 0.375000 0.000000
vt 0.625000 0.000000
vt 0.625000 0.250000
vt 0.375000 0.250000
vt 0.625000 0.500000
vt 0.375000 0.500000
vt 0.625000 0.750000
vt 0.375000 0.750000
vt 0.625000 1.000000
vt 0.375000 1.000000
vt 0.125000 0.500000
vt 0.125000 0.750000
vt 0.875000 0.500000
vt 0.875000 0.750000
s 0
usemtl Material.017
f 25/29/8 26/30/8 28/31/8 27/32/8
f 27/32/9 28/31/9 32/33/9 31/34/9
f 31/34/10 32/33/10 30/35/10 29/36/10
f 29/36/11 30/35/11 26/37/11 25/38/11
f 27/39/12 31/34/12 29/36/12 25/40/12
f 32/33/13 28/41/13 26/42/13 30/35/13
usemtl Material.008
f 33/43/8 34/44/8 36/45/8 35/46/8
f 35/46/9 36/45/9 40/47/9 39/48/9
f 39/48/14 40/47/14 38/49/14 37/50/14
f 37/50/11 38/49/11 34/51/11 33/52/11
f 35/53/12 39/48/12 37/50/12 33/54/12
f 40/47/13 36/55/13 34/56/13 38/49/13
usemtl Material.011
f 41/47/13 45/55/13 47/56/13 43/49/13
f 44/50/11 43/49/11 47/51/11 48/52/11
f 48/43/8 47/44/8 45/45/8 46/46/8
f 46/53/12 42/48/12 44/50/12 48/54/12
f 42/48/10 41/47/10 43/49/10 44/50/10
f 46/46/9 45/45/9 41/47/9 42/48/9
