# Blender 4.5.3 LTS
# www.blender.org
mtllib ropa.mtl
o Cube.001
v -0.500000 -0.435291 -15.700499
v 0.500000 -0.435291 -15.700499
v -0.500000 21.000000 -14.700499
v -0.500000 -0.435291 -14.700499
v 0.500000 21.000000 -14.700499
v 0.500000 -0.435291 -14.700499
v -0.500000 20.000000 -15.700499
v 0.500000 20.000000 -14.700499
v 0.500000 20.000000 -15.700499
v -0.500000 20.000000 -14.700499
v 0.500001 20.000000 0.299501
v 0.500001 21.000000 0.299501
v -0.499999 21.000000 0.299501
v -0.499999 20.000000 0.299501
v -0.500000 21.000000 -14.700499
v -0.500000 20.000000 -15.700499
v -0.500000 20.987688 -14.856933
v -0.500000 20.951057 -15.009516
v -0.500000 20.891006 -15.154489
v -0.500000 20.809017 -15.288283
v -0.500000 20.707108 -15.407605
v -0.500000 20.587786 -15.509516
v -0.500000 20.453991 -15.591505
v -0.500000 20.309017 -15.651555
v -0.500000 20.156435 -15.688187
v 0.500000 20.000000 -15.700499
v 0.500000 21.000000 -14.700499
v 0.500000 20.156435 -15.688187
v 0.500000 20.309017 -15.651555
v 0.500000 20.453991 -15.591505
v 0.500000 20.587786 -15.509516
v 0.500000 20.707108 -15.407605
v 0.500000 20.809017 -15.288284
v 0.500000 20.891006 -15.154490
v 0.500000 20.951057 -15.009516
v 0.500000 20.987688 -14.856933
v 0.500003 21.000000 15.299501
v -0.499997 21.000000 15.299501
v 0.500003 21.000000 15.299501
v -0.499997 21.000000 15.299501
vn -0.0000 1.0000 -0.0000
vn -0.0000 -1.0000 -0.0000
vn -1.0000 -0.0000 -0.0000
vn -0.0000 -0.0000 -1.0000
vn -0.0000 -0.0000 1.0000
vn 1.0000 -0.0000 -0.0000
vn -0.0000 0.9969 -0.0785
vn -0.0000 0.9724 -0.2334
vn -0.0000 0.9239 -0.3827
vn -0.0000 0.8526 -0.5225
vn -0.0000 0.7604 -0.6494
vn -0.0000 0.6494 -0.7604
vn -0.0000 0.5225 -0.8526
vn -0.0000 0.3827 -0.9239
vn -0.0000 0.2334 -0.9724
vn -0.0000 0.0785 -0.9969
vt 0.875000 0.750000
vt 0.875000 0.500000
vt 0.125000 0.500000
vt 0.375000 0.500000
vt 0.375000 0.750000
vt 0.125000 0.750000
vt 0.375000 0.250000
vt 0.500000 0.250000
vt 0.500000 0.500000
vt 0.500000 0.750000
vt 0.375000 0.000000
vt 0.500000 0.000000
vt 0.500000 1.000000
vt 0.375000 1.000000
vt 0.625000 0.000000
vt 0.625000 0.250000
vt 0.625000 1.000000
vt 0.696468 0.321468
vt 0.696468 0.928532
vt 0.717431 0.867602
vt 0.717431 0.382398
vt 0.696779 0.847513
vt 0.696779 0.402487
vt 0.675042 0.828614
vt 0.675042 0.421386
vt 0.652930 0.810994
vt 0.652930 0.439006
vt 0.602590 0.794820
vt 0.602590 0.455180
vt 0.573473 0.780362
vt 0.573473 0.469638
vt 0.556749 0.768030
vt 0.556749 0.481970
vt 0.538627 0.758398
vt 0.538627 0.491603
vt 0.519554 0.752169
vt 0.519554 0.497831
vt 0.500000 0.750000
s 0
usemtl Material
f 5/1/1 3/2/1 13/2/1 12/1/1
f 4/3/2 1/4/2 2/5/2 6/6/2
f 4/7/3 10/8/3 7/9/3 1/4/3
f 1/4/4 7/9/4 9/10/4 2/5/4
f 6/11/5 8/12/5 10/8/5 4/7/5
f 2/5/6 9/10/6 8/13/6 6/14/6
f 11/12/5 12/15/5 13/16/5 14/8/5
f 10/8/2 8/12/2 11/12/2 14/8/2
f 8/13/6 5/17/6 12/17/6 11/13/6
f 3/16/3 10/8/3 14/8/3 13/16/3
f 15/18/7 27/19/7 36/20/7 17/21/7
f 17/21/8 36/20/8 35/22/8 18/23/8
f 18/23/9 35/22/9 34/24/9 19/25/9
f 19/25/10 34/24/10 33/26/10 20/27/10
f 20/27/11 33/26/11 32/28/11 21/29/11
f 21/29/12 32/28/12 31/30/12 22/31/12
f 22/31/13 31/30/13 30/32/13 23/33/13
f 23/33/14 30/32/14 29/34/14 24/35/14
f 24/35/15 29/34/15 28/36/15 25/37/15
f 25/37/16 28/36/16 26/38/16 16/9/16
f 7/9/1 16/9/1 26/38/1 9/10/1
f 15/18/1 3/2/1 5/1/1 27/19/1
f 10/8/3 3/16/3 15/18/3 17/21/3 18/23/3 19/25/3 20/27/3 21/29/3 22/31/3 23/33/3 24/35/3 25/37/3 16/9/3 7/9/3
f 9/10/6 26/38/6 28/36/6 29/34/6 30/32/6 31/30/6 32/28/6 33/26/6 34/24/6 35/22/6 36/20/6 27/19/6 5/17/6 8/13/6
l 39 37
l 38 40
o Cube.002
v -0.359755 -0.406164 -14.950113
v 0.359755 -0.406164 -14.950113
v -0.359755 20.300213 -14.230602
v -0.359755 -0.406164 -14.230602
v 0.359755 20.300213 -14.230602
v 0.359755 -0.406164 -14.230602
v -0.359755 19.580702 -14.950113
v 0.359755 19.580702 -14.230602
v 0.359755 19.580702 -14.950113
v -0.359755 19.580702 -14.230602
v 0.359756 19.580702 0.311363
v 0.359756 20.300213 0.311363
v -0.359754 20.300213 0.311363
v -0.359754 19.580702 0.311363
v -0.359755 20.300213 -14.230602
v -0.359755 19.580702 -14.950113
v -0.359755 20.291353 -14.343159
v -0.359755 20.264997 -14.452944
v -0.359755 20.221790 -14.557254
v -0.359755 20.162798 -14.653521
v -0.359755 20.089472 -14.739373
v -0.359755 20.003620 -14.812698
v -0.359755 19.907352 -14.871691
v -0.359755 19.803043 -14.914898
v -0.359755 19.693258 -14.941255
v 0.359755 19.580702 -14.950113
v 0.359755 20.300213 -14.230602
v 0.359755 19.693258 -14.941255
v 0.359755 19.803043 -14.914898
v 0.359755 19.907352 -14.871691
v 0.359755 20.003620 -14.812698
v 0.359755 20.089472 -14.739373
v 0.359755 20.162798 -14.653521
v 0.359755 20.221790 -14.557254
v 0.359755 20.264997 -14.452944
v 0.359755 20.291353 -14.343159
vn -0.0000 1.0000 -0.0000
vn -0.0000 -1.0000 -0.0000
vn -1.0000 -0.0000 -0.0000
vn -0.0000 -0.0000 -1.0000
vn -0.0000 -0.0000 1.0000
vn 1.0000 -0.0000 -0.0000
vn -0.0000 0.9969 -0.0785
vn -0.0000 0.9724 -0.2334
vn -0.0000 0.9239 -0.3827
vn -0.0000 0.8526 -0.5225
vn -0.0000 0.7604 -0.6494
vn -0.0000 0.6494 -0.7604
vn -0.0000 0.5225 -0.8526
vn -0.0000 0.3827 -0.9239
vn -0.0000 0.2334 -0.9724
vn -0.0000 0.0785 -0.9969
vt 0.875000 0.750000
vt 0.875000 0.500000
vt 0.125000 0.500000
vt 0.375000 0.500000
vt 0.375000 0.750000
vt 0.125000 0.750000
vt 0.375000 0.250000
vt 0.500000 0.250000
vt 0.500000 0.500000
vt 0.500000 0.750000
vt 0.375000 0.000000
vt 0.500000 0.000000
vt 0.500000 1.000000
vt 0.375000 1.000000
vt 0.625000 0.000000
vt 0.625000 0.250000
vt 0.625000 1.000000
vt 0.696468 0.321468
vt 0.696468 0.928532
vt 0.717431 0.867602
vt 0.717431 0.382398
vt 0.696779 0.847513
vt 0.696779 0.402487
vt 0.675042 0.828614
vt 0.675042 0.421386
vt 0.652930 0.810994
vt 0.652930 0.439006
vt 0.602590 0.794820
vt 0.602590 0.455180
vt 0.573473 0.780362
vt 0.573473 0.469638
vt 0.556749 0.768030
vt 0.556749 0.481970
vt 0.538627 0.758398
vt 0.538627 0.491603
vt 0.519554 0.752169
vt 0.519554 0.497831
vt 0.500000 0.750000
s 0
usemtl Material.002
f 45/39/17 43/40/17 53/40/17 52/39/17
f 44/41/18 41/42/18 42/43/18 46/44/18
f 44/45/19 50/46/19 47/47/19 41/42/19
f 41/42/20 47/47/20 49/48/20 42/43/20
f 46/49/21 48/50/21 50/46/21 44/45/21
f 42/43/22 49/48/22 48/51/22 46/52/22
f 51/50/21 52/53/21 53/54/21 54/46/21
f 50/46/18 48/50/18 51/50/18 54/46/18
f 48/51/22 45/55/22 52/55/22 51/51/22
f 43/54/19 50/46/19 54/46/19 53/54/19
f 55/56/23 67/57/23 76/58/23 57/59/23
f 57/59/24 76/58/24 75/60/24 58/61/24
f 58/61/25 75/60/25 74/62/25 59/63/25
f 59/63/26 74/62/26 73/64/26 60/65/26
f 60/65/27 73/64/27 72/66/27 61/67/27
f 61/67/28 72/66/28 71/68/28 62/69/28
f 62/69/29 71/68/29 70/70/29 63/71/29
f 63/71/30 70/70/30 69/72/30 64/73/30
f 64/73/31 69/72/31 68/74/31 65/75/31
f 65/75/32 68/74/32 66/76/32 56/47/32
f 47/47/17 56/47/17 66/76/17 49/48/17
f 55/56/17 43/40/17 45/39/17 67/57/17
f 50/46/19 43/54/19 55/56/19 57/59/19 58/61/19 59/63/19 60/65/19 61/67/19 62/69/19 63/71/19 64/73/19 65/75/19 56/47/19 47/47/19
f 49/48/22 66/76/22 68/74/22 69/72/22 70/70/22 71/68/22 72/66/22 73/64/22 74/62/22 75/60/22 76/58/22 67/57/22 45/55/22 48/51/22
o Cube.003
v -0.295955 -0.438279 7.376703
v -0.295955 19.589735 7.376703
v 0.295955 -0.438279 7.376703
v 0.295955 19.589735 7.376703
v -0.295955 -0.438279 14.622601
v -0.295955 19.589735 14.622601
v 0.295955 -0.438279 14.622601
v 0.295955 19.589735 14.622601
v -0.295955 19.075727 7.376703
v 0.295955 19.075727 7.376703
v 0.295955 19.075727 14.622601
v -0.295955 19.075727 14.622601
v 0.295955 0.065914 7.376703
v 0.295955 0.065914 14.622601
v -0.295955 0.065914 14.622601
v -0.295955 0.065914 7.376703
v 0.295955 -0.438279 14.127818
v 0.295955 19.589735 14.127818
v -0.295955 -0.438279 14.127818
v -0.295955 19.589735 14.127818
v -0.295955 19.075727 14.127818
v 0.295955 19.075727 14.127818
v 0.295955 0.065914 14.127818
v -0.295955 0.065914 14.127818
v 0.295955 -0.438279 7.879480
v -0.295955 19.589735 7.879480
v -0.295955 19.075727 7.879480
v -0.295955 0.065914 7.879480
v 0.295955 19.589735 7.879480
v -0.295955 -0.438279 7.879480
v 0.295955 19.075727 7.879480
v 0.295955 0.065914 7.879480
v -0.444306 18.863361 7.882248
v -0.378651 18.941605 7.882248
v 0.378651 18.172817 7.882248
v 0.444306 18.251060 7.882248
v -0.444306 18.863361 14.134715
v -0.378651 18.941605 14.134715
v 0.378651 18.172817 14.134715
v 0.444306 18.251060 14.134715
v -0.444306 1.106150 7.882248
v -0.378651 1.184394 7.882248
v 0.378651 0.415606 7.882248
v 0.444306 0.493850 7.882248
v -0.444306 1.106150 14.134715
v -0.378651 1.184394 14.134715
v 0.378651 0.415606 14.134715
v 0.444306 0.493850 14.134715
v -0.444306 18.091938 7.882248
v -0.378651 18.170181 7.882248
v 0.378651 17.401394 7.882248
v 0.444306 17.479637 7.882248
v -0.444306 18.091938 14.134715
v -0.378651 18.170181 14.134715
v 0.378651 17.401394 14.134715
v 0.444306 17.479637 14.134715
v -0.444306 17.306149 7.882248
v -0.378651 17.384392 7.882248
v 0.378651 16.615604 7.882248
v 0.444306 16.693848 7.882248
v -0.444306 17.306149 14.134715
v -0.378651 17.384392 14.134715
v 0.378651 16.615604 14.134715
v 0.444306 16.693848 14.134715
v -0.444306 16.606148 7.882248
v -0.378651 16.684391 7.882248
v 0.378651 15.915604 7.882248
v 0.444306 15.993848 7.882248
v -0.444306 16.606148 14.134715
v -0.378651 16.684391 14.134715
v 0.378651 15.915604 14.134715
v 0.444306 15.993848 14.134715
v -0.444306 15.906149 7.882248
v -0.378651 15.984393 7.882248
v 0.378651 15.215606 7.882248
v 0.444306 15.293850 7.882248
v -0.444306 15.906149 14.134715
v -0.378651 15.984393 14.134715
v 0.378651 15.215606 14.134715
v 0.444306 15.293850 14.134715
v -0.444306 15.206148 7.882248
v -0.378651 15.284392 7.882248
v 0.378651 14.515605 7.882248
v 0.444306 14.593849 7.882248
v -0.444306 15.206148 14.134715
v -0.378651 15.284392 14.134715
v 0.378651 14.515605 14.134715
v 0.444306 14.593849 14.134715
v -0.444306 14.506148 7.882248
v -0.378651 14.584393 7.882248
v 0.378651 13.815605 7.882248
v 0.444306 13.893849 7.882248
v -0.444306 14.506148 14.134715
v -0.378651 14.584393 14.134715
v 0.378651 13.815605 14.134715
v 0.444306 13.893849 14.134715
v -0.444306 13.806149 7.882248
v -0.378651 13.884393 7.882248
v 0.378651 13.115605 7.882248
v 0.444306 13.193850 7.882248
v -0.444306 13.806149 14.134715
v -0.378651 13.884393 14.134715
v 0.378651 13.115605 14.134715
v 0.444306 13.193850 14.134715
v -0.444306 13.106149 7.882248
v -0.378651 13.184393 7.882248
v 0.378651 12.415606 7.882248
v 0.444306 12.493850 7.882248
v -0.444306 13.106149 14.134715
v -0.378651 13.184393 14.134715
v 0.378651 12.415606 14.134715
v 0.444306 12.493850 14.134715
v -0.444306 12.406149 7.882248
v -0.378651 12.484393 7.882248
v 0.378651 11.715606 7.882248
v 0.444306 11.793850 7.882248
v -0.444306 12.406149 14.134715
v -0.378651 12.484393 14.134715
v 0.378651 11.715606 14.134715
v 0.444306 11.793850 14.134715
v -0.444306 11.706148 7.882248
v -0.378651 11.784392 7.882248
v 0.378651 11.015605 7.882248
v 0.444306 11.093849 7.882248
v -0.444306 11.706148 14.134715
v -0.378651 11.784392 14.134715
v 0.378651 11.015605 14.134715
v 0.444306 11.093849 14.134715
v -0.444306 11.006148 7.882248
v -0.378651 11.084393 7.882248
v 0.378651 10.315605 7.882248
v 0.444306 10.393849 7.882248
v -0.444306 11.006148 14.134715
v -0.378651 11.084393 14.134715
v 0.378651 10.315605 14.134715
v 0.444306 10.393849 14.134715
v -0.444306 10.306149 7.882248
v -0.378651 10.384393 7.882248
v 0.378651 9.615605 7.882248
v 0.444306 9.693850 7.882248
v -0.444306 10.306149 14.134715
v -0.378651 10.384393 14.134715
v 0.378651 9.615605 14.134715
v 0.444306 9.693850 14.134715
v -0.444306 9.606149 7.882248
v -0.378651 9.684393 7.882248
v 0.378651 8.915606 7.882248
v 0.444306 8.993850 7.882248
v -0.444306 9.606149 14.134715
v -0.378651 9.684393 14.134715
v 0.378651 8.915606 14.134715
v 0.444306 8.993850 14.134715
v -0.444306 8.906149 7.882248
v -0.378651 8.984393 7.882248
v 0.378651 8.215606 7.882248
v 0.444306 8.293850 7.882248
v -0.444306 8.906149 14.134715
v -0.378651 8.984393 14.134715
v 0.378651 8.215606 14.134715
v 0.444306 8.293850 14.134715
v -0.444306 8.206149 7.882248
v -0.378651 8.284393 7.882248
v 0.378651 7.515606 7.882248
v 0.444306 7.593850 7.882248
v -0.444306 8.206149 14.134715
v -0.378651 8.284393 14.134715
v 0.378651 7.515606 14.134715
v 0.444306 7.593850 14.134715
v -0.444306 7.506148 7.882248
v -0.378651 7.584393 7.882248
v 0.378651 6.815605 7.882248
v 0.444306 6.893849 7.882248
v -0.444306 7.506148 14.134715
v -0.378651 7.584393 14.134715
v 0.378651 6.815605 14.134715
v 0.444306 6.893849 14.134715
v -0.444306 6.806149 7.882248
v -0.378651 6.884393 7.882248
v 0.378651 6.115605 7.882248
v 0.444306 6.193850 7.882248
v -0.444306 6.806149 14.134715
v -0.378651 6.884393 14.134715
v 0.378651 6.115605 14.134715
v 0.444306 6.193850 14.134715
v -0.444306 6.006148 7.882248
v -0.378651 6.084393 7.882248
v 0.378651 5.315605 7.882248
v 0.444306 5.393849 7.882248
v -0.444306 6.006148 14.134715
v -0.378651 6.084393 14.134715
v 0.378651 5.315605 14.134715
v 0.444306 5.393849 14.134715
v -0.444306 5.306149 7.882248
v -0.378651 5.384393 7.882248
v 0.378651 4.615605 7.882248
v 0.444306 4.693850 7.882248
v -0.444306 5.306149 14.134715
v -0.378651 5.384393 14.134715
v 0.378651 4.615605 14.134715
v 0.444306 4.693850 14.134715
v -0.444306 4.606150 7.882248
v -0.378651 4.684393 7.882248
v 0.378651 3.915606 7.882248
v 0.444306 3.993850 7.882248
v -0.444306 4.606150 14.134715
v -0.378651 4.684393 14.134715
v 0.378651 3.915606 14.134715
v 0.444306 3.993850 14.134715
v -0.444306 3.906149 7.882248
v -0.378651 3.984393 7.882248
v 0.378651 3.215606 7.882248
v 0.444306 3.293850 7.882248
v -0.444306 3.906149 14.134715
v -0.378651 3.984393 14.134715
v 0.378651 3.215606 14.134715
v 0.444306 3.293850 14.134715
v -0.444306 3.206149 7.882248
v -0.378651 3.284394 7.882248
v 0.378651 2.515606 7.882248
v 0.444306 2.593850 7.882248
v -0.444306 3.206149 14.134715
v -0.378651 3.284394 14.134715
v 0.378651 2.515606 14.134715
v 0.444306 2.593850 14.134715
v -0.444306 2.506149 7.882248
v -0.378651 2.584394 7.882248
v 0.378651 1.815606 7.882248
v 0.444306 1.893850 7.882248
v -0.444306 2.506149 14.134715
v -0.378651 2.584394 14.134715
v 0.378651 1.815606 14.134715
v 0.444306 1.893850 14.134715
v -0.444306 1.806149 7.882248
v -0.378651 1.884393 7.882248
v 0.378651 1.115606 7.882248
v 0.444306 1.193850 7.882248
v -0.444306 1.806149 14.134715
v -0.378651 1.884393 14.134715
v 0.378651 1.115606 14.134715
v 0.444306 1.193850 14.134715
vn -0.0000 -0.0000 -1.0000
vn 1.0000 -0.0000 -0.0000
vn -0.0000 -0.0000 1.0000
vn -1.0000 -0.0000 -0.0000
vn -0.0000 -1.0000 -0.0000
vn -0.0000 1.0000 -0.0000
vn 0.7660 -0.6428 -0.0000
vn -0.7660 0.6428 -0.0000
vn -0.6428 -0.7660 -0.0000
vn 0.6428 0.7660 -0.0000
vt 0.500000 0.000000
vt 0.625000 0.000000
vt 0.625000 0.250000
vt 0.500000 0.250000
vt 0.500000 0.375000
vt 0.625000 0.375000
vt 0.625000 0.500000
vt 0.500000 0.500000
vt 0.625000 0.750000
vt 0.500000 0.750000
vt 0.500000 0.937500
vt 0.625000 0.937500
vt 0.625000 1.000000
vt 0.500000 1.000000
vt 0.250000 0.500000
vt 0.375000 0.500000
vt 0.375000 0.750000
vt 0.250000 0.750000
vt 0.812500 0.500000
vt 0.875000 0.500000
vt 0.875000 0.750000
vt 0.812500 0.750000
vt 0.437500 0.937500
vt 0.437500 1.000000
vt 0.437500 0.500000
vt 0.437500 0.750000
vt 0.437500 0.375000
vt 0.437500 0.000000
vt 0.437500 0.250000
vt 0.375000 0.000000
vt 0.375000 0.250000
vt 0.375000 0.375000
vt 0.375000 0.937500
vt 0.375000 1.000000
vt 0.437500 0.875000
vt 0.375000 0.875000
vt 0.375000 0.312500
vt 0.437500 0.312500
vt 0.000000 0.000000
vt 0.500000 0.875000
vt 0.750000 0.500000
vt 0.750000 0.750000
vt 0.187500 0.500000
vt 0.187500 0.750000
vt 0.625000 0.875000
vt 0.500000 0.312500
vt 0.625000 0.312500
vt 0.125000 0.500000
vt 0.125000 0.750000
s 0
usemtl Material.004
f 85/77/33 78/78/33 80/79/33 86/80/33
f 98/81/34 94/82/34 84/83/34 87/84/34
f 87/84/35 84/83/35 82/85/35 88/86/35
f 103/87/36 102/88/36 78/89/36 85/90/36
f 93/91/37 83/92/37 81/93/37 95/94/37
f 105/95/38 80/96/38 78/97/38 102/98/38
f 104/99/36 103/87/36 85/90/36 92/100/36
f 90/101/35 87/84/35 88/86/35 91/102/35
f 99/103/34 98/81/34 87/84/34 90/101/34
f 92/104/33 85/77/33 86/80/33 89/105/33
f 77/106/33 92/104/33 89/105/33 79/107/33
f 93/108/34 99/103/34 90/101/34 83/92/34
f 83/92/35 90/101/35 91/102/35 81/93/35
f 106/109/36 104/99/36 92/100/36 77/110/36
f 81/93/36 91/102/36 100/111/36 95/112/36
f 101/113/34 108/114/34 99/115/34 93/115/34
f 91/102/36 88/86/36 97/116/36 100/111/36
f 84/83/38 94/117/38 96/118/38 82/85/38
f 101/119/37 93/91/37 95/94/37 106/120/37
f 88/86/36 82/85/36 96/121/36 97/116/36
f 107/122/34 105/123/34 94/82/34 98/81/34
f 86/80/34 80/79/34 105/123/34 107/122/34
f 79/124/37 101/119/37 106/120/37 77/125/37
f 89/105/34 86/80/34 107/122/34 108/114/34
f 79/107/34 89/105/34 108/114/34 101/113/34
f 95/112/36 100/111/36 104/99/36 106/109/36
f 94/117/38 105/95/38 102/98/38 96/118/38
f 97/116/36 96/121/36 102/88/36 103/87/36
f 101/115/35 108/115/35 107/115/35 103/115/35 104/115/35 106/115/35
f 107/115/37 98/81/37 97/116/37 103/115/37
f 97/115/35 100/115/35 95/115/35 93/115/35 99/115/35 98/115/35
f 99/115/38 108/115/38 104/115/38 100/115/38 91/115/38 90/115/38
usemtl Material.005
f 109/106/33 110/78/33 112/79/33 111/107/33
f 111/107/39 112/79/39 116/83/39 115/92/39
f 115/92/35 116/83/35 114/85/35 113/93/35
f 113/93/40 114/85/40 110/89/40 109/110/40
f 111/124/41 115/92/41 113/93/41 109/125/41
f 116/83/42 112/96/42 110/97/42 114/85/42
usemtl Material.006
f 117/106/33 118/78/33 120/79/33 119/107/33
f 119/107/39 120/79/39 124/83/39 123/92/39
f 123/92/35 124/83/35 122/85/35 121/93/35
f 121/93/40 122/85/40 118/89/40 117/110/40
f 119/124/41 123/92/41 121/93/41 117/125/41
f 124/83/42 120/96/42 118/97/42 122/85/42
usemtl Material.007
f 125/106/33 126/78/33 128/79/33 127/107/33
f 127/107/39 128/79/39 132/83/39 131/92/39
f 131/92/35 132/83/35 130/85/35 129/93/35
f 129/93/40 130/85/40 126/89/40 125/110/40
f 127/124/41 131/92/41 129/93/41 125/125/41
f 132/83/42 128/96/42 126/97/42 130/85/42
usemtl Material.008
f 133/106/33 134/78/33 136/79/33 135/107/33
f 135/107/39 136/79/39 140/83/39 139/92/39
f 139/92/35 140/83/35 138/85/35 137/93/35
f 137/93/40 138/85/40 134/89/40 133/110/40
f 135/124/41 139/92/41 137/93/41 133/125/41
f 140/83/42 136/96/42 134/97/42 138/85/42
usemtl Material.009
f 141/106/33 142/78/33 144/79/33 143/107/33
f 143/107/39 144/79/39 148/83/39 147/92/39
f 147/92/35 148/83/35 146/85/35 145/93/35
f 145/93/40 146/85/40 142/89/40 141/110/40
f 143/124/41 147/92/41 145/93/41 141/125/41
f 148/83/42 144/96/42 142/97/42 146/85/42
usemtl Material.010
f 149/106/33 150/78/33 152/79/33 151/107/33
f 151/107/39 152/79/39 156/83/39 155/92/39
f 155/92/35 156/83/35 154/85/35 153/93/35
f 153/93/40 154/85/40 150/89/40 149/110/40
f 151/124/41 155/92/41 153/93/41 149/125/41
f 156/83/42 152/96/42 150/97/42 154/85/42
usemtl Material.012
f 165/106/33 166/78/33 168/79/33 167/107/33
f 167/107/39 168/79/39 172/83/39 171/92/39
f 171/92/35 172/83/35 170/85/35 169/93/35
f 169/93/40 170/85/40 166/89/40 165/110/40
f 167/124/41 171/92/41 169/93/41 165/125/41
f 172/83/42 168/96/42 166/97/42 170/85/42
usemtl Material.013
f 173/106/33 174/78/33 176/79/33 175/107/33
f 175/107/39 176/79/39 180/83/39 179/92/39
f 179/92/35 180/83/35 178/85/35 177/93/35
f 177/93/40 178/85/40 174/89/40 173/110/40
f 175/124/41 179/92/41 177/93/41 173/125/41
f 180/83/42 176/96/42 174/97/42 178/85/42
usemtl Material.014
f 181/106/33 182/78/33 184/79/33 183/107/33
f 183/107/39 184/79/39 188/83/39 187/92/39
f 187/92/35 188/83/35 186/85/35 185/93/35
f 185/93/40 186/85/40 182/89/40 181/110/40
f 183/124/41 187/92/41 185/93/41 181/125/41
f 188/83/42 184/96/42 182/97/42 186/85/42
usemtl Material.015
f 189/106/33 190/78/33 192/79/33 191/107/33
f 191/107/39 192/79/39 196/83/39 195/92/39
f 195/92/35 196/83/35 194/85/35 193/93/35
f 193/93/40 194/85/40 190/89/40 189/110/40
f 191/124/41 195/92/41 193/93/41 189/125/41
f 196/83/42 192/96/42 190/97/42 194/85/42
usemtl Material.011
f 157/106/33 158/78/33 160/79/33 159/107/33
f 159/107/39 160/79/39 164/83/39 163/92/39
f 163/92/35 164/83/35 162/85/35 161/93/35
f 161/93/40 162/85/40 158/89/40 157/110/40
f 159/124/41 163/92/41 161/93/41 157/125/41
f 164/83/42 160/96/42 158/97/42 162/85/42
usemtl Material.017
f 205/106/33 206/78/33 208/79/33 207/107/33
f 207/107/39 208/79/39 212/83/39 211/92/39
f 211/92/35 212/83/35 210/85/35 209/93/35
f 209/93/40 210/85/40 206/89/40 205/110/40
f 207/124/41 211/92/41 209/93/41 205/125/41
f 212/83/42 208/96/42 206/97/42 210/85/42
usemtl Material.016
f 197/106/33 198/78/33 200/79/33 199/107/33
f 199/107/39 200/79/39 204/83/39 203/92/39
f 203/92/35 204/83/35 202/85/35 201/93/35
f 201/93/40 202/85/40 198/89/40 197/110/40
f 199/124/41 203/92/41 201/93/41 197/125/41
f 204/83/42 200/96/42 198/97/42 202/85/42
usemtl Material.019
f 221/106/33 222/78/33 224/79/33 223/107/33
f 223/107/39 224/79/39 228/83/39 227/92/39
f 227/92/35 228/83/35 226/85/35 225/93/35
f 225/93/40 226/85/40 222/89/40 221/110/40
f 223/124/41 227/92/41 225/93/41 221/125/41
f 228/83/42 224/96/42 222/97/42 226/85/42
usemtl Material.020
f 229/106/33 230/78/33 232/79/33 231/107/33
f 231/107/39 232/79/39 236/83/39 235/92/39
f 235/92/35 236/83/35 234/85/35 233/93/35
f 233/93/40 234/85/40 230/89/40 229/110/40
f 231/124/41 235/92/41 233/93/41 229/125/41
f 236/83/42 232/96/42 230/97/42 234/85/42
usemtl Material.018
f 213/106/33 214/78/33 216/79/33 215/107/33
f 215/107/39 216/79/39 220/83/39 219/92/39
f 219/92/35 220/83/35 218/85/35 217/93/35
f 217/93/40 218/85/40 214/89/40 213/110/40
f 215/124/41 219/92/41 217/93/41 213/125/41
f 220/83/42 216/96/42 214/97/42 218/85/42
usemtl Material.022
f 245/106/33 246/78/33 248/79/33 247/107/33
f 247/107/39 248/79/39 252/83/39 251/92/39
f 251/92/35 252/83/35 250/85/35 249/93/35
f 249/93/40 250/85/40 246/89/40 245/110/40
f 247/124/41 251/92/41 249/93/41 245/125/41
f 252/83/42 248/96/42 246/97/42 250/85/42
usemtl Material.023
f 253/106/33 254/78/33 256/79/33 255/107/33
f 255/107/39 256/79/39 260/83/39 259/92/39
f 259/92/35 260/83/35 258/85/35 257/93/35
f 257/93/40 258/85/40 254/89/40 253/110/40
f 255/124/41 259/92/41 257/93/41 253/125/41
f 260/83/42 256/96/42 254/97/42 258/85/42
usemtl Material.021
f 237/106/33 238/78/33 240/79/33 239/107/33
f 239/107/39 240/79/39 244/83/39 243/92/39
f 243/92/35 244/83/35 242/85/35 241/93/35
f 241/93/40 242/85/40 238/89/40 237/110/40
f 239/124/41 243/92/41 241/93/41 237/125/41
f 244/83/42 240/96/42 238/97/42 242/85/42
usemtl Material.025
f 269/106/33 270/78/33 272/79/33 271/107/33
f 271/107/39 272/79/39 276/83/39 275/92/39
f 275/92/35 276/83/35 274/85/35 273/93/35
f 273/93/40 274/85/40 270/89/40 269/110/40
f 271/124/41 275/92/41 273/93/41 269/125/41
f 276/83/42 272/96/42 270/97/42 274/85/42
usemtl Material.024
f 261/106/33 262/78/33 264/79/33 263/107/33
f 263/107/39 264/79/39 268/83/39 267/92/39
f 267/92/35 268/83/35 266/85/35 265/93/35
f 265/93/40 266/85/40 262/89/40 261/110/40
f 263/124/41 267/92/41 265/93/41 261/125/41
f 268/83/42 264/96/42 262/97/42 266/85/42
usemtl Material.027
f 285/106/33 286/78/33 288/79/33 287/107/33
f 287/107/39 288/79/39 292/83/39 291/92/39
f 291/92/35 292/83/35 290/85/35 289/93/35
f 289/93/40 290/85/40 286/89/40 285/110/40
f 287/124/41 291/92/41 289/93/41 285/125/41
f 292/83/42 288/96/42 286/97/42 290/85/42
usemtl Material.028
f 293/106/33 294/78/33 296/79/33 295/107/33
f 295/107/39 296/79/39 300/83/39 299/92/39
f 299/92/35 300/83/35 298/85/35 297/93/35
f 297/93/40 298/85/40 294/89/40 293/110/40
f 295/124/41 299/92/41 297/93/41 293/125/41
f 300/83/42 296/96/42 294/97/42 298/85/42
usemtl Material.026
f 277/106/33 278/78/33 280/79/33 279/107/33
f 279/107/39 280/79/39 284/83/39 283/92/39
f 283/92/35 284/83/35 282/85/35 281/93/35
f 281/93/40 282/85/40 278/89/40 277/110/40
f 279/124/41 283/92/41 281/93/41 277/125/41
f 284/83/42 280/96/42 278/97/42 282/85/42
usemtl Material.029
f 301/106/33 302/78/33 304/79/33 303/107/33
f 303/107/39 304/79/39 308/83/39 307/92/39
f 307/92/35 308/83/35 306/85/35 305/93/35
f 305/93/40 306/85/40 302/89/40 301/110/40
f 303/124/41 307/92/41 305/93/41 301/125/41
f 308/83/42 304/96/42 302/97/42 306/85/42
usemtl Material.030
f 309/106/33 310/78/33 312/79/33 311/107/33
f 311/107/39 312/79/39 316/83/39 315/92/39
f 315/92/35 316/83/35 314/85/35 313/93/35
f 313/93/40 314/85/40 310/89/40 309/110/40
f 311/124/41 315/92/41 313/93/41 309/125/41
f 316/83/42 312/96/42 310/97/42 314/85/42
o Cube.007
v 0.500000 -0.436888 16.000000
v -0.500000 -0.436888 16.000000
v 0.500000 21.000000 15.000000
v 0.500000 -0.436888 15.000000
v -0.500000 21.000000 15.000000
v -0.500000 -0.436888 15.000000
v 0.500000 20.000000 16.000000
v -0.500000 20.000000 15.000000
v -0.500000 20.000000 16.000000
v 0.500000 20.000000 15.000000
v -0.500000 20.000000 0.000000
v -0.500000 21.000000 0.000000
v 0.500000 21.000000 0.000000
v 0.500000 20.000000 0.000000
v 0.500000 21.000000 15.000000
v 0.500000 20.000000 16.000000
v 0.500000 20.987688 15.156434
v 0.500000 20.951057 15.309017
v 0.500000 20.891006 15.453991
v 0.500000 20.809017 15.587786
v 0.500000 20.707108 15.707107
v 0.500000 20.587786 15.809017
v 0.500000 20.453991 15.891006
v 0.500000 20.309017 15.951056
v 0.500000 20.156435 15.987688
v -0.500000 20.000000 16.000000
v -0.500000 21.000000 15.000000
v -0.500000 20.156435 15.987688
v -0.500000 20.309017 15.951056
v -0.500000 20.453991 15.891006
v -0.500000 20.587786 15.809017
v -0.500000 20.707108 15.707107
v -0.500000 20.809017 15.587786
v -0.500000 20.891006 15.453991
v -0.500000 20.951057 15.309017
v -0.500000 20.987688 15.156434
v -0.500000 21.000000 -15.000000
v 0.500000 21.000000 -15.000000
v -0.500000 21.000000 -15.000000
v 0.500000 21.000000 -15.000000
vn -0.0000 1.0000 -0.0000
vn -0.0000 -1.0000 -0.0000
vn 1.0000 -0.0000 -0.0000
vn -0.0000 -0.0000 1.0000
vn -0.0000 -0.0000 -1.0000
vn -1.0000 -0.0000 -0.0000
vn -0.0000 0.9969 0.0785
vn -0.0000 0.9724 0.2334
vn -0.0000 0.9239 0.3827
vn -0.0000 0.8526 0.5225
vn -0.0000 0.7604 0.6494
vn -0.0000 0.6494 0.7604
vn -0.0000 0.5225 0.8526
vn -0.0000 0.3827 0.9239
vn -0.0000 0.2334 0.9724
vn -0.0000 0.0785 0.9969
vt 0.875000 0.750000
vt 0.875000 0.500000
vt 0.125000 0.500000
vt 0.375000 0.500000
vt 0.375000 0.750000
vt 0.125000 0.750000
vt 0.375000 0.250000
vt 0.500000 0.250000
vt 0.500000 0.500000
vt 0.500000 0.750000
vt 0.375000 0.000000
vt 0.500000 0.000000
vt 0.500000 1.000000
vt 0.375000 1.000000
vt 0.625000 0.000000
vt 0.625000 0.250000
vt 0.625000 1.000000
vt 0.696468 0.321468
vt 0.696468 0.928532
vt 0.717431 0.867602
vt 0.717431 0.382398
vt 0.696779 0.847513
vt 0.696779 0.402487
vt 0.675042 0.828614
vt 0.675042 0.421386
vt 0.652930 0.810994
vt 0.652930 0.439006
vt 0.602590 0.794820
vt 0.602590 0.455180
vt 0.573473 0.780362
vt 0.573473 0.469638
vt 0.556749 0.768030
vt 0.556749 0.481970
vt 0.538627 0.758398
vt 0.538627 0.491603
vt 0.519554 0.752169
vt 0.519554 0.497831
vt 0.500000 0.750000
s 0
usemtl Material.112
f 321/126/43 319/127/43 329/127/43 328/126/43
f 320/128/44 317/129/44 318/130/44 322/131/44
f 320/132/45 326/133/45 323/134/45 317/129/45
f 317/129/46 323/134/46 325/135/46 318/130/46
f 322/136/47 324/137/47 326/133/47 320/132/47
f 318/130/48 325/135/48 324/138/48 322/139/48
f 327/137/47 328/140/47 329/141/47 330/133/47
f 326/133/44 324/137/44 327/137/44 330/133/44
f 324/138/48 321/142/48 328/142/48 327/138/48
f 319/141/45 326/133/45 330/133/45 329/141/45
f 331/143/49 343/144/49 352/145/49 333/146/49
f 333/146/50 352/145/50 351/147/50 334/148/50
f 334/148/51 351/147/51 350/149/51 335/150/51
f 335/150/52 350/149/52 349/151/52 336/152/52
f 336/152/53 349/151/53 348/153/53 337/154/53
f 337/154/54 348/153/54 347/155/54 338/156/54
f 338/156/55 347/155/55 346/157/55 339/158/55
f 339/158/56 346/157/56 345/159/56 340/160/56
f 340/160/57 345/159/57 344/161/57 341/162/57
f 341/162/58 344/161/58 342/163/58 332/134/58
f 323/134/43 332/134/43 342/163/43 325/135/43
f 331/143/43 319/127/43 321/126/43 343/144/43
f 326/133/45 319/141/45 331/143/45 333/146/45 334/148/45 335/150/45 336/152/45 337/154/45 338/156/45 339/158/45 340/160/45 341/162/45 332/134/45 323/134/45
f 325/135/48 342/163/48 344/161/48 345/159/48 346/157/48 347/155/48 348/153/48 349/151/48 350/149/48 351/147/48 352/145/48 343/144/48 321/142/48 324/138/48
l 355 353
l 354 356
o Cube.008
v 0.359755 -0.444157 15.314180
v -0.359755 -0.444157 15.314180
v 0.359755 20.300213 14.594669
v 0.359755 -0.444157 14.594669
v -0.359755 20.300213 14.594669
v -0.359755 -0.444157 14.594669
v 0.359755 19.580702 15.314180
v -0.359755 19.580702 14.594669
v -0.359755 19.580702 15.314180
v 0.359755 19.580702 14.594669
v -0.359755 19.580702 0.052704
v -0.359755 20.300213 0.052704
v 0.359755 20.300213 0.052704
v 0.359755 19.580702 0.052704
v 0.359755 20.300213 14.594669
v 0.359755 19.580702 15.314180
v 0.359755 20.291353 14.707226
v 0.359755 20.264997 14.817011
v 0.359755 20.221790 14.921321
v 0.359755 20.162798 15.017588
v 0.359755 20.089472 15.103440
v 0.359755 20.003620 15.176765
v 0.359755 19.907352 15.235758
v 0.359755 19.803043 15.278965
v 0.359755 19.693258 15.305322
v -0.359755 19.580702 15.314180
v -0.359755 20.300213 14.594669
v -0.359755 19.693258 15.305322
v -0.359755 19.803043 15.278965
v -0.359755 19.907352 15.235758
v -0.359755 20.003620 15.176765
v -0.359755 20.089472 15.103440
v -0.359755 20.162798 15.017588
v -0.359755 20.221790 14.921321
v -0.359755 20.264997 14.817011
v -0.359755 20.291353 14.707226
vn -0.0000 1.0000 -0.0000
vn -0.0000 -1.0000 -0.0000
vn 1.0000 -0.0000 -0.0000
vn -0.0000 -0.0000 1.0000
vn -0.0000 -0.0000 -1.0000
vn -1.0000 -0.0000 -0.0000
vn -0.0000 0.9969 0.0785
vn -0.0000 0.9724 0.2334
vn -0.0000 0.9239 0.3827
vn -0.0000 0.8526 0.5225
vn -0.0000 0.7604 0.6494
vn -0.0000 0.6494 0.7604
vn -0.0000 0.5225 0.8526
vn -0.0000 0.3827 0.9239
vn -0.0000 0.2334 0.9724
vn -0.0000 0.0785 0.9969
vt 0.875000 0.750000
vt 0.875000 0.500000
vt 0.125000 0.500000
vt 0.375000 0.500000
vt 0.375000 0.750000
vt 0.125000 0.750000
vt 0.375000 0.250000
vt 0.500000 0.250000
vt 0.500000 0.500000
vt 0.500000 0.750000
vt 0.375000 0.000000
vt 0.500000 0.000000
vt 0.500000 1.000000
vt 0.375000 1.000000
vt 0.625000 0.000000
vt 0.625000 0.250000
vt 0.625000 1.000000
vt 0.696468 0.321468
vt 0.696468 0.928532
vt 0.717431 0.867602
vt 0.717431 0.382398
vt 0.696779 0.847513
vt 0.696779 0.402487
vt 0.675042 0.828614
vt 0.675042 0.421386
vt 0.652930 0.810994
vt 0.652930 0.439006
vt 0.602590 0.794820
vt 0.602590 0.455180
vt 0.573473 0.780362
vt 0.573473 0.469638
vt 0.556749 0.768030
vt 0.556749 0.481970
vt 0.538627 0.758398
vt 0.538627 0.491603
vt 0.519554 0.752169
vt 0.519554 0.497831
vt 0.500000 0.750000
s 0
usemtl Material.113
f 361/164/59 359/165/59 369/165/59 368/164/59
f 360/166/60 357/167/60 358/168/60 362/169/60
f 360/170/61 366/171/61 363/172/61 357/167/61
f 357/167/62 363/172/62 365/173/62 358/168/62
f 362/174/63 364/175/63 366/171/63 360/170/63
f 358/168/64 365/173/64 364/176/64 362/177/64
f 367/175/63 368/178/63 369/179/63 370/171/63
f 366/171/60 364/175/60 367/175/60 370/171/60
f 364/176/64 361/180/64 368/180/64 367/176/64
f 359/179/61 366/171/61 370/171/61 369/179/61
f 371/181/65 383/182/65 392/183/65 373/184/65
f 373/184/66 392/183/66 391/185/66 374/186/66
f 374/186/67 391/185/67 390/187/67 375/188/67
f 375/188/68 390/187/68 389/189/68 376/190/68
f 376/190/69 389/189/69 388/191/69 377/192/69
f 377/192/70 388/191/70 387/193/70 378/194/70
f 378/194/71 387/193/71 386/195/71 379/196/71
f 379/196/72 386/195/72 385/197/72 380/198/72
f 380/198/73 385/197/73 384/199/73 381/200/73
f 381/200/74 384/199/74 382/201/74 372/172/74
f 363/172/59 372/172/59 382/201/59 365/173/59
f 371/181/59 359/165/59 361/164/59 383/182/59
f 366/171/61 359/179/61 371/181/61 373/184/61 374/186/61 375/188/61 376/190/61 377/192/61 378/194/61 379/196/61 380/198/61 381/200/61 372/172/61 363/172/61
f 365/173/64 382/201/64 384/199/64 385/197/64 386/195/64 387/193/64 388/191/64 389/189/64 390/187/64 391/185/64 392/183/64 383/182/64 361/180/64 364/176/64
o Cube.004
v -0.295955 -0.438279 0.216361
v -0.295955 19.589735 0.216361
v 0.295955 -0.438279 0.216361
v 0.295955 19.589735 0.216361
v -0.295955 -0.438279 7.462259
v -0.295955 19.589735 7.462259
v 0.295955 -0.438279 7.462259
v 0.295955 19.589735 7.462259
v -0.295955 19.075727 0.216361
v 0.295955 19.075727 0.216361
v 0.295955 19.075727 7.462259
v -0.295955 19.075727 7.462259
v 0.295955 0.065914 0.216361
v 0.295955 0.065914 7.462259
v -0.295955 0.065914 7.462259
v -0.295955 0.065914 0.216361
v 0.295955 -0.438279 6.967476
v 0.295955 19.589735 6.967476
v -0.295955 -0.438279 6.967476
v -0.295955 19.589735 6.967476
v -0.295955 19.075727 6.967476
v 0.295955 19.075727 6.967476
v 0.295955 0.065914 6.967476
v -0.295955 0.065914 6.967476
v 0.295955 -0.438279 0.719138
v -0.295955 19.589735 0.719138
v -0.295955 19.075727 0.719138
v -0.295955 0.065914 0.719138
v 0.295955 19.589735 0.719138
v -0.295955 -0.438279 0.719138
v 0.295955 19.075727 0.719138
v 0.295955 0.065914 0.719138
v -0.444306 18.863361 0.721906
v -0.378651 18.941605 0.721906
v 0.378651 18.172817 0.721906
v 0.444306 18.251060 0.721906
v -0.444306 18.863361 6.974373
v -0.378651 18.941605 6.974373
v 0.378651 18.172817 6.974373
v 0.444306 18.251060 6.974373
v -0.444306 1.106150 0.721906
v -0.378651 1.184394 0.721906
v 0.378651 0.415606 0.721906
v 0.444306 0.493850 0.721906
v -0.444306 1.106150 6.974373
v -0.378651 1.184394 6.974373
v 0.378651 0.415606 6.974373
v 0.444306 0.493850 6.974373
v -0.444306 18.091938 0.721906
v -0.378651 18.170181 0.721906
v 0.378651 17.401394 0.721906
v 0.444306 17.479637 0.721906
v -0.444306 18.091938 6.974373
v -0.378651 18.170181 6.974373
v 0.378651 17.401394 6.974373
v 0.444306 17.479637 6.974373
v -0.444306 17.306149 0.721906
v -0.378651 17.384392 0.721906
v 0.378651 16.615604 0.721906
v 0.444306 16.693848 0.721906
v -0.444306 17.306149 6.974373
v -0.378651 17.384392 6.974373
v 0.378651 16.615604 6.974373
v 0.444306 16.693848 6.974373
v -0.444306 16.606148 0.721906
v -0.378651 16.684391 0.721906
v 0.378651 15.915604 0.721906
v 0.444306 15.993848 0.721906
v -0.444306 16.606148 6.974373
v -0.378651 16.684391 6.974373
v 0.378651 15.915604 6.974373
v 0.444306 15.993848 6.974373
v -0.444306 15.906149 0.721906
v -0.378651 15.984393 0.721906
v 0.378651 15.215606 0.721906
v 0.444306 15.293850 0.721906
v -0.444306 15.906149 6.974373
v -0.378651 15.984393 6.974373
v 0.378651 15.215606 6.974373
v 0.444306 15.293850 6.974373
v -0.444306 15.206148 0.721906
v -0.378651 15.284392 0.721906
v 0.378651 14.515605 0.721906
v 0.444306 14.593849 0.721906
v -0.444306 15.206148 6.974373
v -0.378651 15.284392 6.974373
v 0.378651 14.515605 6.974373
v 0.444306 14.593849 6.974373
v -0.444306 14.506148 0.721906
v -0.378651 14.584393 0.721906
v 0.378651 13.815605 0.721906
v 0.444306 13.893849 0.721906
v -0.444306 14.506148 6.974373
v -0.378651 14.584393 6.974373
v 0.378651 13.815605 6.974373
v 0.444306 13.893849 6.974373
v -0.444306 13.806149 0.721906
v -0.378651 13.884393 0.721906
v 0.378651 13.115605 0.721906
v 0.444306 13.193850 0.721906
v -0.444306 13.806149 6.974373
v -0.378651 13.884393 6.974373
v 0.378651 13.115605 6.974373
v 0.444306 13.193850 6.974373
v -0.444306 13.106149 0.721906
v -0.378651 13.184393 0.721906
v 0.378651 12.415606 0.721906
v 0.444306 12.493850 0.721906
v -0.444306 13.106149 6.974373
v -0.378651 13.184393 6.974373
v 0.378651 12.415606 6.974373
v 0.444306 12.493850 6.974373
v -0.444306 12.406149 0.721906
v -0.378651 12.484393 0.721906
v 0.378651 11.715606 0.721906
v 0.444306 11.793850 0.721906
v -0.444306 12.406149 6.974373
v -0.378651 12.484393 6.974373
v 0.378651 11.715606 6.974373
v 0.444306 11.793850 6.974373
v -0.444306 11.706148 0.721906
v -0.378651 11.784392 0.721906
v 0.378651 11.015605 0.721906
v 0.444306 11.093849 0.721906
v -0.444306 11.706148 6.974373
v -0.378651 11.784392 6.974373
v 0.378651 11.015605 6.974373
v 0.444306 11.093849 6.974373
v -0.444306 11.006148 0.721906
v -0.378651 11.084393 0.721906
v 0.378651 10.315605 0.721906
v 0.444306 10.393849 0.721906
v -0.444306 11.006148 6.974373
v -0.378651 11.084393 6.974373
v 0.378651 10.315605 6.974373
v 0.444306 10.393849 6.974373
v -0.444306 10.306149 0.721906
v -0.378651 10.384393 0.721906
v 0.378651 9.615605 0.721906
v 0.444306 9.693850 0.721906
v -0.444306 10.306149 6.974373
v -0.378651 10.384393 6.974373
v 0.378651 9.615605 6.974373
v 0.444306 9.693850 6.974373
v -0.444306 9.606149 0.721906
v -0.378651 9.684393 0.721906
v 0.378651 8.915606 0.721906
v 0.444306 8.993850 0.721906
v -0.444306 9.606149 6.974373
v -0.378651 9.684393 6.974373
v 0.378651 8.915606 6.974373
v 0.444306 8.993850 6.974373
v -0.444306 8.906149 0.721906
v -0.378651 8.984393 0.721906
v 0.378651 8.215606 0.721906
v 0.444306 8.293850 0.721906
v -0.444306 8.906149 6.974373
v -0.378651 8.984393 6.974373
v 0.378651 8.215606 6.974373
v 0.444306 8.293850 6.974373
v -0.444306 8.206149 0.721906
v -0.378651 8.284393 0.721906
v 0.378651 7.515606 0.721906
v 0.444306 7.593850 0.721906
v -0.444306 8.206149 6.974373
v -0.378651 8.284393 6.974373
v 0.378651 7.515606 6.974373
v 0.444306 7.593850 6.974373
v -0.444306 7.506148 0.721906
v -0.378651 7.584393 0.721906
v 0.378651 6.815605 0.721906
v 0.444306 6.893849 0.721906
v -0.444306 7.506148 6.974373
v -0.378651 7.584393 6.974373
v 0.378651 6.815605 6.974373
v 0.444306 6.893849 6.974373
v -0.444306 6.806149 0.721906
v -0.378651 6.884393 0.721906
v 0.378651 6.115605 0.721906
v 0.444306 6.193850 0.721906
v -0.444306 6.806149 6.974373
v -0.378651 6.884393 6.974373
v 0.378651 6.115605 6.974373
v 0.444306 6.193850 6.974373
v -0.444306 6.006148 0.721906
v -0.378651 6.084393 0.721906
v 0.378651 5.315605 0.721906
v 0.444306 5.393849 0.721906
v -0.444306 6.006148 6.974373
v -0.378651 6.084393 6.974373
v 0.378651 5.315605 6.974373
v 0.444306 5.393849 6.974373
v -0.444306 5.306149 0.721906
v -0.378651 5.384393 0.721906
v 0.378651 4.615605 0.721906
v 0.444306 4.693850 0.721906
v -0.444306 5.306149 6.974373
v -0.378651 5.384393 6.974373
v 0.378651 4.615605 6.974373
v 0.444306 4.693850 6.974373
v -0.444306 4.606150 0.721906
v -0.378651 4.684393 0.721906
v 0.378651 3.915606 0.721906
v 0.444306 3.993850 0.721906
v -0.444306 4.606150 6.974373
v -0.378651 4.684393 6.974373
v 0.378651 3.915606 6.974373
v 0.444306 3.993850 6.974373
v -0.444306 3.906149 0.721906
v -0.378651 3.984393 0.721906
v 0.378651 3.215606 0.721906
v 0.444306 3.293850 0.721906
v -0.444306 3.906149 6.974373
v -0.378651 3.984393 6.974373
v 0.378651 3.215606 6.974373
v 0.444306 3.293850 6.974373
v -0.444306 3.206149 0.721906
v -0.378651 3.284394 0.721906
v 0.378651 2.515606 0.721906
v 0.444306 2.593850 0.721906
v -0.444306 3.206149 6.974373
v -0.378651 3.284394 6.974373
v 0.378651 2.515606 6.974373
v 0.444306 2.593850 6.974373
v -0.444306 2.506149 0.721906
v -0.378651 2.584394 0.721906
v 0.378651 1.815606 0.721906
v 0.444306 1.893850 0.721906
v -0.444306 2.506149 6.974373
v -0.378651 2.584394 6.974373
v 0.378651 1.815606 6.974373
v 0.444306 1.893850 6.974373
v -0.444306 1.806149 0.721906
v -0.378651 1.884393 0.721906
v 0.378651 1.115606 0.721906
v 0.444306 1.193850 0.721906
v -0.444306 1.806149 6.974373
v -0.378651 1.884393 6.974373
v 0.378651 1.115606 6.974373
v 0.444306 1.193850 6.974373
vn -0.0000 -0.0000 -1.0000
vn 1.0000 -0.0000 -0.0000
vn -0.0000 -0.0000 1.0000
vn -1.0000 -0.0000 -0.0000
vn -0.0000 -1.0000 -0.0000
vn -0.0000 1.0000 -0.0000
vn 0.7660 -0.6428 -0.0000
vn -0.7660 0.6428 -0.0000
vn -0.6428 -0.7660 -0.0000
vn 0.6428 0.7660 -0.0000
vt 0.500000 0.000000
vt 0.625000 0.000000
vt 0.625000 0.250000
vt 0.500000 0.250000
vt 0.500000 0.375000
vt 0.625000 0.375000
vt 0.625000 0.500000
vt 0.500000 0.500000
vt 0.625000 0.750000
vt 0.500000 0.750000
vt 0.500000 0.937500
vt 0.625000 0.937500
vt 0.625000 1.000000
vt 0.500000 1.000000
vt 0.250000 0.500000
vt 0.375000 0.500000
vt 0.375000 0.750000
vt 0.250000 0.750000
vt 0.812500 0.500000
vt 0.875000 0.500000
vt 0.875000 0.750000
vt 0.812500 0.750000
vt 0.437500 0.937500
vt 0.437500 1.000000
vt 0.437500 0.500000
vt 0.437500 0.750000
vt 0.437500 0.375000
vt 0.437500 0.000000
vt 0.437500 0.250000
vt 0.375000 0.000000
vt 0.375000 0.250000
vt 0.375000 0.375000
vt 0.375000 0.937500
vt 0.375000 1.000000
vt 0.437500 0.875000
vt 0.375000 0.875000
vt 0.375000 0.312500
vt 0.437500 0.312500
vt 0.000000 0.000000
vt 0.500000 0.875000
vt 0.750000 0.500000
vt 0.750000 0.750000
vt 0.187500 0.500000
vt 0.187500 0.750000
vt 0.625000 0.875000
vt 0.500000 0.312500
vt 0.625000 0.312500
vt 0.125000 0.500000
vt 0.125000 0.750000
s 0
usemtl Material.114
f 401/202/75 394/203/75 396/204/75 402/205/75
f 414/206/76 410/207/76 400/208/76 403/209/76
f 403/209/77 400/208/77 398/210/77 404/211/77
f 419/212/78 418/213/78 394/214/78 401/215/78
f 409/216/79 399/217/79 397/218/79 411/219/79
f 421/220/80 396/221/80 394/222/80 418/223/80
f 420/224/78 419/212/78 401/215/78 408/225/78
f 406/226/77 403/209/77 404/211/77 407/227/77
f 415/228/76 414/206/76 403/209/76 406/226/76
f 408/229/75 401/202/75 402/205/75 405/230/75
f 393/231/75 408/229/75 405/230/75 395/232/75
f 409/233/76 415/228/76 406/226/76 399/217/76
f 399/217/77 406/226/77 407/227/77 397/218/77
f 422/234/78 420/224/78 408/225/78 393/235/78
f 397/218/78 407/227/78 416/236/78 411/237/78
f 417/238/76 424/239/76 415/240/76 409/240/76
f 407/227/78 404/211/78 413/241/78 416/236/78
f 400/208/80 410/242/80 412/243/80 398/210/80
f 417/244/79 409/216/79 411/219/79 422/245/79
f 404/211/78 398/210/78 412/246/78 413/241/78
f 423/247/76 421/248/76 410/207/76 414/206/76
f 402/205/76 396/204/76 421/248/76 423/247/76
f 395/249/79 417/244/79 422/245/79 393/250/79
f 405/230/76 402/205/76 423/247/76 424/239/76
f 395/232/76 405/230/76 424/239/76 417/238/76
f 411/237/78 416/236/78 420/224/78 422/234/78
f 410/242/80 421/220/80 418/223/80 412/243/80
f 413/241/78 412/246/78 418/213/78 419/212/78
f 417/240/77 424/240/77 423/240/77 419/240/77 420/240/77 422/240/77
f 423/240/79 414/206/79 413/241/79 419/240/79
f 413/240/77 416/240/77 411/240/77 409/240/77 415/240/77 414/240/77
f 415/240/80 424/240/80 420/240/80 416/240/80 407/240/80 406/240/80
usemtl Material.115
f 425/231/75 426/203/75 428/204/75 427/232/75
f 427/232/81 428/204/81 432/208/81 431/217/81
f 431/217/77 432/208/77 430/210/77 429/218/77
f 429/218/82 430/210/82 426/214/82 425/235/82
f 427/249/83 431/217/83 429/218/83 425/250/83
f 432/208/84 428/221/84 426/222/84 430/210/84
usemtl Material.116
f 433/231/75 434/203/75 436/204/75 435/232/75
f 435/232/81 436/204/81 440/208/81 439/217/81
f 439/217/77 440/208/77 438/210/77 437/218/77
f 437/218/82 438/210/82 434/214/82 433/235/82
f 435/249/83 439/217/83 437/218/83 433/250/83
f 440/208/84 436/221/84 434/222/84 438/210/84
usemtl Material.117
f 441/231/75 442/203/75 444/204/75 443/232/75
f 443/232/81 444/204/81 448/208/81 447/217/81
f 447/217/77 448/208/77 446/210/77 445/218/77
f 445/218/82 446/210/82 442/214/82 441/235/82
f 443/249/83 447/217/83 445/218/83 441/250/83
f 448/208/84 444/221/84 442/222/84 446/210/84
usemtl Material.118
f 449/231/75 450/203/75 452/204/75 451/232/75
f 451/232/81 452/204/81 456/208/81 455/217/81
f 455/217/77 456/208/77 454/210/77 453/218/77
f 453/218/82 454/210/82 450/214/82 449/235/82
f 451/249/83 455/217/83 453/218/83 449/250/83
f 456/208/84 452/221/84 450/222/84 454/210/84
usemtl Material.119
f 457/231/75 458/203/75 460/204/75 459/232/75
f 459/232/81 460/204/81 464/208/81 463/217/81
f 463/217/77 464/208/77 462/210/77 461/218/77
f 461/218/82 462/210/82 458/214/82 457/235/82
f 459/249/83 463/217/83 461/218/83 457/250/83
f 464/208/84 460/221/84 458/222/84 462/210/84
usemtl Material.120
f 465/231/75 466/203/75 468/204/75 467/232/75
f 467/232/81 468/204/81 472/208/81 471/217/81
f 471/217/77 472/208/77 470/210/77 469/218/77
f 469/218/82 470/210/82 466/214/82 465/235/82
f 467/249/83 471/217/83 469/218/83 465/250/83
f 472/208/84 468/221/84 466/222/84 470/210/84
usemtl Material.121
f 481/231/75 482/203/75 484/204/75 483/232/75
f 483/232/81 484/204/81 488/208/81 487/217/81
f 487/217/77 488/208/77 486/210/77 485/218/77
f 485/218/82 486/210/82 482/214/82 481/235/82
f 483/249/83 487/217/83 485/218/83 481/250/83
f 488/208/84 484/221/84 482/222/84 486/210/84
usemtl Material.122
f 489/231/75 490/203/75 492/204/75 491/232/75
f 491/232/81 492/204/81 496/208/81 495/217/81
f 495/217/77 496/208/77 494/210/77 493/218/77
f 493/218/82 494/210/82 490/214/82 489/235/82
f 491/249/83 495/217/83 493/218/83 489/250/83
f 496/208/84 492/221/84 490/222/84 494/210/84
usemtl Material.123
f 497/231/75 498/203/75 500/204/75 499/232/75
f 499/232/81 500/204/81 504/208/81 503/217/81
f 503/217/77 504/208/77 502/210/77 501/218/77
f 501/218/82 502/210/82 498/214/82 497/235/82
f 499/249/83 503/217/83 501/218/83 497/250/83
f 504/208/84 500/221/84 498/222/84 502/210/84
usemtl Material.124
f 505/231/75 506/203/75 508/204/75 507/232/75
f 507/232/81 508/204/81 512/208/81 511/217/81
f 511/217/77 512/208/77 510/210/77 509/218/77
f 509/218/82 510/210/82 506/214/82 505/235/82
f 507/249/83 511/217/83 509/218/83 505/250/83
f 512/208/84 508/221/84 506/222/84 510/210/84
usemtl Material.125
f 473/231/75 474/203/75 476/204/75 475/232/75
f 475/232/81 476/204/81 480/208/81 479/217/81
f 479/217/77 480/208/77 478/210/77 477/218/77
f 477/218/82 478/210/82 474/214/82 473/235/82
f 475/249/83 479/217/83 477/218/83 473/250/83
f 480/208/84 476/221/84 474/222/84 478/210/84
usemtl Material.126
f 521/231/75 522/203/75 524/204/75 523/232/75
f 523/232/81 524/204/81 528/208/81 527/217/81
f 527/217/77 528/208/77 526/210/77 525/218/77
f 525/218/82 526/210/82 522/214/82 521/235/82
f 523/249/83 527/217/83 525/218/83 521/250/83
f 528/208/84 524/221/84 522/222/84 526/210/84
usemtl Material.127
f 513/231/75 514/203/75 516/204/75 515/232/75
f 515/232/81 516/204/81 520/208/81 519/217/81
f 519/217/77 520/208/77 518/210/77 517/218/77
f 517/218/82 518/210/82 514/214/82 513/235/82
f 515/249/83 519/217/83 517/218/83 513/250/83
f 520/208/84 516/221/84 514/222/84 518/210/84
usemtl Material.128
f 537/231/75 538/203/75 540/204/75 539/232/75
f 539/232/81 540/204/81 544/208/81 543/217/81
f 543/217/77 544/208/77 542/210/77 541/218/77
f 541/218/82 542/210/82 538/214/82 537/235/82
f 539/249/83 543/217/83 541/218/83 537/250/83
f 544/208/84 540/221/84 538/222/84 542/210/84
usemtl Material.129
f 545/231/75 546/203/75 548/204/75 547/232/75
f 547/232/81 548/204/81 552/208/81 551/217/81
f 551/217/77 552/208/77 550/210/77 549/218/77
f 549/218/82 550/210/82 546/214/82 545/235/82
f 547/249/83 551/217/83 549/218/83 545/250/83
f 552/208/84 548/221/84 546/222/84 550/210/84
usemtl Material.130
f 529/231/75 530/203/75 532/204/75 531/232/75
f 531/232/81 532/204/81 536/208/81 535/217/81
f 535/217/77 536/208/77 534/210/77 533/218/77
f 533/218/82 534/210/82 530/214/82 529/235/82
f 531/249/83 535/217/83 533/218/83 529/250/83
f 536/208/84 532/221/84 530/222/84 534/210/84
usemtl Material.131
f 561/231/75 562/203/75 564/204/75 563/232/75
f 563/232/81 564/204/81 568/208/81 567/217/81
f 567/217/77 568/208/77 566/210/77 565/218/77
f 565/218/82 566/210/82 562/214/82 561/235/82
f 563/249/83 567/217/83 565/218/83 561/250/83
f 568/208/84 564/221/84 562/222/84 566/210/84
usemtl Material.132
f 569/231/75 570/203/75 572/204/75 571/232/75
f 571/232/81 572/204/81 576/208/81 575/217/81
f 575/217/77 576/208/77 574/210/77 573/218/77
f 573/218/82 574/210/82 570/214/82 569/235/82
f 571/249/83 575/217/83 573/218/83 569/250/83
f 576/208/84 572/221/84 570/222/84 574/210/84
usemtl Material.133
f 553/231/75 554/203/75 556/204/75 555/232/75
f 555/232/81 556/204/81 560/208/81 559/217/81
f 559/217/77 560/208/77 558/210/77 557/218/77
f 557/218/82 558/210/82 554/214/82 553/235/82
f 555/249/83 559/217/83 557/218/83 553/250/83
f 560/208/84 556/221/84 554/222/84 558/210/84
usemtl Material.134
f 585/231/75 586/203/75 588/204/75 587/232/75
f 587/232/81 588/204/81 592/208/81 591/217/81
f 591/217/77 592/208/77 590/210/77 589/218/77
f 589/218/82 590/210/82 586/214/82 585/235/82
f 587/249/83 591/217/83 589/218/83 585/250/83
f 592/208/84 588/221/84 586/222/84 590/210/84
usemtl Material.135
f 577/231/75 578/203/75 580/204/75 579/232/75
f 579/232/81 580/204/81 584/208/81 583/217/81
f 583/217/77 584/208/77 582/210/77 581/218/77
f 581/218/82 582/210/82 578/214/82 577/235/82
f 579/249/83 583/217/83 581/218/83 577/250/83
f 584/208/84 580/221/84 578/222/84 582/210/84
usemtl Material.136
f 601/231/75 602/203/75 604/204/75 603/232/75
f 603/232/81 604/204/81 608/208/81 607/217/81
f 607/217/77 608/208/77 606/210/77 605/218/77
f 605/218/82 606/210/82 602/214/82 601/235/82
f 603/249/83 607/217/83 605/218/83 601/250/83
f 608/208/84 604/221/84 602/222/84 606/210/84
usemtl Material.137
f 609/231/75 610/203/75 612/204/75 611/232/75
f 611/232/81 612/204/81 616/208/81 615/217/81
f 615/217/77 616/208/77 614/210/77 613/218/77
f 613/218/82 614/210/82 610/214/82 609/235/82
f 611/249/83 615/217/83 613/218/83 609/250/83
f 616/208/84 612/221/84 610/222/84 614/210/84
usemtl Material.138
f 593/231/75 594/203/75 596/204/75 595/232/75
f 595/232/81 596/204/81 600/208/81 599/217/81
f 599/217/77 600/208/77 598/210/77 597/218/77
f 597/218/82 598/210/82 594/214/82 593/235/82
f 595/249/83 599/217/83 597/218/83 593/250/83
f 600/208/84 596/221/84 594/222/84 598/210/84
usemtl Material.139
f 617/231/75 618/203/75 620/204/75 619/232/75
f 619/232/81 620/204/81 624/208/81 623/217/81
f 623/217/77 624/208/77 622/210/77 621/218/77
f 621/218/82 622/210/82 618/214/82 617/235/82
f 619/249/83 623/217/83 621/218/83 617/250/83
f 624/208/84 620/221/84 618/222/84 622/210/84
usemtl Material.140
f 625/231/75 626/203/75 628/204/75 627/232/75
f 627/232/81 628/204/81 632/208/81 631/217/81
f 631/217/77 632/208/77 630/210/77 629/218/77
f 629/218/82 630/210/82 626/214/82 625/235/82
f 627/249/83 631/217/83 629/218/83 625/250/83
f 632/208/84 628/221/84 626/222/84 630/210/84
o Cube.005
v -0.295955 -0.438279 -7.013780
v -0.295955 19.589735 -7.013780
v 0.295955 -0.438279 -7.013780
v 0.295955 19.589735 -7.013780
v -0.295955 -0.438279 0.232119
v -0.295955 19.589735 0.232119
v 0.295955 -0.438279 0.232119
v 0.295955 19.589735 0.232119
v -0.295955 19.075727 -7.013780
v 0.295955 19.075727 -7.013780
v 0.295955 19.075727 0.232119
v -0.295955 19.075727 0.232119
v 0.295955 0.065914 -7.013780
v 0.295955 0.065914 0.232119
v -0.295955 0.065914 0.232119
v -0.295955 0.065914 -7.013780
v 0.295955 -0.438279 -0.262664
v 0.295955 19.589735 -0.262664
v -0.295955 -0.438279 -0.262664
v -0.295955 19.589735 -0.262664
v -0.295955 19.075727 -0.262664
v 0.295955 19.075727 -0.262664
v 0.295955 0.065914 -0.262664
v -0.295955 0.065914 -0.262664
v 0.295955 -0.438279 -6.511003
v -0.295955 19.589735 -6.511003
v -0.295955 19.075727 -6.511003
v -0.295955 0.065914 -6.511003
v 0.295955 19.589735 -6.511002
v -0.295955 -0.438279 -6.511002
v 0.295955 19.075727 -6.511002
v 0.295955 0.065914 -6.511002
v -0.444306 18.863361 -6.508234
v -0.378651 18.941605 -6.508234
v 0.378651 18.172817 -6.508234
v 0.444306 18.251060 -6.508234
v -0.444306 18.863361 -0.255767
v -0.378651 18.941605 -0.255767
v 0.378651 18.172817 -0.255767
v 0.444306 18.251060 -0.255767
v -0.444306 1.106150 -6.508234
v -0.378651 1.184394 -6.508234
v 0.378651 0.415606 -6.508234
v 0.444306 0.493850 -6.508234
v -0.444306 1.106150 -0.255767
v -0.378651 1.184394 -0.255767
v 0.378651 0.415606 -0.255767
v 0.444306 0.493850 -0.255767
v -0.444306 18.091938 -6.508234
v -0.378651 18.170181 -6.508234
v 0.378651 17.401394 -6.508234
v 0.444306 17.479637 -6.508234
v -0.444306 18.091938 -0.255767
v -0.378651 18.170181 -0.255767
v 0.378651 17.401394 -0.255767
v 0.444306 17.479637 -0.255767
v -0.444306 17.306149 -6.508234
v -0.378651 17.384392 -6.508234
v 0.378651 16.615604 -6.508234
v 0.444306 16.693848 -6.508234
v -0.444306 17.306149 -0.255767
v -0.378651 17.384392 -0.255767
v 0.378651 16.615604 -0.255767
v 0.444306 16.693848 -0.255767
v -0.444306 16.606148 -6.508234
v -0.378651 16.684391 -6.508234
v 0.378651 15.915604 -6.508234
v 0.444306 15.993848 -6.508234
v -0.444306 16.606148 -0.255767
v -0.378651 16.684391 -0.255767
v 0.378651 15.915604 -0.255767
v 0.444306 15.993848 -0.255767
v -0.444306 15.906149 -6.508234
v -0.378651 15.984393 -6.508234
v 0.378651 15.215606 -6.508234
v 0.444306 15.293850 -6.508234
v -0.444306 15.906149 -0.255767
v -0.378651 15.984393 -0.255767
v 0.378651 15.215606 -0.255767
v 0.444306 15.293850 -0.255767
v -0.444306 15.206148 -6.508234
v -0.378651 15.284392 -6.508234
v 0.378651 14.515605 -6.508234
v 0.444306 14.593849 -6.508234
v -0.444306 15.206148 -0.255767
v -0.378651 15.284392 -0.255767
v 0.378651 14.515605 -0.255767
v 0.444306 14.593849 -0.255767
v -0.444306 14.506148 -6.508234
v -0.378651 14.584393 -6.508234
v 0.378651 13.815605 -6.508234
v 0.444306 13.893849 -6.508234
v -0.444306 14.506148 -0.255767
v -0.378651 14.584393 -0.255767
v 0.378651 13.815605 -0.255767
v 0.444306 13.893849 -0.255767
v -0.444306 13.806149 -6.508234
v -0.378651 13.884393 -6.508234
v 0.378651 13.115605 -6.508234
v 0.444306 13.193850 -6.508234
v -0.444306 13.806149 -0.255767
v -0.378651 13.884393 -0.255767
v 0.378651 13.115605 -0.255767
v 0.444306 13.193850 -0.255767
v -0.444306 13.106149 -6.508234
v -0.378651 13.184393 -6.508234
v 0.378651 12.415606 -6.508234
v 0.444306 12.493850 -6.508234
v -0.444306 13.106149 -0.255767
v -0.378651 13.184393 -0.255767
v 0.378651 12.415606 -0.255767
v 0.444306 12.493850 -0.255767
v -0.444306 12.406149 -6.508234
v -0.378651 12.484393 -6.508234
v 0.378651 11.715606 -6.508234
v 0.444306 11.793850 -6.508234
v -0.444306 12.406149 -0.255767
v -0.378651 12.484393 -0.255767
v 0.378651 11.715606 -0.255767
v 0.444306 11.793850 -0.255767
v -0.444306 11.706148 -6.508234
v -0.378651 11.784392 -6.508234
v 0.378651 11.015605 -6.508234
v 0.444306 11.093849 -6.508234
v -0.444306 11.706148 -0.255767
v -0.378651 11.784392 -0.255767
v 0.378651 11.015605 -0.255767
v 0.444306 11.093849 -0.255767
v -0.444306 11.006148 -6.508234
v -0.378651 11.084393 -6.508234
v 0.378651 10.315605 -6.508234
v 0.444306 10.393849 -6.508234
v -0.444306 11.006148 -0.255767
v -0.378651 11.084393 -0.255767
v 0.378651 10.315605 -0.255767
v 0.444306 10.393849 -0.255767
v -0.444306 10.306149 -6.508234
v -0.378651 10.384393 -6.508234
v 0.378651 9.615605 -6.508234
v 0.444306 9.693850 -6.508234
v -0.444306 10.306149 -0.255767
v -0.378651 10.384393 -0.255767
v 0.378651 9.615605 -0.255767
v 0.444306 9.693850 -0.255767
v -0.444306 9.606149 -6.508234
v -0.378651 9.684393 -6.508234
v 0.378651 8.915606 -6.508234
v 0.444306 8.993850 -6.508234
v -0.444306 9.606149 -0.255767
v -0.378651 9.684393 -0.255767
v 0.378651 8.915606 -0.255767
v 0.444306 8.993850 -0.255767
v -0.444306 8.906149 -6.508234
v -0.378651 8.984393 -6.508234
v 0.378651 8.215606 -6.508234
v 0.444306 8.293850 -6.508234
v -0.444306 8.906149 -0.255767
v -0.378651 8.984393 -0.255767
v 0.378651 8.215606 -0.255767
v 0.444306 8.293850 -0.255767
v -0.444306 8.206149 -6.508234
v -0.378651 8.284393 -6.508234
v 0.378651 7.515606 -6.508234
v 0.444306 7.593850 -6.508234
v -0.444306 8.206149 -0.255767
v -0.378651 8.284393 -0.255767
v 0.378651 7.515606 -0.255767
v 0.444306 7.593850 -0.255767
v -0.444306 7.506148 -6.508234
v -0.378651 7.584393 -6.508234
v 0.378651 6.815605 -6.508234
v 0.444306 6.893849 -6.508234
v -0.444306 7.506148 -0.255767
v -0.378651 7.584393 -0.255767
v 0.378651 6.815605 -0.255767
v 0.444306 6.893849 -0.255767
v -0.444306 6.806149 -6.508234
v -0.378651 6.884393 -6.508234
v 0.378651 6.115605 -6.508234
v 0.444306 6.193850 -6.508234
v -0.444306 6.806149 -0.255767
v -0.378651 6.884393 -0.255767
v 0.378651 6.115605 -0.255767
v 0.444306 6.193850 -0.255767
v -0.444306 6.006148 -6.508234
v -0.378651 6.084393 -6.508234
v 0.378651 5.315605 -6.508234
v 0.444306 5.393849 -6.508234
v -0.444306 6.006148 -0.255767
v -0.378651 6.084393 -0.255767
v 0.378651 5.315605 -0.255767
v 0.444306 5.393849 -0.255767
v -0.444306 5.306149 -6.508234
v -0.378651 5.384393 -6.508234
v 0.378651 4.615605 -6.508234
v 0.444306 4.693850 -6.508234
v -0.444306 5.306149 -0.255767
v -0.378651 5.384393 -0.255767
v 0.378651 4.615605 -0.255767
v 0.444306 4.693850 -0.255767
v -0.444306 4.606150 -6.508234
v -0.378651 4.684393 -6.508234
v 0.378651 3.915606 -6.508234
v 0.444306 3.993850 -6.508234
v -0.444306 4.606150 -0.255767
v -0.378651 4.684393 -0.255767
v 0.378651 3.915606 -0.255767
v 0.444306 3.993850 -0.255767
v -0.444306 3.906149 -6.508234
v -0.378651 3.984393 -6.508234
v 0.378651 3.215606 -6.508234
v 0.444306 3.293850 -6.508234
v -0.444306 3.906149 -0.255767
v -0.378651 3.984393 -0.255767
v 0.378651 3.215606 -0.255767
v 0.444306 3.293850 -0.255767
v -0.444306 3.206149 -6.508234
v -0.378651 3.284394 -6.508234
v 0.378651 2.515606 -6.508234
v 0.444306 2.593850 -6.508234
v -0.444306 3.206149 -0.255767
v -0.378651 3.284394 -0.255767
v 0.378651 2.515606 -0.255767
v 0.444306 2.593850 -0.255767
v -0.444306 2.506149 -6.508234
v -0.378651 2.584394 -6.508234
v 0.378651 1.815606 -6.508234
v 0.444306 1.893850 -6.508234
v -0.444306 2.506149 -0.255767
v -0.378651 2.584394 -0.255767
v 0.378651 1.815606 -0.255767
v 0.444306 1.893850 -0.255767
v -0.444306 1.806149 -6.508234
v -0.378651 1.884393 -6.508234
v 0.378651 1.115606 -6.508234
v 0.444306 1.193850 -6.508234
v -0.444306 1.806149 -0.255767
v -0.378651 1.884393 -0.255767
v 0.378651 1.115606 -0.255767
v 0.444306 1.193850 -0.255767
vn -0.0000 -0.0000 -1.0000
vn 1.0000 -0.0000 -0.0000
vn -0.0000 -0.0000 1.0000
vn -1.0000 -0.0000 -0.0000
vn -0.0000 -1.0000 -0.0000
vn -0.0000 1.0000 -0.0000
vn 0.7660 -0.6428 -0.0000
vn -0.7660 0.6428 -0.0000
vn -0.6428 -0.7660 -0.0000
vn 0.6428 0.7660 -0.0000
vt 0.500000 0.000000
vt 0.625000 0.000000
vt 0.625000 0.250000
vt 0.500000 0.250000
vt 0.500000 0.375000
vt 0.625000 0.375000
vt 0.625000 0.500000
vt 0.500000 0.500000
vt 0.625000 0.750000
vt 0.500000 0.750000
vt 0.500000 0.937500
vt 0.625000 0.937500
vt 0.625000 1.000000
vt 0.500000 1.000000
vt 0.250000 0.500000
vt 0.375000 0.500000
vt 0.375000 0.750000
vt 0.250000 0.750000
vt 0.812500 0.500000
vt 0.875000 0.500000
vt 0.875000 0.750000
vt 0.812500 0.750000
vt 0.437500 0.937500
vt 0.437500 1.000000
vt 0.437500 0.500000
vt 0.437500 0.750000
vt 0.437500 0.375000
vt 0.437500 0.000000
vt 0.437500 0.250000
vt 0.375000 0.000000
vt 0.375000 0.250000
vt 0.375000 0.375000
vt 0.375000 0.937500
vt 0.375000 1.000000
vt 0.437500 0.875000
vt 0.375000 0.875000
vt 0.375000 0.312500
vt 0.437500 0.312500
vt 0.000000 0.000000
vt 0.500000 0.875000
vt 0.750000 0.500000
vt 0.750000 0.750000
vt 0.187500 0.500000
vt 0.187500 0.750000
vt 0.625000 0.875000
vt 0.500000 0.312500
vt 0.625000 0.312500
vt 0.125000 0.500000
vt 0.125000 0.750000
s 0
usemtl Material.141
f 641/251/85 634/252/85 636/253/85 642/254/85
f 654/255/86 650/256/86 640/257/86 643/258/86
f 643/258/87 640/257/87 638/259/87 644/260/87
f 659/261/88 658/262/88 634/263/88 641/264/88
f 649/265/89 639/266/89 637/267/89 651/268/89
f 661/269/90 636/270/90 634/271/90 658/272/90
f 660/273/88 659/261/88 641/264/88 648/274/88
f 646/275/87 643/258/87 644/260/87 647/276/87
f 655/277/86 654/255/86 643/258/86 646/275/86
f 648/278/85 641/251/85 642/254/85 645/279/85
f 633/280/85 648/278/85 645/279/85 635/281/85
f 649/282/86 655/277/86 646/275/86 639/266/86
f 639/266/87 646/275/87 647/276/87 637/267/87
f 662/283/88 660/273/88 648/274/88 633/284/88
f 637/267/88 647/276/88 656/285/88 651/286/88
f 657/287/86 664/288/86 655/289/86 649/289/86
f 647/276/88 644/260/88 653/290/88 656/285/88
f 640/257/90 650/291/90 652/292/90 638/259/90
f 657/293/89 649/265/89 651/268/89 662/294/89
f 644/260/88 638/259/88 652/295/88 653/290/88
f 663/296/86 661/297/86 650/256/86 654/255/86
f 642/254/86 636/253/86 661/297/86 663/296/86
f 635/298/89 657/293/89 662/294/89 633/299/89
f 645/279/86 642/254/86 663/296/86 664/288/86
f 635/281/86 645/279/86 664/288/86 657/287/86
f 651/286/88 656/285/88 660/273/88 662/283/88
f 650/291/90 661/269/90 658/272/90 652/292/90
f 653/290/88 652/295/88 658/262/88 659/261/88
f 657/289/87 664/289/87 663/289/87 659/289/87 660/289/87 662/289/87
f 663/289/89 654/255/89 653/290/89 659/289/89
f 653/289/87 656/289/87 651/289/87 649/289/87 655/289/87 654/289/87
f 655/289/90 664/289/90 660/289/90 656/289/90 647/289/90 646/289/90
usemtl Material.142
f 665/280/85 666/252/85 668/253/85 667/281/85
f 667/281/91 668/253/91 672/257/91 671/266/91
f 671/266/87 672/257/87 670/259/87 669/267/87
f 669/267/92 670/259/92 666/263/92 665/284/92
f 667/298/93 671/266/93 669/267/93 665/299/93
f 672/257/94 668/270/94 666/271/94 670/259/94
usemtl Material.143
f 673/280/85 674/252/85 676/253/85 675/281/85
f 675/281/91 676/253/91 680/257/91 679/266/91
f 679/266/87 680/257/87 678/259/87 677/267/87
f 677/267/92 678/259/92 674/263/92 673/284/92
f 675/298/93 679/266/93 677/267/93 673/299/93
f 680/257/94 676/270/94 674/271/94 678/259/94
usemtl Material.144
f 681/280/85 682/252/85 684/253/85 683/281/85
f 683/281/91 684/253/91 688/257/91 687/266/91
f 687/266/87 688/257/87 686/259/87 685/267/87
f 685/267/92 686/259/92 682/263/92 681/284/92
f 683/298/93 687/266/93 685/267/93 681/299/93
f 688/257/94 684/270/94 682/271/94 686/259/94
usemtl Material.145
f 689/280/85 690/252/85 692/253/85 691/281/85
f 691/281/91 692/253/91 696/257/91 695/266/91
f 695/266/87 696/257/87 694/259/87 693/267/87
f 693/267/92 694/259/92 690/263/92 689/284/92
f 691/298/93 695/266/93 693/267/93 689/299/93
f 696/257/94 692/270/94 690/271/94 694/259/94
usemtl Material.146
f 697/280/85 698/252/85 700/253/85 699/281/85
f 699/281/91 700/253/91 704/257/91 703/266/91
f 703/266/87 704/257/87 702/259/87 701/267/87
f 701/267/92 702/259/92 698/263/92 697/284/92
f 699/298/93 703/266/93 701/267/93 697/299/93
f 704/257/94 700/270/94 698/271/94 702/259/94
usemtl Material.147
f 705/280/85 706/252/85 708/253/85 707/281/85
f 707/281/91 708/253/91 712/257/91 711/266/91
f 711/266/87 712/257/87 710/259/87 709/267/87
f 709/267/92 710/259/92 706/263/92 705/284/92
f 707/298/93 711/266/93 709/267/93 705/299/93
f 712/257/94 708/270/94 706/271/94 710/259/94
usemtl Material.148
f 721/280/85 722/252/85 724/253/85 723/281/85
f 723/281/91 724/253/91 728/257/91 727/266/91
f 727/266/87 728/257/87 726/259/87 725/267/87
f 725/267/92 726/259/92 722/263/92 721/284/92
f 723/298/93 727/266/93 725/267/93 721/299/93
f 728/257/94 724/270/94 722/271/94 726/259/94
usemtl Material.149
f 729/280/85 730/252/85 732/253/85 731/281/85
f 731/281/91 732/253/91 736/257/91 735/266/91
f 735/266/87 736/257/87 734/259/87 733/267/87
f 733/267/92 734/259/92 730/263/92 729/284/92
f 731/298/93 735/266/93 733/267/93 729/299/93
f 736/257/94 732/270/94 730/271/94 734/259/94
usemtl Material.150
f 737/280/85 738/252/85 740/253/85 739/281/85
f 739/281/91 740/253/91 744/257/91 743/266/91
f 743/266/87 744/257/87 742/259/87 741/267/87
f 741/267/92 742/259/92 738/263/92 737/284/92
f 739/298/93 743/266/93 741/267/93 737/299/93
f 744/257/94 740/270/94 738/271/94 742/259/94
usemtl Material.151
f 745/280/85 746/252/85 748/253/85 747/281/85
f 747/281/91 748/253/91 752/257/91 751/266/91
f 751/266/87 752/257/87 750/259/87 749/267/87
f 749/267/92 750/259/92 746/263/92 745/284/92
f 747/298/93 751/266/93 749/267/93 745/299/93
f 752/257/94 748/270/94 746/271/94 750/259/94
usemtl Material.152
f 713/280/85 714/252/85 716/253/85 715/281/85
f 715/281/91 716/253/91 720/257/91 719/266/91
f 719/266/87 720/257/87 718/259/87 717/267/87
f 717/267/92 718/259/92 714/263/92 713/284/92
f 715/298/93 719/266/93 717/267/93 713/299/93
f 720/257/94 716/270/94 714/271/94 718/259/94
usemtl Material.153
f 761/280/85 762/252/85 764/253/85 763/281/85
f 763/281/91 764/253/91 768/257/91 767/266/91
f 767/266/87 768/257/87 766/259/87 765/267/87
f 765/267/92 766/259/92 762/263/92 761/284/92
f 763/298/93 767/266/93 765/267/93 761/299/93
f 768/257/94 764/270/94 762/271/94 766/259/94
usemtl Material.154
f 753/280/85 754/252/85 756/253/85 755/281/85
f 755/281/91 756/253/91 760/257/91 759/266/91
f 759/266/87 760/257/87 758/259/87 757/267/87
f 757/267/92 758/259/92 754/263/92 753/284/92
f 755/298/93 759/266/93 757/267/93 753/299/93
f 760/257/94 756/270/94 754/271/94 758/259/94
usemtl Material.155
f 777/280/85 778/252/85 780/253/85 779/281/85
f 779/281/91 780/253/91 784/257/91 783/266/91
f 783/266/87 784/257/87 782/259/87 781/267/87
f 781/267/92 782/259/92 778/263/92 777/284/92
f 779/298/93 783/266/93 781/267/93 777/299/93
f 784/257/94 780/270/94 778/271/94 782/259/94
usemtl Material.156
f 785/280/85 786/252/85 788/253/85 787/281/85
f 787/281/91 788/253/91 792/257/91 791/266/91
f 791/266/87 792/257/87 790/259/87 789/267/87
f 789/267/92 790/259/92 786/263/92 785/284/92
f 787/298/93 791/266/93 789/267/93 785/299/93
f 792/257/94 788/270/94 786/271/94 790/259/94
usemtl Material.157
f 769/280/85 770/252/85 772/253/85 771/281/85
f 771/281/91 772/253/91 776/257/91 775/266/91
f 775/266/87 776/257/87 774/259/87 773/267/87
f 773/267/92 774/259/92 770/263/92 769/284/92
f 771/298/93 775/266/93 773/267/93 769/299/93
f 776/257/94 772/270/94 770/271/94 774/259/94
usemtl Material.158
f 801/280/85 802/252/85 804/253/85 803/281/85
f 803/281/91 804/253/91 808/257/91 807/266/91
f 807/266/87 808/257/87 806/259/87 805/267/87
f 805/267/92 806/259/92 802/263/92 801/284/92
f 803/298/93 807/266/93 805/267/93 801/299/93
f 808/257/94 804/270/94 802/271/94 806/259/94
usemtl Material.159
f 809/280/85 810/252/85 812/253/85 811/281/85
f 811/281/91 812/253/91 816/257/91 815/266/91
f 815/266/87 816/257/87 814/259/87 813/267/87
f 813/267/92 814/259/92 810/263/92 809/284/92
f 811/298/93 815/266/93 813/267/93 809/299/93
f 816/257/94 812/270/94 810/271/94 814/259/94
usemtl Material.160
f 793/280/85 794/252/85 796/253/85 795/281/85
f 795/281/91 796/253/91 800/257/91 799/266/91
f 799/266/87 800/257/87 798/259/87 797/267/87
f 797/267/92 798/259/92 794/263/92 793/284/92
f 795/298/93 799/266/93 797/267/93 793/299/93
f 800/257/94 796/270/94 794/271/94 798/259/94
usemtl Material.161
f 825/280/85 826/252/85 828/253/85 827/281/85
f 827/281/91 828/253/91 832/257/91 831/266/91
f 831/266/87 832/257/87 830/259/87 829/267/87
f 829/267/92 830/259/92 826/263/92 825/284/92
f 827/298/93 831/266/93 829/267/93 825/299/93
f 832/257/94 828/270/94 826/271/94 830/259/94
usemtl Material.162
f 817/280/85 818/252/85 820/253/85 819/281/85
f 819/281/91 820/253/91 824/257/91 823/266/91
f 823/266/87 824/257/87 822/259/87 821/267/87
f 821/267/92 822/259/92 818/263/92 817/284/92
f 819/298/93 823/266/93 821/267/93 817/299/93
f 824/257/94 820/270/94 818/271/94 822/259/94
usemtl Material.163
f 841/280/85 842/252/85 844/253/85 843/281/85
f 843/281/91 844/253/91 848/257/91 847/266/91
f 847/266/87 848/257/87 846/259/87 845/267/87
f 845/267/92 846/259/92 842/263/92 841/284/92
f 843/298/93 847/266/93 845/267/93 841/299/93
f 848/257/94 844/270/94 842/271/94 846/259/94
usemtl Material.164
f 849/280/85 850/252/85 852/253/85 851/281/85
f 851/281/91 852/253/91 856/257/91 855/266/91
f 855/266/87 856/257/87 854/259/87 853/267/87
f 853/267/92 854/259/92 850/263/92 849/284/92
f 851/298/93 855/266/93 853/267/93 849/299/93
f 856/257/94 852/270/94 850/271/94 854/259/94
usemtl Material.165
f 833/280/85 834/252/85 836/253/85 835/281/85
f 835/281/91 836/253/91 840/257/91 839/266/91
f 839/266/87 840/257/87 838/259/87 837/267/87
f 837/267/92 838/259/92 834/263/92 833/284/92
f 835/298/93 839/266/93 837/267/93 833/299/93
f 840/257/94 836/270/94 834/271/94 838/259/94
usemtl Material.166
f 857/280/85 858/252/85 860/253/85 859/281/85
f 859/281/91 860/253/91 864/257/91 863/266/91
f 863/266/87 864/257/87 862/259/87 861/267/87
f 861/267/92 862/259/92 858/263/92 857/284/92
f 859/298/93 863/266/93 861/267/93 857/299/93
f 864/257/94 860/270/94 858/271/94 862/259/94
usemtl Material.167
f 865/280/85 866/252/85 868/253/85 867/281/85
f 867/281/91 868/253/91 872/257/91 871/266/91
f 871/266/87 872/257/87 870/259/87 869/267/87
f 869/267/92 870/259/92 866/263/92 865/284/92
f 867/298/93 871/266/93 869/267/93 865/299/93
f 872/257/94 868/270/94 866/271/94 870/259/94
o Cube.006
v -0.295955 -0.438279 -14.258833
v -0.295955 19.589735 -14.258833
v 0.295955 -0.438279 -14.258833
v 0.295955 19.589735 -14.258833
v -0.295955 -0.438279 -7.012935
v -0.295955 19.589735 -7.012935
v 0.295955 -0.438279 -7.012935
v 0.295955 19.589735 -7.012935
v -0.295955 19.075727 -14.258833
v 0.295955 19.075727 -14.258833
v 0.295955 19.075727 -7.012935
v -0.295955 19.075727 -7.012935
v 0.295955 0.065914 -14.258833
v 0.295955 0.065914 -7.012935
v -0.295955 0.065914 -7.012935
v -0.295955 0.065914 -14.258833
v 0.295955 -0.438279 -7.507718
v 0.295955 19.589735 -7.507718
v -0.295955 -0.438279 -7.507718
v -0.295955 19.589735 -7.507718
v -0.295955 19.075727 -7.507718
v 0.295955 19.075727 -7.507718
v 0.295955 0.065914 -7.507718
v -0.295955 0.065914 -7.507718
v 0.295955 -0.438279 -13.756056
v -0.295955 19.589735 -13.756056
v -0.295955 19.075727 -13.756056
v -0.295955 0.065914 -13.756056
v 0.295955 19.589735 -13.756056
v -0.295955 -0.438279 -13.756056
v 0.295955 19.075727 -13.756056
v 0.295955 0.065914 -13.756056
v -0.444306 18.863361 -13.753288
v -0.378651 18.941605 -13.753288
v 0.378651 18.172817 -13.753288
v 0.444306 18.251060 -13.753288
v -0.444306 18.863361 -7.500821
v -0.378651 18.941605 -7.500821
v 0.378651 18.172817 -7.500821
v 0.444306 18.251060 -7.500821
v -0.444306 1.106150 -13.753288
v -0.378651 1.184394 -13.753288
v 0.378651 0.415606 -13.753288
v 0.444306 0.493850 -13.753288
v -0.444306 1.106150 -7.500821
v -0.378651 1.184394 -7.500821
v 0.378651 0.415606 -7.500821
v 0.444306 0.493850 -7.500821
v -0.444306 18.091938 -13.753288
v -0.378651 18.170181 -13.753288
v 0.378651 17.401394 -13.753288
v 0.444306 17.479637 -13.753288
v -0.444306 18.091938 -7.500821
v -0.378651 18.170181 -7.500821
v 0.378651 17.401394 -7.500821
v 0.444306 17.479637 -7.500821
v -0.444306 17.306149 -13.753288
v -0.378651 17.384392 -13.753288
v 0.378651 16.615604 -13.753288
v 0.444306 16.693848 -13.753288
v -0.444306 17.306149 -7.500821
v -0.378651 17.384392 -7.500821
v 0.378651 16.615604 -7.500821
v 0.444306 16.693848 -7.500821
v -0.444306 16.606148 -13.753288
v -0.378651 16.684391 -13.753288
v 0.378651 15.915604 -13.753288
v 0.444306 15.993848 -13.753288
v -0.444306 16.606148 -7.500821
v -0.378651 16.684391 -7.500821
v 0.378651 15.915604 -7.500821
v 0.444306 15.993848 -7.500821
v -0.444306 15.906149 -13.753288
v -0.378651 15.984393 -13.753288
v 0.378651 15.215606 -13.753288
v 0.444306 15.293850 -13.753288
v -0.444306 15.906149 -7.500821
v -0.378651 15.984393 -7.500821
v 0.378651 15.215606 -7.500821
v 0.444306 15.293850 -7.500821
v -0.444306 15.206148 -13.753288
v -0.378651 15.284392 -13.753288
v 0.378651 14.515605 -13.753288
v 0.444306 14.593849 -13.753288
v -0.444306 15.206148 -7.500821
v -0.378651 15.284392 -7.500821
v 0.378651 14.515605 -7.500821
v 0.444306 14.593849 -7.500821
v -0.444306 14.506148 -13.753288
v -0.378651 14.584393 -13.753288
v 0.378651 13.815605 -13.753288
v 0.444306 13.893849 -13.753288
v -0.444306 14.506148 -7.500821
v -0.378651 14.584393 -7.500821
v 0.378651 13.815605 -7.500821
v 0.444306 13.893849 -7.500821
v -0.444306 13.806149 -13.753288
v -0.378651 13.884393 -13.753288
v 0.378651 13.115605 -13.753288
v 0.444306 13.193850 -13.753288
v -0.444306 13.806149 -7.500821
v -0.378651 13.884393 -7.500821
v 0.378651 13.115605 -7.500821
v 0.444306 13.193850 -7.500821
v -0.444306 13.106149 -13.753288
v -0.378651 13.184393 -13.753288
v 0.378651 12.415606 -13.753288
v 0.444306 12.493850 -13.753288
v -0.444306 13.106149 -7.500821
v -0.378651 13.184393 -7.500821
v 0.378651 12.415606 -7.500821
v 0.444306 12.493850 -7.500821
v -0.444306 12.406149 -13.753288
v -0.378651 12.484393 -13.753288
v 0.378651 11.715606 -13.753288
v 0.444306 11.793850 -13.753288
v -0.444306 12.406149 -7.500821
v -0.378651 12.484393 -7.500821
v 0.378651 11.715606 -7.500821
v 0.444306 11.793850 -7.500821
v -0.444306 11.706148 -13.753288
v -0.378651 11.784392 -13.753288
v 0.378651 11.015605 -13.753288
v 0.444306 11.093849 -13.753288
v -0.444306 11.706148 -7.500821
v -0.378651 11.784392 -7.500821
v 0.378651 11.015605 -7.500821
v 0.444306 11.093849 -7.500821
v -0.444306 11.006148 -13.753288
v -0.378651 11.084393 -13.753288
v 0.378651 10.315605 -13.753288
v 0.444306 10.393849 -13.753288
v -0.444306 11.006148 -7.500821
v -0.378651 11.084393 -7.500821
v 0.378651 10.315605 -7.500821
v 0.444306 10.393849 -7.500821
v -0.444306 10.306149 -13.753288
v -0.378651 10.384393 -13.753288
v 0.378651 9.615605 -13.753288
v 0.444306 9.693850 -13.753288
v -0.444306 10.306149 -7.500821
v -0.378651 10.384393 -7.500821
v 0.378651 9.615605 -7.500821
v 0.444306 9.693850 -7.500821
v -0.444306 9.606149 -13.753288
v -0.378651 9.684393 -13.753288
v 0.378651 8.915606 -13.753288
v 0.444306 8.993850 -13.753288
v -0.444306 9.606149 -7.500821
v -0.378651 9.684393 -7.500821
v 0.378651 8.915606 -7.500821
v 0.444306 8.993850 -7.500821
v -0.444306 8.906149 -13.753288
v -0.378651 8.984393 -13.753288
v 0.378651 8.215606 -13.753288
v 0.444306 8.293850 -13.753288
v -0.444306 8.906149 -7.500821
v -0.378651 8.984393 -7.500821
v 0.378651 8.215606 -7.500821
v 0.444306 8.293850 -7.500821
v -0.444306 8.206149 -13.753288
v -0.378651 8.284393 -13.753288
v 0.378651 7.515606 -13.753288
v 0.444306 7.593850 -13.753288
v -0.444306 8.206149 -7.500821
v -0.378651 8.284393 -7.500821
v 0.378651 7.515606 -7.500821
v 0.444306 7.593850 -7.500821
v -0.444306 7.506148 -13.753288
v -0.378651 7.584393 -13.753288
v 0.378651 6.815605 -13.753288
v 0.444306 6.893849 -13.753288
v -0.444306 7.506148 -7.500821
v -0.378651 7.584393 -7.500821
v 0.378651 6.815605 -7.500821
v 0.444306 6.893849 -7.500821
v -0.444306 6.806149 -13.753288
v -0.378651 6.884393 -13.753288
v 0.378651 6.115605 -13.753288
v 0.444306 6.193850 -13.753288
v -0.444306 6.806149 -7.500821
v -0.378651 6.884393 -7.500821
v 0.378651 6.115605 -7.500821
v 0.444306 6.193850 -7.500821
v -0.444306 6.006148 -13.753288
v -0.378651 6.084393 -13.753288
v 0.378651 5.315605 -13.753288
v 0.444306 5.393849 -13.753288
v -0.444306 6.006148 -7.500821
v -0.378651 6.084393 -7.500821
v 0.378651 5.315605 -7.500821
v 0.444306 5.393849 -7.500821
v -0.444306 5.306149 -13.753288
v -0.378651 5.384393 -13.753288
v 0.378651 4.615605 -13.753288
v 0.444306 4.693850 -13.753288
v -0.444306 5.306149 -7.500821
v -0.378651 5.384393 -7.500821
v 0.378651 4.615605 -7.500821
v 0.444306 4.693850 -7.500821
v -0.444306 4.606150 -13.753288
v -0.378651 4.684393 -13.753288
v 0.378651 3.915606 -13.753288
v 0.444306 3.993850 -13.753288
v -0.444306 4.606150 -7.500821
v -0.378651 4.684393 -7.500821
v 0.378651 3.915606 -7.500821
v 0.444306 3.993850 -7.500821
v -0.444306 3.906149 -13.753288
v -0.378651 3.984393 -13.753288
v 0.378651 3.215606 -13.753288
v 0.444306 3.293850 -13.753288
v -0.444306 3.906149 -7.500821
v -0.378651 3.984393 -7.500821
v 0.378651 3.215606 -7.500821
v 0.444306 3.293850 -7.500821
v -0.444306 3.206149 -13.753288
v -0.378651 3.284394 -13.753288
v 0.378651 2.515606 -13.753288
v 0.444306 2.593850 -13.753288
v -0.444306 3.206149 -7.500821
v -0.378651 3.284394 -7.500821
v 0.378651 2.515606 -7.500821
v 0.444306 2.593850 -7.500821
v -0.444306 2.506149 -13.753288
v -0.378651 2.584394 -13.753288
v 0.378651 1.815606 -13.753288
v 0.444306 1.893850 -13.753288
v -0.444306 2.506149 -7.500821
v -0.378651 2.584394 -7.500821
v 0.378651 1.815606 -7.500821
v 0.444306 1.893850 -7.500821
v -0.444306 1.806149 -13.753288
v -0.378651 1.884393 -13.753288
v 0.378651 1.115606 -13.753288
v 0.444306 1.193850 -13.753288
v -0.444306 1.806149 -7.500821
v -0.378651 1.884393 -7.500821
v 0.378651 1.115606 -7.500821
v 0.444306 1.193850 -7.500821
vn -0.0000 -0.0000 -1.0000
vn 1.0000 -0.0000 -0.0000
vn -0.0000 -0.0000 1.0000
vn -1.0000 -0.0000 -0.0000
vn -0.0000 -1.0000 -0.0000
vn -0.0000 1.0000 -0.0000
vn 0.7660 -0.6428 -0.0000
vn -0.7660 0.6428 -0.0000
vn -0.6428 -0.7660 -0.0000
vn 0.6428 0.7660 -0.0000
vt 0.500000 0.000000
vt 0.625000 0.000000
vt 0.625000 0.250000
vt 0.500000 0.250000
vt 0.500000 0.375000
vt 0.625000 0.375000
vt 0.625000 0.500000
vt 0.500000 0.500000
vt 0.625000 0.750000
vt 0.500000 0.750000
vt 0.500000 0.937500
vt 0.625000 0.937500
vt 0.625000 1.000000
vt 0.500000 1.000000
vt 0.250000 0.500000
vt 0.375000 0.500000
vt 0.375000 0.750000
vt 0.250000 0.750000
vt 0.812500 0.500000
vt 0.875000 0.500000
vt 0.875000 0.750000
vt 0.812500 0.750000
vt 0.437500 0.937500
vt 0.437500 1.000000
vt 0.437500 0.500000
vt 0.437500 0.750000
vt 0.437500 0.375000
vt 0.437500 0.000000
vt 0.437500 0.250000
vt 0.375000 0.000000
vt 0.375000 0.250000
vt 0.375000 0.375000
vt 0.375000 0.937500
vt 0.375000 1.000000
vt 0.437500 0.875000
vt 0.375000 0.875000
vt 0.375000 0.312500
vt 0.437500 0.312500
vt 0.000000 0.000000
vt 0.500000 0.875000
vt 0.750000 0.500000
vt 0.750000 0.750000
vt 0.187500 0.500000
vt 0.187500 0.750000
vt 0.625000 0.875000
vt 0.500000 0.312500
vt 0.625000 0.312500
vt 0.125000 0.500000
vt 0.125000 0.750000
s 0
usemtl Material.168
f 881/300/95 874/301/95 876/302/95 882/303/95
f 894/304/96 890/305/96 880/306/96 883/307/96
f 883/307/97 880/306/97 878/308/97 884/309/97
f 899/310/98 898/311/98 874/312/98 881/313/98
f 889/314/99 879/315/99 877/316/99 891/317/99
f 901/318/100 876/319/100 874/320/100 898/321/100
f 900/322/98 899/310/98 881/313/98 888/323/98
f 886/324/97 883/307/97 884/309/97 887/325/97
f 895/326/96 894/304/96 883/307/96 886/324/96
f 888/327/95 881/300/95 882/303/95 885/328/95
f 873/329/95 888/327/95 885/328/95 875/330/95
f 889/331/96 895/326/96 886/324/96 879/315/96
f 879/315/97 886/324/97 887/325/97 877/316/97
f 902/332/98 900/322/98 888/323/98 873/333/98
f 877/316/98 887/325/98 896/334/98 891/335/98
f 897/336/96 904/337/96 895/338/96 889/338/96
f 887/325/98 884/309/98 893/339/98 896/334/98
f 880/306/100 890/340/100 892/341/100 878/308/100
f 897/342/99 889/314/99 891/317/99 902/343/99
f 884/309/98 878/308/98 892/344/98 893/339/98
f 903/345/96 901/346/96 890/305/96 894/304/96
f 882/303/96 876/302/96 901/346/96 903/345/96
f 875/347/99 897/342/99 902/343/99 873/348/99
f 885/328/96 882/303/96 903/345/96 904/337/96
f 875/330/96 885/328/96 904/337/96 897/336/96
f 891/335/98 896/334/98 900/322/98 902/332/98
f 890/340/100 901/318/100 898/321/100 892/341/100
f 893/339/98 892/344/98 898/311/98 899/310/98
f 897/338/97 904/338/97 903/338/97 899/338/97 900/338/97 902/338/97
f 903/338/99 894/304/99 893/339/99 899/338/99
f 893/338/97 896/338/97 891/338/97 889/338/97 895/338/97 894/338/97
f 895/338/100 904/338/100 900/338/100 896/338/100 887/338/100 886/338/100
usemtl Material.169
f 905/329/95 906/301/95 908/302/95 907/330/95
f 907/330/101 908/302/101 912/306/101 911/315/101
f 911/315/97 912/306/97 910/308/97 909/316/97
f 909/316/102 910/308/102 906/312/102 905/333/102
f 907/347/103 911/315/103 909/316/103 905/348/103
f 912/306/104 908/319/104 906/320/104 910/308/104
usemtl Material.170
f 913/329/95 914/301/95 916/302/95 915/330/95
f 915/330/101 916/302/101 920/306/101 919/315/101
f 919/315/97 920/306/97 918/308/97 917/316/97
f 917/316/102 918/308/102 914/312/102 913/333/102
f 915/347/103 919/315/103 917/316/103 913/348/103
f 920/306/104 916/319/104 914/320/104 918/308/104
usemtl Material.171
f 921/329/95 922/301/95 924/302/95 923/330/95
f 923/330/101 924/302/101 928/306/101 927/315/101
f 927/315/97 928/306/97 926/308/97 925/316/97
f 925/316/102 926/308/102 922/312/102 921/333/102
f 923/347/103 927/315/103 925/316/103 921/348/103
f 928/306/104 924/319/104 922/320/104 926/308/104
usemtl Material.172
f 929/329/95 930/301/95 932/302/95 931/330/95
f 931/330/101 932/302/101 936/306/101 935/315/101
f 935/315/97 936/306/97 934/308/97 933/316/97
f 933/316/102 934/308/102 930/312/102 929/333/102
f 931/347/103 935/315/103 933/316/103 929/348/103
f 936/306/104 932/319/104 930/320/104 934/308/104
usemtl Material.173
f 937/329/95 938/301/95 940/302/95 939/330/95
f 939/330/101 940/302/101 944/306/101 943/315/101
f 943/315/97 944/306/97 942/308/97 941/316/97
f 941/316/102 942/308/102 938/312/102 937/333/102
f 939/347/103 943/315/103 941/316/103 937/348/103
f 944/306/104 940/319/104 938/320/104 942/308/104
usemtl Material.174
f 945/329/95 946/301/95 948/302/95 947/330/95
f 947/330/101 948/302/101 952/306/101 951/315/101
f 951/315/97 952/306/97 950/308/97 949/316/97
f 949/316/102 950/308/102 946/312/102 945/333/102
f 947/347/103 951/315/103 949/316/103 945/348/103
f 952/306/104 948/319/104 946/320/104 950/308/104
usemtl Material.175
f 961/329/95 962/301/95 964/302/95 963/330/95
f 963/330/101 964/302/101 968/306/101 967/315/101
f 967/315/97 968/306/97 966/308/97 965/316/97
f 965/316/102 966/308/102 962/312/102 961/333/102
f 963/347/103 967/315/103 965/316/103 961/348/103
f 968/306/104 964/319/104 962/320/104 966/308/104
usemtl Material.176
f 969/329/95 970/301/95 972/302/95 971/330/95
f 971/330/101 972/302/101 976/306/101 975/315/101
f 975/315/97 976/306/97 974/308/97 973/316/97
f 973/316/102 974/308/102 970/312/102 969/333/102
f 971/347/103 975/315/103 973/316/103 969/348/103
f 976/306/104 972/319/104 970/320/104 974/308/104
usemtl Material.177
f 977/329/95 978/301/95 980/302/95 979/330/95
f 979/330/101 980/302/101 984/306/101 983/315/101
f 983/315/97 984/306/97 982/308/97 981/316/97
f 981/316/102 982/308/102 978/312/102 977/333/102
f 979/347/103 983/315/103 981/316/103 977/348/103
f 984/306/104 980/319/104 978/320/104 982/308/104
usemtl Material.178
f 985/329/95 986/301/95 988/302/95 987/330/95
f 987/330/101 988/302/101 992/306/101 991/315/101
f 991/315/97 992/306/97 990/308/97 989/316/97
f 989/316/102 990/308/102 986/312/102 985/333/102
f 987/347/103 991/315/103 989/316/103 985/348/103
f 992/306/104 988/319/104 986/320/104 990/308/104
usemtl Material.179
f 953/329/95 954/301/95 956/302/95 955/330/95
f 955/330/101 956/302/101 960/306/101 959/315/101
f 959/315/97 960/306/97 958/308/97 957/316/97
f 957/316/102 958/308/102 954/312/102 953/333/102
f 955/347/103 959/315/103 957/316/103 953/348/103
f 960/306/104 956/319/104 954/320/104 958/308/104
usemtl Material.180
f 1001/329/95 1002/301/95 1004/302/95 1003/330/95
f 1003/330/101 1004/302/101 1008/306/101 1007/315/101
f 1007/315/97 1008/306/97 1006/308/97 1005/316/97
f 1005/316/102 1006/308/102 1002/312/102 1001/333/102
f 1003/347/103 1007/315/103 1005/316/103 1001/348/103
f 1008/306/104 1004/319/104 1002/320/104 1006/308/104
usemtl Material.181
f 993/329/95 994/301/95 996/302/95 995/330/95
f 995/330/101 996/302/101 1000/306/101 999/315/101
f 999/315/97 1000/306/97 998/308/97 997/316/97
f 997/316/102 998/308/102 994/312/102 993/333/102
f 995/347/103 999/315/103 997/316/103 993/348/103
f 1000/306/104 996/319/104 994/320/104 998/308/104
usemtl Material.182
f 1017/329/95 1018/301/95 1020/302/95 1019/330/95
f 1019/330/101 1020/302/101 1024/306/101 1023/315/101
f 1023/315/97 1024/306/97 1022/308/97 1021/316/97
f 1021/316/102 1022/308/102 1018/312/102 1017/333/102
f 1019/347/103 1023/315/103 1021/316/103 1017/348/103
f 1024/306/104 1020/319/104 1018/320/104 1022/308/104
usemtl Material.183
f 1025/329/95 1026/301/95 1028/302/95 1027/330/95
f 1027/330/101 1028/302/101 1032/306/101 1031/315/101
f 1031/315/97 1032/306/97 1030/308/97 1029/316/97
f 1029/316/102 1030/308/102 1026/312/102 1025/333/102
f 1027/347/103 1031/315/103 1029/316/103 1025/348/103
f 1032/306/104 1028/319/104 1026/320/104 1030/308/104
usemtl Material.184
f 1009/329/95 1010/301/95 1012/302/95 1011/330/95
f 1011/330/101 1012/302/101 1016/306/101 1015/315/101
f 1015/315/97 1016/306/97 1014/308/97 1013/316/97
f 1013/316/102 1014/308/102 1010/312/102 1009/333/102
f 1011/347/103 1015/315/103 1013/316/103 1009/348/103
f 1016/306/104 1012/319/104 1010/320/104 1014/308/104
usemtl Material.185
f 1041/329/95 1042/301/95 1044/302/95 1043/330/95
f 1043/330/101 1044/302/101 1048/306/101 1047/315/101
f 1047/315/97 1048/306/97 1046/308/97 1045/316/97
f 1045/316/102 1046/308/102 1042/312/102 1041/333/102
f 1043/347/103 1047/315/103 1045/316/103 1041/348/103
f 1048/306/104 1044/319/104 1042/320/104 1046/308/104
usemtl Material.186
f 1049/329/95 1050/301/95 1052/302/95 1051/330/95
f 1051/330/101 1052/302/101 1056/306/101 1055/315/101
f 1055/315/97 1056/306/97 1054/308/97 1053/316/97
f 1053/316/102 1054/308/102 1050/312/102 1049/333/102
f 1051/347/103 1055/315/103 1053/316/103 1049/348/103
f 1056/306/104 1052/319/104 1050/320/104 1054/308/104
usemtl Material.187
f 1033/329/95 1034/301/95 1036/302/95 1035/330/95
f 1035/330/101 1036/302/101 1040/306/101 1039/315/101
f 1039/315/97 1040/306/97 1038/308/97 1037/316/97
f 1037/316/102 1038/308/102 1034/312/102 1033/333/102
f 1035/347/103 1039/315/103 1037/316/103 1033/348/103
f 1040/306/104 1036/319/104 1034/320/104 1038/308/104
usemtl Material.188
f 1065/329/95 1066/301/95 1068/302/95 1067/330/95
f 1067/330/101 1068/302/101 1072/306/101 1071/315/101
f 1071/315/97 1072/306/97 1070/308/97 1069/316/97
f 1069/316/102 1070/308/102 1066/312/102 1065/333/102
f 1067/347/103 1071/315/103 1069/316/103 1065/348/103
f 1072/306/104 1068/319/104 1066/320/104 1070/308/104
usemtl Material.189
f 1057/329/95 1058/301/95 1060/302/95 1059/330/95
f 1059/330/101 1060/302/101 1064/306/101 1063/315/101
f 1063/315/97 1064/306/97 1062/308/97 1061/316/97
f 1061/316/102 1062/308/102 1058/312/102 1057/333/102
f 1059/347/103 1063/315/103 1061/316/103 1057/348/103
f 1064/306/104 1060/319/104 1058/320/104 1062/308/104
usemtl Material.190
f 1081/329/95 1082/301/95 1084/302/95 1083/330/95
f 1083/330/101 1084/302/101 1088/306/101 1087/315/101
f 1087/315/97 1088/306/97 1086/308/97 1085/316/97
f 1085/316/102 1086/308/102 1082/312/102 1081/333/102
f 1083/347/103 1087/315/103 1085/316/103 1081/348/103
f 1088/306/104 1084/319/104 1082/320/104 1086/308/104
usemtl Material.191
f 1089/329/95 1090/301/95 1092/302/95 1091/330/95
f 1091/330/101 1092/302/101 1096/306/101 1095/315/101
f 1095/315/97 1096/306/97 1094/308/97 1093/316/97
f 1093/316/102 1094/308/102 1090/312/102 1089/333/102
f 1091/347/103 1095/315/103 1093/316/103 1089/348/103
f 1096/306/104 1092/319/104 1090/320/104 1094/308/104
usemtl Material.192
f 1073/329/95 1074/301/95 1076/302/95 1075/330/95
f 1075/330/101 1076/302/101 1080/306/101 1079/315/101
f 1079/315/97 1080/306/97 1078/308/97 1077/316/97
f 1077/316/102 1078/308/102 1074/312/102 1073/333/102
f 1075/347/103 1079/315/103 1077/316/103 1073/348/103
f 1080/306/104 1076/319/104 1074/320/104 1078/308/104
usemtl Material.193
f 1097/329/95 1098/301/95 1100/302/95 1099/330/95
f 1099/330/101 1100/302/101 1104/306/101 1103/315/101
f 1103/315/97 1104/306/97 1102/308/97 1101/316/97
f 1101/316/102 1102/308/102 1098/312/102 1097/333/102
f 1099/347/103 1103/315/103 1101/316/103 1097/348/103
f 1104/306/104 1100/319/104 1098/320/104 1102/308/104
usemtl Material.194
f 1105/329/95 1106/301/95 1108/302/95 1107/330/95
f 1107/330/101 1108/302/101 1112/306/101 1111/315/101
f 1111/315/97 1112/306/97 1110/308/97 1109/316/97
f 1109/316/102 1110/308/102 1106/312/102 1105/333/102
f 1107/347/103 1111/315/103 1109/316/103 1105/348/103
f 1112/306/104 1108/319/104 1106/320/104 1110/308/104
o Cube.009
v -0.456944 -0.282105 -14.657890
v -0.456944 20.765366 -14.657890
v -0.337567 -0.282105 -14.657890
v -0.337567 20.765366 -14.657890
v -0.456944 -0.282105 14.657890
v -0.456944 20.765366 14.657890
v -0.337567 -0.282105 14.657890
v -0.337567 20.765366 14.657890
vn -0.0000 -0.0000 -1.0000
vn 1.0000 -0.0000 -0.0000
vn -0.0000 -0.0000 1.0000
vn -1.0000 -0.0000 -0.0000
vn -0.0000 -1.0000 -0.0000
vn -0.0000 1.0000 -0.0000
vt 0.375000 0.000000
vt 0.625000 0.000000
vt 0.625000 0.250000
vt 0.375000 0.250000
vt 0.625000 0.500000
vt 0.375000 0.500000
vt 0.625000 0.750000
vt 0.375000 0.750000
vt 0.625000 1.000000
vt 0.375000 1.000000
vt 0.125000 0.500000
vt 0.125000 0.750000
vt 0.875000 0.500000
vt 0.875000 0.750000
s 0
usemtl Material.195
f 1113/349/105 1114/350/105 1116/351/105 1115/352/105
f 1115/352/106 1116/351/106 1120/353/106 1119/354/106
f 1119/354/107 1120/353/107 1118/355/107 1117/356/107
f 1117/356/108 1118/355/108 1114/357/108 1113/358/108
f 1115/359/109 1119/354/109 1117/356/109 1113/360/109
f 1120/353/110 1116/361/110 1114/362/110 1118/355/110
o Cube.010
v 0.115924 6.430285 7.119624
v 0.115924 7.569715 7.119624
v 0.488305 6.430285 7.119624
v 0.488305 7.569715 7.119624
v 0.115924 6.430285 7.782099
v 0.115924 7.569715 7.782099
v 0.488305 6.430285 7.782099
v 0.488305 7.569715 7.782099
vn -0.0000 -0.0000 -1.0000
vn 1.0000 -0.0000 -0.0000
vn -0.0000 -0.0000 1.0000
vn -1.0000 -0.0000 -0.0000
vn -0.0000 -1.0000 -0.0000
vn -0.0000 1.0000 -0.0000
vt 0.375000 0.000000
vt 0.625000 0.000000
vt 0.625000 0.250000
vt 0.375000 0.250000
vt 0.625000 0.500000
vt 0.375000 0.500000
vt 0.625000 0.750000
vt 0.375000 0.750000
vt 0.625000 1.000000
vt 0.375000 1.000000
vt 0.125000 0.500000
vt 0.125000 0.750000
vt 0.875000 0.500000
vt 0.875000 0.750000
s 0
usemtl Material.196
f 1121/363/111 1122/364/111 1124/365/111 1123/366/111
f 1123/366/112 1124/365/112 1128/367/112 1127/368/112
f 1127/368/113 1128/367/113 1126/369/113 1125/370/113
f 1125/370/114 1126/369/114 1122/371/114 1121/372/114
f 1123/373/115 1127/368/115 1125/370/115 1121/374/115
f 1128/367/116 1124/375/116 1122/376/116 1126/369/116
o Cube.011
v 0.115924 6.430285 -7.356468
v 0.115924 7.569715 -7.356468
v 0.488305 6.430285 -7.356468
v 0.488305 7.569715 -7.356468
v 0.115924 6.430285 -6.693993
v 0.115924 7.569715 -6.693993
v 0.488305 6.430285 -6.693993
v 0.488305 7.569715 -6.693993
vn -0.0000 -0.0000 -1.0000
vn 1.0000 -0.0000 -0.0000
vn -0.0000 -0.0000 1.0000
vn -1.0000 -0.0000 -0.0000
vn -0.0000 -1.0000 -0.0000
vn -0.0000 1.0000 -0.0000
vt 0.375000 0.000000
vt 0.625000 0.000000
vt 0.625000 0.250000
vt 0.375000 0.250000
vt 0.625000 0.500000
vt 0.375000 0.500000
vt 0.625000 0.750000
vt 0.375000 0.750000
vt 0.625000 1.000000
vt 0.375000 1.000000
vt 0.125000 0.500000
vt 0.125000 0.750000
vt 0.875000 0.500000
vt 0.875000 0.750000
s 0
usemtl Material.197
f 1129/377/117 1130/378/117 1132/379/117 1131/380/117
f 1131/380/118 1132/379/118 1136/381/118 1135/382/118
f 1135/382/119 1136/381/119 1134/383/119 1133/384/119
f 1133/384/120 1134/383/120 1130/385/120 1129/386/120
f 1131/387/121 1135/382/121 1133/384/121 1129/388/121
f 1136/381/122 1132/389/122 1130/390/122 1134/383/122
o Cube.012
v 0.115924 13.849044 7.119624
v 0.115924 14.988475 7.119624
v 0.488305 13.849044 7.119624
v 0.488305 14.988475 7.119624
v 0.115924 13.849044 7.782099
v 0.115924 14.988475 7.782099
v 0.488305 13.849044 7.782099
v 0.488305 14.988475 7.782099
vn -0.0000 -0.0000 -1.0000
vn 1.0000 -0.0000 -0.0000
vn -0.0000 -0.0000 1.0000
vn -1.0000 -0.0000 -0.0000
vn -0.0000 -1.0000 -0.0000
vn -0.0000 1.0000 -0.0000
vt 0.375000 0.000000
vt 0.625000 0.000000
vt 0.625000 0.250000
vt 0.375000 0.250000
vt 0.625000 0.500000
vt 0.375000 0.500000
vt 0.625000 0.750000
vt 0.375000 0.750000
vt 0.625000 1.000000
vt 0.375000 1.000000
vt 0.125000 0.500000
vt 0.125000 0.750000
vt 0.875000 0.500000
vt 0.875000 0.750000
s 0
usemtl Material.198
f 1137/391/123 1138/392/123 1140/393/123 1139/394/123
f 1139/394/124 1140/393/124 1144/395/124 1143/396/124
f 1143/396/125 1144/395/125 1142/397/125 1141/398/125
f 1141/398/126 1142/397/126 1138/399/126 1137/400/126
f 1139/401/127 1143/396/127 1141/398/127 1137/402/127
f 1144/395/128 1140/403/128 1138/404/128 1142/397/128
o Cube.013
v 0.115924 13.849044 -7.356468
v 0.115924 14.988475 -7.356468
v 0.488305 13.849044 -7.356468
v 0.488305 14.988475 -7.356468
v 0.115924 13.849044 -6.693993
v 0.115924 14.988475 -6.693993
v 0.488305 13.849044 -6.693993
v 0.488305 14.988475 -6.693993
vn -0.0000 -0.0000 -1.0000
vn 1.0000 -0.0000 -0.0000
vn -0.0000 -0.0000 1.0000
vn -1.0000 -0.0000 -0.0000
vn -0.0000 -1.0000 -0.0000
vn -0.0000 1.0000 -0.0000
vt 0.375000 0.000000
vt 0.625000 0.000000
vt 0.625000 0.250000
vt 0.375000 0.250000
vt 0.625000 0.500000
vt 0.375000 0.500000
vt 0.625000 0.750000
vt 0.375000 0.750000
vt 0.625000 1.000000
vt 0.375000 1.000000
vt 0.125000 0.500000
vt 0.125000 0.750000
vt 0.875000 0.500000
vt 0.875000 0.750000
s 0
usemtl Material.199
f 1145/405/129 1146/406/129 1148/407/129 1147/408/129
f 1147/408/130 1148/407/130 1152/409/130 1151/410/130
f 1151/410/131 1152/409/131 1150/411/131 1149/412/131
f 1149/412/132 1150/411/132 1146/413/132 1145/414/132
f 1147/415/133 1151/410/133 1149/412/133 1145/416/133
f 1152/409/134 1148/417/134 1146/418/134 1150/411/134
