# Blender 4.5.3 LTS
# www.blender.org
mtllib tumba2.mtl
o Cube
v 1.595810 0.979203 0.328794
v -1.595810 0.979203 0.328794
v 1.595810 0.979203 -0.328794
v -1.595810 0.979203 -0.328794
v 1.595810 2.748734 0.328794
v 0.000000 4.518264 0.328794
v 1.576163 3.025549 0.328794
v 1.517706 3.295549 0.328794
v 1.421877 3.552084 0.328794
v 1.291037 3.788837 0.328794
v 1.128408 3.999980 0.328794
v 0.937994 4.180314 0.328794
v 0.724483 4.325397 0.328794
v 0.493132 4.431657 0.328794
v 0.249640 4.496478 0.328794
v 0.000000 4.518264 0.328794
v -1.595810 2.748734 0.328794
v -0.249640 4.496478 0.328794
v -0.493132 4.431657 0.328794
v -0.724483 4.325397 0.328794
v -0.937994 4.180314 0.328794
v -1.128408 3.999980 0.328794
v -1.291037 3.788837 0.328794
v -1.421877 3.552084 0.328794
v -1.517706 3.295549 0.328794
v -1.576163 3.025549 0.328794
v 0.000000 4.518264 -0.328794
v 1.595810 2.748734 -0.328794
v 0.249640 4.496478 -0.328794
v 0.493132 4.431657 -0.328794
v 0.724483 4.325397 -0.328794
v 0.937994 4.180314 -0.328794
v 1.128408 3.999980 -0.328794
v 1.291037 3.788837 -0.328794
v 1.421877 3.552084 -0.328794
v 1.517706 3.295549 -0.328794
v 1.576163 3.025549 -0.328794
v -1.595810 2.748734 -0.328794
v 0.000000 4.518264 -0.328794
v -1.576163 3.025549 -0.328794
v -1.517706 3.295549 -0.328794
v -1.421877 3.552084 -0.328794
v -1.291037 3.788837 -0.328794
v -1.128408 3.999980 -0.328794
v -0.937994 4.180314 -0.328794
v -0.724483 4.325397 -0.328794
v -0.493132 4.431657 -0.328794
v -0.249640 4.496478 -0.328794
vn -0.0000 -1.0000 -0.0000
vn -0.0435 0.9991 -0.0000
vn -0.1730 0.9849 -0.0000
vn -0.3390 0.9408 -0.0000
vn -0.4919 0.8706 -0.0000
vn -0.6274 0.7787 -0.0000
vn -0.7426 0.6697 -0.0000
vn -0.8364 0.5481 -0.0000
vn -0.9087 0.4175 -0.0000
vn -0.9596 0.2812 -0.0000
vn -0.9900 0.1414 -0.0000
vn -0.9994 0.0354 -0.0000
vn 0.0435 0.9991 -0.0000
vn 0.1730 0.9849 -0.0000
vn 0.3390 0.9408 -0.0000
vn 0.4919 0.8706 -0.0000
vn 0.6274 0.7787 -0.0000
vn 0.7426 0.6697 -0.0000
vn 0.8364 0.5481 -0.0000
vn 0.9087 0.4175 -0.0000
vn 0.9596 0.2812 -0.0000
vn 0.9900 0.1414 -0.0000
vn 0.9994 0.0354 -0.0000
vn 1.0000 -0.0000 -0.0000
vn -0.0000 -0.0000 1.0000
vn -1.0000 -0.0000 -0.0000
vn -0.0000 -0.0000 -1.0000
vt 0.596696 0.196538
vt 0.596696 0.386579
vt 0.406656 0.386579
vt 0.406656 0.196538
vt 0.501676 0.576619
vt 0.501676 0.766659
vt 0.486812 0.766659
vt 0.486811 0.575624
vt 0.472313 0.766659
vt 0.472313 0.572665
vt 0.458538 0.766659
vt 0.458538 0.567813
vt 0.445825 0.766659
vt 0.445824 0.561189
vt 0.406656 0.766659
vt 0.430319 0.552955
vt 0.216616 0.576619
vt 0.216616 0.537450
vt 0.422086 0.537450
vt 0.216616 0.524737
vt 0.415462 0.524737
vt 0.216616 0.510961
vt 0.410610 0.510961
vt 0.216616 0.496463
vt 0.407650 0.496463
vt 0.216616 0.481599
vt 0.406656 0.481599
vt 0.516540 0.575624
vt 0.516540 0.766659
vt 0.531039 0.572665
vt 0.531039 0.766659
vt 0.544814 0.567813
vt 0.544814 0.766659
vt 0.557527 0.561189
vt 0.557527 0.766659
vt 0.573032 0.552955
vt 0.596696 0.766659
vt 0.812315 0.551040
vt 0.581266 0.537450
vt 0.802166 0.537450
vt 0.587890 0.524737
vt 0.795542 0.524737
vt 0.592742 0.510961
vt 0.790690 0.510961
vt 0.595701 0.496463
vt 0.787731 0.496463
vt 0.596696 0.481599
vt 0.786736 0.481599
vt 0.786736 0.386579
vt 0.691716 0.576619
vt 0.881756 0.576619
vt 0.216616 0.386579
vt 0.976776 0.386579
vt 0.976776 0.481599
vt 0.975607 0.496463
vt 0.972126 0.510961
vt 0.966420 0.524737
vt 0.958629 0.537450
vt 0.948946 0.548788
vt 0.937608 0.558472
vt 0.924895 0.566262
vt 0.911119 0.571968
vt 0.896621 0.575449
vt 0.866892 0.575449
vt 0.852393 0.571968
vt 0.838618 0.566262
vt 0.825905 0.558472
s 1
usemtl Material
f 3/1/1 1/2/1 2/3/1 4/4/1
f 16/5/2 39/6/2 48/7/3 18/8/3
f 18/8/3 48/7/3 47/9/4 19/10/4
f 19/10/4 47/9/4 46/11/5 20/12/5
f 20/12/5 46/11/5 45/13/6 21/14/6
f 21/14/6 45/13/6 44/15/7 22/16/7
f 22/16/7 44/17/7 43/18/8 23/19/8
f 23/19/8 43/18/8 42/20/9 24/21/9
f 24/21/9 42/20/9 41/22/10 25/23/10
f 25/23/10 41/22/10 40/24/11 26/25/11
f 26/25/11 40/24/11 38/26/12 17/27/12
f 27/6/13 6/5/13 15/28/14 29/29/14
f 29/29/14 15/28/14 14/30/15 30/31/15
f 30/31/15 14/30/15 13/32/16 31/33/16
f 31/33/16 13/32/16 12/34/17 32/35/17
f 32/35/17 12/34/17 11/36/18 33/37/18
f 33/38/18 11/36/18 10/39/19 34/40/19
f 34/40/19 10/39/19 9/41/20 35/42/20
f 35/42/20 9/41/20 8/43/21 36/44/21
f 36/44/21 8/43/21 7/45/22 37/46/22
f 37/46/22 7/45/22 5/47/23 28/48/23
f 3/49/24 28/48/23 5/47/23 1/2/24
f 1/2/25 5/47/25 7/45/25 8/43/25 9/41/25 10/39/25 11/36/25 12/34/25 13/32/25 14/30/25 15/28/25 6/5/25 16/5/25 18/8/25 19/10/25 20/12/25 21/14/25 22/16/25 23/19/25 24/21/25 25/23/25 26/25/25 17/27/25 2/3/25
f 6/50/13 27/51/13 39/51/2 16/50/2
f 2/3/26 17/27/12 38/26/12 4/52/26
f 4/53/27 38/54/27 40/55/27 41/56/27 42/57/27 43/58/27 44/59/27 45/60/27 46/61/27 47/62/27 48/63/27 39/51/27 27/51/27 29/64/27 30/65/27 31/66/27 32/67/27 33/38/27 34/40/27 35/42/27 36/44/27 37/46/27 28/48/27 3/49/27
